<svg width="40" height="85" viewBox="0 0 40 85" fill="none" xmlns="http://www.w3.org/2000/svg">
<g clip-path="url(#clip0_350_2918)">
<path d="M6.75632 3.83589C6.58858 3.31871 6.67249 0.301673 6.67249 0.301673L7.25963 0.129277C7.25963 0.129277 7.63707 3.70662 7.88865 4.43924C8.04745 4.90164 11.6139 8.54002 14.2235 11.1613C15.7487 12.6934 15.8941 12.5094 14.2854 10.7071C14.0805 10.4775 13.8665 10.2409 13.6445 9.99909C11.5614 7.73028 8.83903 5.0381 8.60158 4.43916C8.14023 3.27559 7.72091 0 7.72091 0L12.292 5.30129L20.2601 13.5549C20.2601 13.5549 20.4068 13.9625 20.5591 14.3854L22.5247 16.8521L21.4973 17.3262L20.9632 17.0975C20.9609 17.1142 20.9587 17.1319 20.9564 17.149L20.7414 15.9947L20.655 16.0778L20.7324 18.011C20.5399 18.1656 20.2601 18.2313 20.2601 18.2313L15.018 14.1368L8.85324 7.97354C8.85324 7.97354 6.92406 4.35308 6.75632 3.83589ZM22.7186 14.0398C21.8065 13.6842 21.0674 14.557 21.0674 14.557L22.3255 16.1894C22.3255 16.1894 23.6308 14.3954 22.7186 14.0398ZM24.0239 16.6904C24.4014 16.9328 24.3227 17.3531 24.3227 17.3531C24.3227 17.3531 24.9152 16.991 25.4393 17.1322C25.6659 17.1933 26.1229 17.6108 26.1102 17.7572C26.0683 18.2421 25.9268 18.7108 25.6594 18.8885C25.6594 18.8885 26.0211 19.3573 25.628 19.8745C25.2348 20.3916 25.2348 20.3916 25.2348 20.3916C25.2348 20.3916 25.3606 20.4886 25.3763 21.0381C25.392 21.5876 25.2033 21.8624 25.2033 21.8624C25.2033 21.8624 25.4707 22.0402 25.738 21.9755C25.738 21.9755 26.2253 22.5018 26.9605 22.102C26.9605 22.102 27.2216 21.7223 27.3264 21.0758C27.4312 20.4294 27.3684 19.9121 27.5151 19.8906C27.6071 19.8771 27.6825 20.3284 27.6409 20.9465C27.6162 21.3144 27.4777 21.8095 27.4756 22.1134C27.5975 22.1246 27.7326 22.0979 27.8453 21.9755C28.1284 21.6684 28.8833 19.6643 28.7574 18.5329C28.6317 17.4016 28.6159 17.3046 28.3643 17.1429C28.1127 16.9813 27.9868 17.0298 27.9868 17.0298C27.9868 17.0298 27.5308 16.3995 27.1062 16.3671C27.1062 16.3671 26.6501 15.8984 26.1626 15.7691C25.675 15.6398 25.4706 15.9308 25.4706 15.9308C25.4706 15.9308 25.2662 15.2519 24.6056 15.4136C23.9451 15.5752 23.4105 16.1894 23.3318 16.5126C23.332 16.5126 23.6465 16.448 24.0239 16.6904ZM30.3459 64.0465C31.1008 63.5939 30.3459 62.107 30.8492 61.7191C31.3524 61.3312 30.7862 59.9089 31.2266 59.6503C31.667 59.3916 31.6041 59.1331 31.7299 56.8703C31.8556 54.6075 32.4847 52.862 30.7862 51.1165C29.0877 49.3709 26.4457 50.0175 25.1876 50.0821C23.9295 50.1468 21.9794 56.0299 21.2245 56.0946C20.4696 56.1592 20.7842 57.7755 20.7842 57.7755C19.9665 58.0987 20.6584 59.4564 20.6584 59.4564C19.8407 59.4564 20.1552 61.5898 20.1552 61.5898L19.2745 68.1841C19.2745 68.1841 17.3874 78.0109 16.3808 78.7867C15.3744 79.5625 15.7517 81.1141 15.7517 81.308C15.7517 81.502 17.4502 79.6918 17.9535 79.4978C18.4567 79.3039 20.5326 79.1746 21.0359 81.0494C21.5391 82.9243 23.3005 83.6354 23.4892 83.6354C23.6779 83.6354 24.1811 78.916 24.936 77.0411C25.691 75.1663 29.5911 64.4991 30.3459 64.0465ZM32.7993 54.0042C33.1348 57.6246 31.7929 60.2106 31.7929 60.2106C31.7929 60.2106 31.7929 61.8484 31.4154 62.301C31.038 62.7535 31.4154 62.301 31.5412 63.4647C31.667 64.6284 30.346 65.0809 30.346 65.0809C30.346 65.0809 32.359 65.1456 34.6865 62.107C37.0141 59.0685 36.3221 51.3105 36.3221 51.3105C36.3221 51.3105 35.5672 50.0175 35.3785 49.8882C35.1898 49.7589 32.7365 49.3063 32.7365 49.3063L31.2267 50.1467C31.2267 50.1467 32.544 51.2491 32.7993 54.0042ZM20.0923 55.3834L16.2341 55.4697L15.9406 56.8058C15.9406 56.8058 14.7454 57.0644 15.0599 59.1332C15.3744 61.202 16.5068 62.301 16.5068 62.301V70.6408L17.702 72.5157C17.702 72.5157 19.4633 63.6586 19.3375 62.495C19.2959 62.1103 19.1705 61.506 19.2117 61.0403C19.2951 60.0974 19.6206 59.3271 19.6206 59.3271C19.6206 59.3271 19.1488 57.9694 19.7779 57.3876C20.1548 57.0388 20.0923 55.3834 20.0923 55.3834ZM37.3926 74.7779L36.5119 73.097C36.5119 73.097 34.6666 74.0452 34.5408 74.2607C34.415 74.4762 32.402 76.0278 32.402 76.0278L28.418 76.3725C28.418 76.3725 27.7889 76.976 27.8308 77.7087C27.8728 78.4414 28.7954 78.7 28.7954 78.7C28.7954 78.7 28.5857 79.9499 28.2922 80.2516C27.9986 80.5533 25.734 82.5359 25.4824 82.6652C25.2308 82.7945 25.6502 83.7858 25.7341 83.9582C25.8179 84.1306 30.1794 83.9151 30.1794 83.9151C30.1794 83.9151 33.0731 82.7083 33.8699 82.191C34.6667 81.6738 33.7923 79.4914 33.9956 79.5189C34.4977 79.724 34.8344 80.9843 34.8344 80.9843L35.757 80.3808C35.757 80.3808 36.7635 80.5532 36.9312 80.5532C37.099 80.5532 39.6152 78.8292 39.9507 77.6224C40.2862 76.4157 37.3926 74.7779 37.3926 74.7779ZM32.4847 69.6064C32.1073 69.2185 31.7928 69.2832 31.2266 69.2832C30.6605 69.2832 29.5282 68.1194 29.3395 67.9902C29.1508 67.8609 28.7733 68.7013 28.7733 68.7013L26.5716 75.2956L27.5152 76.2654C27.5152 76.2654 28.2099 75.4984 29.4653 75.231C30.3974 75.0325 31.894 75.3772 32.296 75.1017C33.2396 74.4552 35.3155 72.3218 35.3155 72.3218C35.1752 72.0694 34.8605 71.7856 34.4418 71.491C33.6972 70.7818 32.7127 69.8406 32.4847 69.6064ZM21.4788 82.8618C21.4086 82.7236 21.3261 82.5908 21.2247 82.4717C20.5641 81.6959 20.9416 81.2325 20.2182 80.6831C19.4948 80.1336 18.4883 79.9719 18.4883 79.9719C18.4883 79.9719 17.5915 80.6335 16.7618 81.232C16.7618 81.232 18.0179 82.0083 17.6398 81.9976C16.9471 81.5667 15.9621 81.7778 15.9621 81.7778C15.9307 81.7964 15.9017 81.813 15.8777 81.8253C15.8777 81.8253 15.8565 81.8554 15.8205 81.9074C15.3805 82.3132 14.064 83.5493 14.1164 83.7648C14.1164 83.7648 14.0954 84.9501 14.5568 84.9931C15.0181 85.0361 22.441 84.8638 22.441 84.8638C22.441 84.8638 22.4073 84.0867 22.021 83.5496C21.8923 83.2953 21.7171 83.0464 21.4788 82.8618ZM4.90286 33.2102C4.38211 32.8177 3.93865 32.3142 3.567 31.7802C3.51948 31.7632 3.39038 31.5783 3.39211 31.5194C2.47925 30.0994 2.05933 28.5564 2.05933 28.3274C2.05933 28.1502 2.06106 27.9103 4.23331 26.9947L3.73685 26.3233L3.63196 25.2134L5.14903 24.0763L4.93414 23.9031L3.42233 24.6962C3.42233 24.6962 3.01346 25.903 2.98203 25.9999C2.95061 26.0969 0.0254939 26.0969 0.0254939 26.0969C-0.068867 25.3858 2.06993 24.3837 2.06993 24.3837C2.06993 24.3837 2.06993 23.22 2.10136 22.1533C2.13279 21.0866 3.13933 19.2118 4.14579 18.5329C5.15226 17.8541 8.04595 17.046 10.0274 17.9834C12.009 18.9208 13.5187 21.4099 13.5187 21.4099L13.8781 22.5867L11.9788 22.485L12.0526 22.7044L14.0373 23.1081L14.305 23.9851L12.9211 26.0323L13.9905 27.196C13.9905 27.196 13.4873 27.9611 12.7324 28.252C11.9775 28.5429 11.4429 31.075 11.4429 31.075L10.9396 31.3012L11.0811 28.7466C11.0811 28.7466 10.2902 31.1644 9.96459 31.5921C9.72414 31.9078 9.19985 32.1416 8.64264 32.2743C8.59286 32.3168 8.5279 32.3406 8.45715 32.3348C8.19512 32.3136 7.32669 32.6626 6.51512 33.0357C6.28467 33.1814 6.06549 33.2881 5.86188 33.3468C5.80579 33.3745 5.7506 33.402 5.69775 33.4286C5.66053 33.4473 5.62121 33.4562 5.58241 33.4562C5.52421 33.4562 5.4688 33.4341 5.42279 33.3975C5.22985 33.3857 5.05512 33.3249 4.90286 33.2102ZM2.99542 29.5896L4.40978 28.724C4.37512 28.3653 4.35512 27.8733 4.34452 27.531C3.48782 27.8979 2.7982 28.2392 2.59632 28.3982C2.63587 28.5761 2.76647 29.0268 2.99542 29.5896ZM3.79346 31.1629C4.05609 31.0414 4.55933 30.816 5.53797 30.3886C5.18106 29.985 4.73609 29.4772 4.56083 29.2585L3.21091 30.0847C3.37219 30.432 3.56587 30.8007 3.79346 31.1629ZM5.21294 32.7758C5.32354 32.8591 5.46256 32.8829 5.63872 32.8485C5.65474 32.8453 5.67219 32.8386 5.68858 32.8346C5.85219 32.754 6.07497 32.6467 6.32376 32.532C6.47354 32.4333 6.63015 32.3154 6.79278 32.1792C6.36527 31.7513 6.03294 30.9457 6.03294 30.9457C6.03294 30.9457 5.98677 30.894 5.91256 30.8107C5.25933 31.0959 4.51106 31.425 4.09745 31.6124C4.41519 32.0478 4.78602 32.454 5.21294 32.7758ZM14.4938 52.5388L14.4636 52.5806C14.8456 53.7429 15.5002 54.8016 15.5002 54.8016C15.5002 54.8016 16.069 55.1899 16.8771 54.8281C18.0285 54.8849 21.0496 54.6878 21.2666 54.6507C21.5095 54.6091 22.8848 50.6351 24.1114 49.9503C24.1562 49.9349 24.2007 49.9157 24.2441 49.8881C26.3829 48.5304 30.0944 49.5649 30.0944 49.5649L31.2896 49.177C31.2896 49.177 32.5896 49.2632 31.9186 46.7633C31.3453 44.6278 28.5702 41.2356 27.4592 39.3783C27.3708 40.2105 27.1812 41.1274 26.8232 42.0655C25.5651 45.3626 24.9361 45.6213 24.9361 45.6213C24.9361 45.6213 26.4673 41.8976 26.5087 38.5745C26.5346 36.5014 25.2308 34.3734 24.9151 34.049C24.8122 33.9432 24.7006 33.7931 24.5812 33.613L24.7633 31.1327C24.9652 30.09 25.2818 28.7786 25.628 28.5753C26.2152 28.2305 29.4024 25.5583 29.4024 25.5583C29.4024 25.5583 28.873 25.7251 28.2967 25.71L31.2477 23.6619C31.2477 23.6619 32.1283 22.5413 32.0445 21.3345C31.9606 20.1278 29.1508 18.7485 29.1508 18.7485C29.4863 21.6793 27.8927 22.9292 27.6411 22.9292C27.3895 22.9292 25.3346 22.6275 25.3346 22.6275C25.3346 22.6275 25.4577 23.1933 25.9093 24.3207C25.2683 23.7291 24.7426 23.11 24.8732 22.8862C25.1249 22.4551 20.9311 24.955 20.9311 24.955V25.9032C20.9311 25.9032 21.3714 27.2824 22.0762 28.567C22.4186 29.497 23.062 30.8798 23.6089 32.0084C23.3224 31.5461 23.0122 31.0861 22.6799 30.7121C21.7447 29.6594 20.5327 26.8729 20.5327 26.8729C20.5327 26.8729 19.652 30.8812 18.2681 32.6914C16.8842 34.5016 15.1229 35.7299 15.1229 35.7299L12.7953 37.4108L12.7951 37.4168L12.4237 37.5382L12.4249 37.533C12.5693 37.3848 15.3686 34.5165 15.9406 34.2646C16.5277 34.0059 16.5696 33.6181 17.702 31.851C18.7576 30.2035 19.3756 26.4973 19.4544 26.0026C19.5309 26.0347 19.5983 26.0569 19.652 26.0648C20.2414 26.1513 19.9311 25.3625 20.2594 24.5257L20.8472 24.0929C20.8472 24.0929 22.0969 23.556 22.8602 23.1017C23.8426 22.5168 24.8378 21.8734 24.8732 21.8734C24.9362 21.8734 25.0829 20.9251 24.8732 20.7959C24.6635 20.6666 22.8759 21.9434 22.7764 21.8087C22.6768 21.674 25.1039 20.3217 25.3765 19.7183C25.649 19.1149 25.2297 19.0933 25.2297 19.0933C25.2297 19.0933 21.8241 20.8596 21.7908 20.7527C21.7122 20.4994 24.978 19.0502 25.5652 18.3391C26.1523 17.6279 25.2717 17.3477 25.2717 17.3477C25.2717 17.3477 20.9316 19.5859 20.8893 19.5027C20.8219 19.3706 24.1027 17.5955 24.1027 17.5955C24.0555 16.8359 23.2377 16.8521 23.2377 16.8521L21.4974 17.7141C21.4974 17.7141 20.7635 18.533 20.5329 18.6407C20.3022 18.7484 19.1908 18.0373 19.1908 18.0373C19.1908 18.0373 18.2682 18.8347 18.2053 18.8993C18.2053 18.8993 16.8843 20.4078 16.444 20.8819C16.2971 21.04 16.4252 21.5988 16.7141 22.2639C16.5004 22.4946 16.054 23.0401 16.2238 23.414C16.2755 23.5278 16.4564 23.7295 16.7102 23.9719C16.4371 24.5149 15.7299 25.8779 15.3956 26.1185C14.9762 26.4202 14.4729 27.3253 13.2568 28.3166C12.367 29.0419 11.9938 30.5505 11.8574 31.3086L9.5873 32.6912C9.5873 32.6912 7.48 32.8043 7.16542 33.1276C6.85091 33.4508 4.05158 35.3418 4.86933 37.4753C5.68707 39.6087 8.07752 41.7422 8.20331 42.8412C8.25482 43.2911 8.45527 43.5241 8.73286 43.7402C9.46985 43.7819 10.7491 43.1076 12.7115 39.738C12.7115 39.738 11.1599 44.3497 10.0275 44.7807C10.0043 44.7896 9.98128 44.7958 9.9582 44.8027C10.0447 44.9126 10.1311 45.0311 10.2162 45.1685C10.8823 46.2442 12.1597 47.5043 13.26 48.4743C13.3653 48.7932 13.7965 50.1122 14.1073 51.2479C14.8105 48.7139 15.5983 45.0348 15.5632 41.3542C15.5632 41.3543 16.3809 48.7891 14.4938 52.5388Z" fill="black" fill-opacity="0.87"/>
</g>
<defs>
<clipPath id="clip0_350_2918">
<rect width="40" height="85" fill="white"/>
</clipPath>
</defs>
</svg>
