<svg width="44" height="79" viewBox="0 0 44 79" fill="none" xmlns="http://www.w3.org/2000/svg">
<g clip-path="url(#clip0_353_2932)">
<path d="M4.97328 0.606619C4.92173 0.650794 4.63825 0.730309 4.33758 0.78332C3.65893 0.907011 2.08688 1.67566 1.36528 2.24111C0.738172 2.72703 0.3516 3.31015 0.154019 4.04346C0.0251624 4.53822 0.0165719 4.64425 0.136839 5.32455C0.446096 7.03855 1.3481 8.72605 2.50781 9.74208C2.91156 10.1043 3.21223 10.1573 3.71907 9.98063C4.04551 9.85694 4.15718 9.6714 4.15718 9.20314C4.15718 9.00877 4.19154 8.83207 4.2345 8.79673C4.38053 8.70838 4.5008 9.07062 4.5008 9.57421C4.5008 9.85694 4.54375 10.0955 4.61248 10.1397C4.87019 10.3605 7.75659 10.8376 9.31147 10.926C10.4454 10.9967 10.8835 10.8818 11.0296 10.4754C11.0725 10.3517 11.2615 10.0248 11.4505 9.74208C11.9402 9.0176 11.9487 8.91158 11.5879 8.62886C11.4247 8.49634 11.2873 8.3373 11.2873 8.26662C11.2873 8.19594 11.1928 7.88672 11.0811 7.58632C10.9608 7.2771 10.8492 6.92369 10.8234 6.8C10.7976 6.67631 10.6602 6.42009 10.5141 6.23456C10.1877 5.81047 10.1877 5.63377 10.5399 5.31571L10.8148 5.05066L10.5829 4.80328C10.454 4.67075 10.119 4.39686 9.83549 4.20249C9.44891 3.93744 9.2771 3.7519 9.13966 3.43384C9.03657 3.19529 8.7445 2.81539 8.46101 2.55033C7.94558 2.05557 6.54533 1.24274 6.21889 1.24274C5.944 1.24274 4.52657 1.90537 4.06269 2.24994C3.84792 2.41781 3.60739 2.69169 3.53008 2.85956C3.34968 3.2483 3.34109 3.9286 3.52149 4.4322C3.59021 4.64425 3.68471 5.07716 3.71048 5.39523L3.77061 5.96951L4.20013 6.19922C4.71556 6.4731 5.01623 6.98554 5.01623 7.58632C5.01623 8.03691 4.87878 8.01041 4.79288 7.53331C4.75851 7.35661 4.69838 7.13574 4.65543 7.04738C4.42349 6.58796 2.90297 6.31407 2.64526 6.67631C2.4305 6.96787 2.55935 7.33894 3.04042 7.78069C3.66752 8.36381 3.61598 8.50517 2.93733 8.04575C2.12124 7.48914 2.02674 6.40242 2.78271 6.25223C2.9717 6.20805 3.04042 6.14621 3.04042 6.01368C3.04042 5.90766 3.10055 5.70445 3.17787 5.55426C3.30672 5.30688 3.29813 5.25386 3.09196 4.67075C2.96311 4.33502 2.86861 3.87559 2.86861 3.64588C2.86861 3.15112 3.16928 2.45315 3.52149 2.10858C3.84792 1.79935 4.65543 1.36644 5.23958 1.18973C5.4973 1.11905 5.70347 1.0042 5.70347 0.942351C5.70347 0.880506 5.56602 0.76565 5.4028 0.686134C5.042 0.509433 5.07636 0.518268 4.97328 0.606619Z" fill="black" fill-opacity="0.87"/>
<path d="M14.9379 1.12788C14.6029 1.60497 14.5599 1.97605 14.7747 2.40013C14.8434 2.55033 14.8864 2.69169 14.8606 2.71819C14.7833 2.80654 14.474 2.36479 14.3795 2.03789C14.3108 1.78168 14.328 1.66682 14.5084 1.31342C14.6287 1.07487 14.6888 0.889334 14.6458 0.889334C14.5256 0.889334 14.1304 1.4106 14.0789 1.62264C13.9157 2.46198 13.8899 2.70936 13.9586 2.88606C14.0359 3.11577 14.663 3.9286 15.1613 4.46754C15.3417 4.66191 15.7025 5.05949 15.9516 5.35104C16.9051 6.43776 16.8794 6.66747 15.6338 8.44332C15.2558 8.97342 14.7403 9.73324 14.4912 10.122C14.2421 10.5107 13.9758 10.9171 13.9071 11.032C13.7782 11.2175 13.7267 11.2264 13.1597 11.1645C12.6529 11.1203 12.5584 11.1292 12.5927 11.2352C12.6185 11.3059 12.713 11.5356 12.7989 11.7476L12.9449 12.1364L12.67 12.3926C12.4037 12.64 12.3608 12.6488 11.9398 12.5781C11.3385 12.4809 10.5654 12.4898 10.531 12.5958C10.5138 12.64 10.7028 12.746 10.9605 12.8343C11.5361 13.0376 11.6993 13.1966 11.5447 13.3821C11.476 13.4793 11.287 13.5235 10.9863 13.5235C10.2303 13.5235 10.0843 13.6825 10.4279 14.1419C10.7372 14.5572 10.5568 15.317 10.1187 15.4319C9.98981 15.4672 9.56888 15.4407 9.17371 15.3877C8.63251 15.3082 8.35762 15.3082 8.08272 15.3788C7.58448 15.5202 6.60516 16.1652 6.11551 16.6776C5.23069 17.6141 4.84411 19.3723 5.44545 19.708C5.71175 19.8494 10.8059 19.8229 11.3557 19.6727C12.3866 19.39 13.1253 18.6655 14.4654 16.6334C14.9379 15.9178 15.4534 15.158 15.6166 14.9371C15.797 14.6897 16.278 13.5853 16.8966 11.9773C18.0992 8.88507 18.2023 8.62885 18.3913 8.47866C18.5202 8.3638 18.5287 8.38147 18.4686 8.62002C18.4342 8.76138 18.1422 9.58304 17.8157 10.4312L17.223 11.9773L18.0563 12.1806L18.8895 12.3926L19.4479 12.1894C19.7572 12.0834 20.4358 11.7741 20.9513 11.5091C23.0903 10.4224 24.104 9.61838 24.3703 8.80556C24.5335 8.32846 24.5678 7.69234 24.4304 7.69234C24.293 7.69234 22.6092 8.13409 21.9134 8.3638C21.3808 8.53167 21.0543 8.57584 20.3499 8.57584C19.8603 8.57584 19.362 8.53167 19.2418 8.47866C18.8036 8.26662 18.7091 7.57748 18.9926 6.64096C19.362 5.41289 19.3448 4.49404 18.9325 4.11413C18.838 4.02578 18.6662 3.69005 18.5459 3.35432C18.3226 2.75353 18.1594 2.62984 18.1594 3.06276C18.1594 3.18645 18.2023 3.36315 18.2453 3.46034C18.3655 3.68122 18.3398 3.67238 17.6869 3.37199C16.4069 2.7712 16.3124 2.51499 17.18 1.94954C17.4893 1.75517 17.7298 1.54313 17.7041 1.48128C17.5924 1.12788 16.5615 1.01302 16.0805 1.30458C15.8313 1.45478 15.797 1.52546 15.7884 1.87003C15.7798 2.08207 15.7712 2.32061 15.754 2.39129C15.7282 2.55033 15.5135 1.89653 15.5049 1.63148C15.4877 1.31342 15.7798 1.03953 16.1835 0.986519C16.3897 0.960014 16.5701 0.880497 16.5959 0.818653C16.6217 0.739138 16.4498 0.712631 15.9344 0.712631H15.2386L14.9379 1.12788Z" fill="black" fill-opacity="0.87"/>
<path d="M17.7297 1.90535C17.515 2.0202 17.2315 2.23224 17.1026 2.37361L16.8535 2.63866L17.3346 2.90371L17.8156 3.16876L17.9875 2.83303C18.0734 2.65633 18.2108 2.47963 18.2881 2.45312C18.4428 2.38244 18.4599 1.94069 18.3139 1.79049C18.185 1.65797 18.185 1.65797 17.7297 1.90535Z" fill="black" fill-opacity="0.87"/>
<path d="M25.5219 7.50679C25.1955 7.59514 24.8948 7.71884 24.8519 7.78952C24.8089 7.8602 24.7746 8.08991 24.7746 8.31079C24.7746 8.76137 24.5598 9.28264 24.2248 9.70673C23.7093 10.3252 21.5531 11.6416 19.9897 12.2866C19.0791 12.6665 18.7612 12.7018 18.1513 12.5163C17.9365 12.4456 17.6101 12.3749 17.4297 12.3572L17.0947 12.3307L16.7425 13.2584C16.27 14.4865 16.0037 15.0078 15.557 15.5732C15.0587 16.2093 14.8955 16.4567 14.8955 16.5892C14.8955 16.8366 17.7905 16.5981 18.1943 16.3154C18.2973 16.2447 18.5722 15.9973 18.8042 15.7587C19.2509 15.317 20.1099 14.9106 20.8745 14.7869C21.0549 14.7604 21.3641 14.6455 21.5531 14.5307C22.0943 14.2126 23.3571 13.815 24.4309 13.6295C26.1834 13.3203 27.7039 12.5339 29.1299 11.2087C29.4564 10.8995 29.9117 10.5019 30.1264 10.3163C30.6418 9.88343 30.6848 9.68906 30.4099 9.12361C30.1264 8.54933 29.7828 8.28428 29.0097 8.05457C28.666 7.94855 28.142 7.74534 27.8499 7.60398C27.1971 7.28592 26.4497 7.25941 25.5219 7.50679ZM29.2416 10.387C29.1385 10.5549 28.9409 10.7934 28.7863 10.926C28.4942 11.1822 27.3946 11.7565 27.1971 11.7565C26.9308 11.7565 27.1885 11.5268 27.807 11.1999C28.4685 10.8553 29.3103 10.0513 29.3361 9.74207C29.3447 9.66255 29.3705 9.69789 29.3876 9.83925C29.4134 9.98945 29.3533 10.2015 29.2416 10.387Z" fill="black" fill-opacity="0.87"/>
<path d="M13.9163 9.65371C13.3666 9.93643 13.2463 9.93643 12.456 9.68022L12.035 9.54769L11.6485 9.94527C11.2791 10.3252 11.2705 10.3517 11.3306 10.7228C11.5024 11.7034 11.3736 12.1805 11.0042 11.9332C10.3255 11.4826 10.0678 11.4031 9.25172 11.4031H8.44421L8.20368 11.9508C8.06623 12.2601 7.9116 12.6576 7.86006 12.8432C7.70543 13.3203 7.51644 13.3909 7.11269 13.1082C6.39968 12.6135 5.87566 12.4279 5.04239 12.3926C4.27783 12.3572 4.26065 12.3572 4.11461 12.587C4.02871 12.7106 3.70227 12.958 3.38442 13.1347C1.99277 13.8857 1.27117 14.7957 1.06499 16.0591C0.901775 17.1017 1.09077 17.9675 1.67492 18.8245C1.8725 19.1249 2.24189 19.9466 2.61128 20.9449C2.97208 21.9168 3.41019 22.8975 3.68509 23.3746C3.9428 23.8075 4.28642 24.5231 4.45823 24.9561C5.03379 26.4138 5.60936 27.474 6.19351 28.1102C6.58867 28.5343 6.79484 28.8435 6.91511 29.1969C7.25873 30.2218 7.30168 31.547 7.03538 32.7663C6.86357 33.5349 6.95806 34.0915 7.31886 34.3742C7.58517 34.5951 7.78275 34.5951 8.38408 34.3831C8.65038 34.2859 9.34621 34.1092 9.94755 33.9767C10.5403 33.853 11.176 33.6939 11.3478 33.6233C11.6656 33.5084 11.6656 33.4996 11.4595 33.4377C10.9526 33.2787 9.90459 32.6691 9.66406 32.3775C9.27749 31.9269 9.01118 31.335 8.83938 30.531C8.50435 28.9318 8.20368 28.3045 7.30168 27.3504C6.91511 26.9351 6.66599 26.7496 6.33096 26.6347C6.08183 26.5464 5.87566 26.4403 5.87566 26.405C5.87566 26.2548 6.41686 26.3432 6.80343 26.5552C7.35322 26.8556 7.39618 26.8909 8.04046 27.7656C8.64179 28.5784 8.83078 29.0379 9.09709 30.3543C9.4493 32.0594 10.0678 32.6956 11.8289 33.1727L12.6707 33.4024L14.406 33.0401C16.5794 32.5807 17.6188 32.3775 18.7442 32.2096C19.6806 32.0771 20.2218 31.9446 21.2526 31.6089L21.8969 31.3968L22 30.7872C22.1117 30.1157 22.0429 28.7816 21.7938 26.9528C21.6048 25.5038 20.0843 19.39 19.6634 18.3651C19.4744 17.8968 19.5002 17.6848 19.818 16.9073C20.1444 16.1298 20.3592 15.3965 20.2819 15.3258C20.2561 15.2993 20.0414 15.3347 19.8008 15.423C19.5087 15.5202 19.2424 15.7057 18.959 16.0061C18.7356 16.2535 18.4349 16.5097 18.2975 16.5892C17.8937 16.8101 16.8199 16.9603 15.7032 16.9691H14.6637L14.0194 17.8262C12.7652 19.496 12.0694 19.9466 10.5317 20.0703C9.38058 20.1586 6.62303 20.1586 5.8413 20.0703C5.07675 19.9819 4.8448 19.7522 4.8448 19.0631C4.8448 18.4623 5.04239 17.676 5.32587 17.19C5.64372 16.6246 6.51995 15.8206 7.23296 15.4407C7.96315 15.0431 8.51294 14.9548 9.33762 15.1049C9.9905 15.2198 10.1365 15.1845 10.2396 14.8664C10.2998 14.6809 10.274 14.5395 10.1022 14.2038C9.81869 13.6383 9.91319 13.3909 10.4802 13.2496L10.8839 13.1436L10.5059 13.0022C10.231 12.8962 10.1194 12.799 10.1022 12.6576C10.0335 12.1894 10.5918 12.0303 11.5626 12.2424C12.1123 12.3572 12.1983 12.3572 12.3787 12.2424C12.6192 12.0745 12.6278 11.9685 12.4044 11.6239C12.2154 11.3324 12.1811 11.0055 12.3271 10.9171C12.3701 10.8818 12.6879 10.8553 13.0315 10.8641L13.65 10.873L13.9593 10.3605C14.3287 9.76857 14.4919 9.45934 14.449 9.41516C14.4318 9.39749 14.1912 9.50352 13.9163 9.65371ZM4.14039 17.1459C4.3981 17.6671 4.38092 17.9675 4.06307 18.6478C3.90844 18.9835 3.77959 19.4253 3.75381 19.7169C3.66791 20.6357 4.20911 21.4662 5.17124 21.8726C5.48909 22.014 5.53204 22.1818 5.24856 22.1818C4.99084 22.1818 4.34656 21.7578 4.04589 21.3867C3.61637 20.8654 3.47033 20.4678 3.47033 19.8229C3.47033 19.3104 3.51328 19.1337 3.77099 18.6125C4.14039 17.8438 4.14039 17.7643 3.77099 16.8455C3.62496 16.5009 3.9428 16.7571 4.14039 17.1459ZM11.4852 26.8203C13.6071 30.3278 14.1311 31.2113 14.0796 31.2643C13.9593 31.388 13.6071 30.9462 13.0745 30.0185C12.7309 29.4266 11.9835 28.1632 11.4079 27.209C10.2224 25.2476 10.085 24.9914 10.085 24.7705C10.0936 24.5408 10.2482 24.7705 11.4852 26.8203ZM12.4474 25.8219C13.2033 26.997 14.8957 29.9479 14.8957 30.0804C14.8957 30.1069 14.8441 30.1334 14.7926 30.1334C14.6208 30.1334 11.9749 25.5303 11.9749 25.2299C11.9749 25.1062 12.078 25.2388 12.4474 25.8219Z" fill="black" fill-opacity="0.87"/>
<path d="M4.08882 11.2617C4.106 11.6239 4.14036 11.9508 4.17472 11.9773C4.20908 12.0127 4.63861 12.0745 5.12826 12.1099C6.03026 12.1717 6.39106 12.2954 7.22434 12.8255L7.49064 13.0022L7.60232 12.6665C7.65386 12.4809 7.80849 12.1099 7.94594 11.836C8.0748 11.5621 8.1607 11.3147 8.13493 11.2794C8.10057 11.2529 7.92017 11.2264 7.72259 11.2264C7.52501 11.2264 6.69173 11.085 5.87563 10.9171C5.05954 10.7493 4.31217 10.6079 4.21767 10.6079C4.06304 10.6079 4.05445 10.6609 4.08882 11.2617Z" fill="black" fill-opacity="0.87"/>
<path d="M21.5954 31.7237C21.4837 31.7944 21.4837 31.8209 21.6126 31.9534C21.7758 32.1213 21.939 32.0506 21.939 31.8032C21.939 31.6177 21.8016 31.5912 21.5954 31.7237Z" fill="black" fill-opacity="0.87"/>
<path d="M20.5044 32.298C19.7828 32.4128 19.1987 32.5807 19.0784 32.6956C19.0355 32.7309 19.0269 32.8458 19.0612 32.9518C19.1214 33.155 19.0612 33.155 20.4787 32.8634C20.9254 32.7663 21.3377 32.6426 21.4064 32.5807C21.5267 32.4482 21.458 32.1566 21.3034 32.1743C21.2518 32.1831 20.891 32.2361 20.5044 32.298Z" fill="black" fill-opacity="0.87"/>
<path d="M21.7673 32.6779C21.7673 32.8546 21.3034 33.0136 20.221 33.2257C19.6283 33.3317 19.1386 33.4819 19.0012 33.5791C18.7435 33.7735 18.3827 33.8 18.0219 33.6674C17.8071 33.5791 17.7985 33.5614 17.936 33.4112C18.082 33.2434 18.125 32.8723 17.9961 32.8723C17.9531 32.8723 17.8758 32.9871 17.8329 33.1373C17.7813 33.2787 17.6525 33.4377 17.5408 33.4907C17.0683 33.6939 16.0461 33.8618 14.809 33.9325C13.8383 33.9855 13.0738 34.1004 11.9742 34.3301C11.1409 34.5068 10.0757 34.6746 9.58603 34.7011C9.08778 34.7276 8.67544 34.7983 8.64107 34.8513C8.50363 35.0634 8.28886 36.2208 8.28027 36.7332C8.28027 37.0336 8.35759 37.6344 8.46067 38.0585C8.55517 38.4826 8.64966 39.0745 8.65825 39.3661C8.74416 40.8945 9.99837 43.4125 11.3814 44.7996C11.6477 45.0647 11.8969 45.3474 11.9398 45.4269C11.9828 45.5064 12.4638 45.7361 13.005 45.9482C14.3967 46.4783 14.9465 46.7964 15.5478 47.406C16.1148 47.9803 16.2694 48.3248 16.4842 49.4557C16.6388 50.2774 16.8793 50.8428 17.1628 51.0284C17.3862 51.1785 17.9961 51.1785 18.6146 51.0195C18.7435 50.993 18.8466 51.0018 18.8466 51.046C18.8466 51.1697 18.4428 51.3464 17.9016 51.4613C17.5236 51.5408 17.4205 51.6026 17.4034 51.7528C17.3604 52.0355 17.6181 52.0709 17.8501 51.8058C18.0562 51.5761 18.0734 51.5761 18.417 51.691C18.6833 51.7793 18.7864 51.7882 18.8637 51.7087C19.1215 51.4436 19.3706 51.6026 20.3757 52.6363C20.9255 53.2018 21.6299 53.8644 21.922 54.103C22.2226 54.3503 22.5662 54.6861 22.6779 54.8628C22.7896 55.0395 22.9442 55.2692 23.0215 55.384C23.159 55.5696 23.159 55.6226 23.0129 56.1527C22.9356 56.4708 22.8841 56.8153 22.9184 56.9213C22.9442 57.0362 23.1762 57.3719 23.4339 57.6812C23.7517 58.0522 23.9235 58.3438 23.9665 58.5647C24.0008 58.7414 24.2156 59.3245 24.4475 59.8546C24.6709 60.3847 24.9028 60.9943 24.963 61.2152C25.0661 61.6393 26.0196 62.9645 26.9216 63.9276C27.3082 64.3428 27.437 64.5372 27.48 64.8199C27.5144 65.0584 27.7978 65.6239 28.2703 66.4102C28.6741 67.0905 29.1122 67.8768 29.241 68.1684C29.3699 68.4599 29.5159 68.7957 29.5761 68.9194C29.6276 69.0431 29.8252 69.3346 30.0142 69.5732C30.1946 69.8117 30.4695 70.3418 30.6155 70.7482C30.7616 71.1546 30.9248 71.4815 30.9763 71.4815C31.0279 71.4815 31.2512 71.3667 31.466 71.2253C32.0415 70.8454 32.4968 70.7482 33.3988 70.8101C34.4211 70.8808 35.1599 70.7306 35.3231 70.4213C35.5464 70.0061 35.366 69.582 34.3781 68.2479C33.9228 67.6206 32.3078 64.3251 32.0329 63.4416C31.7752 62.6288 31.277 61.3477 30.6671 59.9341C30.4523 59.4482 30.2204 58.7944 30.143 58.494C30.0657 58.1848 29.7307 57.3808 29.4043 56.7093C28.8373 55.5519 28.8029 55.4459 28.8201 54.9335C28.8373 54.3768 28.6225 52.9544 28.4593 52.5038C28.4078 52.3713 28.3304 52.0709 28.2875 51.8323C28.193 51.3022 27.3511 50.1007 26.2773 48.9521C24.3874 46.9377 21.9563 43.5097 20.9684 41.4776L20.7451 41.0271L21.0801 40.6913C21.4924 40.2761 21.6471 39.8608 21.501 39.5693C21.4409 39.4632 21.2003 39.1629 20.9684 38.8978L20.5303 38.4295L20.642 38.0143C20.8138 37.3958 20.8396 35.832 20.6935 35.3019C20.6248 35.0545 20.4186 34.6216 20.221 34.3477C19.7657 33.6674 19.7829 33.5349 20.2726 34.0208C20.977 34.7365 21.0371 34.922 21.0371 36.5388C21.0371 37.4754 21.0028 38.0143 20.934 38.138C20.8396 38.297 20.8739 38.3589 21.1746 38.6681C21.9649 39.4544 22.0336 39.9668 21.4752 40.709C21.3034 40.9387 21.166 41.1684 21.166 41.2303C21.166 41.5218 23.4425 45.0382 24.3616 46.1691C24.7568 46.655 25.3238 47.3706 25.633 47.7594C25.9337 48.1481 26.4405 48.7224 26.7498 49.0405C27.3254 49.6324 28.004 50.4982 28.3047 51.0195C28.4679 51.3022 28.8974 52.7865 28.8974 53.0604C28.8974 53.1311 28.9404 53.2901 28.9833 53.4227C29.0692 53.6435 29.0864 53.6435 29.2239 53.5198C29.3269 53.4227 29.5159 53.3785 29.7565 53.3873C30.1001 53.405 31.8268 53.1841 32.4367 53.0516C32.5655 53.0251 32.8233 52.8395 32.9951 52.6452C33.1755 52.4508 33.5878 52.1592 33.9314 52.0002C35.1685 51.3906 35.8901 50.1979 35.933 48.6871C35.9588 47.8654 35.7011 47.0879 35.1427 46.2928C34.885 45.9305 34.318 45.0028 33.8713 44.2253C33.1325 42.9354 32.9693 42.7146 31.9041 41.5837C31.2684 40.9122 30.2032 39.8873 29.5417 39.3042C28.528 38.4295 28.15 38.1557 27.145 37.6167C25.6159 36.8039 25.2551 36.5212 24.9802 35.9204C24.8169 35.567 24.6537 35.3726 24.3015 35.1341C23.7431 34.7542 23.4682 34.4007 23.2363 33.7558C23.0387 33.2169 22.9013 33.0932 22.403 33.0048C22.214 32.9695 21.9993 32.8546 21.922 32.7486C21.836 32.6426 21.7673 32.6072 21.7673 32.6779ZM31.8096 64.8287C33.1583 66.5692 34.129 68.0712 34.4555 68.9194C34.6101 69.3258 34.7218 69.7234 34.696 69.794C34.6273 69.9707 34.4555 69.6969 34.2235 69.0607C33.9916 68.4334 33.1068 67.0375 31.9041 65.4295C31.0536 64.281 30.7873 63.8834 30.7873 63.7597C30.7873 63.5741 31.045 63.8392 31.8096 64.8287ZM29.1122 65.0319C30.0056 65.6681 30.9849 67.064 30.5382 67.064C30.4952 67.064 30.3063 66.8166 30.1087 66.5074C29.7049 65.8713 29.3527 65.5002 28.8115 65.1645C28.3992 64.9082 27.8666 64.4223 27.8666 64.3075C27.8666 64.2368 28.5366 64.6255 29.1122 65.0319Z" fill="black" fill-opacity="0.87"/>
<path d="M13.478 33.5261C10.1277 34.2241 9.2085 34.4361 9.61225 34.4538C9.81842 34.4626 11.8114 34.0827 12.6275 33.8883C12.9539 33.8 13.7786 33.7116 14.4659 33.6674C15.8661 33.5968 17.2492 33.3582 17.4296 33.1638C17.6529 32.943 17.5842 32.7839 17.2835 32.7928C17.1289 32.7928 15.4194 33.1285 13.478 33.5261Z" fill="black" fill-opacity="0.87"/>
<path d="M18.3914 32.8369C18.3055 32.9253 18.3141 33.208 18.4086 33.261C18.5632 33.3582 18.7694 33.208 18.7436 33.0136C18.7179 32.8281 18.5031 32.7221 18.3914 32.8369Z" fill="black" fill-opacity="0.87"/>
<path d="M11.8545 46.0012C11.7685 46.2309 11.8029 46.9819 11.9404 48.2895C12.0091 48.9698 12.1036 50.6749 12.1379 52.0885L12.2067 54.6507L12.808 56.2499C13.143 57.1334 13.4866 57.955 13.564 58.0876C13.7787 58.4233 14.1739 58.6088 14.6979 58.6088C15.5398 58.6088 15.7975 58.2643 16.1755 56.6474C16.5105 55.1808 16.562 54.8186 16.4418 54.7391C16.3902 54.7037 15.9349 54.6684 15.4281 54.6684L14.5089 54.6507L14.4917 54.1648C14.4831 53.8379 14.5175 53.6435 14.5948 53.5817C14.7838 53.4315 14.9041 53.0339 14.7838 52.9897C14.7237 52.9632 14.7666 52.866 14.9213 52.7247C15.179 52.4685 15.2219 52.2387 15.0243 52.1681C14.8353 52.0885 14.8697 51.9737 15.0931 51.9383C15.2391 51.9207 15.368 51.7351 15.6343 51.1697C15.8662 50.6749 16.0466 50.401 16.1755 50.348C16.3043 50.3039 16.3559 50.2332 16.3215 50.1272C16.2957 50.0388 16.1926 49.6147 16.0896 49.173C15.8662 48.1834 15.7889 48.0332 15.2563 47.5208C14.7494 47.0349 13.9591 46.6108 12.7736 46.1779C12.0349 45.9217 11.8974 45.8952 11.8545 46.0012Z" fill="black" fill-opacity="0.87"/>
<path d="M16.2435 50.7014C16.1233 50.834 15.668 51.797 15.668 51.9118C15.668 51.9384 15.9772 51.956 16.3552 51.956C17.0167 51.956 17.051 51.9472 17.1455 51.7263C17.24 51.5143 17.2228 51.4789 16.9737 51.2581C16.8191 51.1344 16.6215 50.9223 16.5356 50.781C16.3896 50.5512 16.381 50.5424 16.2435 50.7014Z" fill="black" fill-opacity="0.87"/>
<path d="M15.514 52.3271C15.3422 52.5038 15.3937 52.7512 15.6085 52.76C15.7116 52.76 16.0208 52.7954 16.2957 52.8307L16.7854 52.8925L16.8627 52.6275C16.897 52.4773 16.9142 52.3271 16.897 52.2829C16.8369 52.1769 15.6256 52.2122 15.514 52.3271Z" fill="black" fill-opacity="0.87"/>
<path d="M15.1875 53.2371C15.0157 53.511 15.0672 53.5817 15.5998 53.7142C16.1668 53.8556 16.5018 53.8379 16.562 53.67C16.708 53.2813 16.5706 53.1753 15.7802 53.0604C15.3679 53.0074 15.325 53.0162 15.1875 53.2371Z" fill="black" fill-opacity="0.87"/>
<path d="M14.8697 53.9616C14.8353 53.9881 14.8096 54.1118 14.8096 54.2266C14.8096 54.421 14.8353 54.4299 15.4453 54.4299C15.9006 54.4299 16.1067 54.3945 16.184 54.2973C16.3043 54.156 16.3301 54.1648 15.6428 53.9969C15.179 53.8821 14.947 53.8732 14.8697 53.9616Z" fill="black" fill-opacity="0.87"/>
<path d="M35.4181 71.1546C35.2721 71.4462 34.9542 71.8968 34.7223 72.1618L34.2842 72.6301L34.5161 72.9747C34.645 73.169 34.8168 73.3457 34.8941 73.3811C34.9886 73.4164 35.2807 73.1779 35.8734 72.5594L36.7239 71.6936L36.1999 71.1546L35.6758 70.6157L35.4181 71.1546Z" fill="black" fill-opacity="0.87"/>
<path d="M36.6378 71.1811C36.9041 71.4815 37.1017 71.5787 37.2649 71.5169C37.6257 71.3755 37.2391 70.9514 36.7581 70.9514H36.4316L36.6378 71.1811Z" fill="black" fill-opacity="0.87"/>
<path d="M33.4077 71.1193C32.3253 71.1635 32.0676 71.1988 31.8271 71.349C31.6639 71.4462 31.5178 71.5699 31.5007 71.6229C31.4405 71.7996 32.1535 72.6124 32.4628 72.7184C33.1586 72.957 34.2926 72.3916 34.8681 71.5169C35.1344 71.1193 35.1344 71.031 34.8939 71.0575C34.7822 71.0663 34.1207 71.0928 33.4077 71.1193Z" fill="black" fill-opacity="0.87"/>
<path d="M36.1311 72.851L35.2979 73.6903L35.5985 73.9553C35.7617 74.0967 35.9593 74.2204 36.0366 74.2204C36.1139 74.2204 36.4404 74.0084 36.7668 73.761C37.0933 73.5048 37.5486 73.1955 37.7719 73.063L38.1843 72.8333L37.6602 72.418C37.3682 72.1972 37.0933 72.0116 37.0417 72.0116C36.9988 72.0116 36.5864 72.3915 36.1311 72.851Z" fill="black" fill-opacity="0.87"/>
<path d="M33.6655 72.8863C33.5194 72.9658 33.1586 73.0365 32.8064 73.0453L32.2051 73.063V73.8847C32.2137 74.777 32.4112 75.5722 32.6604 75.7135C32.7463 75.7577 33.2273 75.8814 33.7514 75.9874C34.2668 76.0934 34.9454 76.279 35.2547 76.385C35.564 76.4999 36.1996 76.7296 36.6721 76.9063C37.6257 77.2508 39.2321 77.5777 39.9795 77.5777C40.6667 77.5777 42.4535 77.1713 42.78 76.9416C42.9346 76.8356 43.1236 76.6324 43.2009 76.4999C43.3899 76.1641 43.5101 76.1818 43.4157 76.5264C43.2524 77.0918 42.8744 77.348 41.8264 77.5866C40.5808 77.8781 39.5413 77.9576 38.9314 77.8074C38.6308 77.7368 38.1239 77.6307 37.7889 77.5689C37.4625 77.5071 36.6292 77.2508 35.9505 76.9858C34.8595 76.5617 33.3648 76.1553 32.9439 76.1641C32.6432 76.173 33.4679 76.7649 34.1637 77.0388C34.9884 77.3569 37.1446 77.9311 37.5569 77.9311C37.7202 77.9311 38.2442 78.0107 38.7167 78.1167C39.2235 78.2227 39.7561 78.2845 39.9795 78.258C40.2114 78.2315 40.4777 78.258 40.6581 78.3376C40.8127 78.4082 41.0103 78.4612 41.0876 78.4612C41.6116 78.4612 43.5961 77.0741 43.8108 76.5617C44.0428 75.9874 44.0513 75.6164 43.828 75.2806C43.493 74.777 42.9775 74.4855 41.5086 73.9554C40.7354 73.6815 40.0396 73.4253 39.9623 73.3899C39.6874 73.2662 39.7905 73.5489 40.1341 73.8935C40.3145 74.0702 40.5378 74.2204 40.6409 74.2204C40.8299 74.2204 41.0447 74.4236 40.9502 74.512C40.9244 74.5473 40.8299 74.5738 40.7526 74.5738C40.6237 74.5738 40.6066 74.6357 40.6409 74.9537C40.6753 75.2718 40.6495 75.3778 40.4519 75.6164C40.1083 76.0404 39.7905 76.173 38.9658 76.226C38.3902 76.2613 38.1411 76.2436 37.8834 76.1288C37.703 76.0493 37.4453 75.9874 37.3078 75.9874C37.0759 75.9874 37.0673 75.9698 37.1618 75.8019C37.2563 75.6517 37.2563 75.5987 37.1618 75.5722C37.1016 75.5457 36.8439 75.3513 36.5862 75.1304C36.277 74.8742 36.045 74.7505 35.9162 74.7682C35.7959 74.7859 35.7358 74.7505 35.7529 74.671C35.8131 74.3971 35.1087 73.8758 34.9197 74.0702C34.8509 74.1409 34.8252 74.1321 34.8252 74.0172C34.8252 73.8935 34.2238 73.0365 33.9747 72.798C33.9489 72.7715 33.8115 72.8068 33.6655 72.8863Z" fill="black" fill-opacity="0.87"/>
<path d="M37.8916 73.3369C37.5308 73.5224 36.3711 74.4059 36.3711 74.5031C36.3711 74.5296 36.4914 74.6622 36.6374 74.7859L36.8951 75.0156L37.5824 74.4413C37.9603 74.1232 38.4242 73.761 38.6132 73.6285C38.9826 73.3811 39.017 73.2927 38.8108 73.2132C38.5703 73.116 38.2266 73.1602 37.8916 73.3369Z" fill="black" fill-opacity="0.87"/>
<path d="M38.682 73.973C37.9002 74.5031 37.2388 75.0421 37.2388 75.1569C37.2302 75.2099 37.3333 75.3071 37.4535 75.369C37.6511 75.4838 37.7113 75.475 38.0291 75.2894C38.2181 75.1746 38.6047 74.9095 38.8796 74.6975C39.163 74.4855 39.5238 74.2911 39.6871 74.2557C39.8503 74.2292 39.9791 74.1851 39.9791 74.1674C39.9791 74.0879 39.4208 73.6108 39.3263 73.6019C39.2747 73.6019 38.9826 73.7698 38.682 73.973Z" fill="black" fill-opacity="0.87"/>
<path d="M39.6361 74.5561C39.3182 74.7063 38.0039 75.687 38.0039 75.7754C38.0039 75.8814 38.4592 75.9874 38.9145 75.9874C39.2753 75.9874 39.9196 75.7489 40.1429 75.5368C40.3233 75.3601 40.3835 74.9007 40.2546 74.6887C40.1773 74.5561 39.7993 74.4766 39.6361 74.5561Z" fill="black" fill-opacity="0.87"/>
</g>
<defs>
<clipPath id="clip0_353_2932">
<rect width="44" height="78" fill="white" transform="translate(0 0.5)"/>
</clipPath>
</defs>
</svg>
