<svg width="453" height="153" viewBox="0 0 453 153" fill="none" xmlns="http://www.w3.org/2000/svg">
<path d="M445.833 72.1687C451.606 79.9009 452.403 90.8053 453 100.124C452.801 118.562 447.13 134.569 432 145.474C424.037 151.025 414.179 153.654 404.424 152.861C387.104 151.672 375.159 142.75 368.589 126.691C364.21 115.588 364.21 104.089 366.599 92.5897C368.589 83.0731 372.173 74.3496 378.543 66.8156C388.298 54.9199 401.04 51.5495 415.772 53.5321C428.513 55.3164 438.268 62.0573 445.833 72.1687ZM425.527 109.442C426.92 104.287 426.92 98.9341 426.124 93.7793C425.726 90.6071 425 86.4436 422.5 83.9911C418.717 81.0172 415.977 79.8889 411 79.4924C404.43 78.8976 399.486 81.1373 396.5 86.4904C392.917 92.6365 392.097 98.5374 391.5 104.485C391.301 109.838 392.009 115.016 394 118.981C396.19 123.938 401.836 125.898 406.415 125.898C415.573 125.898 423.138 117.769 425.527 109.442Z" fill="#01579B"/>
<path d="M313.482 125.861C318.421 128.063 321.188 132.667 320.99 138.072C320.793 143.076 317.631 147.88 312.494 149.481C302.812 152.284 292.735 153.885 282.46 152.484C261.318 150.082 246.104 135.269 242.152 114.252C238.991 98.6385 242.35 84.2263 252.032 71.6157C260.331 60.8066 276.928 53 290.562 53C293.723 53 296.687 53.4003 299.848 54.201C315.062 58.0042 322.768 70.4147 319.409 86.228C315.062 105.044 296.489 119.056 278.311 122.659C277.916 122.859 277.521 123.059 276.928 123.259C280.089 125.661 283.844 126.262 287.598 126.662C293.13 127.263 298.663 126.462 303.997 125.261C307.159 124.66 310.32 124.46 313.482 125.861ZM268.036 98.038C268.432 98.038 268.629 98.038 269.024 98.038C278.311 97.4375 286.017 93.4341 292.142 86.4282C292.735 85.8277 293.13 85.027 293.328 84.4265C295.699 79.0219 294.908 78.8218 289.969 79.0219C278.904 79.4223 269.815 86.8285 267.641 97.8378C267.839 97.8378 268.036 98.038 268.036 98.038Z" fill="#01579B"/>
<path d="M232.945 125.039C232.945 113.056 233.442 103.569 231.455 92.6475C230.259 86.0735 227.437 79.5723 223.01 74.1108C214.155 63.3979 200.822 59.2111 187.74 59.6312C184.319 59.8412 179.421 59.6598 176 60.5V12.5C175.597 6.19827 170.341 0.0971641 162.581 0.0971641C153.948 -0.908656 148.604 6.07735 148 12.5892V140.331C148 148.5 156.067 152.994 162.581 152.994C171.567 152.994 176 146.5 176 140.331V97.5778C175.799 95.8973 178.292 93.4878 179.5 92.6475C182.72 90.5469 184.036 89 189.5 89C196.455 89 199.5 90 202.323 97.5778C203.031 99.4799 202.938 101.441 203.14 102.071C203.636 109.062 202.938 115.559 203.14 123.541V140.331C203.945 146.842 211.725 153.204 217.964 152.994C224.203 152.994 232.341 147.053 232.945 140.331V125.039Z" fill="#01579B"/>
<path fill-rule="evenodd" clip-rule="evenodd" d="M140 20C140 20.533 139.979 21.0612 139.938 21.5838C121.221 30.6624 105.592 25.359 100.062 21.5912C100.021 21.0663 100 20.5356 100 20C100 18.225 100.231 16.504 100.665 14.8655C107.922 19.4413 123.153 24.2141 139.312 14.7814C139.761 16.4451 140 18.1946 140 20ZM101.208 13.1389C107.893 17.5493 122.86 22.5653 138.769 13.0755C135.952 5.44255 128.611 0 120 0C111.365 0 104.008 5.47267 101.208 13.1389ZM139.67 23.6385C122.048 31.7496 107.083 27.6838 100.368 23.8365C102.157 33.0468 110.266 40 120 40C129.803 40 137.959 32.947 139.67 23.6385Z" fill="#01579B"/>
<path d="M30.2697 95.7102C-1.86112 95.7102 2.34525 41.2286 26.7131 3C-22.8349 72.3609 7.49863 118.946 30.2697 118.946C80.8532 120.954 109.595 67.8379 126 42C112.607 46.0154 99.5 37 98 25C82.9441 79.6097 47.2551 96.8246 30.2697 95.7102Z" fill="#01579B"/>
<path d="M94 94C88.8731 86.2792 85.2653 78.8611 80.1384 71L63 90.5826C85.4 131.849 98.5 143.5 103 146.5C106 148.5 108.776 150.103 111.559 151.226C113.414 151.954 119.233 153.37 125.644 152.91C142.182 151.725 143.586 129 133.971 125.326C130.5 124 130 127 129.5 128C128 129.5 126.758 129.226 124.5 129C121.758 128.726 119.844 126.87 117.5 125.326C115.303 123.642 113.5 121.5 110.68 117.956C104.885 110.675 99.1269 101.721 94 94Z" fill="#01579B"/>
<path d="M63 13.5462V138.005C63 148.002 56 153 49 153C42 153 35 148.002 35 138.005V13.5462C35.0002 6.14083 40.5 -1.0034e-05 48.5 0C56 9.40698e-06 61.7773 3.0338 63 13.5462Z" fill="#01579B"/>
<path d="M357 141L357 48H329V141C329 148.5 334.5 153 343 153C351.5 153 357 149 357 141Z" fill="#01579B"/>
<path d="M348 3.40828V36H338V3.40828C338 1.49112 339.591 0 341.636 0H344.364C346.409 0 348 1.49112 348 3.40828Z" fill="#01579B"/>
<path d="M329 47C330.254 46.5463 330.937 45.5285 331.69 44.8479C336.5 41 338 36 338 36H348C348 36 349.5 41 354.261 44.8479C355.264 45.5285 355.997 46.5463 357 47" fill="#01579B"/>
</svg>
