<svg width="24" height="24" viewBox="0 0 24 24" fill="none" xmlns="http://www.w3.org/2000/svg">
<path fill-rule="evenodd" clip-rule="evenodd" d="M12 4C7.58174 4 4 7.58169 4 12C4 16.4183 7.58174 20 12 20C16.4183 20 20 16.4183 20 12C20 7.58169 16.4183 4 12 4ZM12 18.4C8.47105 18.4 5.6 15.529 5.6 12C5.6 8.47105 8.47105 5.6 12 5.6C15.529 5.6 18.4 8.47105 18.4 12C18.4 15.529 15.529 18.4 12 18.4ZM13.0018 8.8C13.0018 9.38003 12.5794 9.8 12.0081 9.8C11.4137 9.8 11.0018 9.38003 11.0018 8.7889C11.0018 8.22076 11.4249 7.8 12.0081 7.8C12.5794 7.8 13.0018 8.22076 13.0018 8.8ZM11 11.2H13V16H11V11.2Z" fill="black" fill-opacity="0.87"/>
</svg>
