<svg width="24" height="24" viewBox="0 0 24 24" fill="none" xmlns="http://www.w3.org/2000/svg">
<path fill-rule="evenodd" clip-rule="evenodd" d="M9.69608 5.77778C9.4355 5.77778 9.33602 5.95735 9.33602 6.04746V6.90329H14.664V6.04746C14.664 5.95736 14.5645 5.77778 14.304 5.77778H9.69608ZM16.464 6.90329V6.04746C16.464 4.85785 15.4351 4 14.304 4H9.69608C8.56485 4 7.53602 4.85785 7.53602 6.04746V6.90329H3.9C3.40294 6.90329 3 7.30126 3 7.79218C3 8.2831 3.40294 8.68107 3.9 8.68107H5.51976V17.9849C5.51976 19.1566 6.53285 20 7.64465 20H16.3564C17.4681 20 18.4812 19.1566 18.4812 17.9849V8.68107H20.1C20.5971 8.68107 21 8.2831 21 7.79218C21 7.30126 20.5971 6.90329 20.1 6.90329H16.464ZM16.6812 8.68107H7.31976V17.9849C7.31976 18.0289 7.33749 18.0807 7.39177 18.1306C7.44714 18.1816 7.53435 18.2222 7.64465 18.2222H16.3564C16.4666 18.2222 16.5538 18.1816 16.6092 18.1306C16.6635 18.0807 16.6812 18.0289 16.6812 17.9849V8.68107Z" fill="#1C1C1C"/>
</svg>
