<svg width="24" height="24" viewBox="0 0 24 24" fill="none" xmlns="http://www.w3.org/2000/svg">
<g clip-path="url(#clip0_292_5806)">
<path d="M15.07 9.09734L16.7584 10.5214C16.7584 10.5214 15.9329 9.3222 16.6458 8.61015L16.1205 8.04801L15.9329 7.86063L15.4077 7.33596C14.6948 8.04801 13.4941 7.22353 13.4941 7.22353L14.9199 8.90996L15.0325 8.98491L15.07 9.09734Z" fill="#F57F17"/>
<path d="M21.9799 0.77562L15.4004 7.34765L16.6474 8.59311L23.2269 2.02108L21.9799 0.77562Z" fill="#F57F17"/>
<path d="M24.0005 1.26482L22.7624 0.0281071C22.7248 -0.00936904 22.7248 -0.00936904 22.6873 0.0281071L21.9744 0.740154C21.9369 0.777631 21.9369 0.777631 21.9744 0.815107L23.2126 2.05182C23.2501 2.0893 23.2501 2.0893 23.2876 2.05182L24.0005 1.33977C24.0005 1.3023 24.0005 1.26482 24.0005 1.26482Z" fill="#F57F17"/>
<path d="M13.4944 7.22353C8.35411 12.3578 5.23994 15.4683 0.0621654 20.64C-0.0128749 20.715 -0.0128749 20.8274 0.0246453 20.9023C0.624967 22.2515 1.71305 23.3383 3.1013 23.9754C3.17634 24.0129 3.2889 24.0129 3.36394 23.9379L16.7961 10.5214L13.4944 7.22353Z" fill="#F57F17"/>
</g>
<defs>
<clipPath id="clip0_292_5806">
<rect width="24" height="24" fill="white"/>
</clipPath>
</defs>
</svg>
