<svg width="24" height="24" viewBox="0 0 24 24" fill="none" xmlns="http://www.w3.org/2000/svg">
<path fill-rule="evenodd" clip-rule="evenodd" d="M9 12C9 10.3431 10.3431 9 12 9C13.6569 9 15 10.3431 15 12C15 13.6569 13.6569 15 12 15C10.3431 15 9 13.6569 9 12ZM12 11C11.4477 11 11 11.4477 11 12C11 12.5523 11.4477 13 12 13C12.5523 13 13 12.5523 13 12C13 11.4477 12.5523 11 12 11Z" fill="black" fill-opacity="0.87"/>
<path fill-rule="evenodd" clip-rule="evenodd" d="M10.8261 5.00003L10.79 5.00001L10.3413 5.01582C9.5978 5.09794 8.91849 5.49658 8.49649 6.12081C8.4159 6.24003 8.34824 6.37003 8.28094 6.50003H7.48889L7.45344 6.50003C7.15446 6.50001 6.87985 6.5 6.63628 6.50946C6.54972 6.51282 6.46708 6.51738 6.38866 6.52356C6.07024 6.54864 5.73597 6.60505 5.40839 6.76599C4.93065 7.00072 4.5354 7.37871 4.2854 7.85185C4.11206 8.1799 4.05145 8.51549 4.02477 8.83041C3.99995 9.12325 3.99998 9.47474 4 9.86297L4 9.90003L4 15.6371C3.99998 16.0253 3.99995 16.3768 4.02477 16.6697C4.05145 16.9846 4.11204 17.3202 4.2854 17.6482C4.53536 18.1213 4.93054 18.4993 5.40835 18.734C5.7359 18.895 6.07026 18.9514 6.38866 18.9765C6.68775 19.0001 7.0482 19.0001 7.45343 19H16.5466C16.9518 19.0001 17.3123 19.0001 17.6114 18.9765C17.9298 18.9514 18.2641 18.895 18.5917 18.734C18.7854 18.6241 19.1172 18.4001 19.3763 18.1368C19.5072 17.9889 19.6211 17.8252 19.7146 17.6482C19.888 17.3201 19.9486 16.9846 19.9752 16.6697C20.0001 16.3768 20 16.0253 20 15.6371V9.86296C20 9.47473 20.0001 9.12324 19.9752 8.8304C19.9486 8.51551 19.8879 8.17986 19.7146 7.85183C19.6238 7.67994 19.5138 7.52061 19.3876 7.37615C19.1163 7.08494 18.7786 6.8637 18.5917 6.76601C18.2641 6.60505 17.9298 6.54864 17.6114 6.52356C17.5697 6.52027 17.5268 6.51745 17.4828 6.51502C17.211 6.5 16.8954 6.50001 16.5466 6.50003L15.7191 6.50003C15.6518 6.37005 15.584 6.23989 15.5035 6.12083C15.4889 6.09923 15.474 6.07791 15.4588 6.05686C15.0345 5.46939 14.3765 5.0951 13.6587 5.01582C13.514 4.99983 13.3649 4.99992 13.21 5.00001L13.1739 5.00003H10.8261ZM10.5609 7.00373C10.5812 7.00147 10.6115 7.00003 10.8261 7.00003H13.1739C13.3886 7.00003 13.4188 7.00147 13.4392 7.00373C13.6162 7.02328 13.7624 7.11657 13.8465 7.24071C13.8523 7.24937 13.8603 7.26219 13.8981 7.33393L14.1119 7.71978C14.6014 8.29561 15 8.5 15.5 8.5H17.5C17.9 8.5 18 8.89131 18 9.08696V16.5C18 16.9 17.6667 17 17.5 17H6.5C6.1 17 6 16.6667 6 16.5V9C6 8.6 6.33333 8.49274 6.5 8.4891H8.60656C9.11987 8.43239 9.59274 8.15674 9.88822 7.71964C9.94686 7.6329 9.99488 7.53984 10.0268 7.47798L10.0359 7.46031C10.1327 7.27362 10.1452 7.25305 10.1534 7.24094C10.2374 7.11669 10.3837 7.02329 10.5609 7.00373Z" fill="black" fill-opacity="0.87"/>
</svg>
