<svg width="24" height="24" viewBox="0 0 24 24" fill="none" xmlns="http://www.w3.org/2000/svg">
<path fill-rule="evenodd" clip-rule="evenodd" d="M12 5.82279C8.58842 5.82279 5.82279 8.58842 5.82279 12C5.82279 15.4116 8.58842 18.1772 12 18.1772C15.4116 18.1772 18.1772 15.4116 18.1772 12C18.1772 8.58842 15.4116 5.82279 12 5.82279ZM4 12C4 7.58172 7.58172 4 12 4C16.4183 4 20 7.58172 20 12C20 16.4183 16.4183 20 12 20C7.58172 20 4 16.4183 4 12ZM12 14.712C12.5033 14.712 12.9114 15.1201 12.9114 15.6234V15.7247C12.9114 16.228 12.5033 16.6361 12 16.6361C11.4967 16.6361 11.0886 16.228 11.0886 15.7247V15.6234C11.0886 15.1201 11.4967 14.712 12 14.712Z" fill="black" fill-opacity="0.87"/>
<path d="M11.5823 9.78481C11.5823 9.55412 11.7693 9.36709 12 9.36709C12.2307 9.36709 12.4177 9.55412 12.4177 9.78481C12.4177 9.93684 12.337 10.071 12.2117 10.1452C11.9935 10.2743 11.7323 10.4603 11.5167 10.7144C11.2972 10.973 11.0886 11.3479 11.0886 11.8228V13.7817H12.9114L12.9114 11.8881C12.9284 11.869 12.9547 11.8436 12.9928 11.8135C13.0345 11.7806 13.0842 11.7469 13.14 11.7139C13.7967 11.3253 14.2405 10.6074 14.2405 9.78481C14.2405 8.54741 13.2374 7.5443 12 7.5443C10.7626 7.5443 9.75949 8.54741 9.75949 9.78481C9.75949 10.2882 10.1675 10.6962 10.6709 10.6962C11.1742 10.6962 11.5823 10.2882 11.5823 9.78481Z" fill="black" fill-opacity="0.87"/>
</svg>
