<svg width="24" height="24" viewBox="0 0 24 24" fill="none" xmlns="http://www.w3.org/2000/svg">
<path fill-rule="evenodd" clip-rule="evenodd" d="M9.17619 4C9.56279 4 9.87619 4.32561 9.87619 4.72727V5.14851H14.1308V4.72727C14.1308 4.32561 14.4442 4 14.8308 4C15.2174 4 15.5308 4.32561 15.5308 4.72727V5.17644C16.4563 5.2706 17.2738 5.60528 17.8921 6.21762C18.6386 6.95693 19.0035 8.01073 19 9.25383V15.8891C19 17.132 18.6332 18.1866 17.8868 18.927C17.1454 19.6626 16.118 20 14.9603 20H9.03967C7.88153 20 6.85318 19.6552 6.11178 18.9087C5.36689 18.1586 5 17.0919 5 15.8341V9.25253C5 8.00846 5.36904 6.95532 6.11667 6.21692C6.73567 5.60557 7.55264 5.27082 8.47619 5.17652V4.72727C8.47619 4.32561 8.78959 4 9.17619 4ZM8.47619 6.64033C7.86331 6.72583 7.40294 6.95342 7.08124 7.27115C6.67296 7.67439 6.4 8.30962 6.4 9.25253V9.38473H17.6V9.25253L17.6 9.25029C17.6028 8.30682 17.3321 7.67258 16.9261 7.27045C16.6059 6.95328 16.1459 6.72557 15.5308 6.64017V7.12073C15.5308 7.52239 15.2174 7.848 14.8308 7.848C14.4442 7.848 14.1308 7.52239 14.1308 7.12073V6.60305H9.87619V7.12073C9.87619 7.52239 9.56279 7.848 9.17619 7.848C8.78959 7.848 8.47619 7.52239 8.47619 7.12073V6.64033ZM17.6 10.8393H6.4V15.8341C6.4 16.7976 6.6751 17.4503 7.08613 17.8642C7.50064 18.2816 8.14212 18.5455 9.03967 18.5455H14.9603C15.8647 18.5455 16.5072 18.2846 16.92 17.875C17.328 17.4704 17.6 16.8331 17.6 15.8891V10.8393ZM8.19059 12.9527C8.19059 12.5511 8.50399 12.2255 8.89059 12.2255H8.89689C9.28349 12.2255 9.59689 12.5511 9.59689 12.9527C9.59689 13.3544 9.28349 13.68 8.89689 13.68H8.89059C8.50399 13.68 8.19059 13.3544 8.19059 12.9527ZM11.3035 12.9527C11.3035 12.5511 11.6169 12.2255 12.0035 12.2255H12.0098C12.3964 12.2255 12.7098 12.5511 12.7098 12.9527C12.7098 13.3544 12.3964 13.68 12.0098 13.68H12.0035C11.6169 13.68 11.3035 13.3544 11.3035 12.9527ZM14.4094 12.9527C14.4094 12.5511 14.7228 12.2255 15.1094 12.2255H15.1157C15.5023 12.2255 15.8157 12.5511 15.8157 12.9527C15.8157 13.3544 15.5023 13.68 15.1157 13.68H15.1094C14.7228 13.68 14.4094 13.3544 14.4094 12.9527ZM8.19059 15.7789C8.19059 15.3772 8.50399 15.0516 8.89059 15.0516H8.89689C9.28349 15.0516 9.59689 15.3772 9.59689 15.7789C9.59689 16.1806 9.28349 16.5062 8.89689 16.5062H8.89059C8.50399 16.5062 8.19059 16.1806 8.19059 15.7789ZM11.3035 15.7789C11.3035 15.3772 11.6169 15.0516 12.0035 15.0516H12.0098C12.3964 15.0516 12.7098 15.3772 12.7098 15.7789C12.7098 16.1806 12.3964 16.5062 12.0098 16.5062H12.0035C11.6169 16.5062 11.3035 16.1806 11.3035 15.7789ZM14.4094 15.7789C14.4094 15.3772 14.7228 15.0516 15.1094 15.0516H15.1157C15.5023 15.0516 15.8157 15.3772 15.8157 15.7789C15.8157 16.1806 15.5023 16.5062 15.1157 16.5062H15.1094C14.7228 16.5062 14.4094 16.1806 14.4094 15.7789Z" fill="black" fill-opacity="0.87"/>
</svg>
