<svg width="24" height="24" viewBox="0 0 24 24" fill="none" xmlns="http://www.w3.org/2000/svg">
<path fill-rule="evenodd" clip-rule="evenodd" d="M12 5.77778C11.0532 5.77778 10.1557 5.98926 9.35237 6.36756C8.73611 6.65775 8.1752 7.04609 7.68979 7.51244C6.51127 8.64466 5.77778 10.2367 5.77778 12C5.77778 13.7654 6.51296 15.359 7.69386 16.4915C8.17956 16.9573 8.74066 17.345 9.35703 17.6346C10.1592 18.0116 11.055 18.2222 12 18.2222C13.1908 18.2222 14.3035 17.8877 15.2492 17.3075C15.8291 16.9517 16.3463 16.5036 16.7801 15.9835C17.6805 14.9043 18.2222 13.5154 18.2222 12C18.2222 10.2011 17.4588 8.58045 16.2383 7.44442C15.7488 6.98887 15.1859 6.61124 14.5692 6.33129C13.786 5.97577 12.9161 5.77778 12 5.77778ZM4 12C4 7.58172 7.58172 4 12 4C16.4183 4 20 7.58172 20 12C20 16.4183 16.4183 20 12 20C7.58172 20 4 16.4183 4 12Z" fill="black" fill-opacity="0.87"/>
<path d="M9.35237 6.36756C8.73611 6.65775 8.1752 7.04609 7.68979 7.51244C8.68248 9.55988 9.50627 12.8217 7.69386 16.4915C8.17956 16.9573 8.74066 17.345 9.35703 17.6346C11.7884 12.9733 10.5973 8.80186 9.35237 6.36756Z" fill="black" fill-opacity="0.87"/>
<path d="M16.2383 7.44442C15.7488 6.98887 15.1859 6.61124 14.5692 6.33129C13.1797 8.7962 12.5426 13.118 15.2492 17.3075C15.8291 16.9517 16.3463 16.5036 16.7801 15.9835C14.7225 12.6039 15.2667 9.27205 16.2383 7.44442Z" fill="black" fill-opacity="0.87"/>
</svg>
