<svg width="53" height="58" viewBox="0 0 53 58" fill="none" xmlns="http://www.w3.org/2000/svg">
<g clip-path="url(#clip0_725_4733)">
<path fill-rule="evenodd" clip-rule="evenodd" d="M28.2307 1.95499C30.6534 2.30859 32.8487 3.43738 34.5164 5.08183C36.4901 7.03114 37.7268 9.70464 37.7268 12.6773L37.6289 16.5068L38.5831 23.4688L38.2264 23.2161C38.1375 23.6026 38.0238 23.9618 37.9091 24.2554L37.9057 24.2678C37.675 24.8606 37.3667 25.4 37.0077 25.7978C36.7073 26.1208 36.3697 26.3531 36.004 26.4438L35.967 26.5618C35.907 26.7528 35.8456 26.9483 35.7981 27.1408L35.7975 27.1427C35.3904 28.5256 35.0696 29.6153 34.2216 30.6972C34.037 30.9329 33.839 31.1607 33.6297 31.376C33.4845 31.5302 33.3371 31.6752 33.1841 31.8123C33.2043 32.0254 33.2066 33.5815 33.2043 34.5131C33.986 34.6504 34.6253 34.7548 35.2493 34.8566L35.4009 34.8814C42.4506 36.0249 49.1392 37.1106 50.9261 46.0027L52.9899 57.252C53.0063 57.3432 53.0027 57.4368 52.9792 57.5264C52.9557 57.616 52.913 57.6992 52.8541 57.7704C52.7952 57.8415 52.7215 57.8987 52.6382 57.938C52.5549 57.9773 52.4641 57.9977 52.3721 57.9977L39.5249 57.9989L39.4811 58L39.4361 57.9989L13.4818 58H0.630149C0.282442 58 0 57.7156 0 57.3654C0 57.3132 0.00675159 57.2634 0.0180042 57.2158L1.54611 47.833C3.59972 37.3078 8.96049 36.2561 16.8508 34.7091C17.7623 34.5301 18.7075 34.3442 19.6404 34.147C19.6955 34.1345 19.7507 34.1311 19.8047 34.1345V31.8248L19.8103 31.5154C19.0282 30.8037 18.3868 29.8574 17.957 28.894C17.6782 28.2704 17.4527 27.6008 17.2004 26.8519L17.1412 26.6761L16.9983 26.2489C16.6843 26.2081 16.3929 26.0619 16.1296 25.8465C15.7999 25.5734 15.5163 25.1756 15.2856 24.7155C15.1056 24.3585 14.9098 23.819 14.7747 23.2229L14.4158 23.4813L15.3745 16.525L15.1607 13.1443C15.1468 12.9315 15.1396 12.7183 15.1393 12.5051C15.1393 9.63664 16.3659 7.06061 18.3058 5.15776C20.1479 3.35124 22.637 2.15219 25.3286 1.89039C26.7915 1.8027 27.8728 1.89692 28.2307 1.95499ZM36.4305 17.0248L36.9582 20.8701C34.1574 19.3447 30.309 18.5842 26.482 18.5842C22.6516 18.5842 18.8156 19.3458 16.0452 20.8633L16.574 17.035C19.6865 15.7656 22.8811 14.995 26.1692 14.9247C29.4752 14.8533 32.8904 15.4869 36.4305 17.0248ZM29.8297 38.9557C31.3251 38.3482 32.528 37.2897 33.0232 35.7676C33.5426 35.8593 34.1746 35.9622 34.8216 36.0675L35.1859 36.1269C34.845 39.1721 34.0787 41.4377 32.7182 43.3348C31.6661 44.8013 30.4178 46.0684 28.551 47.3196C27.923 47.5928 26.0947 47.9753 24.497 47.3196C21.5 46 20.3414 44.2438 19.3444 42.6492C18.1337 40.7112 17.8073 38.5817 17.7657 35.8198C18.4442 35.686 19.1486 35.5444 19.8969 35.3857C19.9172 35.3812 19.9363 35.3767 19.9555 35.3699C20.3504 37.0766 21.6344 38.2677 23.2649 38.9353C24.2675 39.3444 25.4074 39.5541 26.5461 39.5586C27.6838 39.5631 28.8248 39.3625 29.8297 38.9557ZM36.4665 12.9244L36.3945 15.6727C32.8701 14.2209 29.4583 13.6225 26.1455 13.6939C22.8575 13.7642 19.6764 14.4941 16.583 15.7033L16.4154 13.0649C16.4041 12.8893 16.3985 12.7034 16.3985 12.5051C16.3985 9.99591 17.4765 7.7372 19.1824 6.06555C20.9007 4.37917 23.2525 3.28664 25.7832 3.12458C25.988 3.11098 26.2086 3.10418 26.4404 3.10418L26.8702 3.10531C29.4853 3.17331 31.8866 4.25903 33.6353 5.98395C35.3761 7.7032 36.4665 10.0594 36.4665 12.6773V12.9244ZM16.4007 24.1477C16.2263 23.7918 15.9653 23.1186 15.8291 22.4704C18.4127 20.7285 22.4333 19.8524 26.482 19.8524C30.5273 19.8524 34.5659 20.7273 37.1889 22.484C37.0543 22.9995 36.8532 23.5113 36.7639 23.7386L36.7399 23.7998C36.5599 24.2633 36.3371 24.6781 36.103 24.9478C35.894 25.1787 35.6707 25.212 35.4721 25.2416C35.2291 25.2779 35.0232 25.3086 34.926 25.689C34.8112 26.0539 34.7032 26.42 34.5963 26.7838C34.4117 27.4185 34.2418 27.9817 34.0325 28.5042C33.8311 29.0142 33.5847 29.4788 33.2381 29.9129C32.8431 30.4195 32.3953 30.8626 31.9047 31.2525C28.7629 33.7651 24.5792 33.6619 21.4183 31.2446C20.3606 30.432 19.628 29.5525 19.08 28.3217C18.8167 27.7211 18.5905 27.0569 18.343 26.3112L18.2158 25.9304C18.1965 25.8741 18.1784 25.8144 18.1599 25.7532C18.0759 25.4758 17.9832 25.1698 17.7297 25.0306C17.5603 24.9391 17.4458 24.9571 17.3372 24.9742C17.2142 24.9936 17.0988 25.0117 16.9195 24.8685C16.7338 24.7155 16.5572 24.4582 16.4007 24.1477ZM23.7375 37.76C22.3489 37.1922 21.2878 36.1654 21.1145 34.6989C21.1087 34.6451 21.1006 34.6193 21.0902 34.586C21.0784 34.5486 21.0637 34.5015 21.0458 34.3941L20.9198 32.5207C21.2619 32.7405 21.5995 32.9355 21.9359 33.1134C25.485 34.9664 28.7427 34.8123 32.0813 32.7031V34.4145C32.0262 34.4961 31.9879 34.5924 31.9755 34.6967C31.7899 36.196 30.7366 37.2228 29.3615 37.7804C28.5063 38.1284 27.5296 38.2984 26.5506 38.295C25.5739 38.2904 24.5961 38.1114 23.7375 37.76ZM16.5144 36.0657C16.5752 38.9421 16.9555 41.2008 18.2822 43.3235C18.8548 44.3589 20.7 46.7868 23.5 48.2149C24.3709 48.6199 26.7515 49.1868 29.3064 48.2149C31.1834 46.9309 32.6338 45.6117 33.7366 44.0738C35.2208 42.0043 36.0558 39.5699 36.426 36.3298C42.5677 37.3543 48.176 38.7154 49.6928 46.2407L50.5976 51.1706H40.1101V45.4485C40.1101 45.0983 39.8288 44.8138 39.4811 44.8138C39.1334 44.8138 38.8509 45.0983 38.8509 45.4485V56.7307H14.0872V45.4485C14.0872 45.0983 13.8048 44.8138 13.4582 44.8138C13.1093 44.8138 12.828 45.0983 12.828 45.4485V51.1706H2.27641L2.78053 48.0755C4.62259 38.6395 9.43423 37.4597 16.5144 36.0657ZM1.36945 56.7307L1.77792 54.2238H12.828V56.7307H1.36945ZM51.6171 56.7307H40.1101V54.2238H51.1579L51.6171 56.7307Z" fill="black" fill-opacity="0.87"/>
<path fill-rule="evenodd" clip-rule="evenodd" d="M37.519 27.0229C37.6847 27.0013 37.8008 26.8484 37.7772 26.683L36.9484 20.8819C36.925 20.7178 37.039 20.5659 37.203 20.5424L37.797 20.4576C37.961 20.4342 38.1129 20.5481 38.1364 20.7121L39.1369 27.7158C39.1605 27.8812 39.0444 28.0341 38.8787 28.0557L27.3751 29.5562C27.2108 29.5776 27.0602 29.4618 27.0388 29.2975L26.9612 28.7025C26.9397 28.5382 27.0555 28.3877 27.2198 28.3663L37.519 27.0229Z" fill="black" fill-opacity="0.87"/>
<circle cx="27.5" cy="29" r="2" fill="black" fill-opacity="0.87"/>
</g>
<defs>
<clipPath id="clip0_725_4733">
<rect width="53" height="58" fill="white"/>
</clipPath>
</defs>
</svg>
