<svg width="140" height="140" viewBox="0 0 140 140" fill="none" xmlns="http://www.w3.org/2000/svg">
<path d="M119.287 20.4325C119.919 19.0221 121.62 18.3792 123.03 19.0221C124.441 19.6651 125.063 21.3451 124.42 22.7554C123.777 24.1762 122.118 24.7984 120.707 24.1555C119.287 23.5228 118.644 21.8428 119.287 20.4325Z" fill="#E1E1E1" fill-opacity="0.4"/>
<path d="M133.017 70.0029C133.017 104.965 104.659 133.013 69.9967 133.013C35.4873 133.013 6.98633 105.098 6.98633 70.0029C6.98633 58.0459 10.3152 46.8666 16.1019 37.3362L14.9922 34.5881C14.8782 34.2977 15.0441 33.9658 15.3449 33.8829L16.5685 33.5407C16.8486 33.4577 17.1493 33.634 17.2219 33.9244L17.5122 35.1169C29.2668 17.5484 48.7561 6.98218 69.9967 6.98218C91.4527 6.98218 110.491 17.796 121.641 33.8829H123.705C124.006 33.8829 124.223 34.1733 124.13 34.4637L123.456 36.6103C129.523 46.2962 133.017 57.7348 133.017 70.0029Z" fill="#E1E1E1" fill-opacity="0.4"/>
<path d="M16.7344 17.9644C17.3775 16.554 19.0677 15.9215 20.4782 16.554C21.8988 17.197 22.5108 18.877 21.8678 20.2977C21.2352 21.7081 19.5655 22.3303 18.1552 21.6978C16.7448 21.0547 16.0916 19.3851 16.7344 17.9644Z" fill="#E1E1E1" fill-opacity="0.4"/>
<path d="M21.8678 120.828C21.2352 122.249 19.5655 122.871 18.1552 122.228C16.7448 121.596 16.0916 119.916 16.7344 118.505C17.3775 117.095 19.0677 116.452 20.4782 117.095C21.8988 117.738 22.5108 119.418 21.8678 120.828Z" fill="#E1E1E1" fill-opacity="0.4"/>
<path d="M115.128 14.9051C115.532 14.0029 116.611 13.5984 117.513 14.0029C118.415 14.4073 118.809 15.4858 118.395 16.3777C117.99 17.2799 116.932 17.6843 116.03 17.2696C115.138 16.8651 114.723 15.797 115.128 14.9051Z" fill="#E1E1E1" fill-opacity="0.4"/>
<path d="M15.8529 114.45C15.4484 115.352 14.3802 115.757 13.4885 115.342C12.5861 114.938 12.1714 113.869 12.5861 112.978C12.9907 112.075 14.0691 111.671 14.961 112.075C15.8633 112.48 16.2573 113.558 15.8529 114.45Z" fill="#E1E1E1" fill-opacity="0.4"/>
<path d="M119.283 20.4308C118.643 21.8443 119.289 23.518 120.702 24.1581C122.116 24.7983 123.781 24.1714 124.421 22.7578C125.061 21.3444 124.443 19.6602 123.029 19.0201C121.616 18.3799 119.923 19.0174 119.283 20.4308ZM115.129 14.9014C114.722 15.8011 115.133 16.8663 116.033 17.2738C116.932 17.6812 117.992 17.2822 118.4 16.3825C118.807 15.4829 118.413 14.411 117.514 14.0035C116.614 13.5961 115.537 14.0018 115.129 14.9014ZM16.7339 118.504C16.0937 119.917 16.7398 121.591 18.1532 122.231C19.5667 122.871 21.2318 122.244 21.872 120.831C22.5121 119.417 21.8937 117.733 20.4803 117.093C19.0669 116.453 17.3741 117.09 16.7339 118.504ZM16.7339 17.9678C16.0937 19.3813 16.7398 21.055 18.1532 21.6951C19.5667 22.3353 21.2318 21.7084 21.872 20.2948C22.5121 18.8814 21.8937 17.1972 20.4803 16.5571C19.0669 15.9169 17.3741 16.5544 16.7339 17.9678ZM12.5805 112.974C12.173 113.874 12.5842 114.939 13.4838 115.347C14.3834 115.754 15.4432 115.355 15.8507 114.455C16.2582 113.556 15.8645 112.484 14.9649 112.076C14.0653 111.669 12.9879 112.075 12.5805 112.974Z" fill="#E1E1E1" fill-opacity="0.4"/>
<path d="M109.892 111.348C109.892 117.718 91.6393 122.885 69.1286 122.885C53.6667 122.885 40.218 120.449 33.3081 116.859C32.6278 116.505 32.3631 115.67 32.698 114.981L33.7146 112.887C33.8219 112.666 33.6019 112.428 33.3731 112.518L30.5423 113.631C29.854 113.902 29.0641 113.6 28.7404 112.935C28.4872 112.416 28.3564 111.885 28.3564 111.348C28.3564 104.978 46.6091 99.8201 69.1286 99.8201C75.1472 99.8201 80.8601 100.191 86.0019 100.854C87.15 101.002 87.8114 102.232 87.3043 103.273C87.1965 103.494 87.417 103.732 87.6459 103.642L91.8109 101.999C92.066 101.899 92.3489 101.873 92.6179 101.927C103.072 104.013 109.892 107.453 109.892 111.348Z" fill="white"/>
<path d="M101.004 111.357C101.004 115.476 86.7324 118.817 69.1289 118.817C61.9652 118.817 37.2451 117.449 37.2451 111.357C37.2451 107.237 51.5166 103.896 69.1289 103.896C72.5474 103.896 75.8363 104.018 78.9259 104.26C91.7348 105.221 101.004 108.034 101.004 111.357Z" fill="url(#paint0_linear_1451_17567)"/>
<path d="M101.004 111.357C101.004 115.476 86.7324 118.817 69.1289 118.817C62.5069 118.817 37.2451 117.521 37.2451 111.357C37.2451 107.237 51.5166 103.896 69.1289 103.896C76.9639 103.896 88.7909 104.661 96.1228 107.385C99.2124 108.535 101.004 109.894 101.004 111.357Z" fill="#DEE1E4"/>
<path d="M68.0754 103.903C50.9522 104.033 37.2451 107.32 37.2451 111.357C37.2451 117.45 61.92 118.756 68.0754 118.803V103.903Z" fill="#DEE1E4"/>
<path d="M100.943 110.898C97.4641 108.83 90.1683 107.229 81.0981 106.545C62.288 105.071 39.4173 108.26 39.4173 113.642C39.4173 113.797 39.4347 113.953 39.4779 114.1C29.3448 108.154 54.1164 102.316 78.9258 104.26C91.1376 105.177 100.138 107.774 100.943 110.898Z" fill="#D3D5D8"/>
<path d="M104.91 21.37L24.5214 29.2428C22.1329 29.4767 20.4299 31.6669 20.7917 34.0394L27.6677 79.1274C27.9827 81.1924 29.7719 82.709 31.8606 82.6815L68.972 82.1921L71.2672 85.5417C71.7831 86.2945 71.449 87.3318 70.5907 87.6421L55.5652 93.0738C54.7513 93.368 54.7398 94.515 55.5476 94.8256L62.9947 97.6883C63.499 97.8822 63.7344 98.462 63.508 98.9526L61.8673 102.508C61.6299 103.022 61.9011 103.628 62.443 103.793L72.8313 106.967C73.3977 107.14 73.6625 107.79 73.3786 108.309L68.2136 117.764C68.3174 117.739 69.5031 117.823 70.3619 116.706L78.2214 106.487C78.6249 105.963 78.3705 105.196 77.7334 105.017L66.2701 101.794C65.6337 101.615 65.379 100.85 65.7811 100.325L68.3785 96.936C68.6108 96.6328 68.6353 96.2188 68.4404 95.8903L67.2653 93.9104C66.9341 93.3523 67.2584 92.6347 67.8962 92.5146L83.7362 89.5314C84.178 89.4482 84.498 89.0623 84.498 88.6127V82.0131L102.589 81.7676C104.792 81.7378 106.594 80.0058 106.712 77.8061L109.497 25.7592C109.634 23.2003 107.46 21.1202 104.91 21.37Z" fill="#C5CAD0"/>
<path d="M44.9453 21.8841L96.965 15.645C97.4205 15.5903 97.8215 15.946 97.8215 16.4049V18.5203C97.8215 18.9282 97.5016 19.2644 97.0942 19.2847L44.9453 21.8841Z" fill="#DEE1E4"/>
<path d="M113.478 27.8398H115.418C115.692 27.8398 115.903 28.0818 115.866 28.3534L110.709 65.9641L113.026 28.2642C113.041 28.0258 113.239 27.8398 113.478 27.8398Z" fill="#DEE1E4"/>
<path d="M118.428 33.8784H123.703C124.008 33.8784 124.226 34.1745 124.135 34.4657L115.937 60.6465L117.977 34.2956C117.995 34.0602 118.192 33.8784 118.428 33.8784Z" fill="#DEE1E4"/>
<path d="M13.6972 57.345H20.9504C21.2168 57.345 21.4411 57.5442 21.4724 57.8088L24.3712 82.2521L13.2199 58.091C13.0591 57.7426 13.3136 57.345 13.6972 57.345Z" fill="#DEE1E4"/>
<path d="M15.3416 33.8852L16.5645 33.5413C16.8504 33.4609 17.1461 33.6331 17.2173 33.9214L21.1303 49.7834L14.9964 34.5881C14.8792 34.2978 15.0402 33.97 15.3416 33.8852Z" fill="#DEE1E4"/>
<path d="M33.7549 60.1751V47.2222C33.7549 46.872 34.0388 46.5881 34.389 46.5881H42.7032C43.0534 46.5881 43.3373 46.872 43.3373 47.2222V48.4333C43.3373 48.7835 43.0534 49.0674 42.7032 49.0674H36.7622V52.4556H42.2105C42.5607 52.4556 42.8446 52.7395 42.8446 53.0897V54.3008C42.8446 54.651 42.5607 54.9349 42.2105 54.9349H36.7622V58.3299H42.7307C43.0809 58.3299 43.3648 58.6138 43.3648 58.964V60.1751C43.3648 60.5253 43.0809 60.8092 42.7307 60.8092H34.389C34.0388 60.8092 33.7549 60.5253 33.7549 60.1751Z" fill="white"/>
<path d="M53.9254 55.2839C57.1914 53.8817 57.3588 48.7908 54.0953 47.1588C53.3343 46.7784 52.4173 46.5881 51.3439 46.5881H46.3665C46.0163 46.5881 45.7324 46.872 45.7324 47.2222V60.1729C45.7324 60.5231 46.0163 60.807 46.3665 60.807H48.1078C48.458 60.807 48.7419 60.5231 48.7419 60.1729V55.7662H50.9295C53.4907 60.3073 53.3291 60.807 54.0064 60.807H55.8786C56.3603 60.807 56.6661 60.291 56.4348 59.8685L53.9254 55.2839ZM48.7419 53.3477V49.0474C50.1368 49.1222 52.2715 48.6832 53.0626 50.0393C53.4323 50.6964 53.4407 51.7593 53.0626 52.4034C52.3096 53.6673 50.3595 53.3086 48.7419 53.3477Z" fill="white"/>
<path d="M66.7584 55.2839C69.4436 54.133 69.854 50.8473 68.6674 48.7757C67.7438 47.1791 66.0211 46.5881 64.1769 46.5881H59.1995C58.8493 46.5881 58.5654 46.872 58.5654 47.2222V60.1729C58.5654 60.5231 58.8493 60.807 59.1995 60.807H60.9341C61.2843 60.807 61.5682 60.5231 61.5682 60.1729V55.7662H63.7625C66.3237 60.3073 66.1621 60.807 66.8394 60.807H68.7116C69.1933 60.807 69.4991 60.291 69.2678 59.8684L66.7584 55.2839ZM61.5682 53.3477V49.0474C63.1616 49.1327 65.1083 48.6892 65.8956 50.0393C66.2669 50.6994 66.2722 51.7618 65.8956 52.4034C65.1441 53.6651 63.1829 53.3088 61.5682 53.3477Z" fill="white"/>
<path d="M77.8067 61.0028C75.3221 61.0028 73.211 59.8656 72.0227 57.649C70.8495 55.4606 70.8489 51.9314 72.0227 49.74C73.2013 47.5415 75.3017 46.3931 77.8067 46.3931C86.8161 46.3931 86.7623 61.0028 77.8067 61.0028ZM79.7089 49.5879C79.1681 49.2316 78.533 49.0529 77.8067 49.0529C75.8266 49.0529 74.1957 50.4458 74.1957 53.6984C74.1957 59.3855 79.5752 59.463 80.9691 56.2395C81.7392 54.4646 81.6999 50.8972 79.7089 49.5879Z" fill="white"/>
<path d="M94.8853 55.2771C98.3157 54.2953 98.9639 46.5881 92.297 46.5881H87.3196C86.9694 46.5881 86.6855 46.872 86.6855 47.2222V60.1729C86.6855 60.5231 86.9694 60.807 87.3196 60.807H89.0609C89.4111 60.807 89.695 60.5231 89.695 60.1729V55.7662H91.8825C94.4438 60.3073 94.2822 60.807 94.9595 60.807H96.8335C97.3148 60.807 97.6206 60.2918 97.3901 59.8693L94.8853 55.2771ZM89.695 53.3477V49.0474C90.6759 49.2055 93.1495 48.5544 94.0158 50.0393C94.385 50.6725 94.3957 51.779 94.0158 52.4034C93.2622 53.6682 91.3162 53.3085 89.695 53.3477Z" fill="white"/>
<defs>
<linearGradient id="paint0_linear_1451_17567" x1="69.4231" y1="115.635" x2="67.8499" y2="93.1428" gradientUnits="userSpaceOnUse">
<stop stop-color="#AAB2C5"/>
<stop offset="1" stop-color="#D6DCE8"/>
</linearGradient>
</defs>
</svg>
