<svg width="24" height="24" viewBox="0 0 24 24" fill="none" xmlns="http://www.w3.org/2000/svg">
<path fill-rule="evenodd" clip-rule="evenodd" d="M4 6.32902C4 5.04269 5.04278 3.99991 6.32911 3.99991H17.6709C18.9572 3.99991 20 5.04269 20 6.32902V17.6708C20 18.9571 18.9572 19.9999 17.6709 19.9999H6.32911C5.04278 19.9999 4 18.9571 4 17.6708V6.32902ZM6.32911 5.82269C6.04948 5.82269 5.82278 6.04938 5.82278 6.32902V17.6708C5.82278 17.9504 6.04948 18.1771 6.32911 18.1771H17.6709C17.9505 18.1771 18.1772 17.9504 18.1772 17.6708V15.2674V6.32902C18.1772 6.04938 17.9505 5.82269 17.6709 5.82269H6.32911Z" fill="black" fill-opacity="0.87"/>
<path fill-rule="evenodd" clip-rule="evenodd" d="M14.5316 8.86067C14.1961 8.86067 13.9241 9.1327 13.9241 9.46826C13.9241 9.80383 14.1961 10.0759 14.5316 10.0759C14.8672 10.0759 15.1392 9.80383 15.1392 9.46826C15.1392 9.1327 14.8672 8.86067 14.5316 8.86067ZM12.1013 9.46826C12.1013 8.126 13.1894 7.03788 14.5316 7.03788C15.8739 7.03788 16.962 8.126 16.962 9.46826C16.962 10.8105 15.8739 11.8986 14.5316 11.8986C13.1894 11.8986 12.1013 10.8105 12.1013 9.46826Z" fill="black" fill-opacity="0.87"/>
<path d="M5.82278 10.4808V12.9808L7.1116 11.8043C7.371 11.5586 7.73993 11.5669 7.99173 11.8395L10.9639 15.0565C11.7518 15.9095 13.0291 16.0395 13.9618 15.33L14.1685 15.1729C14.5968 14.8471 15.1647 14.8776 15.5664 15.2689L17.7999 17.4446C17.8798 17.5119 18.0671 17.6513 18.1772 17.6708V15.2674L16.8383 13.9632C15.7994 12.9512 14.222 12.842 13.0648 13.7222L12.8582 13.8793C12.6891 14.008 12.4671 13.9975 12.3028 13.8196L9.33058 10.6025C8.39589 9.59083 6.82616 9.53059 5.82278 10.4808Z" fill="black" fill-opacity="0.87"/>
</svg>
