<svg width="40" height="36" viewBox="0 0 40 36" fill="none" xmlns="http://www.w3.org/2000/svg">
<path d="M39.9999 26.6361C39.9999 24.1852 39.299 21.8188 37.9727 19.7924C37.0188 18.3349 35.7904 17.1246 34.3669 16.2251C36.0429 14.5632 37.0915 12.2143 37.0915 9.61221C37.0915 4.58778 33.1876 0.5 28.3892 0.5C25.5438 0.5 22.8785 1.97346 21.2595 4.39224C20.8481 4.32949 20.4278 4.29565 19.9999 4.29565C19.5721 4.29565 19.1519 4.32961 18.7405 4.39224C17.1214 1.97346 14.4561 0.5 11.6108 0.5C6.81234 0.5 2.90837 4.58778 2.90837 9.61221C2.90837 12.2143 3.95701 14.5632 5.63312 16.2251C4.20948 17.1245 2.98108 18.3349 2.02726 19.7923C0.701025 21.8188 0 24.1852 0 26.6361V31.7045H8.38922V35.5H31.6109V31.7045H40V26.6361H39.9999ZM28.3892 2.74899C32.0034 2.74899 34.9438 5.82781 34.9438 9.61232C34.9438 13.3968 32.0034 16.4757 28.3892 16.4757C28.3244 16.4757 28.2597 16.4746 28.1948 16.4726C28.1997 16.4582 28.2038 16.4435 28.2086 16.4291C28.3205 16.0969 28.4139 15.7558 28.4887 15.4073C28.494 15.3826 28.5 15.3581 28.505 15.3332C28.5245 15.2392 28.5415 15.1443 28.5582 15.0492C28.566 15.0042 28.5741 14.9594 28.5813 14.9143C28.5948 14.8294 28.6071 14.7441 28.6183 14.6586C28.6262 14.5991 28.6333 14.5396 28.64 14.48C28.6485 14.4044 28.6568 14.3288 28.6635 14.2526C28.6704 14.1749 28.6756 14.0971 28.6805 14.0192C28.6844 13.9578 28.6892 13.8966 28.6919 13.8349C28.6978 13.7026 28.7011 13.57 28.7016 13.4373C28.7016 13.4275 28.7023 13.418 28.7023 13.4081C28.7023 13.4028 28.7019 13.3975 28.7019 13.3922C28.7017 13.2567 28.6979 13.122 28.6921 12.9878C28.6904 12.9487 28.6881 12.9098 28.686 12.8709C28.6796 12.7568 28.6714 12.6432 28.6612 12.5302C28.6588 12.5046 28.6569 12.479 28.6544 12.4534C28.3299 9.16907 26.3483 6.35786 23.4896 5.05757C24.7215 3.6085 26.5032 2.74899 28.3892 2.74899ZM17.732 6.9681C17.753 6.96011 17.7741 6.95258 17.7951 6.94471C17.8603 6.92031 17.926 6.89714 17.992 6.87477C18.0421 6.85801 18.0924 6.84182 18.1431 6.8263C18.1799 6.81495 18.2169 6.80404 18.2539 6.79325C18.3201 6.77424 18.3866 6.75569 18.4537 6.73871C18.9498 6.61255 19.4672 6.54407 19.9997 6.54407C20.5327 6.54452 21.0503 6.61311 21.5465 6.73927C21.6132 6.75614 21.6793 6.77458 21.7451 6.79347C21.7827 6.80438 21.8203 6.8154 21.8575 6.82698C21.9076 6.84238 21.9574 6.85835 22.0069 6.87488C22.0738 6.89748 22.1403 6.92087 22.2062 6.94561C22.2265 6.95314 22.2468 6.96034 22.267 6.9681C24.4591 7.81693 26.1027 9.8597 26.4747 12.3387C26.4776 12.3585 26.4804 12.3784 26.4831 12.3983C26.4951 12.4823 26.505 12.567 26.514 12.6519C26.5172 12.6832 26.5206 12.7143 26.5235 12.7457C26.5306 12.8231 26.5359 12.9012 26.5406 12.9794C26.5425 13.013 26.5452 13.0463 26.5467 13.08C26.5512 13.1799 26.5537 13.2805 26.554 13.3815C26.554 13.3903 26.5546 13.3989 26.5546 13.4076C26.5546 13.4117 26.5543 13.4158 26.5543 13.4199C26.5541 13.5177 26.5513 13.6149 26.5473 13.7117C26.546 13.7422 26.5447 13.7726 26.543 13.803C26.5379 13.8965 26.5313 13.9896 26.5227 14.0821C26.5193 14.1178 26.5148 14.1535 26.511 14.1891C26.5044 14.2489 26.4971 14.3086 26.4892 14.368C26.4829 14.4142 26.4767 14.4606 26.4696 14.5065C26.4588 14.5766 26.4467 14.6462 26.4339 14.7156C26.4224 14.7773 26.4098 14.8388 26.3967 14.9002C26.3889 14.9372 26.3807 14.9742 26.3722 15.011C26.3513 15.1022 26.3283 15.1928 26.3038 15.2831C26.294 15.3189 26.2849 15.355 26.2746 15.3906C26.2597 15.4423 26.2436 15.4936 26.2276 15.5448C26.2147 15.5859 26.2015 15.6267 26.1878 15.6674C26.1724 15.7136 26.1571 15.76 26.1408 15.8058C26.113 15.8838 26.0838 15.961 26.0534 16.0376C26.0398 16.0718 26.0255 16.1056 26.0114 16.1397C25.9849 16.2034 25.9576 16.2668 25.9292 16.3296C25.9259 16.337 25.9226 16.3444 25.9193 16.3519C25.909 16.3741 25.899 16.3965 25.8885 16.4188C25.8568 16.4867 25.8237 16.5538 25.7897 16.6204C25.7765 16.6462 25.7638 16.6724 25.7502 16.6982C25.7494 16.6999 25.7485 16.7014 25.7476 16.703C25.7105 16.7739 25.6717 16.8436 25.6323 16.9128C25.6166 16.9403 25.6012 16.9678 25.5852 16.9949C25.5422 17.0679 25.4981 17.1401 25.4527 17.2112C25.4244 17.2553 25.3949 17.2986 25.3657 17.3421C25.3409 17.379 25.3162 17.416 25.2907 17.4523C25.2577 17.4993 25.2241 17.5458 25.19 17.592C25.1668 17.6234 25.1434 17.6545 25.1198 17.6856C25.0837 17.7328 25.0473 17.7798 25.0101 17.826C24.987 17.8547 24.9633 17.8828 24.9398 17.911C24.9011 17.9574 24.8626 18.004 24.8228 18.0493C24.7992 18.0762 24.7747 18.102 24.7507 18.1286C24.686 18.2 24.6199 18.2698 24.5524 18.3383C24.5124 18.3789 24.4725 18.4196 24.4315 18.4591C24.4032 18.4864 24.3741 18.5129 24.3452 18.5398C24.2981 18.5835 24.2508 18.6268 24.2026 18.6691C24.1781 18.6906 24.1534 18.7118 24.1286 18.733C24.0703 18.7827 24.0112 18.8314 23.9512 18.879C23.9348 18.892 23.9187 18.9051 23.9023 18.9179C22.8112 19.7672 21.4607 20.2706 19.9998 20.2706C18.5388 20.2706 17.1881 19.7671 16.0971 18.9176C16.0809 18.905 16.0652 18.8921 16.0492 18.8794C15.9889 18.8316 15.9295 18.7826 15.871 18.7326C15.8464 18.7116 15.8218 18.6906 15.7976 18.6692C15.7491 18.6267 15.7017 18.5832 15.6544 18.5393C15.6257 18.5126 15.5967 18.4863 15.5685 18.4591C15.5274 18.4195 15.4874 18.3787 15.4473 18.3381C15.3795 18.2694 15.3132 18.1993 15.2484 18.1277C15.2246 18.1015 15.2004 18.076 15.1771 18.0494C15.1372 18.004 15.0987 17.9573 15.06 17.9109C15.0365 17.8827 15.0129 17.8547 14.9898 17.826C14.9525 17.7798 14.9162 17.7328 14.8801 17.6857C14.8565 17.6546 14.833 17.6235 14.8098 17.592C14.7758 17.5459 14.7422 17.4995 14.7092 17.4525C14.6837 17.416 14.6589 17.3789 14.6341 17.3419C14.6049 17.2985 14.5755 17.2553 14.5473 17.2113C14.5017 17.1399 14.4574 17.0674 14.4143 16.9942C14.3985 16.9674 14.3833 16.9403 14.3678 16.9132C14.3277 16.8429 14.2885 16.7723 14.2509 16.7004C14.237 16.674 14.2239 16.6471 14.2103 16.6206C14.1763 16.5538 14.1431 16.4865 14.1112 16.4184C14.0999 16.3942 14.0888 16.3698 14.0777 16.3456C14.076 16.3418 14.0744 16.3381 14.0728 16.3344C14.0431 16.2688 14.0146 16.2024 13.9868 16.1355C13.9736 16.1037 13.9602 16.072 13.9475 16.0401C13.9163 15.9618 13.8866 15.8829 13.8581 15.8032C13.8428 15.7603 13.8286 15.7169 13.8141 15.6736C13.7992 15.6292 13.7848 15.5844 13.7707 15.5396C13.7556 15.491 13.7403 15.4424 13.7262 15.3936C13.705 15.3206 13.685 15.2472 13.6662 15.1733C13.653 15.1215 13.6411 15.0692 13.629 15.017C13.6195 14.976 13.6104 14.935 13.6017 14.8937C13.591 14.8431 13.5801 14.7926 13.5704 14.7418C13.5555 14.6626 13.5419 14.583 13.5296 14.5029C13.523 14.4598 13.5172 14.4165 13.5113 14.3733C13.5026 14.3093 13.4947 14.245 13.4878 14.1805C13.4843 14.1486 13.4803 14.1168 13.4772 14.085C13.4683 13.9902 13.4616 13.8947 13.4564 13.7989C13.4549 13.7714 13.4537 13.7438 13.4525 13.7163C13.4481 13.6139 13.445 13.5111 13.445 13.4076C13.445 13.2968 13.448 13.1867 13.4531 13.077C13.4545 13.0473 13.4568 13.0177 13.4584 12.988C13.4632 12.9057 13.4689 12.8236 13.4764 12.742C13.479 12.7135 13.4821 12.6852 13.485 12.6568C13.4942 12.5685 13.5046 12.4805 13.5171 12.3932C13.5194 12.3762 13.5218 12.3591 13.5244 12.3421C13.8952 9.86161 15.5391 7.8175 17.732 6.9681ZM5.05612 9.61232C5.05612 5.82792 7.9965 2.74899 11.6108 2.74899C13.4969 2.74899 15.2786 3.60862 16.5104 5.05734C13.6508 6.35809 11.6687 9.17064 11.3452 12.4564C11.3429 12.4786 11.3413 12.501 11.3393 12.5234C11.3285 12.6404 11.32 12.7579 11.3136 12.8761C11.3117 12.9121 11.3095 12.948 11.3079 12.9841C11.3018 13.1247 11.2976 13.2658 11.2976 13.408C11.2976 13.5514 11.3016 13.6946 11.308 13.8376C11.3106 13.8952 11.3151 13.9522 11.3186 14.0094C11.3239 14.0917 11.3293 14.174 11.3366 14.2561C11.343 14.3291 11.351 14.4016 11.3591 14.4742C11.3662 14.5374 11.3737 14.6003 11.3821 14.6633C11.3931 14.7459 11.4049 14.8282 11.4179 14.9102C11.4257 14.9589 11.4343 15.0075 11.4428 15.0561C11.4589 15.1478 11.4753 15.2393 11.494 15.3301C11.5002 15.36 11.5073 15.3897 11.5138 15.4195C11.5867 15.7571 11.6772 16.0877 11.785 16.4101C11.7919 16.4309 11.7979 16.4519 11.8049 16.4726C11.7401 16.4746 11.6753 16.4757 11.6106 16.4757C7.9965 16.4755 5.05612 13.3967 5.05612 9.61232ZM10.1898 23.949C10.1662 23.988 10.1436 24.0277 10.1204 24.067C10.0713 24.1499 10.0227 24.2331 9.97565 24.3171C9.94934 24.364 9.924 24.4113 9.89844 24.4585C9.85613 24.5364 9.81435 24.6146 9.77376 24.6934C9.7482 24.743 9.72307 24.7928 9.69816 24.8426C9.65907 24.921 9.62095 24.9998 9.58358 25.0788C9.56006 25.1285 9.53665 25.1781 9.51388 25.228C9.47587 25.3114 9.43925 25.3954 9.40306 25.4795C9.38341 25.5252 9.36322 25.5707 9.34421 25.6167C9.30233 25.7174 9.26238 25.8189 9.22319 25.9208C9.2117 25.9506 9.19945 25.9801 9.18828 26.0099C9.13856 26.1422 9.09099 26.2755 9.04589 26.4094C9.03558 26.4401 9.02635 26.4711 9.01614 26.5018C8.98221 26.605 8.94913 26.7086 8.91788 26.8126C8.9036 26.8604 8.89039 26.9084 8.87665 26.9563C8.85141 27.0445 8.8266 27.1327 8.8033 27.2216C8.78945 27.2744 8.77624 27.3274 8.76303 27.3804C8.74177 27.4657 8.72136 27.5511 8.70203 27.6369C8.68968 27.6912 8.67766 27.7455 8.66617 27.8C8.6477 27.8869 8.63041 27.9741 8.61376 28.0615C8.60378 28.114 8.59347 28.1665 8.58412 28.2193C8.56726 28.3144 8.55212 28.41 8.53741 28.5057C8.53054 28.5506 8.52291 28.5954 8.51647 28.6404C8.4965 28.7809 8.47835 28.9218 8.4631 29.0634C8.46288 29.0651 8.46278 29.0668 8.46267 29.0684C8.44882 29.1972 8.4369 29.3262 8.42691 29.4556H2.14775V26.6361C2.14775 22.784 4.26264 19.3258 7.57597 17.6821C8.783 18.3464 10.1551 18.7245 11.6107 18.7245C12.0317 18.7245 12.4539 18.6919 12.873 18.6274C12.9383 18.7249 13.0046 18.8213 13.0733 18.916C13.0965 18.9478 13.1206 18.9789 13.1442 19.0104C13.2121 19.1012 13.2809 19.1911 13.352 19.2791C13.3811 19.3152 13.411 19.3505 13.4406 19.3861C13.5072 19.4662 13.5748 19.5453 13.644 19.6227C13.6803 19.6635 13.7172 19.7037 13.7542 19.7438C13.8174 19.8121 13.8815 19.8793 13.9467 19.9456C13.9712 19.9704 13.9943 19.9967 14.019 20.0213C13.9257 20.0804 13.8332 20.1409 13.7416 20.2026C13.7267 20.2126 13.7121 20.2232 13.6973 20.2333C13.6057 20.2956 13.515 20.3592 13.4253 20.4241C13.3942 20.4466 13.3633 20.4693 13.3324 20.492C13.2524 20.5511 13.1732 20.6111 13.0947 20.6722C13.0699 20.6915 13.0448 20.7104 13.0202 20.73C12.9203 20.809 12.8216 20.8895 12.7242 20.9718C12.703 20.9898 12.6821 21.0084 12.6609 21.0266C12.5833 21.093 12.5066 21.1606 12.4307 21.2292C12.4013 21.2558 12.3721 21.2825 12.3429 21.3094C12.267 21.3794 12.192 21.4505 12.1178 21.5226C12.0985 21.5414 12.0787 21.5598 12.0595 21.5788C11.9684 21.6685 11.8788 21.7599 11.7904 21.8529C11.7674 21.8771 11.745 21.9017 11.7222 21.926C11.6545 21.9983 11.5876 22.0714 11.5216 22.1455C11.4954 22.175 11.4692 22.2044 11.4432 22.2342C11.3689 22.3192 11.2957 22.4054 11.2236 22.4927C11.2123 22.5065 11.2006 22.5197 11.1893 22.5336C11.1072 22.634 11.0269 22.7363 10.9476 22.8396C10.9255 22.8684 10.9039 22.8977 10.8821 22.9268C10.8225 23.006 10.7638 23.0861 10.706 23.167C10.6837 23.1982 10.6612 23.2292 10.6392 23.2607C10.5636 23.3687 10.489 23.4775 10.4165 23.5883C10.3386 23.7072 10.2632 23.8277 10.1898 23.949ZM10.537 33.2512V31.7046V30.4317C10.537 30.3069 10.5392 30.1825 10.5436 30.0585C10.545 30.0177 10.5481 29.9772 10.5501 29.9365C10.5539 29.8538 10.5576 29.7709 10.5634 29.6885C10.5669 29.6384 10.5723 29.5888 10.5766 29.5389C10.5828 29.4663 10.5884 29.3935 10.5961 29.3213C10.6018 29.2685 10.6092 29.216 10.6157 29.1632C10.6241 29.0945 10.6319 29.0257 10.6416 28.9574C10.6494 28.9029 10.6588 28.849 10.6674 28.7948C10.678 28.7289 10.6877 28.6628 10.6995 28.5972C10.7095 28.5418 10.7211 28.4869 10.732 28.4317C10.7444 28.368 10.7564 28.3042 10.77 28.241C10.782 28.1852 10.7958 28.13 10.8087 28.0744C10.8232 28.0126 10.837 27.9504 10.8526 27.8889C10.8668 27.833 10.8824 27.7777 10.8975 27.7223C10.9138 27.6619 10.9297 27.6014 10.9471 27.5415C10.9633 27.4857 10.9811 27.4304 10.9982 27.3749C11.0164 27.3161 11.0342 27.2572 11.0534 27.1988C11.0716 27.1436 11.0913 27.0889 11.1104 27.0341C11.1306 26.9763 11.1504 26.9183 11.1715 26.861C11.1917 26.8064 11.2132 26.7526 11.2341 26.6984C11.2561 26.6418 11.2778 26.5849 11.3008 26.5288C11.323 26.4747 11.3465 26.4212 11.3695 26.3677C11.3933 26.3125 11.4168 26.257 11.4415 26.2024C11.4657 26.149 11.491 26.0962 11.516 26.0433C11.5416 25.9893 11.5668 25.9352 11.5932 25.8818C11.6193 25.8292 11.6465 25.7772 11.6734 25.7252C11.7007 25.6724 11.7277 25.6197 11.7558 25.5675C11.7837 25.5158 11.8127 25.4649 11.8414 25.4137C11.8704 25.3622 11.8992 25.3106 11.9291 25.2595C11.9589 25.2088 11.9896 25.1589 12.0202 25.1087C12.0509 25.0585 12.0814 25.0082 12.113 24.9585C12.1446 24.9088 12.177 24.8598 12.2094 24.8108C12.2417 24.7619 12.274 24.7129 12.307 24.6646C12.3403 24.616 12.3746 24.5681 12.4088 24.5201C12.4428 24.4725 12.4766 24.425 12.5113 24.3781C12.5463 24.3307 12.5822 24.2841 12.618 24.2373C12.6536 24.191 12.6892 24.1448 12.7255 24.0991C12.7621 24.0532 12.7995 24.0079 12.8369 23.9627C12.8741 23.9176 12.9115 23.8725 12.9496 23.828C12.9878 23.7835 13.0267 23.7396 13.0656 23.6958C13.1045 23.652 13.1434 23.6085 13.183 23.5656C13.2227 23.5224 13.2632 23.4799 13.3038 23.4375C13.3443 23.3951 13.385 23.3529 13.4262 23.3112C13.4674 23.2697 13.5091 23.2288 13.5511 23.188C13.5932 23.1471 13.6355 23.1062 13.6784 23.066C13.7211 23.0259 13.7643 22.9865 13.8078 22.9472C13.8514 22.9078 13.8953 22.8685 13.9396 22.8298C13.9838 22.7914 14.0283 22.7535 14.0732 22.7158C14.1184 22.6778 14.164 22.6402 14.2099 22.6029C14.2554 22.5663 14.3012 22.5301 14.3473 22.4941C14.3941 22.4575 14.4412 22.4215 14.4889 22.3858C14.5355 22.3508 14.5826 22.3164 14.6299 22.2822C14.6785 22.2473 14.7272 22.2128 14.7764 22.1787C14.8242 22.1456 14.8724 22.1129 14.9208 22.0806C14.971 22.0472 15.0215 22.0143 15.0723 21.9819C15.1212 21.9507 15.1705 21.9197 15.2201 21.8894C15.2717 21.8578 15.3237 21.8266 15.376 21.7959C15.4261 21.7665 15.4766 21.7373 15.5274 21.7088C15.5805 21.6789 15.6341 21.6495 15.688 21.6205C15.7391 21.593 15.7905 21.5659 15.8422 21.5392C15.8829 21.5183 15.9241 21.4981 15.9652 21.4777C17.1721 22.142 18.5444 22.5201 19.9999 22.5201C21.4556 22.5201 22.8278 22.142 24.0347 21.4777C24.0755 21.498 24.1163 21.5181 24.1567 21.5388C24.2091 21.5658 24.261 21.5932 24.3127 21.621C24.366 21.6496 24.419 21.6786 24.4717 21.7082C24.523 21.7371 24.574 21.7666 24.6247 21.7964C24.6763 21.8267 24.7277 21.8574 24.7786 21.8887C24.8289 21.9195 24.8789 21.9509 24.9285 21.9826C24.9786 22.0146 25.0284 22.047 25.0778 22.08C25.1269 22.1127 25.1757 22.1457 25.2241 22.1794C25.2728 22.213 25.321 22.2472 25.3689 22.2817C25.4167 22.3162 25.4642 22.351 25.5114 22.3863C25.5585 22.4216 25.6051 22.4573 25.6515 22.4935C25.6981 22.5297 25.7444 22.5663 25.7903 22.6034C25.8358 22.6403 25.8809 22.6776 25.9258 22.7153C25.9709 22.7532 26.0158 22.7913 26.0603 22.83C26.1044 22.8684 26.148 22.9074 26.1914 22.9467C26.2351 22.9861 26.2786 23.0258 26.3215 23.0662C26.364 23.1061 26.406 23.1466 26.4478 23.1872C26.4901 23.2283 26.5323 23.2697 26.5739 23.3117C26.6148 23.3529 26.6551 23.3948 26.6951 23.4367C26.7359 23.4794 26.7767 23.5223 26.8168 23.5657C26.8561 23.6084 26.8949 23.6516 26.9334 23.695C26.9727 23.7392 27.0119 23.7835 27.0504 23.8283C27.0882 23.8724 27.1252 23.9171 27.1622 23.9618C27.1998 24.0074 27.2375 24.053 27.2744 24.0993C27.3106 24.1447 27.3459 24.1906 27.3812 24.2366C27.4173 24.2836 27.4534 24.3305 27.4886 24.3782C27.5232 24.4249 27.5568 24.4722 27.5905 24.5195C27.6249 24.5677 27.6593 24.6159 27.6928 24.6647C27.7257 24.7127 27.7578 24.7615 27.7899 24.8102C27.8225 24.8595 27.8551 24.9087 27.8868 24.9586C27.9182 25.008 27.9484 25.0579 27.9789 25.1078C28.0098 25.1583 28.0407 25.2087 28.0707 25.2598C28.1003 25.3102 28.1289 25.3615 28.1576 25.4126C28.1866 25.4641 28.2158 25.5155 28.2439 25.5675C28.2719 25.6195 28.2987 25.6721 28.3259 25.7245C28.353 25.7768 28.3802 25.8289 28.4063 25.8817C28.4328 25.935 28.4579 25.9891 28.4834 26.0429C28.5085 26.0959 28.5339 26.1487 28.5581 26.2023C28.5828 26.2569 28.6062 26.3121 28.6298 26.3672C28.653 26.4211 28.6765 26.4746 28.6988 26.5289C28.7216 26.5846 28.743 26.6409 28.7649 26.6971C28.7862 26.7518 28.8079 26.8062 28.8282 26.8613C28.8492 26.9183 28.8689 26.976 28.8889 27.0336C28.9082 27.0885 28.9278 27.1433 28.9461 27.1987C28.9654 27.2573 28.9832 27.3166 29.0015 27.3756C29.0186 27.4308 29.0363 27.4858 29.0524 27.5415C29.0699 27.6014 29.0857 27.662 29.1021 27.7224C29.1171 27.7778 29.1328 27.833 29.147 27.8889C29.1626 27.9504 29.1764 28.0125 29.1909 28.0744C29.2039 28.1299 29.2175 28.1852 29.2296 28.241C29.2432 28.3042 29.255 28.3679 29.2676 28.4315C29.2784 28.4867 29.29 28.5416 29.3 28.5972C29.3117 28.6622 29.3214 28.7277 29.3319 28.7932C29.3406 28.8479 29.3503 28.9024 29.3581 28.9575C29.3678 29.0253 29.3755 29.0936 29.3839 29.1618C29.3904 29.215 29.398 29.2678 29.4037 29.3212C29.4114 29.3934 29.417 29.4662 29.4232 29.5388C29.4275 29.5887 29.4329 29.6383 29.4364 29.6883C29.4423 29.7708 29.4459 29.8538 29.4497 29.9366C29.4517 29.9772 29.4548 30.0177 29.4562 30.0584C29.4606 30.1824 29.4628 30.3068 29.4628 30.4316V31.7043V33.2512H10.537ZM31.5735 29.4556C31.5525 29.1817 31.5222 28.9095 31.4837 28.6389C31.4776 28.5961 31.4703 28.5536 31.4638 28.5108C31.4488 28.4129 31.4333 28.3152 31.416 28.2178C31.4069 28.1665 31.3969 28.1155 31.3871 28.0643C31.3702 27.9754 31.3526 27.8867 31.3338 27.7983C31.3224 27.745 31.3106 27.6917 31.2986 27.6386C31.279 27.5518 31.2583 27.4653 31.2369 27.3791C31.2239 27.3268 31.2109 27.2746 31.1971 27.2225C31.1736 27.1327 31.1485 27.0434 31.1229 26.9543C31.1094 26.9073 31.0965 26.8602 31.0824 26.8133C31.0508 26.7077 31.0173 26.6027 30.9828 26.4979C30.9731 26.4686 30.9643 26.4391 30.9544 26.4098C30.9091 26.2755 30.8615 26.1419 30.8116 26.0091C30.8009 25.9806 30.7892 25.9525 30.7782 25.9241C30.7386 25.821 30.698 25.7181 30.6556 25.616C30.6368 25.5707 30.6169 25.5259 30.5976 25.4808C30.5611 25.3958 30.5241 25.3111 30.4857 25.227C30.4632 25.1778 30.44 25.1289 30.417 25.08C30.3793 25.0001 30.3407 24.9206 30.3013 24.8416C30.2766 24.7921 30.2518 24.7429 30.2265 24.6937C30.1856 24.6147 30.1438 24.5362 30.1012 24.4579C30.0757 24.4109 30.0504 24.3639 30.0243 24.3173C29.9771 24.2328 29.9282 24.1493 29.8788 24.0658C29.8559 24.0269 29.8335 23.9877 29.8101 23.9491C29.7366 23.8278 29.6612 23.7074 29.5832 23.5883C29.5106 23.4774 29.436 23.3686 29.3604 23.2606C29.3385 23.2294 29.3161 23.1984 29.294 23.1674C29.2359 23.0861 29.177 23.0058 29.1171 22.9262C29.0956 22.8975 29.0742 22.8685 29.0523 22.8401C28.9729 22.7364 28.8923 22.6339 28.8099 22.5332C28.7992 22.5202 28.7881 22.5075 28.7774 22.4944C28.7048 22.4064 28.6309 22.3196 28.556 22.2339C28.5303 22.2044 28.5044 22.1753 28.4784 22.1461C28.412 22.0715 28.3447 21.9979 28.2766 21.9252C28.2542 21.9013 28.2322 21.8771 28.2095 21.8534C28.1209 21.7603 28.0309 21.6685 27.9396 21.5786C27.9208 21.56 27.9015 21.542 27.8826 21.5236C27.808 21.4511 27.7326 21.3797 27.6563 21.3093C27.6274 21.2825 27.5981 21.256 27.5689 21.2294C27.4929 21.1607 27.4161 21.0932 27.3385 21.0266C27.3173 21.0085 27.2966 20.9899 27.2753 20.9719C27.178 20.8896 27.0794 20.8091 26.9796 20.7302C26.9547 20.7105 26.9293 20.6914 26.9043 20.6719C26.8261 20.6112 26.7474 20.5514 26.6677 20.4927C26.6365 20.4697 26.6052 20.4467 26.5739 20.424C26.485 20.3598 26.3953 20.2968 26.3047 20.2352C26.2888 20.2244 26.2732 20.2132 26.2573 20.2025C26.1658 20.141 26.0737 20.0806 25.9805 20.0217C26.0045 19.9977 26.0271 19.9722 26.0508 19.9479C26.1174 19.8805 26.1828 19.8119 26.2472 19.7421C26.2832 19.7032 26.3189 19.6642 26.3542 19.6246C26.4245 19.5459 26.493 19.4656 26.5607 19.3843C26.5895 19.3498 26.6183 19.3155 26.6466 19.2805C26.7186 19.1912 26.7887 19.1 26.8575 19.0077C26.88 18.9775 26.9031 18.9478 26.9253 18.9174C26.9943 18.8224 27.061 18.7254 27.1266 18.6276C27.5456 18.692 27.9679 18.7246 28.3888 18.7246C29.8445 18.7246 31.2167 18.3466 32.4236 17.6822C35.737 19.3259 37.8518 22.7841 37.8518 26.6362V29.4556H31.5735Z" fill="white"/>
</svg>
