<svg width="24" height="24" viewBox="0 0 24 24" fill="none" xmlns="http://www.w3.org/2000/svg">
<path fill-rule="evenodd" clip-rule="evenodd" d="M11.413 3.97294C11.7268 3.73758 12.1578 3.73575 12.4736 3.96845L19.5847 9.20832C19.8121 9.37586 19.9463 9.64148 19.9463 9.92392V18.9062C19.9463 19.3972 19.5483 19.7951 19.0574 19.7951H13.7241C13.2331 19.7951 12.8352 19.3972 12.8352 18.9062V15.2942C12.8352 15.2871 12.8327 15.2823 12.831 15.2801H11.0616C11.0599 15.2823 11.0574 15.2871 11.0574 15.2942V18.9063C11.0574 19.142 10.9637 19.3681 10.797 19.5348C10.6303 19.7015 10.4043 19.7952 10.1685 19.7952L4.83517 19.7951C4.34425 19.7951 3.94629 19.3972 3.94629 18.9062V10.0174C3.94629 9.7376 4.07802 9.47415 4.30184 9.30628L11.413 3.97294ZM11.951 5.79165L5.72407 10.4618V18.0174L9.27962 18.0174V15.2942C9.27962 14.8235 9.46358 14.3692 9.79539 14.0322C10.1277 13.6946 10.5813 13.5024 11.0574 13.5024H12.8352C13.3112 13.5024 13.7649 13.6946 14.0972 14.0322C14.429 14.3692 14.613 14.8235 14.613 15.2942V18.0173H18.1685V10.3731L11.951 5.79165Z" fill="black" fill-opacity="0.87"/>
</svg>
