<svg width="16" height="16" viewBox="0 0 16 16" fill="none" xmlns="http://www.w3.org/2000/svg">
<path fill-rule="evenodd" clip-rule="evenodd" d="M4 7.04C4 4.63894 5.77768 2.66667 8 2.66667C10.2223 2.66667 12 4.63894 12 7.04C12 8.2648 11.493 9.33697 10.8065 10.3149C10.2335 11.1312 9.5001 11.9289 8.77051 12.7224C8.63267 12.8723 8.49496 13.0221 8.3585 13.1718C8.26436 13.2751 8.13505 13.3333 8 13.3333C7.86495 13.3333 7.73564 13.2751 7.6415 13.1718C7.50504 13.0221 7.36733 12.8723 7.22949 12.7224C6.4999 11.9289 5.76647 11.1312 5.19351 10.3149C4.50703 9.33697 4 8.2648 4 7.04ZM8 3.73334C6.35633 3.73334 5 5.19952 5 7.04C5 7.93595 5.36797 8.78378 5.99399 9.67563C6.52332 10.4297 7.20078 11.167 7.93123 11.962C7.9541 11.9869 7.97703 12.0118 8 12.0368C8.02297 12.0118 8.0459 11.9869 8.06877 11.962C8.79922 11.167 9.47668 10.4297 10.006 9.67563C10.632 8.78378 11 7.93595 11 7.04C11 5.19952 9.64367 3.73334 8 3.73334Z" fill="black" fill-opacity="0.4"/>
<path fill-rule="evenodd" clip-rule="evenodd" d="M6.6665 6.66666C6.6665 5.93029 7.26344 5.33333 7.99984 5.33333C8.73623 5.33333 9.33317 5.93029 9.33317 6.66666C9.33317 7.40305 8.73623 7.99999 7.99984 7.99999C7.26344 7.99999 6.6665 7.40305 6.6665 6.66666ZM7.99984 6.22222C7.75437 6.22222 7.55539 6.4212 7.55539 6.66666C7.55539 6.91213 7.75436 7.11111 7.99984 7.11111C8.24531 7.11111 8.44428 6.91213 8.44428 6.66666C8.44428 6.4212 8.24531 6.22222 7.99984 6.22222Z" fill="black" fill-opacity="0.4"/>
</svg>
