<svg width="24" height="24" viewBox="0 0 24 24" fill="none" xmlns="http://www.w3.org/2000/svg">
<path fill-rule="evenodd" clip-rule="evenodd" d="M6 10.56C6 6.95841 8.66652 4 12 4C15.3335 4 18 6.95841 18 10.56C18 12.3972 17.2395 14.0055 16.2097 15.4724C15.3503 16.6968 14.2501 17.8933 13.1558 19.0835C12.949 19.3084 12.7424 19.5331 12.5377 19.7577C12.3965 19.9126 12.2026 20 12 20C11.7974 20 11.6035 19.9126 11.4623 19.7577C11.2576 19.5331 11.051 19.3084 10.8442 19.0835C9.74985 17.8933 8.64971 16.6968 7.79026 15.4724C6.76055 14.0055 6 12.3972 6 10.56ZM12 5.6C9.5345 5.6 7.5 7.79927 7.5 10.56C7.5 11.9039 8.05195 13.1757 8.99099 14.5134C9.78499 15.6446 10.8012 16.7505 11.8968 17.9429C11.9312 17.9803 11.9655 18.0177 12 18.0552C12.0345 18.0177 12.0688 17.9803 12.1032 17.9429C13.1988 16.7505 14.215 15.6446 15.009 14.5134C15.948 13.1757 16.5 11.9039 16.5 10.56C16.5 7.79927 14.4655 5.6 12 5.6Z" fill="white" fill-opacity="0.87"/>
<path fill-rule="evenodd" clip-rule="evenodd" d="M10 10C10 8.89544 10.8954 8 12 8C13.1046 8 14 8.89544 14 10C14 11.1046 13.1046 12 12 12C10.8954 12 10 11.1046 10 10ZM12 9.33333C11.6318 9.33333 11.3333 9.6318 11.3333 10C11.3333 10.3682 11.6318 10.6667 12 10.6667C12.3682 10.6667 12.6667 10.3682 12.6667 10C12.6667 9.6318 12.3682 9.33333 12 9.33333Z" fill="white" fill-opacity="0.87"/>
</svg>
