<?xml version="1.0" encoding="UTF-8"?>
<svg version="1.1" xmlns="http://www.w3.org/2000/svg" width="50" height="50">
<path d="M0 0 C2.08406636 0.0138565 4.16362805 -0.02019587 6.24731445 -0.05834961 C7.56666992 -0.05641602 8.88602539 -0.05448242 10.24536133 -0.05249023 C12.05315063 -0.05357788 12.05315063 -0.05357788 13.89746094 -0.0546875 C18.04275551 0.74827889 19.5091796 2.36484669 22.15551758 5.57641602 C22.65051758 6.56641602 22.65051758 6.56641602 23.15551758 7.57641602 C24.06301758 6.75141602 24.97051758 5.92641602 25.90551758 5.07641602 C28.69176255 2.54346604 29.02810019 2.57641602 33.15551758 2.57641602 C33.15551758 12.47641602 33.15551758 22.37641602 33.15551758 32.57641602 C29.15551758 33.57641602 29.15551758 33.57641602 27.45239258 32.58032227 C26.02010091 31.24568685 24.58780924 29.91105143 23.15551758 28.57641602 C22.70176758 29.38079102 22.24801758 30.18516602 21.78051758 31.01391602 C20.15551758 33.57641602 20.15551758 33.57641602 18.15551758 34.57641602 C13.60590479 34.81161179 9.05253105 34.80480776 4.49755859 34.81665039 C2.23017809 34.82636392 -0.03629881 34.85738994 -2.3034668 34.88891602 C-3.74291454 34.89544544 -5.18236876 34.90069615 -6.62182617 34.90454102 C-7.93401123 34.91388672 -9.24619629 34.92323242 -10.59814453 34.93286133 C-13.84448242 34.57641602 -13.84448242 34.57641602 -15.76879883 33.43457031 C-18.31357789 29.03867529 -17.31005202 23.06640591 -17.28198242 18.13891602 C-17.30196289 16.89819336 -17.32194336 15.6574707 -17.3425293 14.37915039 C-17.34188477 13.18741211 -17.34124023 11.99567383 -17.34057617 10.76782227 C-17.3424292 9.67671143 -17.34428223 8.58560059 -17.34619141 7.46142578 C-16.84448242 4.57641602 -16.84448242 4.57641602 -15.23706055 2.22485352 C-10.72063619 -0.88687069 -5.31194553 -0.04942218 0 0 Z M-12.84448242 3.57641602 C-15.89291863 8.14907032 -15.17335835 12.69856206 -15.15698242 18.07641602 C-15.1730957 19.13473633 -15.18920898 20.19305664 -15.20581055 21.28344727 C-15.20645508 22.29793945 -15.20709961 23.31243164 -15.20776367 24.35766602 C-15.21074463 25.28643555 -15.21372559 26.21520508 -15.21679688 27.17211914 C-15.00527498 29.58301428 -15.00527498 29.58301428 -13.71630859 31.37988281 C-10.96986567 33.13549997 -8.7712032 32.9481805 -5.53198242 32.93969727 C-4.2919043 32.93905273 -3.05182617 32.9384082 -1.77416992 32.93774414 C-0.47737305 32.92163086 0.81942383 32.90551758 2.15551758 32.88891602 C3.45231445 32.89213867 4.74911133 32.89536133 6.08520508 32.89868164 C13.00683214 33.15367061 13.00683214 33.15367061 19.15551758 30.57641602 C19.51849694 28.5989448 19.51849694 28.5989448 19.34301758 26.45141602 C19.28114258 25.17266602 19.21926758 23.89391602 19.15551758 22.57641602 C23.39760198 25.01882825 27.12019059 27.6940396 31.15551758 30.57641602 C31.15551758 22.32641602 31.15551758 14.07641602 31.15551758 5.57641602 C26.41321168 8.14692585 26.41321168 8.14692585 24.03051758 10.70141602 C22.15551758 12.57641602 22.15551758 12.57641602 19.15551758 13.57641602 C19.22062174 11.55818685 19.28572591 9.53995768 19.35083008 7.52172852 C19.33883446 5.33777956 19.33883446 5.33777956 17.15551758 3.57641602 C12.87966885 3.1782099 8.58942409 3.24737206 4.29711914 3.26074219 C2.16346273 3.26390424 0.03119014 3.24043964 -2.10229492 3.21508789 C-3.45385567 3.21281513 -4.80542015 3.21211129 -6.15698242 3.21313477 C-8.00743164 3.20866333 -8.00743164 3.20866333 -9.89526367 3.20410156 C-10.86850586 3.32696533 -11.84174805 3.4498291 -12.84448242 3.57641602 Z " fill="#000000" transform="translate(16.844482421875,15.423583984375)"/>
<path d="M0 0 C3.17781029 2.58197086 5.68987052 4.78478945 6.2734375 8.953125 C6.45733995 13.11214963 6.45772237 16.07914558 3.8125 19.4375 C-0.1169465 23.01766236 -2.1697482 24.06536614 -7.5 23.875 C-12.02215565 22.74446109 -14.58416845 20.95519596 -17.3125 17.1875 C-18.63051084 12.99382915 -18.5715611 9.36539595 -16.875 5.3125 C-12.04169792 -0.64857257 -7.25591184 -2.35182409 0 0 Z M-14 6 C-15.55024464 9.10048928 -15.28992015 11.57894218 -15 15 C-13.59121904 17.9901643 -13.59121904 17.9901643 -11 20 C-7.13834846 21.12338954 -4.99262141 21.4060724 -1.25 19.875 C1.34098512 17.71584574 2.69439223 16.11895189 4 13 C3.87079076 9.83437357 3.25162909 7.58189227 2 4.6875 C-3.19874384 0.30105989 -9.54842868 1.13109387 -14 6 Z " fill="#000000" transform="translate(25,22)"/>
<path d="M0 0 C1.90234375 1.1015625 1.90234375 1.1015625 4.52734375 3.1015625 C4.52734375 4.4215625 4.52734375 5.7415625 4.52734375 7.1015625 C1.99984708 8.03767238 0.91432734 8.27229055 -1.59765625 7.1640625 C-5.80995412 5.60734372 -10.02529001 5.60982119 -14.47265625 6.1015625 C-15.82021433 6.73898656 -17.15662222 7.40136491 -18.47265625 8.1015625 C-20.66015625 7.9140625 -20.66015625 7.9140625 -22.47265625 7.1015625 C-22.80265625 6.1115625 -23.13265625 5.1215625 -23.47265625 4.1015625 C-17.62489905 -2.33097042 -7.98041413 -2.89967654 0 0 Z M-13.47265625 1.1015625 C-13.47265625 1.4315625 -13.47265625 1.7615625 -13.47265625 2.1015625 C-10.83265625 2.1015625 -8.19265625 2.1015625 -5.47265625 2.1015625 C-5.47265625 1.7715625 -5.47265625 1.4415625 -5.47265625 1.1015625 C-8.11265625 1.1015625 -10.75265625 1.1015625 -13.47265625 1.1015625 Z " fill="#000000" transform="translate(28.47265625,0.8984375)"/>
<path d="M0 0 C3 1.5 3 1.5 5 3 C4.67 4.32 4.34 5.64 4 7 C-0.96073422 8.32286246 -5.91111512 8.08893197 -11 8 C-11.66 6.68 -12.32 5.36 -13 4 C-9.05067658 -0.12883812 -5.66450001 -0.64984704 0 0 Z M-6 6 C-6 6.33 -6 6.66 -6 7 C-4.35 7 -2.7 7 -1 7 C-1 6.67 -1 6.34 -1 6 C-2.65 6 -4.3 6 -6 6 Z " fill="#000000" transform="translate(23,7)"/>
<path d="M0 0 C4.13689421 0.18804065 5.73554469 0.76428983 8.875 3.5625 C9.926875 4.7690625 9.926875 4.7690625 11 6 C9.90012224 9.29963329 9.54413252 9.61064772 6.6875 11.25 C5.79611328 11.78367187 5.79611328 11.78367187 4.88671875 12.328125 C2.5508436 13.15994803 1.30725794 12.7945524 -1 12 C-1.02687279 10.18757948 -1.04633715 8.37504767 -1.0625 6.5625 C-1.07410156 5.55316406 -1.08570313 4.54382813 -1.09765625 3.50390625 C-1 1 -1 1 0 0 Z M1 3 C1 5.31 1 7.62 1 10 C2.98 9.34 4.96 8.68 7 8 C7 7.01 7 6.02 7 5 C4.18490007 2.7226499 4.18490007 2.7226499 1 3 Z " fill="#000000" transform="translate(15,27)"/>
</svg>
