<svg width="60" height="60" viewBox="0 0 60 60" fill="none" xmlns="http://www.w3.org/2000/svg">
<g clip-path="url(#clip0_2107_13501)">
<path d="M30 60C46.5685 60 60 46.5685 60 30C60 13.4315 46.5685 0 30 0C13.4315 0 0 13.4315 0 30C0 46.5685 13.4315 60 30 60Z" fill="#D1E1ED" fill-opacity="0.08"/>
<path fill-rule="evenodd" clip-rule="evenodd" d="M42.4835 39.2C43.3376 39.2 43.7418 38.2372 43.1069 37.715L41.1843 36.1333V26.9333C41.1816 24.7608 40.2444 22.6591 38.5386 21.0005C36.8329 19.3419 34.4686 18.2334 31.8646 17.8713V16.2C31.8646 15.7933 31.6682 15.4033 31.3187 15.1158C30.9691 14.8282 30.495 14.6667 30.0007 14.6667C29.5063 14.6667 29.0322 14.8282 28.6826 15.1158C28.3331 15.4033 28.1367 15.7933 28.1367 16.2V17.8713C25.5327 18.2334 23.1684 19.3419 21.4627 21.0005C19.7569 22.6591 18.8197 24.7608 18.817 26.9333V36.1333L16.8944 37.715C16.2595 38.2372 16.6637 39.2 17.5178 39.2H42.4835ZM22.1721 26.9352V36.1333H37.8292L37.8292 26.9368C37.8292 26.9363 37.8292 26.9372 37.8292 26.9368C37.8272 25.5841 37.2462 24.2212 36.094 23.1009C34.9336 21.9726 33.2675 21.1683 31.36 20.9031L30.0007 20.7141L28.6413 20.9031C26.7338 21.1683 25.0677 21.9726 23.9073 23.1009C22.7552 24.2212 22.1742 25.5826 22.1721 26.9352ZM26.2728 42.2667C26.2728 43.08 26.6655 43.86 27.3646 44.4351C28.0638 45.0102 29.012 45.3333 30.0007 45.3333C30.9893 45.3333 31.9375 45.0102 32.6367 44.4351C33.3358 43.86 33.7285 43.08 33.7285 42.2667H26.2728Z" fill="white"/>
<path d="M37.0002 30.5883C40.8987 30.5883 44.059 27.4279 44.059 23.5294C44.059 19.631 40.8987 16.4706 37.0002 16.4706C33.1017 16.4706 29.9414 19.631 29.9414 23.5294C29.9414 27.4279 33.1017 30.5883 37.0002 30.5883Z" fill="#C62828"/>
<path fill-rule="evenodd" clip-rule="evenodd" d="M40.9213 20.9885L35.8303 26.4706L33.0781 23.5069L33.905 22.6165L35.8303 24.6898L40.0944 20.0981L40.9213 20.9885Z" fill="white"/>
</g>
<defs>
<clipPath id="clip0_2107_13501">
<rect width="60" height="60" fill="white"/>
</clipPath>
</defs>
</svg>
