<svg width="24" height="24" viewBox="0 0 24 24" fill="none" xmlns="http://www.w3.org/2000/svg">
<path fill-rule="evenodd" clip-rule="evenodd" d="M18.5128 16.8C18.9584 16.8 19.1693 16.2977 18.8381 16.0252L17.8349 15.2V10.4C17.8335 9.2665 17.3446 8.16998 16.4546 7.30462C15.5646 6.43926 14.3311 5.86092 12.9725 5.672V4.8C12.9725 4.58783 12.87 4.38434 12.6877 4.23431C12.5053 4.08429 12.2579 4 12 4C11.7421 4 11.4947 4.08429 11.3123 4.23431C11.13 4.38434 11.0275 4.58783 11.0275 4.8V5.672C9.66889 5.86092 8.43537 6.43926 7.5454 7.30462C6.65544 8.16998 6.16646 9.2665 6.16507 10.4V15.2L5.16194 16.0252C4.8307 16.2977 5.04159 16.8 5.48722 16.8H18.5128ZM7.91555 10.401V15.2H16.0845L16.0845 10.4018C16.0845 10.4016 16.0845 10.402 16.0845 10.4018C16.0834 9.69607 15.7803 8.985 15.1792 8.40049C14.5737 7.81179 13.7044 7.39218 12.7092 7.2538L12 7.15518L11.2908 7.2538C10.2956 7.39218 9.42628 7.81179 8.82084 8.40049C8.21975 8.98496 7.91665 9.69529 7.91555 10.401ZM10.055 18.4C10.055 18.8243 10.2599 19.2313 10.6247 19.5314C10.9894 19.8314 11.4842 20 12 20C12.5158 20 13.0106 19.8314 13.3753 19.5314C13.7401 19.2313 13.945 18.8243 13.945 18.4H10.055Z" fill="black" fill-opacity="0.87"/>
</svg>
