<svg width="140" height="140" viewBox="0 0 140 140" fill="none" xmlns="http://www.w3.org/2000/svg">
<g opacity="0.8">
<path d="M70.0011 137.408C107.317 137.408 137.409 107.153 137.409 70.0002C137.409 48.6193 127.445 29.5557 111.92 17.2118C100.419 8.05909 85.8525 2.59277 70.0011 2.59277C54.1604 2.59277 39.5941 8.05909 28.0927 17.2118C23.1109 21.1614 18.6873 25.8273 14.9904 31.0303C7.18593 42.0366 2.59375 55.4865 2.59375 70.0002C2.59375 107.343 32.8777 137.408 70.0011 137.408ZM10.6336 123.218C12.2548 122.484 14.1744 123.225 14.9087 124.846C15.6429 126.467 14.9238 128.377 13.3026 129.111C11.6815 129.846 9.74978 129.136 9.01556 127.515C8.28134 125.894 9.01243 123.953 10.6336 123.218ZM4.29162 118.455C5.32352 117.987 6.5453 118.459 7.01262 119.491C7.47993 120.522 7.02228 121.738 5.99039 122.205C4.95858 122.673 3.72912 122.221 3.26181 121.189C2.7945 120.158 3.25982 118.922 4.29162 118.455ZM128.812 10.3928C130.162 9.23337 132.213 9.40637 133.372 10.7566C134.531 12.1068 134.377 14.1416 133.026 15.301C131.676 16.4604 129.623 16.3212 128.464 14.971C127.304 13.6208 127.462 11.5522 128.812 10.3928ZM121.389 7.59853C122.248 6.86057 123.553 6.97068 124.291 7.83005C125.029 8.68941 124.93 9.98453 124.071 10.7225C123.212 11.4604 121.905 11.3718 121.167 10.5124C120.429 9.65308 120.529 8.33643 121.389 7.59853Z" fill="#E1E1E1" fill-opacity="0.4"/>
<path d="M129.88 31.9874L105.2 126.582C103.918 131.496 98.8945 134.441 93.9801 133.159L40.5975 119.233C35.6831 117.951 32.7386 112.927 34.0208 108.013L58.7012 13.4183C59.9834 8.50391 65.0067 5.55942 69.9212 6.84163L123.304 20.7674C128.218 22.0496 131.163 27.073 129.88 31.9874Z" fill="#B7BDC4"/>
<path d="M102.579 107.324L121.996 33.4647C122.739 30.6143 121.016 27.6737 118.165 26.93L108.83 24.4955C107.767 24.2181 106.639 24.5724 105.925 25.4078L103.77 27.9305C103.365 28.4062 102.72 28.6131 102.105 28.4527L84.9293 23.9714C84.3146 23.811 83.853 23.3154 83.7316 22.7022L83.0838 19.4482C82.8692 18.3707 82.058 17.5104 80.995 17.233L72.2746 14.9589C69.4242 14.2152 66.4836 15.9389 65.7399 18.7893L46.323 92.6485C45.3519 96.3707 47.582 100.175 51.3042 101.146L94.0808 112.305C97.8029 113.276 101.608 111.046 102.579 107.324Z" fill="white"/>
<path d="M97.7755 21.2898C97.6124 21.9146 96.9737 22.289 96.3488 22.126L89.4467 20.3252C88.3504 20.0391 88.5904 18.7788 88.6105 18.8986C88.7735 18.2737 89.4122 17.8993 90.0371 18.0623L96.9392 19.8631C97.5641 20.0262 97.9385 20.6649 97.7755 21.2898ZM99.3839 21.7094C99.2209 22.3343 99.5953 22.973 100.22 23.1361L100.561 23.2251C101.657 23.5109 102.071 22.2851 101.988 22.3888C102.151 21.764 101.777 21.1252 101.152 20.9622L100.811 20.8732C100.186 20.7102 99.547 21.0846 99.3839 21.7094ZM73.9181 116.337C73.8052 118.378 72.0561 119.936 70.015 119.824C67.9822 119.711 66.4154 117.97 66.5282 115.929C66.641 113.887 68.3902 112.33 70.423 112.442C72.4641 112.555 74.0309 114.296 73.9181 116.337Z" fill="white"/>
<path d="M79.7899 67.7917C79.9195 67.2331 80.4765 66.8858 81.0345 67.0154C81.5926 67.1445 81.9399 67.7015 81.8113 68.2596C81.6921 68.7728 82.0098 69.284 82.5253 69.4034C83.0479 69.5234 83.5573 69.2014 83.6747 68.6895C83.8044 68.1314 84.3624 67.7856 84.9194 67.9132C85.4774 68.0423 85.8248 68.5993 85.6961 69.1573C85.5128 69.9463 85.0338 70.6162 84.3452 71.0446C82.0405 72.4772 79.1889 70.3926 79.7899 67.7917ZM85.2526 80.7425C83.4812 80.2788 83.529 78.437 83.0276 78.3053C82.5186 78.179 81.6637 79.8083 79.8962 79.3414C78.7336 79.0375 78.3478 78.1271 78.0936 77.525C77.7636 76.7452 77.6754 76.7236 77.0079 77.2415C76.4914 77.6415 75.7116 78.2471 74.547 77.9428C72.7756 77.4799 72.8253 75.6395 72.3251 75.5072C71.7711 75.3623 71.4389 74.7957 71.5837 74.2418C71.7296 73.6873 72.2977 73.3561 72.8496 73.5009C74.621 73.9638 74.5714 75.8043 75.0716 75.9366C75.5766 76.0628 76.4241 74.4373 78.1999 74.899C79.9703 75.3624 79.9207 77.2029 80.4208 77.3351C80.925 77.464 81.7802 75.836 83.5522 76.2991C85.3239 76.7617 85.2776 78.6046 85.7772 78.7358C86.2785 78.8656 87.1464 77.2368 88.9106 77.7002C89.4645 77.8451 89.7967 78.4117 89.6519 78.9656C89.506 79.5201 88.9389 79.8533 88.386 79.7065C88.2472 79.6705 88.1601 79.6978 87.7155 80.0417C86.9417 80.6384 86.2434 81.0005 85.2526 80.7425Z" fill="#C5CAD0"/>
<path d="M76.416 62.0111C75.7362 64.9529 72.7893 66.8004 69.8394 66.1188C66.9056 65.4408 65.0681 62.4877 65.7478 59.546C66.4277 56.604 69.3708 54.7727 72.3046 55.4506C75.2545 56.1323 77.0958 59.0692 76.416 62.0111Z" fill="#DEE1E4"/>
<path d="M69.6048 67.129C63.9533 65.8231 62.7497 58.3053 67.632 55.2613C69.1055 54.3408 70.8494 54.0491 72.5377 54.4405C76.0397 55.2497 78.2333 58.7507 77.4261 62.2446C76.6162 65.7438 73.1215 67.9411 69.6048 67.129ZM68.7298 57.021C65.4094 59.0907 66.2153 64.2173 70.0727 65.1086C72.462 65.6618 74.8535 64.1658 75.4047 61.7778C75.9546 59.3978 74.4588 57.0128 72.0698 56.4609C70.8844 56.1881 69.706 56.4117 68.7298 57.021Z" fill="#B5BFC8"/>
<path d="M75.5041 59.8575C75.1085 61.5694 73.4012 62.6285 71.6977 62.2348C69.9941 61.8412 68.9333 60.1424 69.3288 58.4306C69.7225 56.727 71.4211 55.6659 73.1246 56.0596C74.8282 56.4532 75.8978 58.154 75.5041 59.8575Z" fill="#C5CAD0"/>
<path d="M74.84 58.5915C74.6745 59.308 73.9598 59.7513 73.2468 59.5865C72.5338 59.4218 72.0898 58.7108 72.2553 57.9943C72.4201 57.2812 73.1311 56.8371 73.8441 57.0019C74.5571 57.1666 75.0048 57.8785 74.84 58.5915Z" fill="white"/>
<path d="M102.014 68.7038C101.334 71.6455 98.387 73.4931 95.437 72.8114C92.5033 72.1335 90.6657 69.1803 91.3455 66.2386C92.0253 63.2966 94.9685 61.4653 97.9022 62.1432C100.852 62.8249 102.693 65.7618 102.014 68.7038Z" fill="#E5E7E9"/>
<path d="M90.3345 66.0053C90.7254 64.3135 91.7533 62.8744 93.2299 61.9538C94.7044 61.0338 96.4463 60.7411 98.1356 61.133C101.638 61.9422 103.831 65.4432 103.024 68.9371C102.632 70.6304 101.603 72.072 100.127 72.9957C95.2351 76.054 89.0254 71.6716 90.3345 66.0053ZM96.6661 63.0385C95.8468 63.0385 95.0417 63.2679 94.3277 63.7135C91.0073 65.7833 91.8132 70.9098 95.6706 71.8011C98.0514 72.3513 100.449 70.8679 101.003 68.4703C101.553 66.0903 100.057 63.7054 97.6677 63.1534C97.3355 63.077 96.9993 63.0385 96.6661 63.0385Z" fill="#B5BFC8"/>
<path d="M101.103 66.5502C100.707 68.262 98.9998 69.3211 97.2963 68.9275C95.5928 68.5338 94.5319 66.835 94.9275 65.1232C95.3211 63.4197 97.0197 62.3585 98.7233 62.7522C100.427 63.1458 101.496 64.8466 101.103 66.5502Z" fill="#C5CAD0"/>
<path d="M100.439 65.2841C100.273 66.0006 99.5585 66.4439 98.8454 66.2792C98.1324 66.1144 97.6884 65.4034 97.854 64.6869C98.0187 63.9739 98.7297 63.5297 99.4427 63.6945C100.156 63.8593 100.603 64.5711 100.439 65.2841Z" fill="white"/>
<path d="M106.534 60.8272C106.326 60.8272 106.117 60.7649 105.935 60.6358L99.6657 56.1828C99.1989 55.8511 99.0895 55.2035 99.4207 54.7366C99.7518 54.2703 100.398 54.1604 100.867 54.4915L107.136 58.9445C107.603 59.2762 107.712 59.9238 107.381 60.3907C107.178 60.6753 106.859 60.8272 106.534 60.8272ZM64.9493 50.3829C64.8885 49.8132 65.3007 49.3023 65.8709 49.242L73.518 48.4273C74.076 48.3696 74.5986 48.7792 74.6584 49.3484C74.7191 49.918 74.3069 50.429 73.7368 50.4892L66.0896 51.304C65.5282 51.3663 65.0105 50.9571 64.9493 50.3829Z" fill="#C5CAD0"/>
<path d="M9.90173 62.1133C10.8638 74.1044 20.6332 83.8441 32.6143 84.7664C36.7204 85.0838 40.8266 84.3896 44.526 82.763L53.0061 85.4607C54.3829 85.8955 55.7766 84.7191 55.4955 83.249L54.0177 75.4433C66.2027 60.0885 56.3679 37.0507 36.7304 35.4037C29.4306 34.7789 22.2697 37.3873 17.1122 42.5349C11.9449 47.6725 9.31653 54.8136 9.90173 62.1133Z" fill="#D6DADD"/>
<path d="M52.6413 59.632C52.6413 69.6036 44.5673 77.6777 34.5956 77.6777C24.6239 77.6777 16.5381 69.6036 16.5381 59.632C16.5381 49.6602 24.6239 41.5745 34.5956 41.5745C44.5673 41.5745 52.6413 49.6602 52.6413 59.632Z" fill="white"/>
<path d="M23.4428 58.2851C22.7925 57.6348 22.7925 56.5802 23.4428 55.9298C29.5912 49.7815 39.5919 49.7791 45.737 55.9235C46.3874 56.5738 46.3874 57.6283 45.737 58.2788C45.0865 58.929 44.0322 58.929 43.3817 58.2788C38.5357 53.4326 30.6474 53.4354 25.7982 58.2851C25.1474 58.9355 24.0934 58.9353 23.4428 58.2851Z" fill="#E5E7E9"/>
<path d="M27.4907 62.7173C26.8403 62.0669 26.8403 61.0123 27.4907 60.362C31.4075 56.4461 37.7768 56.443 41.6896 60.3556C42.34 61.006 42.34 62.0606 41.6896 62.7109C41.0391 63.3611 39.9849 63.3611 39.3343 62.7109C36.7204 60.0967 32.4639 60.0998 29.846 62.7173C29.1953 63.3677 28.1413 63.3675 27.4907 62.7173Z" fill="#E5E7E9"/>
<path d="M36.9351 66.7646C36.9351 68.0599 35.8803 69.1146 34.585 69.1146C33.2934 69.1146 32.2461 68.0599 32.2461 66.7646C32.2461 65.4693 33.2934 64.4146 34.585 64.4146C35.8803 64.4146 36.9351 65.4693 36.9351 66.7646Z" fill="#B7BDC4"/>
<path d="M36.6703 50.8992L36.1227 61.4483C36.0804 62.2641 35.4065 62.9039 34.5896 62.9039C33.7727 62.9039 33.0989 62.2641 33.0565 61.4483L32.5089 50.8992C32.4634 50.0212 33.1629 49.2844 34.042 49.2844H35.1372C36.0163 49.2844 36.7159 50.0212 36.6703 50.8992Z" fill="#B7BDC4"/>
<path d="M32.5063 30.5975C31.9331 30.5975 31.4693 30.1332 31.4693 29.5605L31.4703 20.8246C31.4703 20.2519 31.9351 19.7876 32.5073 19.7876C33.0805 19.7876 33.5444 20.2519 33.5444 20.8246L33.5434 29.5605C33.5434 30.1332 33.0785 30.5975 32.5063 30.5975ZM25.957 32.7014L19.7814 26.5233C19.3763 26.1182 19.3763 25.4614 19.7814 25.0568C20.1865 24.6517 20.8427 24.6517 21.2478 25.0568L27.4234 31.235C27.8285 31.6401 27.8285 32.2969 27.4234 32.7014C27.0183 33.1065 26.3621 33.1065 25.957 32.7014ZM38.3214 33.0073C37.406 33.0073 36.9328 31.8916 37.5882 31.237L43.7669 25.0609C44.172 24.6558 44.8282 24.6558 45.2333 25.0609C45.6384 25.466 45.6384 26.1227 45.2333 26.5273C39.0386 32.5668 39.1156 33.0073 38.3214 33.0073Z" fill="#C5CAD0"/>
</g>
</svg>
