<svg width="24" height="24" viewBox="0 0 24 24" fill="none" xmlns="http://www.w3.org/2000/svg">
<path fill-rule="evenodd" clip-rule="evenodd" d="M12.2924 4.05261C13.675 4.27036 14.7972 5.12212 15.4978 5.91965L15.5327 5.9594L15.5627 6.003C16.633 7.5612 16.7386 9.10101 16.3961 10.3817C16.2321 10.995 15.9681 11.5415 15.6696 12.002C15.6369 12.0525 15.6548 12.1207 15.7081 12.1487C18.4963 13.614 19.9998 16.6522 19.9998 19.1111V19.9C19.9998 19.9552 19.955 20 19.8998 20H4.1C4.04477 20 4 19.9552 4 19.9L4.00001 19.1111C4.00004 16.7603 5.15143 13.7155 7.64792 12.205C7.69872 12.1742 7.71305 12.1064 7.67885 12.0578C6.93876 11.0073 6.67376 9.92592 6.70932 8.92988C6.75539 7.63976 7.30186 6.56383 7.81772 5.93989L7.83015 5.92485L7.84324 5.91036C9.27941 4.32087 10.8419 3.82419 12.2924 4.05261ZM9.17619 7.08688C8.87421 7.45885 8.51566 8.16125 8.48595 8.99332C8.45735 9.79416 8.72895 10.7896 9.81486 11.8111L10.7775 12.7167C10.8326 12.7686 10.8124 12.8605 10.7406 12.8844L9.48658 13.3019C7.42833 13.9872 6.17748 16.0991 5.85884 18.1086C5.84932 18.1686 5.89613 18.2222 5.95692 18.2222H18.0196C18.082 18.2222 18.1292 18.1661 18.1169 18.105C17.7224 16.157 16.232 14.0195 13.8711 13.3098L12.5093 12.9005C12.4341 12.8779 12.4131 12.7814 12.4721 12.7296L13.5402 11.7909C13.9283 11.4498 14.4514 10.7724 14.6787 9.92241C14.8928 9.12186 14.8559 8.13895 14.1272 7.05357C13.5986 6.46616 12.8382 5.93823 12.0158 5.80873C11.2463 5.68753 10.2654 5.8889 9.17619 7.08688Z" fill="black" fill-opacity="0.87"/>
</svg>
