<svg width="24" height="24" viewBox="0 0 24 24" fill="none" xmlns="http://www.w3.org/2000/svg">
<path fill-rule="evenodd" clip-rule="evenodd" d="M12 5.64103C8.48804 5.64103 5.64103 8.48804 5.64103 12C5.64103 15.512 8.48804 18.359 12 18.359C15.512 18.359 18.359 15.512 18.359 12C18.359 8.48804 15.512 5.64103 12 5.64103ZM4 12C4 7.58172 7.58172 4 12 4C16.4183 4 20 7.58172 20 12C20 16.4183 16.4183 20 12 20C7.58172 20 4 16.4183 4 12Z" fill="black" fill-opacity="0.87"/>
<path fill-rule="evenodd" clip-rule="evenodd" d="M14.5079 10.6947V10.1249C14.5079 8.7406 13.3774 7.63366 12.0017 7.63366C10.626 7.63366 9.49549 8.7406 9.49549 10.1249V10.6947C8.8064 10.9231 8.3169 11.5757 8.3169 12.3357V14.5167C8.3169 15.464 9.07762 16.2445 10.0374 16.2445H13.966C14.9258 16.2445 15.6865 15.464 15.6865 14.5167V12.3357C15.6865 11.5757 15.197 10.9231 14.5079 10.6947ZM10.0374 12L10 14.5L14 14.5167L13.966 12H10.0374Z" fill="black" fill-opacity="0.87"/>
<path d="M12 9C11.6398 9 11.2695 9.28674 11.2695 9.62171L11.2695 10.3858L12.7538 10.3858L12.7538 9.62171C12.7538 9.28674 12.3601 9 12 9Z" fill="black" fill-opacity="0.87"/>
</svg>
