<svg width="24" height="24" viewBox="0 0 24 24" fill="none" xmlns="http://www.w3.org/2000/svg">
<path d="M11.228 7H7.444C7.32624 7 7.21331 7.04648 7.13004 7.12922C7.04678 7.21195 7 7.32417 7 7.44118V11.2647C7 11.3817 7.04678 11.4939 7.13004 11.5767C7.21331 11.6594 7.32624 11.7059 7.444 11.7059H11.228C11.3458 11.7059 11.4587 11.6594 11.542 11.5767C11.6253 11.4939 11.672 11.3817 11.672 11.2647V7.44118C11.672 7.32417 11.6253 7.21195 11.542 7.12922C11.4587 7.04648 11.3458 7 11.228 7ZM10.784 10.8235H7.88799V7.88235H10.784V10.8235ZM9.92801 8.76471H8.74402V9.94118H9.92801V8.76471ZM11.228 12.2941H7.444C7.32624 12.2941 7.21331 12.3406 7.13004 12.4233C7.04678 12.5061 7 12.6183 7 12.7353V16.5588C7 16.6758 7.04678 16.788 7.13004 16.8708C7.21331 16.9535 7.32624 17 7.444 17H11.228C11.3458 17 11.4587 16.9535 11.542 16.8708C11.6253 16.788 11.672 16.6758 11.672 16.5588V12.7353C11.672 12.6183 11.6253 12.5061 11.542 12.4233C11.4587 12.3406 11.3458 12.2941 11.228 12.2941ZM10.784 16.1176H7.88799V13.1765H10.784V16.1176ZM9.92801 14.0588H8.74402V15.2353H9.92801V14.0588ZM13.776 15.5294H12.592V16.7059H13.776V15.5294ZM12.592 13.7612H13.776V12.5847H12.592V13.7612ZM14.072 9.94118H15.256V8.76471H14.072V9.94118ZM15.256 15.2353V14.0588H14.072V15.2353H15.256ZM16.556 11.7059C16.6738 11.7059 16.7867 11.6594 16.87 11.5767C16.9532 11.4939 17 11.3817 17 11.2647V7.44118C17 7.32417 16.9532 7.21195 16.87 7.12922C16.7867 7.04648 16.6738 7 16.556 7H12.772C12.6542 7 12.5413 7.04648 12.458 7.12922C12.3747 7.21195 12.328 7.32417 12.328 7.44118V11.2647C12.328 11.3817 12.3747 11.4939 12.458 11.5767C12.5413 11.6594 12.6542 11.7059 12.772 11.7059H16.556ZM13.216 7.88235H16.112V10.8235H13.216V7.88235ZM16.736 12.5847H15.552V13.7612H16.736V12.5847ZM15.552 16.7059H16.736V15.5294H15.552V16.7059Z" fill="black" fill-opacity="0.87"/>
<path fill-rule="evenodd" clip-rule="evenodd" d="M10 4.8C10 5.24183 9.64183 5.6 9.2 5.6H6C5.77909 5.6 5.6 5.77909 5.6 6V9.2C5.6 9.64183 5.24183 10 4.8 10C4.35817 10 4 9.64183 4 9.2V6C4 4.89543 4.89543 4 6 4H9.2C9.64183 4 10 4.35817 10 4.8ZM19.2 10C18.7582 10 18.4 9.64183 18.4 9.2V6C18.4 5.77909 18.2209 5.6 18 5.6H14.8C14.3582 5.6 14 5.24183 14 4.8C14 4.35817 14.3582 4 14.8 4H18C19.1046 4 20 4.89543 20 6V9.2C20 9.64183 19.6418 10 19.2 10Z" fill="black" fill-opacity="0.87"/>
<path d="M6 18.4C5.77909 18.4 5.6 18.2209 5.6 18V14.8C5.6 14.3582 5.24183 14 4.8 14C4.35817 14 4 14.3582 4 14.8V18C4 19.1046 4.89543 20 6 20H9.2C9.64183 20 10 19.6418 10 19.2C10 18.7582 9.64183 18.4 9.2 18.4H6Z" fill="black" fill-opacity="0.87"/>
<path d="M18.4 18C18.4 18.2209 18.2209 18.4 18 18.4H14.8C14.3582 18.4 14 18.7582 14 19.2C14 19.6418 14.3582 20 14.8 20H18C19.1046 20 20 19.1046 20 18V14.8C20 14.3582 19.6418 14 19.2 14C18.7582 14 18.4 14.3582 18.4 14.8V18Z" fill="black" fill-opacity="0.87"/>
</svg>
