<svg width="56" height="58" viewBox="0 0 56 58" fill="none" xmlns="http://www.w3.org/2000/svg">
<g clip-path="url(#clip0_725_4535)">
<path d="M38.8535 21.631L38.3057 17.646C34.6316 16.0509 31.0881 15.3956 27.6562 15.4682C24.2447 15.5419 20.93 16.34 17.6988 17.6551L17.151 21.623C20.0261 20.0506 24.0069 19.2604 27.9808 19.2604C31.9526 19.2604 35.9468 20.0495 38.8535 21.631ZM28.0011 7.12416C29.4573 7.12416 30.6384 8.31227 30.6384 9.77701C30.6384 11.2429 29.4573 12.431 28.0011 12.431C26.5439 12.431 25.3638 11.2429 25.3638 9.77701C25.3638 8.31227 26.5439 7.12416 28.0011 7.12416ZM28.2908 0C29.118 0 29.7954 0.681353 29.7954 1.51462V2.02705C32.3098 2.3921 34.5887 3.56208 36.3187 5.26716C38.3677 7.28741 39.6503 10.0582 39.6503 13.1396L39.5489 17.1086L40.5396 24.3246L40.1688 24.0616C40.0763 24.4618 39.9591 24.8348 39.8396 25.1398L39.8363 25.1522C39.5962 25.7667 39.2761 26.3256 38.9042 26.7371C38.5931 27.0727 38.2426 27.3131 37.8628 27.4072C37.7896 27.6441 37.7084 27.889 37.6498 28.1293C37.226 29.5646 36.8935 30.6937 36.0133 31.815C35.8217 32.0599 35.6166 32.2957 35.398 32.5201C35.2481 32.6789 35.0948 32.8296 34.937 32.9713C34.9561 33.1743 34.9595 34.5574 34.9573 35.529C35.0474 35.6015 35.1173 35.6968 35.159 35.8056C35.9434 35.9416 36.5926 36.0471 37.2373 36.1514C42.4217 36.9926 47.4179 37.8032 50.5489 41.4843C51.2003 42.2495 51.3322 42.4491 51.8145 43.3243C52.4818 44.5305 53.0025 45.9647 53.3473 47.6788L55.4887 57.2246C55.5042 57.3092 55.5029 57.3961 55.485 57.4802C55.4671 57.5644 55.4329 57.6441 55.3844 57.715C55.3358 57.7858 55.2738 57.8464 55.202 57.8931C55.1302 57.9399 55.0499 57.972 54.9658 57.9875C54.9263 57.9943 54.8869 57.9977 54.8486 57.9977L1.15369 58C0.793033 58 0.5 57.7052 0.5 57.3425C0.5 57.2892 0.506762 57.237 0.518033 57.1871L2.10492 49.5755C4.23617 38.667 9.79816 37.5776 17.9873 35.9734C18.9329 35.7886 19.9134 35.5959 20.8816 35.3907C20.939 35.3782 20.9965 35.3748 21.0517 35.3782V32.9838L21.0574 32.6641C20.247 31.9261 19.5809 30.9443 19.1346 29.9466C18.8224 29.2505 18.5745 28.4989 18.2882 27.6475L18.1394 27.2054C17.8137 27.1623 17.5106 27.0115 17.2378 26.7882C16.8963 26.5059 16.601 26.0932 16.3621 25.6159C16.1761 25.2463 15.9733 24.6874 15.8324 24.0695L15.4593 24.3371L16.4556 17.1268L16.2325 13.6225C16.2178 13.3878 16.2099 13.1656 16.2099 12.9604C16.2099 9.98788 17.4835 7.31802 19.4964 5.34539C21.4079 3.47365 23.9911 2.23112 26.785 1.95903V1.51462C26.785 0.681353 27.4624 0 28.2908 0ZM38.2685 16.2436L38.3418 13.3958L38.3429 13.1396C38.3429 10.4255 37.2114 7.9835 35.4047 6.20246C33.5902 4.41462 31.0971 3.28886 28.3843 3.21857L27.938 3.21744C27.6968 3.21744 27.4692 3.22424 27.2561 3.23784C24.6301 3.40563 22.1889 4.53933 20.4059 6.28636C18.6365 8.01978 17.5173 10.3597 17.5173 12.9604C17.5173 13.1656 17.5241 13.3595 17.5353 13.5409L17.7089 16.2754C20.9188 15.0215 24.2199 14.2653 27.6315 14.1928C31.0701 14.1191 34.6101 14.7392 38.2685 16.2436ZM16.9256 23.2896C17.0676 23.9607 17.3392 24.6591 17.5196 25.0275C17.6819 25.3495 17.8656 25.6159 18.0583 25.7746C18.4077 26.0547 18.5238 25.7406 18.8991 25.9424C19.2203 26.1193 19.2924 26.5523 19.4029 26.8743L19.5359 27.27C19.7917 28.0432 20.0261 28.7313 20.3 29.3537C20.868 30.6303 21.6288 31.5406 22.7265 32.383C26.0063 34.8884 30.3476 34.995 33.6082 32.3909C34.1176 31.9873 34.5831 31.5281 34.9922 31.0032C35.3517 30.552 35.6076 30.0713 35.8172 29.543C36.0347 29.0011 36.2094 28.4173 36.4021 27.7597C36.5126 27.3822 36.6242 27.0036 36.7436 26.6249C36.9274 25.9084 37.483 26.3891 37.9654 25.8563C38.2088 25.5774 38.4387 25.1477 38.6269 24.667C38.7002 24.4777 38.938 23.8927 39.0913 23.3032C36.3695 21.4824 32.1791 20.5766 27.9808 20.5766C23.7803 20.5766 19.6069 21.4836 16.9256 23.2896ZM22.296 35.9156L22.3016 35.953C22.4515 37.2114 23.254 38.1591 24.3686 38.7827C25.3131 39.311 27.1525 39.6806 28.1127 39.6851C28.8227 39.6874 29.5328 39.6069 30.2023 39.4414C30.2394 39.4289 30.2778 39.4198 30.3161 39.4119C30.599 39.3382 30.874 39.2475 31.1377 39.1432C32.4203 38.6319 33.4369 37.751 33.7919 36.496V33.8953C30.3274 36.0811 26.9473 36.2398 23.2641 34.3204C22.9136 34.1345 22.5642 33.9339 22.2092 33.706L22.296 35.9156ZM51.5452 56.4933C51.5452 56.5579 51.5407 56.6226 51.5328 56.6849H54.0653L52.0681 47.926C51.9273 47.2265 51.7514 46.5791 51.5452 45.9771V56.4933ZM49.3914 56.6849C49.3835 56.6226 49.379 56.5579 49.379 56.4933V43.1191C49.379 42.4207 49.3767 42.7597 49.2652 42.0851C49.2415 41.9423 49.0657 41.8754 48.9631 41.7756C48.2441 41.0716 47.4337 40.4957 46.5535 40.0184V56.4933C46.5535 56.5579 46.549 56.6226 46.5411 56.6849H49.3914ZM44.4008 56.6849C44.3918 56.6226 44.3873 56.5579 44.3873 56.4933V39.3665C44.3873 39.2679 44.3974 39.1715 44.4166 39.0786C43.5082 38.7555 42.5513 38.4959 41.5629 38.2725V56.4933C41.5629 56.5579 41.5584 56.6226 41.5494 56.6849H44.4008ZM39.4091 56.6849C39.4012 56.6226 39.3956 56.5579 39.3956 56.4933V38.1864C39.3956 38.0696 39.4102 37.9562 39.4373 37.8496C38.645 37.7079 37.8414 37.5776 37.0322 37.4461L36.5712 37.3712V56.4933C36.5712 56.5579 36.5667 56.6226 36.5577 56.6849H39.4091ZM34.4174 56.6849C34.4095 56.6226 34.405 56.5579 34.405 56.4933V38.2476C33.7536 39.2033 32.7685 39.9073 31.6178 40.3653L31.5581 40.3891C31.5727 40.4674 31.5795 40.5501 31.5795 40.6329V56.4933C31.5795 56.5579 31.575 56.6226 31.5671 56.6849H34.4174ZM29.4268 56.6849C29.4178 56.6226 29.4133 56.5579 29.4133 56.4933V40.9174C28.9828 40.9707 28.5455 40.9968 28.1082 40.9945C27.5988 40.9923 27.0882 40.9526 26.5878 40.8744V56.4933C26.5878 56.5579 26.5833 56.6226 26.5754 56.6849H29.4268ZM24.4351 56.6849C24.4261 56.6226 24.4216 56.5579 24.4216 56.4933V40.4436C24.4216 40.3846 24.4261 40.3268 24.4329 40.269C23.2224 39.752 22.2092 38.9629 21.5972 37.9041V56.4933C21.5972 56.5579 21.5927 56.6226 21.5837 56.6849H24.4351ZM19.4434 56.6849C19.4356 56.6226 19.431 56.5579 19.431 56.4933V37.0266C19.0219 37.1082 18.6241 37.1864 18.2319 37.2624C17.6447 37.378 17.071 37.4891 16.5131 37.6036C16.5728 37.7567 16.6055 37.9256 16.6055 38.1036V56.4933C16.6055 56.5579 16.601 56.6226 16.592 56.6849H19.4434ZM14.4529 56.6849C14.4439 56.6226 14.4393 56.5579 14.4393 56.4933V38.1036L14.4405 38.0571C13.4092 38.3031 12.4377 38.5775 11.5304 38.9119C11.5845 39.0593 11.6138 39.2214 11.6138 39.3915V56.4933C11.6138 56.5579 11.6093 56.6226 11.6014 56.6849H14.4529ZM9.46117 56.6849C9.45215 56.6226 9.44764 56.5579 9.44764 56.4933V39.8608C8.49416 40.3993 7.62971 41.0603 6.86332 41.8992C6.76301 42.0092 6.56465 42.1974 6.56691 42.2382L6.62326 43.3163V56.4933C6.62326 56.5579 6.61875 56.6226 6.60973 56.6849H9.46117ZM4.46947 56.6849C4.46158 56.6226 4.45594 56.5579 4.45594 56.4933V45.9635C4.03104 47.0768 3.67264 48.3545 3.38525 49.8272L1.92121 56.6849H4.46947Z" fill="black" fill-opacity="0.87"/>
</g>
<defs>
<clipPath id="clip0_725_4535">
<rect width="55" height="58" fill="white" transform="translate(0.5)"/>
</clipPath>
</defs>
</svg>
