<svg width="24" height="24" viewBox="0 0 24 24" fill="none" xmlns="http://www.w3.org/2000/svg">
<path fill-rule="evenodd" clip-rule="evenodd" d="M6.68354 5.82278C6.20816 5.82278 5.82278 6.20816 5.82278 6.68354V17.3165C5.82278 17.7919 6.20815 18.1772 6.68354 18.1772H8.43038V14.6582C8.43038 14.1549 8.83842 13.7468 9.34177 13.7468H14.6582C15.1616 13.7468 15.5696 14.1549 15.5696 14.6582V18.1772H17.3165C17.7919 18.1772 18.1772 17.7919 18.1772 17.3165V10.0758C18.1772 9.84752 18.0865 9.6286 17.9251 9.46719C17.8886 9.43066 17.8552 9.39109 17.8254 9.34891L15.7418 6.4022C15.7006 6.36775 15.642 6.32367 15.5696 6.27434V8.4557C15.5696 8.95904 15.1616 9.36709 14.6582 9.36709H9.34177C8.83842 9.36709 8.43038 8.95904 8.43038 8.4557V5.82278H6.68354ZM10.2532 5.82278V7.5443H13.7468V5.82278H10.2532ZM13.7468 18.1772V15.5696H10.2532V18.1772H13.7468ZM17.3165 20C18.7986 20 20 18.7986 20 17.3165V10.0758C20 9.39268 19.7395 8.73639 19.2735 8.23972L17.1745 5.27128C17.1447 5.2291 17.1113 5.18953 17.0748 5.153C16.8154 4.89359 16.3985 4.62183 16.0196 4.42289C15.8201 4.31815 15.6033 4.21877 15.3893 4.14343C15.1909 4.07357 14.9281 4 14.6582 4H6.68354C5.20146 4 4 5.20146 4 6.68354V17.3165C4 18.7986 5.20147 20 6.68354 20H17.3165Z" fill="black" fill-opacity="0.87"/>
</svg>
