<svg width="24" height="24" viewBox="0 0 24 24" fill="none" xmlns="http://www.w3.org/2000/svg">
<path fill-rule="evenodd" clip-rule="evenodd" d="M12 4C12.2523 4 12.4934 4.10461 12.6657 4.28892L15.7037 7.53786C16.0475 7.90552 16.0281 8.48226 15.6604 8.82604C15.2928 9.16982 14.7161 9.15047 14.3723 8.78281L12.9114 7.22048V15.038C12.9114 15.5413 12.5033 15.9494 12 15.9494C11.4967 15.9494 11.0886 15.5413 11.0886 15.038V7.22048L9.62773 8.78281C9.28395 9.15047 8.70721 9.16982 8.33955 8.82604C7.97189 8.48226 7.95254 7.90552 8.29632 7.53786L11.3343 4.28892C11.5066 4.10461 11.7477 4 12 4ZM4.91139 11.0886C5.41474 11.0886 5.82278 11.4967 5.82278 12V17.3165C5.82278 17.7919 6.20815 18.1772 6.68354 18.1772H17.3165C17.7919 18.1772 18.1772 17.7919 18.1772 17.3165V12C18.1772 11.4967 18.5853 11.0886 19.0886 11.0886C19.592 11.0886 20 11.4967 20 12V17.3165C20 18.7986 18.7986 20 17.3165 20H6.68354C5.20147 20 4 18.7986 4 17.3165V12C4 11.4967 4.40804 11.0886 4.91139 11.0886Z" fill="black" fill-opacity="0.87"/>
</svg>
