<svg width="52" height="60" viewBox="0 0 52 60" fill="none" xmlns="http://www.w3.org/2000/svg">
<rect x="1" y="5" width="50" height="54" stroke="black" stroke-opacity="0.87" stroke-linejoin="round"/>
<path d="M20 3.99999C21.7922 1.73613 27.5553 -1.43327 32 4" stroke="black" stroke-opacity="0.87"/>
<rect x="15" y="3" width="21" height="4" fill="black" fill-opacity="0.87"/>
<rect x="6" y="17" width="5" height="4" fill="black" fill-opacity="0.87"/>
<rect x="14" y="17" width="16" height="4" fill="black" fill-opacity="0.87"/>
<rect x="33" y="17" width="5" height="4" fill="black" fill-opacity="0.87"/>
<rect x="41" y="17" width="5" height="4" fill="black" fill-opacity="0.87"/>
<rect x="6" y="27" width="5" height="4" fill="black" fill-opacity="0.87"/>
<rect x="14" y="27" width="16" height="4" fill="black" fill-opacity="0.87"/>
<rect x="33" y="27" width="5" height="4" fill="black" fill-opacity="0.87"/>
<rect x="41" y="27" width="5" height="4" fill="black" fill-opacity="0.87"/>
<rect x="6" y="38" width="5" height="4" fill="black" fill-opacity="0.87"/>
<rect x="14" y="38" width="16" height="4" fill="black" fill-opacity="0.87"/>
<rect x="33" y="38" width="5" height="4" fill="black" fill-opacity="0.87"/>
<rect x="41" y="38" width="5" height="4" fill="black" fill-opacity="0.87"/>
<rect x="6" y="48" width="5" height="4" fill="black" fill-opacity="0.87"/>
<rect x="14" y="48" width="16" height="4" fill="black" fill-opacity="0.87"/>
<rect x="33" y="48" width="5" height="4" fill="black" fill-opacity="0.87"/>
<rect x="41" y="48" width="5" height="4" fill="black" fill-opacity="0.87"/>
</svg>
