<svg width="24" height="24" viewBox="0 0 24 24" fill="none" xmlns="http://www.w3.org/2000/svg">
<path d="M14 12.7111V11.2889H6.86488L6.17795 12.0329L6.81755 12.7111H14Z" fill="#C62828"/>
<path fill-rule="evenodd" clip-rule="evenodd" d="M6.17795 12.0329L9.08101 15.1115L7.77189 16L4.41892 12.4443L6.17795 12.0329Z" fill="#C62828"/>
<path d="M4.41892 11.5557L4 12L4.41892 12.4443L6.17795 12.0329L4.41892 11.5557Z" fill="#C62828"/>
<path d="M7.77189 8L4.41892 11.5557L6.17795 12.0329L6.86488 11.2889L9.08101 8.88851L7.77189 8Z" fill="#C62828"/>
<path d="M12 18.1772C15.4116 18.1772 18.1772 15.4116 18.1772 12C18.1772 8.58842 15.4116 5.82279 12 5.82279C10.9112 5.82279 9.88828 6.10446 9 6.5989L8 5.07026C9.17669 4.38958 10.5429 4 12 4C16.4183 4 20 7.58172 20 12C20 16.4183 16.4183 20 12 20C10.5429 20 9.17669 19.6104 8 18.9297L9 17.5C9.51496 17.7257 10.8359 18.1772 12 18.1772Z" fill="#C62828"/>
</svg>
