<svg width="24" height="24" viewBox="0 0 24 24" fill="none" xmlns="http://www.w3.org/2000/svg">
<path fill-rule="evenodd" clip-rule="evenodd" d="M11.3222 20C11.267 20 11.2222 19.9552 11.2222 19.9V4.1C11.2222 4.04477 11.267 4 11.3222 4H12.6778C12.733 4 12.7778 4.04477 12.7778 4.1V19.9C12.7778 19.9552 12.733 20 12.6778 20H11.3222ZM5.1 20C5.04477 20 5 19.9552 5 19.9V9.19091C5 9.13568 5.04477 9.09091 5.1 9.09091H6.45556C6.51078 9.09091 6.55556 9.13568 6.55556 9.19091V19.9C6.55556 19.9552 6.51078 20 6.45556 20H5.1ZM17.5444 20C17.4892 20 17.4444 19.9552 17.4444 19.9V12.8273C17.4444 12.772 17.4892 12.7273 17.5444 12.7273H18.9C18.9552 12.7273 19 12.772 19 12.8273V19.9C19 19.9552 18.9552 20 18.9 20H17.5444Z" fill="black" fill-opacity="0.87"/>
</svg>
