<svg width="24" height="24" viewBox="0 0 24 24" fill="none" xmlns="http://www.w3.org/2000/svg">
<path fill-rule="evenodd" clip-rule="evenodd" d="M4 12C4 7.58172 7.58172 4 12 4C16.4183 4 20 7.58173 20 12C20 16.4183 16.4183 20 12 20C7.58173 20 4 16.4183 4 12ZM12 5.6C8.46538 5.6 5.6 8.46538 5.6 12C5.6 15.5346 8.46538 18.4 12 18.4C15.5347 18.4 18.4 15.5347 18.4 12C18.4 8.46538 15.5346 5.6 12 5.6ZM12 6.4C12.4418 6.4 12.8 6.75817 12.8 7.2V11.6686L15.9577 14.8263C16.2701 15.1387 16.2701 15.6453 15.9577 15.9577C15.6453 16.2701 15.1387 16.2701 14.8263 15.9577L11.4343 12.5657C11.2843 12.4157 11.2 12.2122 11.2 12V7.2C11.2 6.75817 11.5582 6.4 12 6.4Z" fill="black"/>
</svg>
