<svg width="24" height="24" viewBox="0 0 24 24" fill="none" xmlns="http://www.w3.org/2000/svg">
<path fill-rule="evenodd" clip-rule="evenodd" d="M5.53191 5.53191V18.4681H12.6001C12.0122 17.7493 11.6596 16.8307 11.6596 15.8298C11.6596 13.7883 13.1265 12.0894 15.0638 11.7298V5.53191H5.53191ZM16.5957 11.7298V4.85106C16.5957 4.38103 16.2147 4 15.7447 4H4.85106C4.38103 4 4 4.38104 4 4.85106V19.1489C4 19.619 4.38104 20 4.85106 20H15.8298C18.1329 20 20 18.1329 20 15.8298C20 13.7883 18.5331 12.0894 16.5957 11.7298ZM15.8298 18.4681C17.2869 18.4681 18.4681 17.2869 18.4681 15.8298C18.4681 14.3727 17.2869 13.1915 15.8298 13.1915C14.3727 13.1915 13.1915 14.3727 13.1915 15.8298C13.1915 17.2869 14.3727 18.4681 15.8298 18.4681ZM13.2766 8.17021C13.2766 8.59324 12.9337 8.93617 12.5106 8.93617H8.08511C7.66208 8.93617 7.31915 8.59324 7.31915 8.17021C7.31915 7.74719 7.66208 7.40426 8.08511 7.40426H12.5106C12.9337 7.40426 13.2766 7.74719 13.2766 8.17021ZM13.2766 10.7234C13.2766 11.1464 12.9337 11.4894 12.5106 11.4894H8.08511C7.66208 11.4894 7.31915 11.1464 7.31915 10.7234C7.31915 10.3004 7.66208 9.95745 8.08511 9.95745H12.5106C12.9337 9.95745 13.2766 10.3004 13.2766 10.7234ZM10.7234 13.2766C10.7234 13.6996 10.3805 14.0426 9.95745 14.0426H8.08511C7.66208 14.0426 7.31915 13.6996 7.31915 13.2766C7.31915 12.8536 7.66208 12.5106 8.08511 12.5106H9.95745C10.3805 12.5106 10.7234 12.8536 10.7234 13.2766ZM15.8298 15.6164C16.2528 15.6164 16.5957 15.9594 16.5957 16.3824V17.1064C16.5957 17.5294 16.2528 17.8723 15.8298 17.8723C15.4068 17.8723 15.0638 17.5294 15.0638 17.1064V16.3824C15.0638 15.9594 15.4068 15.6164 15.8298 15.6164Z" fill="black" fill-opacity="0.87"/>
<path d="M15.8341 15.1489C16.2231 15.1489 16.5106 14.863 16.5106 14.4681C16.5106 14.0737 16.2231 13.7872 15.8341 13.7872C15.437 13.7872 15.1489 14.0737 15.1489 14.4605C15.1489 14.863 15.4294 15.1489 15.8341 15.1489Z" fill="black" fill-opacity="0.87"/>
</svg>
