<svg width="60" height="60" viewBox="0 0 60 60" fill="none" xmlns="http://www.w3.org/2000/svg">
<path fill-rule="evenodd" clip-rule="evenodd" d="M42.005 13.9886C42.0014 13.9168 41.997 13.8467 41.9917 13.7787C41.9577 13.3413 41.8772 12.8204 41.6221 12.2905C41.2245 11.4648 40.5581 10.7983 39.7324 10.4006C39.2025 10.1455 38.6815 10.065 38.2441 10.0309C37.846 9.99989 37.3773 9.99995 36.8992 10L23.1625 10L23.1009 10C22.6227 9.99995 22.154 9.99989 21.7559 10.0309C21.3185 10.0649 20.7976 10.1454 20.2677 10.4006C19.442 10.7983 18.7757 11.4646 18.378 12.2903C18.1228 12.8203 18.0423 13.3412 18.0083 13.7786C18.003 13.8466 17.9986 13.9167 17.995 13.9886H14.5444L14.443 13.9884C14.0929 13.9876 13.6576 13.9866 13.2566 14.0663C11.6518 14.3856 10.3973 15.6402 10.078 17.245C9.9983 17.646 9.99934 18.0812 10.0002 18.4314L10.0003 18.5328L10.0003 18.7417C9.99977 19.9275 9.9994 20.8151 10.1547 21.5959C10.7886 24.783 13.28 27.2744 16.4671 27.9083C17.0993 28.0341 17.8015 28.0578 18.6754 28.0619C20.1141 32.0892 23.6381 35.1248 27.9488 35.8656V37.9385C27.188 37.9657 26.5299 38.0322 25.9263 38.194C23.1538 38.9369 20.9883 41.1026 20.2454 43.8749C19.97 44.9029 19.9707 46.0883 19.9716 47.67L19.9717 47.9487C19.9717 49.0816 20.8901 50 22.0229 50H37.9771C39.1099 50 40.0283 49.0816 40.0283 47.9487L40.0284 47.6701C40.0293 46.0883 40.03 44.9028 39.7546 43.8749C39.0117 41.1025 36.8459 38.9368 34.0736 38.1939C33.4699 38.0322 32.8119 37.9657 32.0512 37.9385V35.8657C36.3619 35.1248 39.8859 32.0892 41.3246 28.0619C42.1985 28.0578 42.9007 28.0341 43.533 27.9083C46.7199 27.2744 49.2112 24.783 49.8453 21.596C50.0005 20.8153 50.0002 19.9276 49.9997 18.7417L49.9997 18.5328L49.9998 18.4314C50.0007 18.0812 50.0017 17.6461 49.922 17.2452C49.6028 15.6404 48.3482 14.3856 46.7434 14.0663C46.3424 13.9866 45.9071 13.9876 45.557 13.9884L45.4556 13.9886H42.005ZM22.0799 24.0171C22.0799 24.5623 22.1347 25.0925 22.2384 25.6033C22.972 29.2176 26.1707 31.9373 30 31.9373C33.8263 31.9373 37.0229 29.2219 37.7599 25.6119L37.7617 25.6033C37.8653 25.0926 37.9201 24.5624 37.9201 24.0171V15.1852C37.9201 14.6404 37.9187 14.3368 37.9033 14.1194C37.6859 14.1039 37.3824 14.1026 36.8375 14.1026H23.1625C22.6176 14.1026 22.3141 14.1039 22.0967 14.1194C22.0849 14.2851 22.0814 14.5007 22.0803 14.835L22.0799 15.1852V24.0171ZM42.0226 23.9474C42.3691 23.9368 42.5656 23.9178 42.7327 23.8846C44.2919 23.5744 45.5112 22.3549 45.8217 20.7954C45.8873 20.4654 45.8972 20.0204 45.8972 18.5328C45.8972 18.3164 45.8969 18.1875 45.8946 18.0937C45.8009 18.0914 45.672 18.0912 45.4556 18.0912H42.0226V21.0193V23.9474ZM17.9774 18.0912H14.5444C14.328 18.0912 14.1991 18.0914 14.1054 18.0937C14.1031 18.1874 14.1028 18.3164 14.1028 18.5328C14.1028 20.0211 14.1128 20.4657 14.1784 20.7955C14.4886 22.3552 15.7078 23.5744 17.2674 23.8846C17.4344 23.9178 17.6309 23.9368 17.9774 23.9474V18.0912ZM26.9881 42.1567C27.4224 42.0404 28.0135 42.0228 30 42.0228C31.9865 42.0228 32.5776 42.0404 33.0119 42.1567C34.3685 42.5202 35.4284 43.5801 35.7919 44.9368C35.8516 45.1598 35.8853 45.4241 35.904 45.8974H24.096C24.1147 45.4241 24.1484 45.1598 24.2081 44.9368C24.5717 43.5802 25.6315 42.5203 26.9881 42.1567Z" fill="black" fill-opacity="0.87"/>
<path fill-rule="evenodd" clip-rule="evenodd" d="M26.9881 42.1567C27.4224 42.0404 28.0135 42.0228 30 42.0228L26.9881 42.1567ZM30 42.0228C31.9865 42.0228 32.5776 42.0404 33.0119 42.1567L30 42.0228Z" fill="black" fill-opacity="0.87"/>
</svg>
