<svg width="54" height="58" viewBox="0 0 54 58" fill="none" xmlns="http://www.w3.org/2000/svg">
<g clip-path="url(#clip0_725_4481)">
<path fill-rule="evenodd" clip-rule="evenodd" d="M27.0011 49.1114C27.5638 49.1114 28.0195 49.5704 28.0195 50.137C28.0195 50.7037 27.5638 51.1627 27.0011 51.1627C26.4385 51.1627 25.9828 50.7037 25.9828 50.137C25.9828 49.5704 26.4385 49.1114 27.0011 49.1114ZM37.4582 20.8701L36.9305 17.0248C33.3904 15.4868 29.9752 14.8533 26.6692 14.9247C23.3811 14.995 20.1865 15.7656 17.074 17.035L16.5452 20.8633C19.3156 19.3458 23.1516 18.5842 26.982 18.5842C30.809 18.5842 34.6574 19.3447 37.4582 20.8701ZM27.0011 6.8736C28.4043 6.8736 29.542 8.02052 29.542 9.43377C29.542 10.847 28.4043 11.9939 27.0011 11.9939C25.5968 11.9939 24.4592 10.847 24.4592 9.43377C24.4592 8.02052 25.5968 6.8736 27.0011 6.8736ZM27.2802 0C28.078 0 28.7307 0.657327 28.7307 1.46085V1.95498C31.1534 2.30858 33.3487 3.43736 35.0164 5.08181C36.9901 7.03113 38.2268 9.70463 38.2268 12.6773L38.1289 16.5068L39.0831 23.4688L38.7264 23.2161C38.6375 23.6026 38.5238 23.9618 38.4091 24.2554L38.4057 24.2678C38.175 24.8605 37.8667 25.4 37.5077 25.7978C37.2073 26.1208 36.8697 26.3531 36.504 26.4438C36.4331 26.6716 36.3555 26.9085 36.2981 27.1408C35.8907 28.5246 35.57 29.6148 34.7216 30.6971C34.537 30.9329 34.339 31.1607 34.1297 31.376C33.9845 31.5301 33.8371 31.6752 33.6841 31.8123C33.7043 32.0254 33.7066 33.5815 33.7043 34.513C34.5494 34.6615 35.2279 34.7714 35.9009 34.8814C42.9506 36.0249 49.6392 37.1106 51.4261 46.0027L53.4899 57.252C53.5063 57.3432 53.5027 57.4368 53.4792 57.5264C53.4557 57.6159 53.413 57.6992 53.3541 57.7704C53.2952 57.8415 53.2215 57.8987 53.1382 57.938C53.0549 57.9773 52.9641 57.9977 52.8721 57.9977L40.0249 57.9989L39.9811 58L39.9361 57.9989L13.9818 58H1.13015C0.782442 58 0.5 57.7155 0.5 57.3653C0.5 57.3132 0.506752 57.2633 0.518004 57.2157L2.04611 47.833C4.09972 37.3078 9.46049 36.2561 17.3508 34.7091C18.2623 34.53 19.2075 34.3442 20.1404 34.147C20.1955 34.1345 20.2507 34.1311 20.3047 34.1345V31.8248L20.3103 31.5154C19.5282 30.8037 18.8868 29.8574 18.457 28.894C18.1565 28.222 17.918 27.4966 17.6412 26.6761L17.4983 26.2489C17.1843 26.2081 16.8929 26.0619 16.6296 25.8465C16.2999 25.5734 16.0163 25.1756 15.7856 24.7155C15.6056 24.3585 15.4098 23.819 15.2747 23.2229L14.9158 23.4813L15.8745 16.525L15.6607 13.1443C15.6468 12.9315 15.6396 12.7183 15.6393 12.5051C15.6393 9.63663 16.8659 7.06059 18.8058 5.15775C20.6479 3.35123 23.137 2.15218 25.8286 1.89038V1.46085C25.8286 0.657327 26.4824 0 27.2802 0ZM33.5232 35.7676C33.028 37.2897 31.8251 38.3482 30.3297 38.9557C29.3248 39.3625 28.1838 39.5631 27.0461 39.5586C25.9074 39.5541 24.7675 39.3444 23.7649 38.9353C22.1344 38.2677 20.8504 37.0766 20.4555 35.3698C20.4363 35.3766 20.4172 35.3812 20.3969 35.3857C19.6486 35.5444 18.9442 35.686 18.2657 35.8198C18.3073 38.5817 18.6337 40.7112 19.8444 42.6492C20.8414 44.2437 22.4483 45.7454 24.997 47.4034C25.5619 46.9966 26.254 46.7575 27.0011 46.7575C27.692 46.7575 28.3368 46.9637 28.8781 47.3196C30.7449 46.0684 32.1661 44.8013 33.2182 43.3348C34.5787 41.4376 35.345 39.1721 35.6859 36.1269C34.9151 36.0011 34.1398 35.8764 33.5232 35.7676ZM36.8945 15.6727L36.9665 12.9244V12.6773C36.9665 10.0594 35.8761 7.70319 34.1353 5.98394C32.3866 4.25902 29.9853 3.1733 27.3702 3.1053L26.9404 3.10417C26.7086 3.10417 26.488 3.11097 26.2832 3.12457C23.7525 3.28663 21.4007 4.37915 19.6824 6.06554C17.9765 7.73719 16.8985 9.9959 16.8985 12.5051C16.8985 12.7034 16.9041 12.8893 16.9154 13.0649L17.083 15.7033C20.1764 14.4941 23.3575 13.7642 26.6455 13.6939C29.9583 13.6225 33.3701 14.2209 36.8945 15.6727ZM16.3291 22.4704C16.4653 23.1186 16.7263 23.7918 16.9007 24.1477C17.0572 24.4582 17.2338 24.7155 17.4195 24.8685C17.7571 25.1382 17.8685 24.8356 18.2297 25.0305C18.5391 25.2005 18.6089 25.6187 18.7158 25.9304L18.843 26.3112C19.0905 27.0569 19.3167 27.721 19.58 28.3217C20.128 29.5525 20.8606 30.432 21.9183 31.2445C25.0792 33.6619 29.2629 33.7651 32.4047 31.2525C32.8953 30.8626 33.3431 30.4195 33.7381 29.9129C34.0847 29.4788 34.3311 29.0142 34.5325 28.5042C34.7418 27.9817 34.9117 27.4184 35.0963 26.7838C35.2032 26.42 35.3112 26.0539 35.426 25.689C35.6027 24.9977 36.1383 25.4612 36.603 24.9478C36.8371 24.6781 37.0599 24.2633 37.2399 23.7998C37.3108 23.6173 37.5404 23.0529 37.6889 22.484C35.0659 20.7273 31.0273 19.8524 26.982 19.8524C22.9333 19.8524 18.9127 20.7285 16.3291 22.4704ZM21.5458 34.394C21.5796 34.5969 21.6021 34.5844 21.6145 34.6989C21.7878 36.1654 22.8489 37.1922 24.2375 37.76C25.0961 38.1113 26.0739 38.2904 27.0506 38.2949C28.0296 38.2983 29.0063 38.1283 29.8615 37.7804C31.2366 37.2228 32.2899 36.196 32.4755 34.6966C32.4879 34.5924 32.5262 34.496 32.5813 34.4144V32.7031C29.2427 34.8122 25.985 34.9664 22.4359 33.1134C22.0995 32.9355 21.7619 32.7405 21.4198 32.5207L21.5458 34.394ZM24.9655 48.5878C24.9138 48.6524 24.8654 48.7181 24.8192 48.7884C24.5492 49.2032 24.3916 49.6996 24.3916 50.2311C24.3916 51.6829 25.5597 52.8604 27.0011 52.8604C27.9463 52.8604 27.8316 54.166 27.8304 54.4017V55.3208H29.5881V50.579C29.618 50.3484 29.618 50.1149 29.5881 49.8843V49.882H29.587C29.5285 49.4366 29.3586 49.0264 29.1076 48.6796L29.0952 48.6626C29.0649 48.624 29.0356 48.5855 29.0041 48.547L28.9906 48.5311L28.9771 48.5152L28.9703 48.5073L28.9636 48.4994L28.9501 48.4835L28.9355 48.4676L28.922 48.4529L28.9073 48.437C28.8747 48.4019 28.8398 48.3668 28.8049 48.3328L28.7892 48.318L28.743 48.275L28.7284 48.2614L28.7127 48.2478L28.6958 48.2342L28.6834 48.2228L28.68 48.2206L28.6643 48.207L28.6316 48.1798L28.6159 48.1673L28.599 48.1548L28.5934 48.1503L28.5833 48.1412L28.5664 48.1288L28.5495 48.1163L28.5472 48.1152L28.5326 48.1038L28.5157 48.0914L28.5011 48.0812L28.4989 48.0789L28.4809 48.0676L28.464 48.0551L28.4538 48.0483L28.4471 48.0438L28.4291 48.0313L28.4111 48.02L28.4055 48.0154L28.3942 48.0086L28.3762 47.9973L28.3582 47.9871L28.3402 47.9758L28.3222 47.9644L28.3064 47.9554L28.3042 47.9542L28.2862 47.944L28.267 47.9338L28.249 47.9236L28.231 47.9134L28.2119 47.9032L28.2052 47.8998L28.1939 47.893L28.1748 47.884L28.1556 47.8738L28.1534 47.8726L28.1365 47.8647L28.1174 47.8556L28.0983 47.8466L28.0791 47.8375C27.7407 47.6822 27.373 47.6022 27.0011 47.6029C26.5623 47.6029 26.1493 47.7117 25.787 47.9044L25.769 47.9134L25.7566 47.9202L25.751 47.9236L25.733 47.9338L25.7138 47.944L25.7014 47.952L25.6969 47.9542L25.6778 47.9656L25.6609 47.9758L25.6474 47.9837L25.6429 47.9871L25.6249 47.9973L25.608 48.0086L25.5945 48.0177L25.59 48.02L25.5732 48.0313L25.5563 48.0426L25.5417 48.0517L25.5383 48.054L25.5214 48.0664L25.5045 48.0778L25.4899 48.088L25.4876 48.0902L25.4708 48.1016L25.455 48.114L25.4393 48.1254L25.4381 48.1265L25.4213 48.139L25.4044 48.1526L25.3897 48.1639L25.3886 48.165L25.3729 48.1775L25.356 48.1911L25.3414 48.2036H25.3402L25.3245 48.2172L25.3087 48.2308L25.2783 48.258L25.2626 48.2716L25.2322 48.2988L25.2165 48.3135L25.2018 48.3282L25.2007 48.3294L25.1872 48.3418L25.1726 48.3566L25.1579 48.3713L25.1557 48.3736L25.1433 48.386L25.1287 48.4008L25.1141 48.4155L25.1118 48.4178L25.1006 48.4302L25.0859 48.4461L25.0173 48.5232L25.0049 48.539L24.9914 48.5549L24.9779 48.5708L24.9655 48.5878ZM24.1114 48.3328C21.5166 46.618 19.8489 45.0314 18.7822 43.3235C17.4555 41.2008 17.0752 38.9421 17.0144 36.0657C9.93423 37.4597 5.12259 38.6395 3.28053 48.0755L2.77641 51.1706H13.328V45.4485C13.328 45.0983 13.6093 44.8138 13.9582 44.8138C14.3048 44.8138 14.5872 45.0983 14.5872 45.4485V56.7307H39.3509V45.4485C39.3509 45.0983 39.6334 44.8138 39.9811 44.8138C40.3288 44.8138 40.6101 45.0983 40.6101 45.4485V51.1706H51.0976L50.1928 46.2407C48.676 38.7154 43.0677 37.3543 36.926 36.3298C36.5558 39.5699 35.7208 42.0043 34.2366 44.0737C33.1338 45.6117 31.6834 46.9308 29.8064 48.2149C30.1102 48.6433 30.3195 49.1442 30.4051 49.686C30.4174 49.7392 30.4253 49.7936 30.4276 49.8503C30.4399 49.9829 30.4456 50.0973 30.4501 50.2311C30.4456 50.3637 30.4399 50.477 30.4276 50.6073V55.3208C30.4276 55.5451 30.3391 55.7601 30.1817 55.9187C30.0243 56.0772 29.8107 56.1663 29.5881 56.1663H27.8304C27.3668 56.1663 26.9899 55.7878 26.9899 55.3208V54.4017L26.9955 54.3076V54.1512C26.9955 53.9948 27.0056 53.7058 27.0011 53.7058C26.048 53.7058 25.1861 53.3171 24.5616 52.6881C23.9382 52.0591 23.5511 51.191 23.5511 50.2311C23.5511 49.5307 23.757 48.879 24.1114 48.3328ZM2.27792 54.2238L1.86945 56.7307H13.328V54.2238H2.27792ZM40.6101 56.7307H52.1171L51.6579 54.2238H40.6101V56.7307Z" fill="black" fill-opacity="0.87"/>
</g>
<defs>
<clipPath id="clip0_725_4481">
<rect width="53" height="58" fill="white" transform="translate(0.5)"/>
</clipPath>
</defs>
</svg>
