<svg width="412" height="563" viewBox="0 0 412 563" fill="none" xmlns="http://www.w3.org/2000/svg">
<g clip-path="url(#clip0_1659_7223)">
<path fill-rule="evenodd" clip-rule="evenodd" d="M127.795 4.99126C184.754 16.77 218.43 70.9126 263.716 107.383C305.962 141.406 366.762 159.715 383.822 211.18C400.9 262.701 360.84 313.192 349.534 366.276C336.343 428.211 363.444 510.616 312.133 547.785C260.812 584.962 188.685 544.515 127.795 526.901C82.5641 513.818 -2.65095 541.84 -45.1694 521.622C-102.146 494.53 -129.316 442.03 -162.916 388.666C-196.812 334.832 -172.92 263.538 -154.252 202.734C-135.308 141.031 -109.119 78.29 -56.241 41.2175C-3.77655 4.4348 65.0322 -7.98777 127.795 4.99126Z" fill="#D1E1ED" fill-opacity="0.08"/>
<g clip-path="url(#clip1_1659_7223)">
<path d="M-8 317C25.1371 317 52 290.137 52 257C52 223.863 25.1371 197 -8 197C-41.1371 197 -68 223.863 -68 257C-68 290.137 -41.1371 317 -8 317Z" fill="#F9A825"/>
<path opacity="0.1" d="M-1.43 316.569C-0.217073 316.459 0.992233 316.313 2.19625 316.13C4.16703 315.788 6.11947 315.347 8.04625 314.81C9.97407 314.275 11.874 313.645 13.7388 312.92C15.6034 312.197 17.4306 311.381 19.2137 310.475C20.9975 309.566 22.7347 308.569 24.4188 307.486C26.1008 306.406 27.7279 305.242 29.2937 303.999C30.8599 302.757 32.363 301.438 33.7975 300.046C35.235 298.651 36.6017 297.184 37.8925 295.651C39.1799 294.123 40.3902 292.531 41.5188 290.881C42.6485 289.228 43.6948 287.52 44.6538 285.763C45.612 284.007 46.4818 282.205 47.26 280.363C48.0409 278.522 48.7292 276.643 49.3225 274.734C49.9142 272.821 50.4099 270.88 50.8075 268.918C51.1336 267.237 51.3876 265.543 51.5687 263.84L11.1062 223.381C10.8661 223.141 10.5807 222.951 10.2666 222.821C9.95255 222.692 9.61594 222.626 9.27625 222.628H8.36125L8.15875 222.421C8.16571 222.265 8.13988 222.108 8.08293 221.962C8.02598 221.815 7.93915 221.683 7.82799 221.572C7.71682 221.461 7.58378 221.375 7.43734 221.318C7.29089 221.262 7.13428 221.236 6.9775 221.244H3.205L3.11125 221.146C3.11178 220.996 3.08223 220.847 3.02432 220.708C2.96642 220.569 2.88134 220.443 2.77408 220.338C2.66682 220.232 2.53954 220.149 2.39974 220.094C2.25994 220.038 2.11043 220.011 1.96 220.014C1.6639 220.02 1.38199 220.142 1.17504 220.354C0.9681 220.565 0.852707 220.85 0.85375 221.146H0.846247C0.846752 220.997 0.817556 220.849 0.760353 220.711C0.703148 220.572 0.619076 220.447 0.513016 220.342C0.406958 220.236 0.281023 220.153 0.142529 220.097C0.00403404 220.041 -0.144258 220.012 -0.293749 220.014C-0.591156 220.018 -0.874981 220.139 -1.08353 220.351C-1.29209 220.563 -1.40852 220.849 -1.4075 221.146C-1.40699 220.997 -1.43631 220.848 -1.49375 220.71C-1.55119 220.571 -1.63559 220.446 -1.74205 220.34C-1.84851 220.235 -1.97489 220.152 -2.11382 220.096C-2.25275 220.04 -2.40145 220.012 -2.55125 220.014C-2.84866 220.018 -3.13248 220.139 -3.34104 220.351C-3.54959 220.563 -3.66601 220.849 -3.665 221.146V221.244H-6.52625C-6.56373 221.242 -6.60127 221.242 -6.63875 221.244C-6.80345 221.253 -6.96423 221.297 -7.10974 221.375C-7.25526 221.453 -7.38199 221.561 -7.48102 221.693C-7.58004 221.825 -7.64894 221.977 -7.68289 222.139C-7.71684 222.3 -7.715 222.467 -7.6775 222.628H-7.7375L-7.86875 222.496C-7.86244 222.341 -7.88835 222.186 -7.94487 222.041C-8.00138 221.896 -8.08727 221.764 -8.19715 221.654C-8.30703 221.543 -8.43851 221.457 -8.58334 221.4C-8.72817 221.343 -8.88322 221.317 -9.03875 221.323H-12.1663L-12.3425 221.146C-12.341 220.995 -12.3698 220.845 -12.4272 220.706C-12.4847 220.566 -12.5696 220.439 -12.677 220.333C-12.7843 220.226 -12.912 220.143 -13.0523 220.087C-13.1926 220.031 -13.3427 220.003 -13.4938 220.006C-13.7912 220.012 -14.0742 220.135 -14.2814 220.349C-14.4885 220.562 -14.603 220.849 -14.6 221.146V221.236L-14.6863 221.146C-14.6847 220.996 -14.7133 220.847 -14.7703 220.707C-14.8273 220.568 -14.9115 220.442 -15.0181 220.336C-15.1247 220.229 -15.2514 220.145 -15.3908 220.089C-15.5302 220.032 -15.6796 220.004 -15.83 220.006C-16.1287 220.01 -16.4137 220.132 -16.6224 220.346C-16.8312 220.56 -16.9468 220.848 -16.9438 221.146V221.236L-17.03 221.146C-17.0285 220.996 -17.0571 220.847 -17.1141 220.707C-17.171 220.568 -17.2553 220.442 -17.3619 220.336C-17.4684 220.229 -17.5951 220.145 -17.7346 220.089C-17.874 220.032 -18.0233 220.004 -18.1738 220.006C-18.4725 220.01 -18.7574 220.132 -18.9662 220.346C-19.175 220.56 -19.2905 220.848 -19.2875 221.146V221.323H-22.9063C-23.0734 221.316 -23.2399 221.346 -23.394 221.411C-23.548 221.476 -23.6856 221.575 -23.7968 221.7C-23.9081 221.824 -23.9902 221.972 -24.0372 222.133C-24.0842 222.293 -24.095 222.462 -24.0687 222.628H-25.445C-26.0627 222.64 -26.6516 222.891 -27.0885 223.328C-27.5254 223.765 -27.7763 224.354 -27.7888 224.971V239.848L-24.8975 242.739H-27.7888V244.535L-24.8975 247.426H-27.7888V249.223L-24.89 252.121H-27.7888V286.269C-27.8563 287.229 -27.2638 288.031 -26.8288 288.789L-24.545 293.371C-24.4906 293.48 -24.4184 293.579 -24.3312 293.664L-1.43 316.569ZM-14.6863 223.756L-14.6 223.843C-14.5906 224.129 -14.4727 224.401 -14.27 224.604C-14.0673 224.806 -13.7952 224.924 -13.5087 224.934L-12.3275 226.115V228.103L-15.5375 224.896C-15.2863 224.833 -15.0646 224.685 -14.9096 224.477C-14.7547 224.27 -14.6758 224.015 -14.6863 223.756Z" fill="#212121"/>
<path d="M-0.425102 224.435C-15.3126 224.24 -28.5689 234.466 -32.2176 249.23H-36.6126C-36.8125 249.23 -37.0105 249.269 -37.1952 249.346C-37.38 249.422 -37.5478 249.534 -37.6892 249.676C-37.8306 249.817 -37.9427 249.985 -38.0192 250.17C-38.0957 250.355 -38.1351 250.553 -38.1351 250.753C-38.1351 250.952 -38.0957 251.15 -38.0192 251.335C-37.9427 251.52 -37.8306 251.687 -37.6892 251.829C-37.5478 251.97 -37.38 252.082 -37.1952 252.159C-37.0105 252.235 -36.8125 252.275 -36.6126 252.275H-17.5851L-7.55761 253.291L-5.29635 259.344V259.509L-7.3551 266.39C-7.47548 266.777 -7.49877 267.189 -7.42292 267.588C-7.34707 267.987 -7.17441 268.361 -6.9201 268.677C-6.65946 268.958 -6.34131 269.18 -5.98733 269.327C-5.63335 269.474 -5.25186 269.542 -4.86886 269.529H-3.29761L-3.60135 270.605H-38.2251C-38.3089 270.585 -38.3942 270.573 -38.4801 270.567C-38.7759 270.576 -39.0625 270.672 -39.3051 270.841C-39.328 270.857 -39.3506 270.873 -39.3726 270.89C-39.3904 270.903 -39.4079 270.917 -39.4251 270.931C-39.4328 270.944 -39.4403 270.956 -39.4476 270.969C-39.6034 271.101 -39.7308 271.264 -39.8223 271.447C-39.9138 271.63 -39.9674 271.829 -39.9801 272.034C-41.7689 278.499 -40.2539 284.161 -35.3151 289.096C-35.1362 289.284 -34.9125 289.422 -34.6651 289.499C-34.4177 289.576 -34.1549 289.588 -33.9014 289.535C-33.8314 289.54 -33.7613 289.54 -33.6914 289.535H0.111145C0.314465 289.537 0.516106 289.498 0.70417 289.421C0.892239 289.343 1.06292 289.229 1.20615 289.085C1.20864 289.085 1.21115 289.085 1.21365 289.085C1.50087 288.862 1.69905 288.544 1.7724 288.188L6.35114 269.514H7.17615C8.61615 269.514 10.0074 268.842 10.4986 267.282L10.4686 267.373L13.4761 259.478V258.211L12.1936 255.278L32.2711 257.315C32.2943 249.156 29.2731 241.282 23.7983 235.233C18.3236 229.184 10.7891 225.395 2.66864 224.607C1.63968 224.496 0.606052 224.432 -0.42886 224.416L-0.425102 224.435ZM-7.01385 246.279H9.43364C10.0861 246.283 10.6149 246.811 10.6186 247.464V250.753C10.6186 251.067 10.4939 251.369 10.2718 251.592C10.0497 251.814 9.74827 251.94 9.43364 251.941H-7.01385C-7.32913 251.941 -7.63149 251.816 -7.85443 251.593C-8.07736 251.37 -8.2026 251.068 -8.2026 250.753V247.464C-8.2026 246.807 -7.66635 246.279 -7.01385 246.279ZM-2.01135 247.464C-2.22751 247.463 -2.44153 247.506 -2.64109 247.589C-2.84064 247.672 -3.0218 247.794 -3.17413 247.947C-3.32644 248.101 -3.44691 248.283 -3.52861 248.483C-3.61029 248.683 -3.65159 248.898 -3.6501 249.114C-3.6501 250.025 -2.9226 250.753 -2.01135 250.753C-1.09636 250.753 -0.361351 250.025 -0.361351 249.11C-0.360855 248.893 -0.403225 248.679 -0.486015 248.478C-0.568806 248.278 -0.690384 248.096 -0.84375 247.943C-0.997116 247.79 -1.17924 247.669 -1.37963 247.587C-1.58002 247.504 -1.79471 247.463 -2.01135 247.464ZM4.21365 247.464C3.77753 247.464 3.35928 247.637 3.0509 247.945C2.74252 248.253 2.56927 248.672 2.56927 249.108C2.56927 249.544 2.74252 249.963 3.0509 250.271C3.35928 250.579 3.77753 250.753 4.21365 250.753C4.42944 250.754 4.6433 250.712 4.84281 250.629C5.04233 250.547 5.22355 250.426 5.37597 250.273C5.52839 250.12 5.64898 249.939 5.73076 249.74C5.81254 249.54 5.85389 249.326 5.85239 249.11C5.85338 248.894 5.81172 248.68 5.72981 248.481C5.6479 248.281 5.52735 248.099 5.37508 247.946C5.22281 247.793 5.04182 247.672 4.84251 247.589C4.64319 247.506 4.42948 247.463 4.21365 247.464ZM-0.143856 269.532H3.22364L0.939899 278.832C0.908657 278.831 0.877384 278.831 0.846142 278.832H-13.7114V273.654H-2.88511C-2.56388 273.745 -2.22134 273.729 -1.91029 273.607C-1.59924 273.485 -1.33694 273.265 -1.16386 272.979C-1.16011 272.979 -1.15635 272.979 -1.1526 272.979C-1.01283 272.768 -0.927765 272.526 -0.905106 272.274L-0.143856 269.544V269.532ZM-37.2389 273.654H-28.6326V278.832H-37.6439C-37.8464 277.235 -37.6926 275.529 -37.2389 273.654ZM-25.5876 273.654H-16.7564V278.832H-25.5876V273.654ZM-36.8189 281.877H-28.6326V286.505H-33.5639C-35.0414 284.956 -36.1364 283.441 -36.8189 281.877ZM-25.5876 281.877H-16.7564V286.505H-25.5876V281.877ZM-13.7076 281.877H0.189896L-0.946354 286.505H-13.7076V281.877Z" fill="white"/>
</g>
<g clip-path="url(#clip2_1659_7223)">
<path d="M63 191C96.1371 191 123 164.137 123 131C123 97.8631 96.1371 71 63 71C29.8629 71 3 97.8631 3 131C3 164.137 29.8629 191 63 191Z" fill="#01579B"/>
<path d="M63 191C96.1371 191 123 164.137 123 131C123 97.8631 96.1371 71 63 71C29.8629 71 3 97.8631 3 131C3 164.137 29.8629 191 63 191Z" fill="white" fill-opacity="0.32"/>
<path opacity="0.1" d="M73.8375 189.984C75.5916 189.67 77.3308 189.278 79.05 188.81C80.9766 188.275 82.8752 187.644 84.7388 186.92C86.6034 186.197 88.4306 185.381 90.2138 184.475C91.9975 183.566 93.7347 182.569 95.4188 181.486C97.1008 180.406 98.7279 179.242 100.294 177.999C101.86 176.757 103.363 175.438 104.798 174.046C106.235 172.65 107.602 171.184 108.893 169.651C110.18 168.123 111.39 166.531 112.519 164.881C113.648 163.228 114.695 161.52 115.654 159.762C116.612 158.007 117.482 156.205 118.26 154.362C119.041 152.522 119.729 150.643 120.323 148.734C120.914 146.821 121.41 144.88 121.808 142.917C121.965 142.009 122.101 141.098 122.216 140.184L91.6313 109.599C91.2545 109.217 90.8063 108.913 90.3121 108.705C89.8179 108.496 89.2876 108.387 88.7513 108.384H86.25C85.6275 108.384 85.1663 108.804 84.6338 109.062C84.0975 108.8 83.6438 108.384 83.0213 108.384H80.5088C79.8862 108.384 79.4325 108.804 78.8963 109.062C78.3638 108.8 77.91 108.384 77.2837 108.384H74.7713C74.1525 108.384 73.695 108.804 73.1625 109.062C72.6262 108.8 72.1763 108.384 71.55 108.384H69.0375V108.376C66.8138 108.376 64.95 110.259 64.95 112.479V114.695L59.85 109.591L59.8387 109.584C59.4633 109.204 59.0168 108.902 58.5245 108.694C58.0323 108.487 57.5041 108.379 56.97 108.376H54.4575C53.8313 108.376 53.3812 108.796 52.845 109.055C52.3125 108.792 51.855 108.376 51.2325 108.376H48.72C48.0975 108.376 47.6437 108.796 47.1075 109.055C46.575 108.792 46.1213 108.376 45.4988 108.376H42.9862C42.3638 108.376 41.91 108.796 41.3737 109.055C40.8412 108.792 40.38 108.376 39.7575 108.376H37.2525C35.0288 108.376 33.1575 110.251 33.1575 112.471V122.746L32.535 122.124C32.4488 122.037 32.3325 121.996 32.2425 121.917C31.8578 121.599 31.4181 121.354 30.945 121.194C30.7838 121.137 30.63 121.074 30.4613 121.04C30.122 120.972 29.7755 120.947 29.43 120.965C29.28 120.972 29.1375 120.957 28.9913 120.98C28.4963 121.055 28.0125 121.19 27.5625 121.449L25.395 122.694C23.4638 123.811 22.7925 126.369 23.8988 128.289L32.3138 142.932C32.5163 143.277 32.745 143.581 33.0038 143.862C33.0413 143.9 33.0638 143.949 33.0975 143.986L36.03 146.915V151.141C36.03 151.824 36.3075 152.442 36.7538 152.892L73.8413 189.98L73.8375 189.984Z" fill="#212121"/>
<path d="M37.2487 108.383C35.0265 108.383 33.156 110.256 33.156 112.473V122.94C32.6026 122.011 31.7075 121.335 30.6622 121.057C29.6168 120.778 28.5041 120.92 27.5618 121.451L25.394 122.698L25.3891 122.703C24.4597 123.256 23.7834 124.151 23.5043 125.196C23.2252 126.241 23.3655 127.354 23.8952 128.297L32.3136 142.934C32.9949 144.113 33.9314 144.983 35.6334 144.983H36.0249V151.146C36.0249 151.804 36.2859 152.434 36.7505 152.898C37.2151 153.363 37.8453 153.624 38.5023 153.624H55.758C56.415 153.624 57.0452 153.363 57.5098 152.898C57.9744 152.434 58.2354 151.804 58.2354 151.146V144.445C59.7938 143.858 61.0573 142.609 61.0573 140.877V126.865C61.0573 126.51 61.0548 126.785 61.0325 126.657C61.0399 126.577 61.0573 126.6 61.0573 126.503V112.476C61.0573 110.256 59.1917 108.38 56.9694 108.38H54.4548C53.8305 108.38 53.3722 108.801 52.837 109.064C52.3044 108.801 51.8485 108.38 51.2267 108.38H48.7195C48.0976 108.38 47.6393 108.801 47.1041 109.064C46.5715 108.801 46.1156 108.38 45.4938 108.38H42.9841C42.3623 108.38 41.9064 108.801 41.3737 109.064C40.8386 108.801 40.3828 108.38 39.756 108.38L37.2487 108.383ZM37.1571 118.005H39.8476C40.0309 118.004 40.2125 118.04 40.382 118.109C40.5515 118.179 40.7055 118.281 40.8352 118.411C40.9649 118.54 41.0677 118.694 41.1376 118.863C41.2074 119.033 41.2431 119.214 41.2424 119.398V119.596C41.2434 119.779 41.208 119.961 41.1383 120.131C41.0685 120.3 40.9658 120.455 40.8361 120.584C40.7064 120.714 40.5522 120.817 40.3826 120.886C40.2129 120.956 40.0311 120.992 39.8476 120.991H37.1571C36.9736 120.991 36.7918 120.956 36.6222 120.886C36.4525 120.816 36.2983 120.713 36.1685 120.584C36.0386 120.454 35.9357 120.3 35.8655 120.131C35.7954 119.961 35.7595 119.779 35.7598 119.596V119.398C35.7598 118.625 36.3841 118.005 37.1571 118.005ZM42.8924 118.005H45.583C46.3559 118.005 46.9803 118.625 46.9803 119.398V119.596C46.9806 119.779 46.9447 119.961 46.8745 120.131C46.8044 120.3 46.7014 120.454 46.5716 120.584C46.4417 120.713 46.2876 120.816 46.1179 120.886C45.9482 120.956 45.7664 120.991 45.583 120.991H42.8924C42.709 120.992 42.5272 120.956 42.3575 120.886C42.1878 120.817 42.0337 120.714 41.904 120.584C41.7742 120.455 41.6715 120.3 41.6018 120.131C41.532 119.961 41.4966 119.779 41.4976 119.596V119.398C41.497 119.214 41.5326 119.033 41.6025 118.863C41.6724 118.694 41.7752 118.54 41.9048 118.411C42.0345 118.281 42.1886 118.179 42.3581 118.109C42.5276 118.04 42.7092 118.004 42.8924 118.005ZM48.6303 118.005H51.3208C51.504 118.004 51.6857 118.04 51.8552 118.109C52.0247 118.179 52.1787 118.281 52.3084 118.411C52.4381 118.54 52.5408 118.694 52.6107 118.863C52.6806 119.033 52.7163 119.214 52.7156 119.398V119.596C52.7166 119.779 52.6812 119.961 52.6115 120.131C52.5417 120.3 52.439 120.455 52.3093 120.584C52.1796 120.714 52.0254 120.817 51.8557 120.886C51.6861 120.956 51.5043 120.992 51.3208 120.991H48.6327C48.4493 120.991 48.2675 120.956 48.0978 120.886C47.9282 120.816 47.774 120.713 47.6441 120.584C47.5143 120.454 47.4113 120.3 47.3412 120.131C47.2711 119.961 47.2351 119.779 47.2354 119.596V119.398C47.2354 118.625 47.8573 118.005 48.6303 118.005ZM54.3656 118.005H57.0562C57.8291 118.005 58.4535 118.625 58.4535 119.398V119.596C58.4538 119.779 58.4179 119.961 58.3477 120.131C58.2776 120.3 58.1746 120.454 58.0448 120.584C57.9149 120.713 57.7607 120.816 57.5911 120.886C57.4214 120.956 57.2396 120.991 57.0562 120.991H54.3656C54.1822 120.992 54.0004 120.956 53.8307 120.886C53.661 120.817 53.5069 120.714 53.3771 120.584C53.2474 120.455 53.1447 120.3 53.075 120.131C53.0052 119.961 52.9698 119.779 52.9708 119.596V119.398C52.9701 119.214 53.0058 119.033 53.0757 118.863C53.1456 118.694 53.2483 118.54 53.378 118.411C53.5077 118.281 53.6618 118.179 53.8313 118.109C54.0008 118.04 54.1824 118.004 54.3656 118.005ZM38.4999 131.002H54.4697C55.1559 131.002 55.7084 131.555 55.7084 132.241V132.642C55.7084 133.328 55.1559 133.881 54.4697 133.881H38.4999V131.002ZM38.4999 136.76H54.4697C55.1559 136.76 55.7084 137.312 55.7084 137.999V138.395C55.7084 139.081 55.1559 139.634 54.4697 139.634H38.4999V136.76ZM69.0372 108.383C66.81 108.383 64.9494 110.263 64.9494 112.481V126.503C64.9494 126.605 64.9643 126.577 64.9717 126.659C64.9469 126.79 64.9469 126.508 64.9469 126.867V140.88C64.9469 142.612 66.2104 143.86 67.7688 144.447V151.149C67.7688 151.806 68.0298 152.436 68.4944 152.901C68.959 153.365 69.5892 153.626 70.2462 153.626H87.5019C88.1589 153.626 88.7891 153.365 89.2537 152.901C89.7183 152.436 89.9793 151.806 89.9793 151.149V144.985H90.3708C91.8548 144.985 93.1703 143.835 93.6906 142.936L102.109 128.299C102.639 127.356 102.779 126.243 102.5 125.198C102.221 124.153 101.544 123.259 100.615 122.705L100.61 122.7L98.4424 121.451C97.4991 120.921 96.3859 120.781 95.3407 121.061C94.2954 121.34 93.4009 122.018 92.8482 122.948V112.473C92.8482 110.256 90.9777 108.38 88.753 108.38H86.2482C85.6239 108.38 85.1656 108.801 84.6305 109.062C84.0978 108.801 83.6419 108.38 83.0201 108.38H80.5079C79.8886 108.38 79.4302 108.801 78.8976 109.062C78.3649 108.801 77.9066 108.38 77.2823 108.38H74.7751C74.1532 108.38 73.6974 108.801 73.1647 109.064C72.6296 108.801 72.1737 108.38 71.5469 108.38L69.0372 108.383ZM77.1807 128.126C77.4083 128.127 77.626 128.219 77.7863 128.382C77.9465 128.544 78.0361 128.764 78.0354 128.993C78.0341 129.22 77.9437 129.438 77.7836 129.599C77.6236 129.76 77.407 129.851 77.1807 129.853C77.0678 129.853 76.9559 129.831 76.8515 129.788C76.7471 129.745 76.6521 129.681 76.5721 129.601C76.492 129.521 76.4284 129.426 76.3849 129.321C76.3414 129.216 76.3189 129.104 76.3185 128.99C76.3182 128.876 76.3403 128.764 76.3835 128.658C76.4267 128.553 76.4902 128.457 76.5703 128.377C76.6505 128.296 76.7456 128.232 76.8504 128.189C76.9551 128.145 77.0674 128.125 77.1807 128.126ZM80.6194 128.126C80.7327 128.125 80.845 128.148 80.9497 128.191C81.0545 128.235 81.1497 128.298 81.2298 128.379C81.3099 128.46 81.3734 128.555 81.4166 128.661C81.4598 128.766 81.4819 128.879 81.4816 128.993C81.4803 129.222 81.3888 129.441 81.2272 129.602C81.0656 129.763 80.847 129.853 80.6194 129.853C80.3919 129.853 80.1736 129.762 80.0124 129.6C79.8513 129.439 79.7604 129.219 79.7597 128.99C79.7594 128.877 79.7814 128.764 79.8245 128.659C79.8675 128.554 79.9308 128.458 80.0107 128.377C80.0905 128.297 80.1854 128.233 80.2899 128.189C80.3943 128.146 80.5063 128.126 80.6194 128.126ZM75.3944 131.579C75.4151 131.579 75.4357 131.579 75.4564 131.579C75.5693 131.579 75.6811 131.601 75.7855 131.644C75.89 131.687 75.9849 131.751 76.065 131.831C76.1451 131.911 76.2086 132.006 76.2521 132.111C76.2957 132.216 76.3182 132.328 76.3185 132.442C76.3189 132.556 76.2968 132.668 76.2536 132.774C76.2104 132.879 76.1469 132.975 76.0667 133.055C75.9866 133.136 75.8914 133.2 75.7867 133.243C75.6819 133.287 75.5697 133.309 75.4564 133.309C75.3433 133.309 75.2313 133.286 75.1268 133.243C75.0224 133.199 74.9275 133.135 74.8476 133.055C74.7677 132.974 74.7045 132.878 74.6614 132.773C74.6184 132.668 74.5964 132.555 74.5967 132.442C74.5967 132.223 74.679 132.013 74.827 131.853C74.975 131.693 75.1778 131.595 75.3944 131.579ZM78.8381 131.579C78.8579 131.579 78.8778 131.579 78.8976 131.579C79.0105 131.579 79.1223 131.601 79.2268 131.644C79.3312 131.687 79.4261 131.751 79.5062 131.831C79.5863 131.911 79.6499 132.006 79.6934 132.111C79.7369 132.216 79.7594 132.328 79.7597 132.442C79.7601 132.556 79.738 132.668 79.6948 132.774C79.6516 132.879 79.5881 132.975 79.5079 133.055C79.4278 133.136 79.3326 133.2 79.2279 133.243C79.1231 133.287 79.0109 133.309 78.8976 133.309C78.7843 133.309 78.672 133.287 78.5673 133.243C78.4625 133.2 78.3673 133.136 78.2872 133.055C78.2071 132.975 78.1436 132.879 78.1004 132.774C78.0572 132.668 78.0351 132.556 78.0354 132.442C78.0356 132.222 78.1189 132.01 78.2685 131.85C78.418 131.69 78.6201 131.593 78.8381 131.579ZM82.2818 131.579C82.3025 131.579 82.3231 131.579 82.3438 131.579C82.5705 131.581 82.7875 131.672 82.9476 131.834C83.1077 131.995 83.1978 132.214 83.1985 132.442C83.1991 132.67 83.1095 132.89 82.9493 133.053C82.7891 133.215 82.5713 133.307 82.3438 133.309C82.2304 133.309 82.1182 133.287 82.0134 133.243C81.9087 133.2 81.8135 133.136 81.7334 133.055C81.6533 132.975 81.5898 132.879 81.5466 132.774C81.5033 132.668 81.4813 132.556 81.4816 132.442C81.4816 132.223 81.5639 132.013 81.7119 131.853C81.8599 131.693 82.0651 131.595 82.2818 131.579ZM77.1163 135.035C77.1377 135.035 77.1592 135.035 77.1807 135.035C77.4074 135.037 77.6244 135.128 77.7845 135.29C77.9446 135.451 78.0348 135.67 78.0354 135.898C78.0361 136.127 77.9465 136.346 77.7863 136.509C77.626 136.671 77.4083 136.763 77.1807 136.765C77.0674 136.765 76.9551 136.743 76.8504 136.699C76.7456 136.656 76.6505 136.592 76.5703 136.512C76.4902 136.431 76.4267 136.335 76.3835 136.23C76.3403 136.124 76.3182 136.012 76.3185 135.898C76.3186 135.679 76.4009 135.469 76.5489 135.309C76.6969 135.149 76.8996 135.051 77.1163 135.035ZM80.5575 135.035C80.5781 135.035 80.5988 135.035 80.6194 135.035C80.7323 135.035 80.8442 135.057 80.9486 135.1C81.053 135.143 81.148 135.207 81.228 135.287C81.3081 135.367 81.3717 135.462 81.4152 135.567C81.4587 135.672 81.4813 135.784 81.4816 135.898C81.4819 136.012 81.4598 136.124 81.4166 136.23C81.3734 136.335 81.3099 136.431 81.2298 136.512C81.1497 136.592 81.0545 136.656 80.9497 136.699C80.845 136.743 80.7327 136.765 80.6194 136.765C80.5063 136.765 80.3943 136.742 80.2899 136.699C80.1854 136.655 80.0905 136.591 80.0107 136.511C79.9308 136.43 79.8675 136.334 79.8245 136.229C79.7814 136.124 79.7594 136.011 79.7597 135.898C79.7598 135.679 79.8421 135.469 79.9901 135.309C80.1381 135.149 80.3408 135.051 80.5575 135.035Z" fill="white"/>
</g>
<g clip-path="url(#clip3_1659_7223)">
<path d="M51 484C84.1371 484 111 457.137 111 424C111 390.863 84.1371 364 51 364C17.8629 364 -9 390.863 -9 424C-9 457.137 17.8629 484 51 484Z" fill="#01579B"/>
<path d="M51 484C84.1371 484 111 457.137 111 424C111 390.863 84.1371 364 51 364C17.8629 364 -9 390.863 -9 424C-9 457.137 17.8629 484 51 484Z" fill="white" fill-opacity="0.64"/>
<path opacity="0.1" d="M57.57 483.569C58.7829 483.459 59.9922 483.313 61.1962 483.13C63.167 482.788 65.1195 482.347 67.0462 481.81C68.9741 481.275 70.874 480.645 72.7388 479.92C74.6034 479.197 76.4306 478.381 78.2137 477.475C79.9975 476.566 81.7347 475.569 83.4188 474.486C85.1008 473.406 86.7279 472.242 88.2937 470.999C89.8599 469.757 91.363 468.438 92.7975 467.046C94.235 465.651 95.6017 464.184 96.8925 462.651C98.1799 461.123 99.3902 459.531 100.519 457.881C101.648 456.228 102.695 454.52 103.654 452.763C104.612 451.007 105.482 449.205 106.26 447.363C107.041 445.522 107.729 443.643 108.322 441.734C108.914 439.821 109.41 437.88 109.807 435.918C110.134 434.237 110.388 432.543 110.569 430.84L70.1062 390.381C69.8661 390.141 69.5807 389.951 69.2666 389.821C68.9525 389.692 68.6159 389.626 68.2763 389.628H67.3613L67.1587 389.421C67.1657 389.265 67.1399 389.108 67.0829 388.962C67.026 388.815 66.9391 388.683 66.828 388.572C66.7168 388.461 66.5838 388.375 66.4373 388.318C66.2909 388.262 66.1343 388.236 65.9775 388.244H62.205L62.1112 388.146C62.1118 387.996 62.0822 387.847 62.0243 387.708C61.9664 387.569 61.8813 387.443 61.7741 387.338C61.6668 387.232 61.5395 387.149 61.3997 387.094C61.2599 387.038 61.1104 387.011 60.96 387.014C60.6639 387.02 60.382 387.142 60.175 387.354C59.9681 387.565 59.8527 387.85 59.8538 388.146H59.8462C59.8468 387.997 59.8176 387.849 59.7604 387.711C59.7031 387.572 59.6191 387.447 59.513 387.342C59.407 387.236 59.281 387.153 59.1425 387.097C59.004 387.041 58.8557 387.012 58.7063 387.014C58.4088 387.018 58.125 387.139 57.9165 387.351C57.7079 387.563 57.5915 387.849 57.5925 388.146C57.593 387.997 57.5637 387.848 57.5063 387.71C57.4488 387.571 57.3644 387.446 57.258 387.34C57.1515 387.235 57.0251 387.152 56.8862 387.096C56.7473 387.04 56.5985 387.012 56.4487 387.014C56.1513 387.018 55.8675 387.139 55.659 387.351C55.4504 387.563 55.334 387.849 55.335 388.146V388.244H52.4737C52.4363 388.242 52.3987 388.242 52.3613 388.244C52.1965 388.253 52.0358 388.297 51.8903 388.375C51.7447 388.453 51.618 388.561 51.519 388.693C51.42 388.825 51.3511 388.977 51.3171 389.139C51.2832 389.3 51.285 389.467 51.3225 389.628H51.2625L51.1312 389.496C51.1376 389.341 51.1116 389.186 51.0551 389.041C50.9986 388.896 50.9127 388.764 50.8029 388.654C50.693 388.543 50.5615 388.457 50.4167 388.4C50.2718 388.343 50.1168 388.317 49.9612 388.323H46.8337L46.6575 388.146C46.659 387.995 46.6302 387.845 46.5728 387.706C46.5153 387.566 46.4304 387.439 46.323 387.333C46.2157 387.226 46.088 387.143 45.9477 387.087C45.8074 387.031 45.6573 387.003 45.5062 387.006C45.2088 387.012 44.9258 387.135 44.7186 387.349C44.5115 387.562 44.397 387.849 44.4 388.146V388.236L44.3137 388.146C44.3153 387.996 44.2867 387.847 44.2297 387.707C44.1727 387.568 44.0885 387.442 43.9819 387.336C43.8753 387.229 43.7486 387.145 43.6092 387.089C43.4698 387.032 43.3204 387.004 43.17 387.006C42.8713 387.01 42.5863 387.132 42.3776 387.346C42.1688 387.56 42.0532 387.848 42.0562 388.146V388.236L41.97 388.146C41.9715 387.996 41.9429 387.847 41.8859 387.707C41.829 387.568 41.7447 387.442 41.6381 387.336C41.5316 387.229 41.4049 387.145 41.2654 387.089C41.126 387.032 40.9767 387.004 40.8262 387.006C40.5275 387.01 40.2426 387.132 40.0338 387.346C39.825 387.56 39.7095 387.848 39.7125 388.146V388.323H36.0937C35.9266 388.316 35.7601 388.346 35.606 388.411C35.452 388.476 35.3144 388.575 35.2032 388.7C35.0919 388.824 35.0098 388.972 34.9628 389.133C34.9158 389.293 34.905 389.462 34.9313 389.628H33.555C32.9373 389.64 32.3484 389.891 31.9115 390.328C31.4746 390.765 31.2237 391.354 31.2112 391.971V406.848L34.1025 409.739H31.2112V411.535L34.1025 414.426H31.2112V416.223L34.11 419.121H31.2112V453.269C31.1437 454.229 31.7362 455.031 32.1712 455.789L34.455 460.371C34.5094 460.48 34.5816 460.579 34.6688 460.664L57.57 483.569ZM44.3137 390.756L44.4 390.843C44.4094 391.129 44.5273 391.401 44.73 391.604C44.9327 391.806 45.2048 391.924 45.4913 391.934L46.6725 393.115V395.103L43.4625 391.896C43.7137 391.833 43.9354 391.685 44.0904 391.477C44.2453 391.27 44.3242 391.015 44.3137 390.756Z" fill="#212121"/>
<path d="M40.8262 387.01C40.5275 387.014 40.2426 387.136 40.0338 387.35C39.825 387.564 39.7095 387.851 39.7125 388.15V388.326H36.0937C35.927 388.319 35.7608 388.349 35.6071 388.414C35.4534 388.479 35.316 388.578 35.2048 388.702C35.0936 388.827 35.0114 388.974 34.9641 389.134C34.9168 389.294 34.9056 389.463 34.9312 389.628H33.555C32.9373 389.64 32.3484 389.891 31.9115 390.328C31.4746 390.765 31.2237 391.354 31.2112 391.972V406.851H39.8925V391.972C39.8764 391.457 39.6769 390.965 39.33 390.584H39.7125V390.76C39.7125 391.06 39.8316 391.348 40.0437 391.56C40.2557 391.772 40.5433 391.891 40.8431 391.891C41.143 391.891 41.4306 391.772 41.6426 391.56C41.8546 391.348 41.9738 391.06 41.9738 390.76V390.584H42.0562V390.76C42.0562 391.06 42.1752 391.346 42.3869 391.558C42.5985 391.77 42.8856 391.889 43.185 391.889C43.4844 391.889 43.7715 391.77 43.9831 391.558C44.1948 391.346 44.3137 391.06 44.3137 390.76V390.584H44.4037V390.76C44.3949 390.914 44.4175 391.067 44.4701 391.212C44.5227 391.356 44.6043 391.488 44.7098 391.6C44.8153 391.712 44.9425 391.801 45.0837 391.862C45.2248 391.923 45.3769 391.954 45.5306 391.954C45.6843 391.954 45.8364 391.923 45.9776 391.862C46.1187 391.801 46.2459 391.712 46.3514 391.6C46.457 391.488 46.5385 391.356 46.5911 391.212C46.6438 391.067 46.6664 390.914 46.6575 390.76V390.584H47.1975C46.8725 390.975 46.6876 391.463 46.6725 391.972V406.851H55.3537V391.972C55.3537 391.375 55.0725 390.884 54.7162 390.498H55.3425V390.756C55.3315 390.909 55.3518 391.063 55.4022 391.208C55.4526 391.353 55.5321 391.486 55.6357 391.599C55.7393 391.713 55.8649 391.804 56.0049 391.867C56.1448 391.93 56.2961 391.963 56.4496 391.966C56.603 391.969 56.7554 391.94 56.8973 391.881C57.0393 391.823 57.1679 391.737 57.2752 391.627C57.3825 391.517 57.4663 391.386 57.5215 391.243C57.5767 391.1 57.6022 390.947 57.5963 390.794C57.5903 390.947 57.6158 391.1 57.671 391.243C57.7262 391.386 57.81 391.517 57.9173 391.627C58.0246 391.737 58.1532 391.823 58.2952 391.881C58.4371 391.94 58.5895 391.969 58.7429 391.966C58.8964 391.963 59.0477 391.93 59.1876 391.867C59.3276 391.804 59.4532 391.713 59.5568 391.599C59.6604 391.486 59.7399 391.353 59.7903 391.208C59.8407 391.063 59.861 390.909 59.85 390.756V390.494H59.8575V390.756C59.8486 390.91 59.8712 391.064 59.9239 391.208C59.9765 391.352 60.058 391.484 60.1636 391.596C60.2691 391.708 60.3963 391.797 60.5374 391.858C60.6786 391.919 60.8307 391.95 60.9844 391.95C61.1381 391.95 61.2902 391.919 61.4313 391.858C61.5725 391.797 61.6997 391.708 61.8052 391.596C61.9107 391.484 61.9923 391.352 62.0449 391.208C62.0975 391.064 62.1201 390.91 62.1112 390.756V390.494H62.7C62.3339 390.9 62.1251 391.425 62.1112 391.972V406.851H70.7925V391.972C70.7925 391.248 70.4175 390.629 69.9525 390.239C69.4841 389.843 68.8899 389.626 68.2763 389.628H67.125C67.1652 389.458 67.1654 389.281 67.1257 389.111C67.0861 388.941 67.0076 388.783 66.8964 388.649C66.7852 388.514 66.6444 388.407 66.4849 388.336C66.3255 388.266 66.1518 388.233 65.9775 388.24H62.1112V388.15C62.1128 387.999 62.0841 387.85 62.0269 387.71C61.9696 387.571 61.885 387.444 61.7781 387.338C61.6711 387.232 61.544 387.148 61.4041 387.092C61.2642 387.035 61.1145 387.008 60.9637 387.01C60.6663 387.016 60.3833 387.139 60.1761 387.353C59.969 387.566 59.8545 387.853 59.8575 388.15V388.244H59.85V388.15C59.8515 388 59.8229 387.85 59.7659 387.711C59.709 387.572 59.6247 387.446 59.5181 387.339C59.4116 387.233 59.2849 387.149 59.1454 387.093C59.006 387.036 58.8567 387.008 58.7063 387.01C58.4075 387.014 58.1226 387.136 57.9138 387.35C57.705 387.564 57.5895 387.851 57.5925 388.15C57.594 388 57.5655 387.851 57.5088 387.712C57.452 387.573 57.3681 387.447 57.262 387.341C57.1558 387.235 57.0295 387.15 56.8905 387.094C56.7515 387.037 56.6026 387.009 56.4525 387.01C56.1538 387.014 55.8688 387.136 55.6601 387.35C55.4513 387.564 55.3357 387.851 55.3387 388.15V388.244H52.4737C52.4363 388.242 52.3987 388.242 52.3613 388.244C52.1962 388.252 52.035 388.297 51.889 388.374C51.7431 388.451 51.6159 388.56 51.5165 388.692C51.417 388.824 51.3478 388.976 51.3136 389.138C51.2795 389.3 51.2812 389.467 51.3187 389.628H51.1238C51.1495 389.463 51.1382 389.294 51.0907 389.133C51.0431 388.973 50.9606 388.825 50.849 388.701C50.7374 388.576 50.5995 388.478 50.4453 388.413C50.2912 388.349 50.1245 388.319 49.9575 388.326H46.6575V388.15C46.659 387.999 46.6303 387.85 46.5731 387.71C46.5159 387.571 46.4313 387.444 46.3243 387.338C46.2174 387.232 46.0902 387.148 45.9503 387.092C45.8105 387.035 45.6608 387.008 45.51 387.01C45.2119 387.015 44.9279 387.138 44.72 387.351C44.512 387.565 44.397 387.852 44.4 388.15V388.326H44.31V388.15C44.3115 388 44.283 387.851 44.2263 387.712C44.1695 387.573 44.0856 387.447 43.9795 387.341C43.8733 387.235 43.747 387.15 43.608 387.094C43.469 387.037 43.3201 387.009 43.17 387.01C42.8713 387.014 42.5863 387.136 42.3776 387.35C42.1688 387.564 42.0532 387.851 42.0562 388.15V388.326H41.97V388.15C41.9715 387.999 41.9428 387.85 41.8856 387.71C41.8284 387.571 41.7438 387.444 41.6368 387.338C41.5299 387.232 41.4027 387.148 41.2628 387.092C41.123 387.035 40.977 387.008 40.8262 387.01ZM31.2112 409.743V411.535H39.8925V409.743H31.2112ZM46.6688 409.743V411.535H55.3537V409.743H46.6688ZM62.1112 409.743V411.535H70.8V409.743H62.115H62.1112ZM31.2112 414.43V416.226H39.8925V414.426H31.2075L31.2112 414.43ZM46.6688 414.43V416.226H55.3537V414.426H46.6688V414.43ZM62.1112 414.43V416.226H70.7962V414.426H62.1112V414.43ZM31.2112 419.118V453.265C31.1437 454.229 31.7287 455.028 32.1675 455.785L34.455 460.371C34.5489 460.559 34.693 460.716 34.8711 460.826C35.0493 460.935 35.2544 460.994 35.4638 460.994C35.6731 460.994 35.8782 460.935 36.0564 460.826C36.2345 460.716 36.3786 460.559 36.4725 460.371L38.76 455.785C38.76 455.785 39.8925 453.719 39.8925 453.265V419.121L31.2112 419.118ZM46.6688 419.118V453.265C46.6013 454.229 47.19 455.028 47.625 455.785L49.9125 460.371C50.006 460.56 50.1502 460.718 50.3287 460.828C50.5073 460.939 50.7131 460.997 50.9231 460.997C51.1331 460.997 51.339 460.939 51.5175 460.828C51.6961 460.718 51.8402 460.56 51.9338 460.371L54.2212 455.785C54.2212 455.785 55.3537 453.719 55.3537 453.265V419.121L46.6688 419.118ZM62.1112 419.118V453.265C62.0437 454.229 62.6325 455.028 63.0675 455.785L65.355 460.371C65.4485 460.56 65.5927 460.718 65.7712 460.828C65.9498 460.939 66.1556 460.997 66.3656 460.997C66.5756 460.997 66.7815 460.939 66.96 460.828C67.1386 460.718 67.2827 460.56 67.3763 460.371L69.6637 455.785C69.6637 455.785 70.7962 453.719 70.7962 453.265V419.121L62.1112 419.118Z" fill="white"/>
</g>
<g clip-path="url(#clip4_1659_7223)">
<path d="M279 385C312.137 385 339 358.137 339 325C339 291.863 312.137 265 279 265C245.863 265 219 291.863 219 325C219 358.137 245.863 385 279 385Z" fill="#01579B"/>
<path opacity="0.2" d="M285.57 384.569C286.783 384.459 287.992 384.313 289.196 384.13C291.167 383.788 293.119 383.347 295.046 382.81C296.974 382.275 298.874 381.645 300.739 380.92C302.603 380.197 304.431 379.381 306.214 378.475C307.998 377.566 309.735 376.569 311.419 375.486C313.101 374.406 314.728 373.242 316.294 371.999C317.86 370.757 319.363 369.438 320.798 368.046C322.235 366.651 323.602 365.184 324.893 363.651C326.18 362.123 327.39 360.531 328.519 358.881C329.649 357.228 330.695 355.52 331.654 353.763C332.612 352.007 333.482 350.205 334.26 348.363C335.041 346.522 335.729 344.643 336.323 342.734C336.914 340.821 337.41 338.88 337.808 336.918C338.134 335.237 338.388 333.543 338.569 331.84L298.106 291.381C297.866 291.141 297.581 290.951 297.267 290.821C296.953 290.692 296.616 290.626 296.276 290.628H295.361L295.159 290.421C295.166 290.265 295.14 290.108 295.083 289.962C295.026 289.815 294.939 289.683 294.828 289.572C294.717 289.461 294.584 289.375 294.437 289.318C294.291 289.262 294.134 289.236 293.978 289.244H290.205L290.111 289.146C290.112 288.996 290.082 288.847 290.024 288.708C289.966 288.569 289.881 288.443 289.774 288.338C289.667 288.232 289.54 288.149 289.4 288.094C289.26 288.038 289.11 288.011 288.96 288.014C288.664 288.02 288.382 288.142 288.175 288.354C287.968 288.565 287.853 288.85 287.854 289.146H287.846C287.847 288.997 287.818 288.849 287.76 288.711C287.703 288.572 287.619 288.447 287.513 288.342C287.407 288.236 287.281 288.153 287.143 288.097C287.004 288.041 286.856 288.012 286.706 288.014C286.409 288.018 286.125 288.139 285.916 288.351C285.708 288.563 285.591 288.849 285.593 289.146C285.593 288.997 285.564 288.848 285.506 288.71C285.449 288.571 285.364 288.446 285.258 288.34C285.152 288.235 285.025 288.152 284.886 288.096C284.747 288.04 284.599 288.012 284.449 288.014C284.151 288.018 283.868 288.139 283.659 288.351C283.45 288.563 283.334 288.849 283.335 289.146V289.244H280.474C280.436 289.242 280.399 289.242 280.361 289.244C280.197 289.253 280.036 289.297 279.89 289.375C279.745 289.453 279.618 289.561 279.519 289.693C279.42 289.825 279.351 289.977 279.317 290.139C279.283 290.3 279.285 290.467 279.323 290.628H279.263L279.131 290.496C279.138 290.341 279.112 290.186 279.055 290.041C278.999 289.896 278.913 289.764 278.803 289.654C278.693 289.543 278.561 289.457 278.417 289.4C278.272 289.343 278.117 289.317 277.961 289.323H274.834L274.658 289.146C274.659 288.995 274.63 288.845 274.573 288.706C274.515 288.566 274.43 288.439 274.323 288.333C274.216 288.226 274.088 288.143 273.948 288.087C273.807 288.031 273.657 288.003 273.506 288.006C273.209 288.012 272.926 288.135 272.719 288.349C272.511 288.562 272.397 288.849 272.4 289.146V289.236L272.314 289.146C272.315 288.996 272.287 288.847 272.23 288.707C272.173 288.568 272.088 288.442 271.982 288.336C271.875 288.229 271.749 288.145 271.609 288.089C271.47 288.032 271.32 288.004 271.17 288.006C270.871 288.01 270.586 288.132 270.378 288.346C270.169 288.56 270.053 288.848 270.056 289.146V289.236L269.97 289.146C269.972 288.996 269.943 288.847 269.886 288.707C269.829 288.568 269.745 288.442 269.638 288.336C269.532 288.229 269.405 288.145 269.265 288.089C269.126 288.032 268.977 288.004 268.826 288.006C268.528 288.01 268.243 288.132 268.034 288.346C267.825 288.56 267.71 288.848 267.713 289.146V289.323H264.094C263.927 289.316 263.76 289.346 263.606 289.411C263.452 289.476 263.314 289.575 263.203 289.7C263.092 289.824 263.01 289.972 262.963 290.133C262.916 290.293 262.905 290.462 262.931 290.628H261.555C260.937 290.64 260.348 290.891 259.912 291.328C259.475 291.765 259.224 292.354 259.211 292.971V307.848L262.103 310.739H259.211V312.535L262.103 315.426H259.211V317.223L262.11 320.121H259.211V354.269C259.144 355.229 259.736 356.031 260.171 356.789L262.455 361.371C262.509 361.48 262.582 361.579 262.669 361.664L285.57 384.569ZM272.314 291.756L272.4 291.843C272.409 292.129 272.527 292.401 272.73 292.604C272.933 292.806 273.205 292.924 273.491 292.934L274.673 294.115V296.103L271.463 292.896C271.714 292.833 271.935 292.685 272.09 292.477C272.245 292.27 272.324 292.015 272.314 291.756Z" fill="#212121"/>
<path d="M268.826 288.01C268.528 288.014 268.243 288.136 268.034 288.35C267.825 288.564 267.71 288.851 267.713 289.15V289.326H264.094C263.927 289.319 263.761 289.349 263.607 289.414C263.453 289.479 263.316 289.578 263.205 289.702C263.094 289.827 263.011 289.974 262.964 290.134C262.917 290.294 262.906 290.463 262.931 290.628H261.555C260.937 290.64 260.348 290.891 259.912 291.328C259.475 291.765 259.224 292.354 259.211 292.972V307.851H267.893V292.972C267.876 292.457 267.677 291.965 267.33 291.584H267.713V291.76C267.713 292.06 267.832 292.348 268.044 292.56C268.256 292.772 268.543 292.891 268.843 292.891C269.143 292.891 269.431 292.772 269.643 292.56C269.855 292.348 269.974 292.06 269.974 291.76V291.584H270.056V291.76C270.056 292.06 270.175 292.346 270.387 292.558C270.599 292.77 270.886 292.889 271.185 292.889C271.484 292.889 271.771 292.77 271.983 292.558C272.195 292.346 272.314 292.06 272.314 291.76V291.584H272.404V291.76C272.395 291.914 272.417 292.067 272.47 292.212C272.523 292.356 272.604 292.488 272.71 292.6C272.815 292.712 272.943 292.801 273.084 292.862C273.225 292.923 273.377 292.954 273.531 292.954C273.684 292.954 273.836 292.923 273.978 292.862C274.119 292.801 274.246 292.712 274.351 292.6C274.457 292.488 274.539 292.356 274.591 292.212C274.644 292.067 274.666 291.914 274.658 291.76V291.584H275.198C274.872 291.975 274.688 292.463 274.673 292.972V307.851H283.354V292.972C283.354 292.375 283.073 291.884 282.716 291.498H283.343V291.756C283.331 291.909 283.352 292.063 283.402 292.208C283.453 292.353 283.532 292.486 283.636 292.599C283.739 292.713 283.865 292.804 284.005 292.867C284.145 292.93 284.296 292.963 284.45 292.966C284.603 292.969 284.755 292.94 284.897 292.881C285.039 292.823 285.168 292.737 285.275 292.627C285.383 292.517 285.466 292.386 285.522 292.243C285.577 292.1 285.602 291.947 285.596 291.794C285.59 291.947 285.616 292.1 285.671 292.243C285.726 292.386 285.81 292.517 285.917 292.627C286.025 292.737 286.153 292.823 286.295 292.881C286.437 292.94 286.589 292.969 286.743 292.966C286.896 292.963 287.048 292.93 287.188 292.867C287.328 292.804 287.453 292.713 287.557 292.599C287.66 292.486 287.74 292.353 287.79 292.208C287.841 292.063 287.861 291.909 287.85 291.756V291.494H287.858V291.756C287.849 291.91 287.871 292.064 287.924 292.208C287.976 292.352 288.058 292.484 288.164 292.596C288.269 292.708 288.396 292.797 288.537 292.858C288.679 292.919 288.831 292.95 288.984 292.95C289.138 292.95 289.29 292.919 289.431 292.858C289.572 292.797 289.7 292.708 289.805 292.596C289.911 292.484 289.992 292.352 290.045 292.208C290.098 292.064 290.12 291.91 290.111 291.756V291.494H290.7C290.334 291.9 290.125 292.425 290.111 292.972V307.851H298.793V292.972C298.793 292.248 298.418 291.629 297.953 291.239C297.484 290.843 296.89 290.626 296.276 290.628H295.125C295.165 290.458 295.165 290.281 295.126 290.111C295.086 289.941 295.008 289.783 294.896 289.649C294.785 289.514 294.644 289.407 294.485 289.336C294.325 289.266 294.152 289.233 293.978 289.24H290.111V289.15C290.113 288.999 290.084 288.85 290.027 288.71C289.97 288.571 289.885 288.444 289.778 288.338C289.671 288.232 289.544 288.148 289.404 288.092C289.264 288.035 289.115 288.008 288.964 288.01C288.666 288.016 288.383 288.139 288.176 288.353C287.969 288.566 287.854 288.853 287.858 289.15V289.244H287.85V289.15C287.852 289 287.823 288.85 287.766 288.711C287.709 288.572 287.625 288.446 287.518 288.339C287.412 288.233 287.285 288.149 287.145 288.093C287.006 288.036 286.857 288.008 286.706 288.01C286.408 288.014 286.123 288.136 285.914 288.35C285.705 288.564 285.59 288.851 285.593 289.15C285.594 289 285.566 288.851 285.509 288.712C285.452 288.573 285.368 288.447 285.262 288.341C285.156 288.235 285.03 288.15 284.891 288.094C284.752 288.037 284.603 288.009 284.453 288.01C284.154 288.014 283.869 288.136 283.66 288.35C283.451 288.564 283.336 288.851 283.339 289.15V289.244H280.474C280.436 289.242 280.399 289.242 280.361 289.244C280.196 289.252 280.035 289.297 279.889 289.374C279.743 289.451 279.616 289.56 279.516 289.692C279.417 289.824 279.348 289.976 279.314 290.138C279.279 290.3 279.281 290.467 279.319 290.628H279.124C279.149 290.463 279.138 290.294 279.091 290.133C279.043 289.973 278.961 289.825 278.849 289.701C278.737 289.576 278.6 289.478 278.445 289.413C278.291 289.349 278.125 289.319 277.958 289.326H274.658V289.15C274.659 288.999 274.63 288.85 274.573 288.71C274.516 288.571 274.431 288.444 274.324 288.338C274.217 288.232 274.09 288.148 273.95 288.092C273.81 288.035 273.661 288.008 273.51 288.01C273.212 288.015 272.928 288.138 272.72 288.351C272.512 288.565 272.397 288.852 272.4 289.15V289.326H272.31V289.15C272.312 289 272.283 288.851 272.226 288.712C272.17 288.573 272.086 288.447 271.979 288.341C271.873 288.235 271.747 288.15 271.608 288.094C271.469 288.037 271.32 288.009 271.17 288.01C270.871 288.014 270.586 288.136 270.378 288.35C270.169 288.564 270.053 288.851 270.056 289.15V289.326H269.97V289.15C269.972 288.999 269.943 288.85 269.886 288.71C269.828 288.571 269.744 288.444 269.637 288.338C269.53 288.232 269.403 288.148 269.263 288.092C269.123 288.035 268.977 288.008 268.826 288.01ZM259.211 310.743V312.535H267.893V310.743H259.211ZM274.669 310.743V312.535H283.354V310.743H274.669ZM290.111 310.743V312.535H298.8V310.743H290.115H290.111ZM259.211 315.43V317.226H267.893V315.426H259.208L259.211 315.43ZM274.669 315.43V317.226H283.354V315.426H274.669V315.43ZM290.111 315.43V317.226H298.796V315.426H290.111V315.43ZM259.211 320.118V354.265C259.144 355.229 259.729 356.028 260.168 356.785L262.455 361.371C262.549 361.559 262.693 361.716 262.871 361.826C263.049 361.935 263.254 361.994 263.464 361.994C263.673 361.994 263.878 361.935 264.056 361.826C264.235 361.716 264.379 361.559 264.473 361.371L266.76 356.785C266.76 356.785 267.893 354.719 267.893 354.265V320.121L259.211 320.118ZM274.669 320.118V354.265C274.601 355.229 275.19 356.028 275.625 356.785L277.913 361.371C278.006 361.56 278.15 361.718 278.329 361.828C278.507 361.939 278.713 361.997 278.923 361.997C279.133 361.997 279.339 361.939 279.518 361.828C279.696 361.718 279.84 361.56 279.934 361.371L282.221 356.785C282.221 356.785 283.354 354.719 283.354 354.265V320.121L274.669 320.118ZM290.111 320.118V354.265C290.044 355.229 290.633 356.028 291.068 356.785L293.355 361.371C293.449 361.56 293.593 361.718 293.771 361.828C293.95 361.939 294.156 361.997 294.366 361.997C294.576 361.997 294.782 361.939 294.96 361.828C295.139 361.718 295.283 361.56 295.376 361.371L297.664 356.785C297.664 356.785 298.796 354.719 298.796 354.265V320.121L290.111 320.118Z" fill="white"/>
</g>
<g clip-path="url(#clip5_1659_7223)">
<path d="M207 236C240.137 236 267 209.137 267 176C267 142.863 240.137 116 207 116C173.863 116 147 142.863 147 176C147 209.137 173.863 236 207 236Z" fill="#4CAF50"/>
<path opacity="0.1" d="M217.897 234.969C219.63 234.658 221.348 234.272 223.046 233.81C224.974 233.275 226.874 232.645 228.739 231.92C230.603 231.197 232.431 230.381 234.214 229.475C235.998 228.566 237.735 227.569 239.419 226.486C241.101 225.406 242.728 224.242 244.294 222.999C245.86 221.757 247.363 220.438 248.798 219.046C250.235 217.651 251.602 216.184 252.893 214.651C254.18 213.123 255.39 211.531 256.519 209.881C257.648 208.228 258.695 206.52 259.654 204.762C260.612 203.007 261.482 201.205 262.26 199.362C262.378 199.05 262.493 198.736 262.605 198.421L203.43 139.246H203.426C203.208 139.028 202.913 138.904 202.605 138.901V138.916H199.83C199.523 138.917 199.229 139.04 199.012 139.257C198.795 139.474 198.672 139.768 198.671 140.075V155.675C198.671 156.8 198.281 158.206 197.625 159.219C196.969 160.231 195.439 160.809 194.269 160.809C193.961 160.809 193.666 160.931 193.448 161.148C193.23 161.365 193.107 161.66 193.106 161.967V208.49C193.106 209.03 193.237 209.532 193.429 209.997L193.485 210.159C193.687 210.605 193.972 210.995 194.314 211.355C194.34 211.381 194.347 211.415 194.374 211.441L217.897 234.969Z" fill="#212121"/>
<path d="M202.605 138.916H199.83C199.678 138.916 199.527 138.946 199.386 139.005C199.245 139.063 199.117 139.149 199.009 139.257C198.902 139.365 198.816 139.493 198.758 139.634C198.7 139.775 198.671 139.926 198.671 140.079V155.679C198.671 156.804 198.285 158.21 197.625 159.222C196.969 160.235 195.435 160.809 194.269 160.809C194.116 160.808 193.965 160.838 193.824 160.896C193.683 160.954 193.555 161.039 193.447 161.147C193.339 161.254 193.253 161.382 193.195 161.523C193.136 161.664 193.106 161.815 193.106 161.967V208.49C193.106 211.16 195.664 213.073 198.517 213.073H202.766C204.836 213.073 206.43 212.675 207.581 211.861C208.729 211.044 209.332 209.761 209.332 208.494V161.956C209.332 161.649 209.209 161.355 208.992 161.138C208.775 160.921 208.481 160.798 208.174 160.797C207.022 160.797 205.361 160.216 204.75 159.23C204.165 158.212 203.829 157.069 203.771 155.896V140.068C203.771 139.915 203.741 139.764 203.683 139.623C203.624 139.482 203.539 139.353 203.431 139.245C203.323 139.138 203.195 139.052 203.054 138.994C202.913 138.935 202.761 138.905 202.609 138.905L202.605 138.916ZM201.202 163.966C201.358 163.964 201.512 163.993 201.655 164.052C201.799 164.11 201.93 164.197 202.04 164.307C202.149 164.416 202.236 164.547 202.294 164.691C202.353 164.835 202.382 164.989 202.38 165.144V203.656L204.502 205.494C204.636 205.587 204.748 205.707 204.832 205.847C204.915 205.986 204.969 206.142 204.989 206.304C205.009 206.465 204.994 206.629 204.947 206.784C204.899 206.94 204.82 207.084 204.713 207.207C204.607 207.33 204.476 207.429 204.328 207.498C204.181 207.567 204.021 207.605 203.858 207.608C203.695 207.611 203.534 207.58 203.384 207.517C203.234 207.454 203.099 207.36 202.987 207.241L201.247 205.734L199.774 207.106C199.665 207.223 199.534 207.317 199.387 207.381C199.241 207.445 199.083 207.479 198.923 207.479C198.763 207.479 198.605 207.446 198.459 207.383C198.312 207.319 198.18 207.226 198.071 207.109C197.962 206.993 197.878 206.855 197.825 206.704C197.772 206.554 197.75 206.394 197.761 206.234C197.773 206.075 197.817 205.919 197.891 205.778C197.965 205.636 198.067 205.511 198.191 205.411L200.062 203.671V165.144C200.058 164.837 200.176 164.541 200.39 164.32C200.603 164.099 200.895 163.972 201.202 163.966ZM226.05 190.137C223.846 190.334 221.748 191.175 220.018 192.555C218.289 193.936 217.003 195.794 216.322 197.9C215.58 200.236 215.62 202.751 216.438 205.062C217.256 207.373 218.806 209.353 220.852 210.702L220.777 210.29L221.554 207.852L221.677 207.583L222.694 206.96L223.792 207.448L223.999 208.625L223.226 211.07L223.102 211.333L222.54 211.677C223.328 212.02 224.154 212.269 225 212.42L224.88 211.764L225.082 211.141L225.195 210.879L226.222 210.256L227.31 210.744L227.52 211.921L227.325 212.548H227.317C229.648 212.495 231.906 211.72 233.777 210.33C235.649 208.939 237.042 207.002 237.765 204.785C238.472 202.558 238.468 200.166 237.753 197.941C237.038 195.717 235.648 193.77 233.775 192.373L232.987 194.81L232.875 195.073L231.855 195.699L230.76 195.211L230.546 194.034L231.33 191.589L231.45 191.326L231.772 191.131C231.356 190.934 230.927 190.763 230.49 190.618C230.201 190.524 229.912 190.453 229.624 190.381L229.691 190.771L229.455 191.506L229.339 191.769L228.319 192.395L227.224 191.904L227.01 190.726L227.197 190.134C226.819 190.13 226.429 190.089 226.05 190.137ZM227.37 192.298L228.461 192.789L228.675 193.966L227.895 196.411L227.779 196.67L226.759 197.304L225.664 196.809L225.454 195.631L226.234 193.186L226.346 192.924L227.37 192.298ZM230.906 195.598L231.997 196.089L232.211 197.266L231.424 199.711L231.311 199.97L230.291 200.6L229.196 200.112L228.982 198.927L229.766 196.482L229.882 196.224L230.906 195.598ZM225.814 197.184L226.905 197.671L227.119 198.856L226.339 201.298L226.222 201.56L225.202 202.182L224.107 201.695L223.894 200.518L224.674 198.073L224.79 197.814L225.814 197.184ZM229.346 200.48L230.434 200.975L230.647 202.156L229.864 204.594L229.751 204.856L228.728 205.486L227.632 204.991L227.422 203.81L228.202 201.373L228.322 201.11L229.346 200.48ZM224.257 202.07L225.345 202.557L225.555 203.735L224.782 206.18L224.659 206.442L223.642 207.069L222.551 206.581L222.337 205.404L223.117 202.959L223.234 202.696L224.257 202.07ZM227.782 205.37L228.874 205.854L229.084 207.039L228.304 209.484L228.187 209.742L227.167 210.369L226.072 209.881L225.862 208.7L226.639 206.255L226.759 205.992L227.782 205.37Z" fill="white"/>
</g>
<g clip-path="url(#clip6_1659_7223)">
<path d="M195 509C228.137 509 255 482.137 255 449C255 415.863 228.137 389 195 389C161.863 389 135 415.863 135 449C135 482.137 161.863 509 195 509Z" fill="#F57F17"/>
<path opacity="0.1" d="M195.57 508.977C196.795 508.971 198.019 508.928 199.241 508.846C201.237 508.707 203.224 508.468 205.196 508.13C207.167 507.788 209.119 507.347 211.046 506.81C212.974 506.275 214.874 505.645 216.739 504.92C218.603 504.197 220.431 503.381 222.214 502.475C223.998 501.566 225.735 500.569 227.419 499.486C229.101 498.406 230.728 497.242 232.294 495.999C233.86 494.757 235.363 493.438 236.798 492.046C238.235 490.65 239.602 489.183 240.893 487.651C242.18 486.122 243.39 484.531 244.519 482.881C245.648 481.228 246.695 479.52 247.654 477.762C248.612 476.007 249.482 474.205 250.26 472.363C251.041 470.522 251.729 468.643 252.322 466.734C252.914 464.821 253.41 462.88 253.807 460.918C254.199 458.983 254.494 457.031 254.692 455.067L225.667 426.039C225.506 425.878 225.326 425.735 225.161 425.577C224.474 424.919 223.758 424.291 223.016 423.695C222.648 423.397 222.273 423.107 221.891 422.825C221.517 422.551 221.137 422.284 220.751 422.026C220.345 421.75 219.932 421.485 219.514 421.228C219.099 420.978 218.679 420.738 218.254 420.508C217.841 420.283 217.429 420.054 217.001 419.844C216.507 419.604 216.007 419.376 215.501 419.161C215.134 419.004 214.774 418.839 214.402 418.693C213.874 418.486 213.326 418.317 212.782 418.137C212.362 417.995 211.946 417.849 211.515 417.725C210.834 417.534 210.148 417.365 209.456 417.219C209.231 417.17 209.006 417.106 208.777 417.057C208.759 417.057 208.74 417.058 208.725 417.05C207.715 416.854 206.696 416.705 205.672 416.604C204.643 416.493 203.61 416.43 202.575 416.416V416.428C188.617 416.248 176.1 425.229 171.577 438.519C171.277 439.404 171.007 440.308 170.779 441.23H166.391C165.987 441.23 165.6 441.39 165.315 441.676C165.029 441.962 164.869 442.349 164.869 442.753C164.869 443.156 165.029 443.543 165.315 443.829C165.6 444.114 165.987 444.275 166.391 444.275L184.725 462.609H164.775C164.691 462.586 164.606 462.571 164.52 462.564C164.225 462.575 163.94 462.671 163.699 462.841C163.673 462.855 163.648 462.87 163.624 462.886C163.607 462.901 163.591 462.916 163.575 462.931C163.567 462.944 163.56 462.956 163.552 462.969C163.396 463.102 163.269 463.265 163.177 463.449C163.086 463.632 163.032 463.832 163.02 464.037C161.227 470.499 162.746 476.154 167.685 481.096V481.104C167.721 481.139 167.758 481.173 167.797 481.205L195.566 508.977H195.57Z" fill="#212121"/>
<path d="M202.575 416.435C187.688 416.24 174.431 426.466 170.783 441.23H166.388C166.188 441.23 165.99 441.269 165.805 441.346C165.62 441.422 165.452 441.535 165.311 441.676C165.17 441.817 165.057 441.985 164.981 442.17C164.904 442.355 164.865 442.553 164.865 442.753C164.865 442.953 164.904 443.15 164.981 443.335C165.057 443.52 165.17 443.687 165.311 443.829C165.452 443.97 165.62 444.082 165.805 444.159C165.99 444.235 166.188 444.275 166.388 444.275H185.415L195.443 445.291L197.704 451.344V451.509L195.645 458.39C195.525 458.778 195.501 459.189 195.577 459.588C195.653 459.987 195.826 460.361 196.08 460.677C196.341 460.958 196.659 461.18 197.013 461.327C197.367 461.474 197.748 461.543 198.131 461.529H199.702L199.399 462.605H164.775C164.691 462.585 164.606 462.573 164.52 462.567C164.224 462.577 163.938 462.672 163.695 462.841C163.672 462.857 163.65 462.873 163.628 462.89C163.61 462.903 163.592 462.917 163.575 462.931C163.567 462.944 163.56 462.956 163.553 462.969C163.397 463.102 163.269 463.264 163.178 463.447C163.086 463.63 163.033 463.829 163.02 464.034C161.231 470.499 162.746 476.161 167.685 481.096C167.864 481.284 168.088 481.422 168.335 481.499C168.582 481.576 168.845 481.588 169.099 481.535C169.169 481.54 169.239 481.54 169.309 481.535H203.111C203.315 481.537 203.516 481.498 203.704 481.421C203.892 481.344 204.063 481.229 204.206 481.085C204.209 481.085 204.211 481.085 204.214 481.085C204.501 480.862 204.699 480.544 204.773 480.189L209.351 461.514H210.176C211.616 461.514 213.008 460.843 213.499 459.283L213.469 459.373L216.476 451.479V450.211L215.194 447.279L235.271 449.315C235.294 441.157 232.273 433.283 226.798 427.234C221.324 421.185 213.789 417.395 205.669 416.607C204.64 416.496 203.606 416.432 202.571 416.416L202.575 416.435ZM195.986 438.279H212.434C213.086 438.283 213.615 438.811 213.619 439.464V442.753C213.619 443.067 213.494 443.369 213.272 443.592C213.05 443.815 212.748 443.94 212.434 443.941H195.986C195.671 443.941 195.369 443.816 195.146 443.593C194.923 443.37 194.798 443.068 194.798 442.753V439.464C194.798 438.807 195.334 438.279 195.986 438.279ZM200.989 439.464C200.773 439.464 200.559 439.506 200.359 439.59C200.159 439.673 199.978 439.794 199.826 439.947C199.674 440.101 199.553 440.283 199.472 440.483C199.39 440.683 199.349 440.898 199.35 441.114C199.35 442.025 200.078 442.753 200.989 442.753C201.904 442.753 202.639 442.025 202.639 441.11C202.639 440.894 202.597 440.679 202.514 440.478C202.431 440.278 202.31 440.096 202.156 439.943C202.003 439.79 201.821 439.669 201.62 439.587C201.42 439.504 201.205 439.463 200.989 439.464ZM207.214 439.464C206.778 439.464 206.359 439.637 206.051 439.945C205.743 440.254 205.569 440.672 205.569 441.108C205.569 441.544 205.743 441.963 206.051 442.271C206.359 442.579 206.778 442.753 207.214 442.753C207.43 442.754 207.643 442.712 207.843 442.63C208.042 442.547 208.224 442.426 208.376 442.273C208.528 442.121 208.649 441.939 208.731 441.74C208.813 441.54 208.854 441.326 208.853 441.11C208.853 440.894 208.812 440.68 208.73 440.481C208.648 440.281 208.527 440.1 208.375 439.947C208.223 439.794 208.042 439.672 207.843 439.589C207.643 439.506 207.43 439.464 207.214 439.464ZM202.856 461.532H206.224L203.94 470.832C203.909 470.831 203.877 470.831 203.846 470.832H189.289V465.654H200.115C200.436 465.746 200.779 465.729 201.09 465.607C201.401 465.485 201.663 465.265 201.836 464.979C201.84 464.979 201.844 464.979 201.848 464.979C201.987 464.768 202.072 464.526 202.095 464.274L202.856 461.544V461.532ZM165.761 465.654H174.368V470.832H165.356C165.154 469.235 165.308 467.529 165.761 465.654ZM177.413 465.654H186.244V470.832H177.413V465.654ZM166.181 473.877H174.368V478.505H169.436C167.959 476.956 166.864 475.441 166.181 473.877ZM177.413 473.877H186.244V478.505H177.413V473.877ZM189.293 473.877H203.19L202.054 478.505H189.293V473.877Z" fill="white"/>
</g>
<g clip-path="url(#clip7_1659_7223)">
<path d="M135 360C168.137 360 195 333.137 195 300C195 266.863 168.137 240 135 240C101.863 240 75 266.863 75 300C75 333.137 101.863 360 135 360Z" fill="#C62828"/>
<path opacity="0.2" d="M138.05 359.904C138.604 359.892 139.157 359.872 139.711 359.844C141.706 359.705 143.694 359.466 145.666 359.128C147.637 358.786 149.589 358.345 151.516 357.808C153.444 357.273 155.343 356.642 157.208 355.918C159.073 355.195 160.9 354.379 162.683 353.473C164.467 352.564 166.204 351.566 167.888 350.484C169.57 349.403 171.197 348.24 172.763 346.997C174.329 345.755 175.833 344.436 177.267 343.044C178.705 341.648 180.071 340.181 181.362 338.649C182.65 337.12 183.86 335.528 184.988 333.879C186.118 332.226 187.164 330.518 188.123 328.76C189.082 327.005 189.951 325.203 190.73 323.36C191.51 321.52 192.199 319.641 192.792 317.732C193.384 315.819 193.879 313.878 194.277 311.915C194.673 309.956 194.971 307.979 195.17 305.99C195.262 304.837 195.321 303.682 195.346 302.525L161.865 278.138C161.64 277.913 161.378 277.718 161.145 277.501C160.092 276.492 158.984 275.54 157.827 274.651C157.091 274.093 156.337 273.56 155.565 273.053C155.093 272.742 154.628 272.423 154.137 272.131C153.283 271.624 152.411 271.149 151.523 270.706C151.122 270.5 150.735 270.278 150.327 270.087C148.977 269.461 147.589 268.887 146.145 268.4L145.722 269.712L143.697 267.691C140.403 266.786 137.009 266.303 133.594 266.251C124.219 267.693 114.83 267.141 104.855 285.614C104.525 286.634 103.044 288.92 102.804 289.947C102.703 290.364 102.624 290.78 102.541 291.2C102.41 291.826 102.286 292.452 102.189 293.082C102.118 293.525 102.065 293.971 102.013 294.414C101.796 296.188 101.698 297.974 101.72 299.761C101.72 300.039 101.716 300.32 101.728 300.597C101.761 301.651 101.829 302.705 101.945 303.747C102.058 304.76 102.219 305.765 102.406 306.762C102.466 307.077 102.545 307.381 102.613 307.692C103.074 309.848 103.711 311.963 104.518 314.015C104.623 314.285 104.743 314.544 104.855 314.814C105.478 316.306 106.16 317.769 106.955 319.179L107.008 319.265C107.806 320.671 108.71 322.017 109.67 323.322C109.873 323.596 110.071 323.866 110.281 324.136C111.249 325.381 112.288 326.577 113.401 327.71C113.476 327.789 113.54 327.882 113.619 327.957L138.05 359.904Z" fill="#212121"/>
<path d="M135.321 266.253C120.94 266.119 107.51 275.268 102.875 289.675C98.0562 304.651 104.3 320.519 117.032 328.535L117.612 326.732L117.712 326.517L118.554 326.002L119.449 326.408L119.621 327.378L118.972 329.386L117.755 328.993C119.424 329.985 121.205 330.831 123.076 331.536L143.73 267.451C140.989 266.697 138.164 266.297 135.321 266.253ZM137.021 266.487L139.03 267.133L138.559 268.599L137.951 269.001L136.809 268.633L136.56 267.916L137.021 266.487ZM145.764 268.04L125.066 332.247C142.682 337.677 161.464 327.942 167.122 310.343C172.78 292.757 163.217 273.914 145.764 268.04ZM149.759 270.508L151.771 271.157L151.306 272.591L150.785 273.053L149.413 272.613L149.266 272.036L149.759 270.508ZM136.02 271.78L136.918 272.186L137.09 273.159L136.444 275.165L136.344 275.383L135.502 275.895L134.604 275.489L134.432 274.519L135.078 272.51L135.178 272.295L136.02 271.78ZM148.758 275.804L149.656 276.21L149.831 277.18L149.182 279.185L149.085 279.404L148.243 279.915L147.345 279.51L147.173 278.54L147.819 276.534L147.919 276.316L148.758 275.804ZM134.077 277.807L134.975 278.212L135.15 279.182L134.501 281.188L134.404 281.406L133.562 281.918L132.664 281.513L132.492 280.542L133.138 278.537L133.238 278.318L134.077 277.807ZM146.818 281.831L147.716 282.233L147.888 283.203L147.242 285.212L147.142 285.43L146.3 285.942L145.405 285.536L145.23 284.563L145.879 282.557L145.979 282.342L146.818 281.831ZM132.137 283.83L133.035 284.235L133.207 285.209L132.561 287.214L132.461 287.433L131.619 287.944L130.724 287.539L130.549 286.566L131.198 284.56L131.298 284.345L132.137 283.83ZM144.878 287.854L145.776 288.259L145.948 289.226L145.302 291.235L145.202 291.453L144.36 291.965L143.465 291.56L143.29 290.589L143.939 288.581L144.036 288.365L144.878 287.854ZM130.197 289.856L131.095 290.262L131.267 291.229L130.621 293.238L130.521 293.456L129.679 293.967L128.784 293.562L128.609 292.592L129.258 290.583L129.355 290.368L130.197 289.856ZM142.938 293.877L143.836 294.283L144.008 295.253L143.362 297.261L143.262 297.48L142.42 297.988L141.522 297.586L141.35 296.613L141.996 294.607L142.096 294.389L142.938 293.877ZM128.257 295.88L129.155 296.285L129.324 297.255L128.675 299.264L128.581 299.483L127.739 299.991L126.841 299.588L126.669 298.615L127.315 296.61L127.415 296.391L128.257 295.88ZM140.995 299.904L141.893 300.306L142.061 301.279L141.416 303.285L141.322 303.503L140.48 304.015L139.582 303.609L139.41 302.639L140.056 300.63L140.156 300.415L140.995 299.904ZM126.314 301.903L127.212 302.309L127.381 303.281L126.735 305.287L126.641 305.505L125.799 306.017L124.901 305.612L124.729 304.642L125.375 302.633L125.475 302.417L126.314 301.903ZM139.055 305.927L139.953 306.332L140.121 307.302L139.476 309.308L139.382 309.526L138.54 310.038L137.642 309.632L137.467 308.662L138.116 306.657L138.216 306.438L139.055 305.927ZM124.374 307.929L125.272 308.335L125.441 309.305L124.795 311.311L124.701 311.529L123.859 312.041L122.961 311.635L122.789 310.668L123.435 308.659L123.535 308.441L124.374 307.929ZM137.115 311.953L138.013 312.355L138.181 313.326L137.536 315.334L137.442 315.553L136.6 316.064L135.702 315.659L135.527 314.685L136.176 312.68L136.273 312.465L137.115 311.953ZM122.434 313.952L123.332 314.358L123.501 315.328L122.855 317.337L122.761 317.555L121.919 318.067L121.021 317.661L120.846 316.688L121.495 314.682L121.592 314.467L122.434 313.952ZM135.175 317.976L136.073 318.382L136.241 319.349L135.593 321.358L135.499 321.576L134.657 322.087L133.759 321.682L133.587 320.712L134.233 318.703L134.333 318.488L135.175 317.976ZM120.494 319.979L121.392 320.384L121.561 321.351L120.912 323.36L120.818 323.579L119.976 324.09L119.078 323.684L118.906 322.715L119.552 320.706L119.652 320.491L120.494 319.979ZM133.232 324.003L134.13 324.402L134.301 325.375L133.653 327.384L133.559 327.602L132.717 328.111L131.819 327.708L131.647 326.735L132.293 324.73L132.393 324.511L133.232 324.003ZM131.292 330.023L132.19 330.428L132.358 331.401L131.713 333.407L129.707 332.761L130.353 330.753L130.453 330.537L131.292 330.023Z" fill="white"/>
</g>
</g>
<defs>
<clipPath id="clip0_1659_7223">
<rect width="412" height="563" fill="white"/>
</clipPath>
<clipPath id="clip1_1659_7223">
<rect width="120" height="120" fill="white" transform="translate(-68 197)"/>
</clipPath>
<clipPath id="clip2_1659_7223">
<rect width="120" height="120" fill="white" transform="translate(3 71)"/>
</clipPath>
<clipPath id="clip3_1659_7223">
<rect width="120" height="120" fill="white" transform="translate(-9 364)"/>
</clipPath>
<clipPath id="clip4_1659_7223">
<rect width="120" height="120" fill="white" transform="translate(219 265)"/>
</clipPath>
<clipPath id="clip5_1659_7223">
<rect width="120" height="120" fill="white" transform="translate(147 116)"/>
</clipPath>
<clipPath id="clip6_1659_7223">
<rect width="120" height="120" fill="white" transform="translate(135 389)"/>
</clipPath>
<clipPath id="clip7_1659_7223">
<rect width="120" height="120" fill="white" transform="translate(75 240)"/>
</clipPath>
</defs>
</svg>
