<svg width="412" height="597" viewBox="0 0 412 597" fill="none" xmlns="http://www.w3.org/2000/svg">
<path fill-rule="evenodd" clip-rule="evenodd" d="M109.649 -51.202C175.833 -37.5194 214.964 25.3745 267.585 67.7397C316.674 107.262 387.322 128.531 407.145 188.314C426.989 248.163 380.441 306.814 367.304 368.479C351.977 440.425 383.466 536.149 323.845 579.326C264.211 622.511 180.402 575.527 109.649 555.067C57.0921 539.868 -41.9254 572.42 -91.3307 548.934C-157.536 517.462 -189.106 456.477 -228.148 394.488C-267.535 331.952 -239.773 249.135 -218.081 178.502C-196.069 106.827 -165.638 33.9443 -104.196 -9.12033C-43.2333 -51.8484 36.7205 -66.2789 109.649 -51.202Z" fill="#01345D" fill-opacity="0.04"/>
<g clip-path="url(#clip0_1634_6939)">
<path d="M-13 340C20.1371 340 47 313.137 47 280C47 246.863 20.1371 220 -13 220C-46.1371 220 -73 246.863 -73 280C-73 313.137 -46.1371 340 -13 340Z" fill="#F9A825"/>
<path opacity="0.1" d="M-6.43 339.569C-5.21707 339.459 -4.00777 339.313 -2.80375 339.13C-0.832966 338.788 1.11947 338.347 3.04625 337.81C4.97407 337.275 6.87395 336.645 8.73875 335.92C10.6034 335.197 12.4306 334.381 14.2137 333.475C15.9975 332.566 17.7347 331.569 19.4188 330.486C21.1008 329.406 22.7279 328.242 24.2937 326.999C25.8599 325.757 27.363 324.438 28.7975 323.046C30.235 321.651 31.6017 320.184 32.8925 318.651C34.1799 317.123 35.3902 315.531 36.5188 313.881C37.6485 312.228 38.6948 310.52 39.6538 308.763C40.612 307.007 41.4818 305.205 42.26 303.363C43.0409 301.522 43.7292 299.643 44.3225 297.734C44.9142 295.821 45.4099 293.88 45.8075 291.918C46.1336 290.237 46.3876 288.543 46.5687 286.84L6.10625 246.381C5.86609 246.141 5.58073 245.951 5.26664 245.821C4.95255 245.692 4.61594 245.626 4.27625 245.628H3.36125L3.15875 245.421C3.16571 245.264 3.13988 245.108 3.08293 244.962C3.02598 244.815 2.93915 244.683 2.82799 244.572C2.71682 244.461 2.58378 244.375 2.43734 244.318C2.29089 244.262 2.13428 244.236 1.9775 244.244H-1.795L-1.88875 244.146C-1.88822 243.996 -1.91777 243.847 -1.97568 243.708C-2.03358 243.569 -2.11866 243.443 -2.22592 243.338C-2.33318 243.232 -2.46046 243.149 -2.60026 243.094C-2.74006 243.038 -2.88957 243.011 -3.04 243.014C-3.3361 243.02 -3.61801 243.142 -3.82496 243.354C-4.0319 243.565 -4.14729 243.85 -4.14625 244.146H-4.15375C-4.15325 243.997 -4.18244 243.849 -4.23965 243.711C-4.29685 243.572 -4.38092 243.447 -4.48698 243.342C-4.59304 243.236 -4.71898 243.153 -4.85747 243.097C-4.99597 243.041 -5.14426 243.012 -5.29375 243.014C-5.59116 243.018 -5.87498 243.139 -6.08353 243.351C-6.29209 243.563 -6.40852 243.849 -6.4075 244.146C-6.40699 243.996 -6.43631 243.848 -6.49375 243.71C-6.55119 243.571 -6.63559 243.446 -6.74205 243.34C-6.84851 243.235 -6.97489 243.152 -7.11382 243.096C-7.25275 243.04 -7.40145 243.012 -7.55125 243.014C-7.84866 243.018 -8.13248 243.139 -8.34104 243.351C-8.54959 243.563 -8.66601 243.849 -8.665 244.146V244.244H-11.5263C-11.5637 244.242 -11.6013 244.242 -11.6387 244.244C-11.8035 244.253 -11.9642 244.297 -12.1097 244.375C-12.2553 244.453 -12.382 244.561 -12.481 244.693C-12.58 244.825 -12.6489 244.977 -12.6829 245.139C-12.7168 245.3 -12.715 245.467 -12.6775 245.628H-12.7375L-12.8688 245.496C-12.8624 245.341 -12.8884 245.186 -12.9449 245.041C-13.0014 244.896 -13.0873 244.764 -13.1971 244.654C-13.307 244.543 -13.4385 244.457 -13.5833 244.4C-13.7282 244.343 -13.8832 244.317 -14.0388 244.323H-17.1663L-17.3425 244.146C-17.341 243.995 -17.3698 243.845 -17.4272 243.706C-17.4847 243.566 -17.5696 243.439 -17.677 243.333C-17.7843 243.226 -17.912 243.143 -18.0523 243.087C-18.1926 243.031 -18.3427 243.003 -18.4938 243.006C-18.7912 243.012 -19.0742 243.135 -19.2814 243.349C-19.4885 243.562 -19.603 243.849 -19.6 244.146V244.236L-19.6863 244.146C-19.6847 243.996 -19.7133 243.847 -19.7703 243.707C-19.8273 243.568 -19.9115 243.442 -20.0181 243.335C-20.1247 243.229 -20.2514 243.145 -20.3908 243.089C-20.5302 243.032 -20.6796 243.004 -20.83 243.006C-21.1287 243.01 -21.4137 243.132 -21.6224 243.346C-21.8312 243.56 -21.9468 243.848 -21.9438 244.146V244.236L-22.03 244.146C-22.0285 243.996 -22.0571 243.847 -22.1141 243.707C-22.171 243.568 -22.2553 243.442 -22.3619 243.335C-22.4684 243.229 -22.5951 243.145 -22.7346 243.089C-22.874 243.032 -23.0233 243.004 -23.1738 243.006C-23.4725 243.01 -23.7574 243.132 -23.9662 243.346C-24.175 243.56 -24.2905 243.848 -24.2875 244.146V244.323H-27.9063C-28.0734 244.315 -28.2399 244.346 -28.394 244.411C-28.548 244.476 -28.6856 244.575 -28.7968 244.699C-28.9081 244.824 -28.9902 244.972 -29.0372 245.133C-29.0842 245.293 -29.095 245.462 -29.0687 245.628H-30.445C-31.0627 245.64 -31.6516 245.891 -32.0885 246.328C-32.5254 246.765 -32.7763 247.354 -32.7888 247.971V262.848L-29.8975 265.739H-32.7888V267.535L-29.8975 270.426H-32.7888V272.223L-29.89 275.121H-32.7888V309.269C-32.8563 310.229 -32.2638 311.031 -31.8288 311.789L-29.545 316.371C-29.4906 316.48 -29.4184 316.579 -29.3312 316.664L-6.43 339.569ZM-19.6863 246.756L-19.6 246.843C-19.5906 247.129 -19.4727 247.401 -19.27 247.604C-19.0673 247.806 -18.7952 247.924 -18.5087 247.934L-17.3275 249.115V251.103L-20.5375 247.896C-20.2863 247.833 -20.0646 247.685 -19.9096 247.477C-19.7547 247.27 -19.6758 247.015 -19.6863 246.756Z" fill="#212121"/>
<path d="M-5.4251 247.435C-20.3126 247.24 -33.5689 257.466 -37.2176 272.23H-41.6126C-41.8125 272.23 -42.0105 272.269 -42.1952 272.346C-42.38 272.422 -42.5478 272.534 -42.6892 272.676C-42.8306 272.817 -42.9427 272.985 -43.0192 273.17C-43.0957 273.355 -43.1351 273.553 -43.1351 273.753C-43.1351 273.952 -43.0957 274.15 -43.0192 274.335C-42.9427 274.52 -42.8306 274.687 -42.6892 274.829C-42.5478 274.97 -42.38 275.082 -42.1952 275.159C-42.0105 275.235 -41.8125 275.275 -41.6126 275.275H-22.5851L-12.5576 276.291L-10.2964 282.344V282.509L-12.3551 289.39C-12.4755 289.777 -12.4988 290.189 -12.4229 290.588C-12.3471 290.987 -12.1744 291.361 -11.9201 291.677C-11.6595 291.958 -11.3413 292.18 -10.9873 292.327C-10.6334 292.474 -10.2519 292.542 -9.86886 292.529H-8.29761L-8.60135 293.605H-43.2251C-43.3089 293.585 -43.3942 293.573 -43.4801 293.567C-43.7759 293.576 -44.0625 293.672 -44.3051 293.841C-44.328 293.857 -44.3506 293.873 -44.3726 293.89C-44.3904 293.903 -44.4079 293.917 -44.4251 293.931C-44.4328 293.944 -44.4403 293.956 -44.4476 293.969C-44.6034 294.101 -44.7308 294.264 -44.8223 294.447C-44.9138 294.63 -44.9674 294.829 -44.9801 295.034C-46.7689 301.499 -45.2539 307.161 -40.3151 312.096C-40.1362 312.284 -39.9125 312.422 -39.6651 312.499C-39.4177 312.576 -39.1549 312.588 -38.9014 312.535C-38.8314 312.54 -38.7613 312.54 -38.6914 312.535H-4.88885C-4.68554 312.537 -4.48389 312.498 -4.29583 312.421C-4.10776 312.343 -3.93708 312.229 -3.79385 312.085C-3.79136 312.085 -3.78885 312.085 -3.78635 312.085C-3.49913 311.862 -3.30095 311.544 -3.2276 311.188L1.35114 292.514H2.17615C3.61615 292.514 5.0074 291.842 5.49865 290.282L5.46864 290.373L8.47614 282.478V281.211L7.19365 278.278L27.2711 280.315C27.2943 272.156 24.2731 264.282 18.7983 258.233C13.3236 252.184 5.78914 248.395 -2.33136 247.607C-3.36032 247.496 -4.39395 247.432 -5.42886 247.416L-5.4251 247.435ZM-12.0139 269.279H4.43364C5.08614 269.283 5.61489 269.811 5.61864 270.464V273.753C5.61864 274.067 5.49392 274.369 5.2718 274.592C5.04967 274.814 4.74827 274.94 4.43364 274.941H-12.0139C-12.3291 274.941 -12.6315 274.816 -12.8544 274.593C-13.0774 274.37 -13.2026 274.068 -13.2026 273.753V270.464C-13.2026 269.807 -12.6664 269.279 -12.0139 269.279ZM-7.01135 270.464C-7.22751 270.463 -7.44153 270.506 -7.64109 270.589C-7.84064 270.672 -8.0218 270.794 -8.17413 270.947C-8.32644 271.101 -8.44691 271.283 -8.52861 271.483C-8.61029 271.683 -8.65159 271.898 -8.6501 272.114C-8.6501 273.025 -7.9226 273.753 -7.01135 273.753C-6.09636 273.753 -5.36135 273.025 -5.36135 272.11C-5.36086 271.893 -5.40322 271.679 -5.48602 271.478C-5.56881 271.278 -5.69038 271.096 -5.84375 270.943C-5.99712 270.79 -6.17924 270.669 -6.37963 270.587C-6.58002 270.504 -6.79471 270.463 -7.01135 270.464ZM-0.786354 270.464C-1.22247 270.464 -1.64072 270.637 -1.9491 270.945C-2.25748 271.253 -2.43073 271.672 -2.43073 272.108C-2.43073 272.544 -2.25748 272.963 -1.9491 273.271C-1.64072 273.579 -1.22247 273.753 -0.786354 273.753C-0.570557 273.754 -0.356705 273.712 -0.157188 273.629C0.0423317 273.547 0.223553 273.426 0.375973 273.273C0.528393 273.12 0.648979 272.939 0.730759 272.74C0.812538 272.54 0.853886 272.326 0.852394 272.11C0.853382 271.894 0.811722 271.68 0.729809 271.481C0.647896 271.281 0.527348 271.099 0.375076 270.946C0.222805 270.793 0.0418167 270.672 -0.157494 270.589C-0.356808 270.506 -0.570518 270.463 -0.786354 270.464ZM-5.14386 292.532H-1.77636L-4.0601 301.832C-4.09134 301.831 -4.12262 301.831 -4.15386 301.832H-18.7114V296.654H-7.88511C-7.56388 296.745 -7.22134 296.729 -6.91029 296.607C-6.59924 296.485 -6.33694 296.265 -6.16386 295.979C-6.16011 295.979 -6.15635 295.979 -6.1526 295.979C-6.01283 295.768 -5.92776 295.526 -5.90511 295.274L-5.14386 292.544V292.532ZM-42.2389 296.654H-33.6326V301.832H-42.6439C-42.8464 300.235 -42.6926 298.529 -42.2389 296.654ZM-30.5876 296.654H-21.7564V301.832H-30.5876V296.654ZM-41.8189 304.877H-33.6326V309.505H-38.5639C-40.0414 307.956 -41.1364 306.441 -41.8189 304.877ZM-30.5876 304.877H-21.7564V309.505H-30.5876V304.877ZM-18.7076 304.877H-4.8101L-5.94635 309.505H-18.7076V304.877Z" fill="white"/>
</g>
<g clip-path="url(#clip1_1634_6939)">
<path d="M58 214C91.1371 214 118 187.137 118 154C118 120.863 91.1371 94 58 94C24.8629 94 -2 120.863 -2 154C-2 187.137 24.8629 214 58 214Z" fill="#01579B"/>
<path d="M58 214C91.1371 214 118 187.137 118 154C118 120.863 91.1371 94 58 94C24.8629 94 -2 120.863 -2 154C-2 187.137 24.8629 214 58 214Z" fill="white" fill-opacity="0.32"/>
<path opacity="0.1" d="M68.8375 212.984C70.5916 212.67 72.3308 212.278 74.05 211.81C75.9766 211.275 77.8752 210.644 79.7388 209.92C81.6034 209.197 83.4306 208.381 85.2138 207.475C86.9975 206.566 88.7347 205.569 90.4188 204.486C92.1008 203.406 93.7279 202.242 95.2938 200.999C96.8599 199.757 98.363 198.438 99.7975 197.046C101.235 195.65 102.602 194.184 103.893 192.651C105.18 191.123 106.39 189.531 107.519 187.881C108.648 186.228 109.695 184.52 110.654 182.762C111.612 181.007 112.482 179.205 113.26 177.362C114.041 175.522 114.729 173.643 115.323 171.734C115.914 169.821 116.41 167.88 116.808 165.917C116.965 165.009 117.101 164.098 117.216 163.184L86.6313 132.599C86.2545 132.217 85.8063 131.913 85.3121 131.705C84.8179 131.496 84.2876 131.387 83.7513 131.384H81.25C80.6275 131.384 80.1663 131.804 79.6338 132.062C79.0975 131.8 78.6438 131.384 78.0213 131.384H75.5088C74.8862 131.384 74.4325 131.804 73.8963 132.062C73.3638 131.8 72.91 131.384 72.2837 131.384H69.7713C69.1525 131.384 68.695 131.804 68.1625 132.062C67.6262 131.8 67.1763 131.384 66.55 131.384H64.0375V131.376C61.8138 131.376 59.95 133.259 59.95 135.479V137.695L54.85 132.591L54.8387 132.584C54.4633 132.204 54.0168 131.902 53.5245 131.694C53.0323 131.487 52.5041 131.379 51.97 131.376H49.4575C48.8313 131.376 48.3812 131.796 47.845 132.055C47.3125 131.792 46.855 131.376 46.2325 131.376H43.72C43.0975 131.376 42.6437 131.796 42.1075 132.055C41.575 131.792 41.1213 131.376 40.4988 131.376H37.9862C37.3638 131.376 36.91 131.796 36.3737 132.055C35.8412 131.792 35.38 131.376 34.7575 131.376H32.2525C30.0288 131.376 28.1575 133.251 28.1575 135.471V145.746L27.535 145.124C27.4488 145.037 27.3325 144.996 27.2425 144.917C26.8578 144.599 26.4181 144.354 25.945 144.194C25.7838 144.137 25.63 144.074 25.4613 144.04C25.122 143.972 24.7755 143.947 24.43 143.965C24.28 143.972 24.1375 143.957 23.9913 143.98C23.4963 144.055 23.0125 144.19 22.5625 144.449L20.395 145.694C18.4638 146.811 17.7925 149.369 18.8988 151.289L27.3138 165.932C27.5163 166.277 27.745 166.581 28.0038 166.862C28.0413 166.9 28.0638 166.949 28.0975 166.986L31.03 169.915V174.141C31.03 174.824 31.3075 175.442 31.7538 175.892L68.8413 212.98L68.8375 212.984Z" fill="#212121"/>
<path d="M32.2487 131.383C30.0265 131.383 28.156 133.256 28.156 135.473V145.94C27.6026 145.011 26.7075 144.335 25.6622 144.057C24.6168 143.778 23.5041 143.92 22.5618 144.451L20.394 145.698L20.3891 145.703C19.4597 146.256 18.7834 147.151 18.5043 148.196C18.2252 149.241 18.3655 150.354 18.8952 151.297L27.3136 165.934C27.9949 167.113 28.9314 167.983 30.6334 167.983H31.0249V174.146C31.0249 174.804 31.2859 175.434 31.7505 175.898C32.2151 176.363 32.8453 176.624 33.5023 176.624H50.758C51.415 176.624 52.0452 176.363 52.5098 175.898C52.9744 175.434 53.2354 174.804 53.2354 174.146V167.445C54.7938 166.858 56.0573 165.609 56.0573 163.877V149.865C56.0573 149.51 56.0548 149.785 56.0325 149.657C56.0399 149.577 56.0573 149.6 56.0573 149.503V135.476C56.0573 133.256 54.1917 131.38 51.9694 131.38H49.4548C48.8305 131.38 48.3722 131.801 47.837 132.064C47.3044 131.801 46.8485 131.38 46.2267 131.38H43.7195C43.0976 131.38 42.6393 131.801 42.1041 132.064C41.5715 131.801 41.1156 131.38 40.4938 131.38H37.9841C37.3623 131.38 36.9064 131.801 36.3737 132.064C35.8386 131.801 35.3828 131.38 34.756 131.38L32.2487 131.383ZM32.1571 141.005H34.8476C35.0309 141.004 35.2125 141.04 35.382 141.109C35.5515 141.179 35.7055 141.281 35.8352 141.411C35.9649 141.54 36.0677 141.694 36.1376 141.863C36.2074 142.033 36.2431 142.214 36.2424 142.398V142.596C36.2434 142.779 36.208 142.961 36.1383 143.131C36.0685 143.3 35.9658 143.455 35.8361 143.584C35.7064 143.714 35.5522 143.817 35.3826 143.886C35.2129 143.956 35.0311 143.992 34.8476 143.991H32.1571C31.9736 143.991 31.7918 143.956 31.6222 143.886C31.4525 143.816 31.2983 143.713 31.1685 143.584C31.0386 143.454 30.9357 143.3 30.8655 143.131C30.7954 142.961 30.7595 142.779 30.7598 142.596V142.398C30.7598 141.625 31.3841 141.005 32.1571 141.005ZM37.8924 141.005H40.583C41.3559 141.005 41.9803 141.625 41.9803 142.398V142.596C41.9806 142.779 41.9447 142.961 41.8745 143.131C41.8044 143.3 41.7014 143.454 41.5716 143.584C41.4417 143.713 41.2876 143.816 41.1179 143.886C40.9482 143.956 40.7664 143.991 40.583 143.991H37.8924C37.709 143.992 37.5272 143.956 37.3575 143.886C37.1878 143.817 37.0337 143.714 36.904 143.584C36.7742 143.455 36.6715 143.3 36.6018 143.131C36.532 142.961 36.4966 142.779 36.4976 142.596V142.398C36.497 142.214 36.5326 142.033 36.6025 141.863C36.6724 141.694 36.7752 141.54 36.9048 141.411C37.0345 141.281 37.1886 141.179 37.3581 141.109C37.5276 141.04 37.7092 141.004 37.8924 141.005ZM43.6303 141.005H46.3208C46.504 141.004 46.6857 141.04 46.8552 141.109C47.0247 141.179 47.1787 141.281 47.3084 141.411C47.4381 141.54 47.5408 141.694 47.6107 141.863C47.6806 142.033 47.7163 142.214 47.7156 142.398V142.596C47.7166 142.779 47.6812 142.961 47.6115 143.131C47.5417 143.3 47.439 143.455 47.3093 143.584C47.1796 143.714 47.0254 143.817 46.8557 143.886C46.6861 143.956 46.5043 143.992 46.3208 143.991H43.6327C43.4493 143.991 43.2675 143.956 43.0978 143.886C42.9282 143.816 42.774 143.713 42.6441 143.584C42.5143 143.454 42.4113 143.3 42.3412 143.131C42.2711 142.961 42.2351 142.779 42.2354 142.596V142.398C42.2354 141.625 42.8573 141.005 43.6303 141.005ZM49.3656 141.005H52.0562C52.8291 141.005 53.4535 141.625 53.4535 142.398V142.596C53.4538 142.779 53.4179 142.961 53.3477 143.131C53.2776 143.3 53.1746 143.454 53.0448 143.584C52.9149 143.713 52.7607 143.816 52.5911 143.886C52.4214 143.956 52.2396 143.991 52.0562 143.991H49.3656C49.1822 143.992 49.0004 143.956 48.8307 143.886C48.661 143.817 48.5069 143.714 48.3771 143.584C48.2474 143.455 48.1447 143.3 48.075 143.131C48.0052 142.961 47.9698 142.779 47.9708 142.596V142.398C47.9701 142.214 48.0058 142.033 48.0757 141.863C48.1456 141.694 48.2483 141.54 48.378 141.411C48.5077 141.281 48.6618 141.179 48.8313 141.109C49.0008 141.04 49.1824 141.004 49.3656 141.005ZM33.4999 154.002H49.4697C50.1559 154.002 50.7084 154.555 50.7084 155.241V155.642C50.7084 156.328 50.1559 156.881 49.4697 156.881H33.4999V154.002ZM33.4999 159.76H49.4697C50.1559 159.76 50.7084 160.312 50.7084 160.999V161.395C50.7084 162.081 50.1559 162.634 49.4697 162.634H33.4999V159.76ZM64.0372 131.383C61.81 131.383 59.9494 133.263 59.9494 135.481V149.503C59.9494 149.605 59.9643 149.577 59.9717 149.659C59.9469 149.79 59.9469 149.508 59.9469 149.867V163.88C59.9469 165.612 61.2104 166.86 62.7688 167.447V174.149C62.7688 174.806 63.0298 175.436 63.4944 175.901C63.959 176.365 64.5892 176.626 65.2462 176.626H82.5019C83.1589 176.626 83.7891 176.365 84.2537 175.901C84.7183 175.436 84.9793 174.806 84.9793 174.149V167.985H85.3708C86.8548 167.985 88.1703 166.835 88.6906 165.936L97.1091 151.299C97.6387 150.356 97.779 149.243 97.4999 148.198C97.2208 147.153 96.5445 146.259 95.6151 145.705L95.6102 145.7L93.4424 144.451C92.4991 143.921 91.3859 143.781 90.3407 144.061C89.2954 144.34 88.4009 145.018 87.8482 145.948V135.473C87.8482 133.256 85.9777 131.38 83.753 131.38H81.2482C80.6239 131.38 80.1656 131.801 79.6305 132.062C79.0978 131.801 78.6419 131.38 78.0201 131.38H75.5079C74.8886 131.38 74.4302 131.801 73.8976 132.062C73.3649 131.801 72.9066 131.38 72.2823 131.38H69.7751C69.1532 131.38 68.6974 131.801 68.1647 132.064C67.6296 131.801 67.1737 131.38 66.5469 131.38L64.0372 131.383ZM72.1807 151.126C72.4083 151.127 72.626 151.219 72.7863 151.382C72.9465 151.544 73.0361 151.764 73.0354 151.993C73.0341 152.22 72.9437 152.438 72.7836 152.599C72.6236 152.76 72.407 152.851 72.1807 152.853C72.0678 152.853 71.9559 152.831 71.8515 152.788C71.7471 152.745 71.6521 152.681 71.5721 152.601C71.492 152.521 71.4284 152.426 71.3849 152.321C71.3414 152.216 71.3189 152.104 71.3185 151.99C71.3182 151.876 71.3403 151.764 71.3835 151.658C71.4267 151.553 71.4902 151.457 71.5703 151.377C71.6505 151.296 71.7456 151.232 71.8504 151.189C71.9551 151.145 72.0674 151.125 72.1807 151.126ZM75.6194 151.126C75.7327 151.125 75.845 151.148 75.9497 151.191C76.0545 151.235 76.1497 151.298 76.2298 151.379C76.3099 151.46 76.3734 151.555 76.4166 151.661C76.4598 151.766 76.4819 151.879 76.4816 151.993C76.4803 152.222 76.3888 152.441 76.2272 152.602C76.0656 152.763 75.847 152.853 75.6194 152.853C75.3919 152.853 75.1736 152.762 75.0124 152.6C74.8513 152.439 74.7604 152.219 74.7597 151.99C74.7594 151.877 74.7814 151.764 74.8245 151.659C74.8675 151.554 74.9308 151.458 75.0107 151.377C75.0905 151.297 75.1854 151.233 75.2899 151.189C75.3943 151.146 75.5063 151.126 75.6194 151.126ZM70.3944 154.579C70.4151 154.579 70.4357 154.579 70.4564 154.579C70.5693 154.579 70.6811 154.601 70.7855 154.644C70.89 154.687 70.9849 154.751 71.065 154.831C71.1451 154.911 71.2086 155.006 71.2521 155.111C71.2957 155.216 71.3182 155.328 71.3185 155.442C71.3189 155.555 71.2968 155.668 71.2536 155.774C71.2104 155.879 71.1469 155.975 71.0667 156.055C70.9866 156.136 70.8914 156.2 70.7867 156.243C70.6819 156.287 70.5697 156.309 70.4564 156.309C70.3433 156.309 70.2313 156.286 70.1268 156.243C70.0224 156.199 69.9275 156.135 69.8476 156.055C69.7677 155.974 69.7045 155.878 69.6614 155.773C69.6184 155.668 69.5964 155.555 69.5967 155.442C69.5967 155.223 69.679 155.013 69.827 154.853C69.975 154.693 70.1778 154.595 70.3944 154.579ZM73.8381 154.579C73.8579 154.579 73.8778 154.579 73.8976 154.579C74.0105 154.579 74.1223 154.601 74.2268 154.644C74.3312 154.687 74.4261 154.751 74.5062 154.831C74.5863 154.911 74.6499 155.006 74.6934 155.111C74.7369 155.216 74.7594 155.328 74.7597 155.442C74.7601 155.555 74.738 155.668 74.6948 155.774C74.6516 155.879 74.5881 155.975 74.5079 156.055C74.4278 156.136 74.3326 156.2 74.2279 156.243C74.1231 156.287 74.0109 156.309 73.8976 156.309C73.7843 156.309 73.672 156.287 73.5673 156.243C73.4625 156.2 73.3673 156.136 73.2872 156.055C73.2071 155.975 73.1436 155.879 73.1004 155.774C73.0572 155.668 73.0351 155.555 73.0354 155.442C73.0356 155.222 73.1189 155.01 73.2685 154.85C73.418 154.69 73.6201 154.593 73.8381 154.579ZM77.2818 154.579C77.3025 154.579 77.3231 154.579 77.3438 154.579C77.5705 154.581 77.7875 154.672 77.9476 154.833C78.1077 154.995 78.1978 155.214 78.1985 155.442C78.1991 155.67 78.1095 155.89 77.9493 156.053C77.7891 156.215 77.5713 156.307 77.3438 156.309C77.2304 156.309 77.1182 156.287 77.0134 156.243C76.9087 156.2 76.8135 156.136 76.7334 156.055C76.6533 155.975 76.5898 155.879 76.5466 155.774C76.5033 155.668 76.4813 155.555 76.4816 155.442C76.4816 155.223 76.5639 155.013 76.7119 154.853C76.8599 154.693 77.0651 154.595 77.2818 154.579ZM72.1163 158.035C72.1377 158.035 72.1592 158.035 72.1807 158.035C72.4074 158.037 72.6244 158.128 72.7845 158.29C72.9446 158.451 73.0348 158.67 73.0354 158.898C73.0361 159.126 72.9465 159.346 72.7863 159.509C72.626 159.671 72.4083 159.763 72.1807 159.765C72.0674 159.765 71.9551 159.743 71.8504 159.699C71.7456 159.656 71.6505 159.592 71.5703 159.511C71.4902 159.431 71.4267 159.335 71.3835 159.23C71.3403 159.124 71.3182 159.012 71.3185 158.898C71.3186 158.679 71.4009 158.469 71.5489 158.309C71.6969 158.149 71.8996 158.051 72.1163 158.035ZM75.5575 158.035C75.5781 158.035 75.5988 158.035 75.6194 158.035C75.7323 158.035 75.8442 158.057 75.9486 158.1C76.053 158.143 76.148 158.207 76.228 158.287C76.3081 158.367 76.3717 158.462 76.4152 158.567C76.4587 158.672 76.4813 158.784 76.4816 158.898C76.4819 159.012 76.4598 159.124 76.4166 159.23C76.3734 159.335 76.3099 159.431 76.2298 159.511C76.1497 159.592 76.0545 159.656 75.9497 159.699C75.845 159.743 75.7327 159.765 75.6194 159.765C75.5063 159.765 75.3943 159.742 75.2899 159.699C75.1854 159.655 75.0905 159.591 75.0107 159.511C74.9308 159.43 74.8675 159.334 74.8245 159.229C74.7814 159.124 74.7594 159.011 74.7597 158.898C74.7598 158.679 74.8421 158.469 74.9901 158.309C75.1381 158.149 75.3408 158.051 75.5575 158.035Z" fill="white"/>
</g>
<g clip-path="url(#clip2_1634_6939)">
<path d="M46 507C79.1371 507 106 480.137 106 447C106 413.863 79.1371 387 46 387C12.8629 387 -14 413.863 -14 447C-14 480.137 12.8629 507 46 507Z" fill="#01579B"/>
<path d="M46 507C79.1371 507 106 480.137 106 447C106 413.863 79.1371 387 46 387C12.8629 387 -14 413.863 -14 447C-14 480.137 12.8629 507 46 507Z" fill="white" fill-opacity="0.64"/>
<path opacity="0.1" d="M52.57 506.569C53.7829 506.459 54.9922 506.313 56.1962 506.13C58.167 505.788 60.1195 505.347 62.0462 504.81C63.9741 504.275 65.874 503.645 67.7388 502.92C69.6034 502.197 71.4306 501.381 73.2137 500.475C74.9975 499.566 76.7347 498.569 78.4188 497.486C80.1008 496.406 81.7279 495.242 83.2937 493.999C84.8599 492.757 86.363 491.438 87.7975 490.046C89.235 488.651 90.6017 487.184 91.8925 485.651C93.1799 484.123 94.3902 482.531 95.5188 480.881C96.6485 479.228 97.6948 477.52 98.6537 475.763C99.612 474.007 100.482 472.205 101.26 470.363C102.041 468.522 102.729 466.643 103.322 464.734C103.914 462.821 104.41 460.88 104.807 458.918C105.134 457.237 105.388 455.543 105.569 453.84L65.1062 413.381C64.8661 413.141 64.5807 412.951 64.2666 412.821C63.9525 412.692 63.6159 412.626 63.2763 412.628H62.3613L62.1587 412.421C62.1657 412.264 62.1399 412.108 62.0829 411.962C62.026 411.815 61.9391 411.683 61.828 411.572C61.7168 411.461 61.5838 411.375 61.4373 411.318C61.2909 411.262 61.1343 411.236 60.9775 411.244H57.205L57.1112 411.146C57.1118 410.996 57.0822 410.847 57.0243 410.708C56.9664 410.569 56.8813 410.443 56.7741 410.338C56.6668 410.232 56.5395 410.149 56.3997 410.094C56.2599 410.038 56.1104 410.011 55.96 410.014C55.6639 410.02 55.382 410.142 55.175 410.354C54.9681 410.565 54.8527 410.85 54.8538 411.146H54.8462C54.8468 410.997 54.8176 410.849 54.7604 410.711C54.7031 410.572 54.6191 410.447 54.513 410.342C54.407 410.236 54.281 410.153 54.1425 410.097C54.004 410.041 53.8557 410.012 53.7063 410.014C53.4088 410.018 53.125 410.139 52.9165 410.351C52.7079 410.563 52.5915 410.849 52.5925 411.146C52.593 410.996 52.5637 410.848 52.5063 410.71C52.4488 410.571 52.3644 410.446 52.258 410.34C52.1515 410.235 52.0251 410.152 51.8862 410.096C51.7473 410.04 51.5985 410.012 51.4487 410.014C51.1513 410.018 50.8675 410.139 50.659 410.351C50.4504 410.563 50.334 410.849 50.335 411.146V411.244H47.4737C47.4363 411.242 47.3987 411.242 47.3613 411.244C47.1965 411.253 47.0358 411.297 46.8903 411.375C46.7447 411.453 46.618 411.561 46.519 411.693C46.42 411.825 46.3511 411.977 46.3171 412.139C46.2832 412.3 46.285 412.467 46.3225 412.628H46.2625L46.1312 412.496C46.1376 412.341 46.1116 412.186 46.0551 412.041C45.9986 411.896 45.9127 411.764 45.8029 411.654C45.693 411.543 45.5615 411.457 45.4167 411.4C45.2718 411.343 45.1168 411.317 44.9612 411.323H41.8337L41.6575 411.146C41.659 410.995 41.6302 410.845 41.5728 410.706C41.5153 410.566 41.4304 410.439 41.323 410.333C41.2157 410.226 41.088 410.143 40.9477 410.087C40.8074 410.031 40.6573 410.003 40.5062 410.006C40.2088 410.012 39.9258 410.135 39.7186 410.349C39.5115 410.562 39.397 410.849 39.4 411.146V411.236L39.3137 411.146C39.3153 410.996 39.2867 410.847 39.2297 410.707C39.1727 410.568 39.0885 410.442 38.9819 410.335C38.8753 410.229 38.7486 410.145 38.6092 410.089C38.4698 410.032 38.3204 410.004 38.17 410.006C37.8713 410.01 37.5863 410.132 37.3776 410.346C37.1688 410.56 37.0532 410.848 37.0562 411.146V411.236L36.97 411.146C36.9715 410.996 36.9429 410.847 36.8859 410.707C36.829 410.568 36.7447 410.442 36.6381 410.335C36.5316 410.229 36.4049 410.145 36.2654 410.089C36.126 410.032 35.9767 410.004 35.8262 410.006C35.5275 410.01 35.2426 410.132 35.0338 410.346C34.825 410.56 34.7095 410.848 34.7125 411.146V411.323H31.0937C30.9266 411.315 30.7601 411.346 30.606 411.411C30.452 411.476 30.3144 411.575 30.2032 411.699C30.0919 411.824 30.0098 411.972 29.9628 412.133C29.9158 412.293 29.905 412.462 29.9313 412.628H28.555C27.9373 412.64 27.3484 412.891 26.9115 413.328C26.4746 413.765 26.2237 414.354 26.2112 414.971V429.848L29.1025 432.739H26.2112V434.535L29.1025 437.426H26.2112V439.223L29.11 442.121H26.2112V476.269C26.1437 477.229 26.7362 478.031 27.1712 478.789L29.455 483.371C29.5094 483.48 29.5816 483.579 29.6688 483.664L52.57 506.569ZM39.3137 413.756L39.4 413.843C39.4094 414.129 39.5273 414.401 39.73 414.604C39.9327 414.806 40.2048 414.924 40.4913 414.934L41.6725 416.115V418.103L38.4625 414.896C38.7137 414.833 38.9354 414.685 39.0904 414.477C39.2453 414.27 39.3242 414.015 39.3137 413.756Z" fill="#212121"/>
<path d="M35.8262 410.01C35.5275 410.014 35.2426 410.136 35.0338 410.35C34.825 410.564 34.7095 410.851 34.7125 411.15V411.326H31.0937C30.927 411.319 30.7608 411.349 30.6071 411.414C30.4534 411.479 30.316 411.578 30.2048 411.702C30.0936 411.827 30.0114 411.974 29.9641 412.134C29.9168 412.294 29.9056 412.463 29.9312 412.628H28.555C27.9373 412.64 27.3484 412.891 26.9115 413.328C26.4746 413.765 26.2237 414.354 26.2112 414.972V429.851H34.8925V414.972C34.8764 414.457 34.6769 413.965 34.33 413.584H34.7125V413.76C34.7125 414.06 34.8316 414.348 35.0437 414.56C35.2557 414.772 35.5433 414.891 35.8431 414.891C36.143 414.891 36.4306 414.772 36.6426 414.56C36.8546 414.348 36.9738 414.06 36.9738 413.76V413.584H37.0562V413.76C37.0562 414.06 37.1752 414.347 37.3869 414.558C37.5985 414.77 37.8856 414.889 38.185 414.889C38.4844 414.889 38.7715 414.77 38.9831 414.558C39.1948 414.347 39.3137 414.06 39.3137 413.76V413.584H39.4037V413.76C39.3949 413.914 39.4175 414.067 39.4701 414.212C39.5227 414.356 39.6043 414.488 39.7098 414.6C39.8153 414.712 39.9425 414.801 40.0837 414.862C40.2248 414.923 40.3769 414.954 40.5306 414.954C40.6843 414.954 40.8364 414.923 40.9776 414.862C41.1187 414.801 41.2459 414.712 41.3514 414.6C41.457 414.488 41.5385 414.356 41.5911 414.212C41.6438 414.067 41.6664 413.914 41.6575 413.76V413.584H42.1975C41.8725 413.975 41.6876 414.463 41.6725 414.972V429.851H50.3537V414.972C50.3537 414.375 50.0725 413.884 49.7162 413.498H50.3425V413.756C50.3315 413.909 50.3518 414.063 50.4022 414.208C50.4526 414.353 50.5321 414.486 50.6357 414.599C50.7393 414.713 50.8649 414.804 51.0049 414.867C51.1448 414.93 51.2961 414.964 51.4496 414.966C51.603 414.969 51.7554 414.94 51.8973 414.881C52.0393 414.823 52.1679 414.737 52.2752 414.627C52.3825 414.517 52.4663 414.386 52.5215 414.243C52.5767 414.1 52.6022 413.947 52.5963 413.794C52.5903 413.947 52.6158 414.1 52.671 414.243C52.7262 414.386 52.81 414.517 52.9173 414.627C53.0246 414.737 53.1532 414.823 53.2952 414.881C53.4371 414.94 53.5895 414.969 53.7429 414.966C53.8964 414.964 54.0477 414.93 54.1876 414.867C54.3276 414.804 54.4532 414.713 54.5568 414.599C54.6604 414.486 54.7399 414.353 54.7903 414.208C54.8407 414.063 54.861 413.909 54.85 413.756V413.494H54.8575V413.756C54.8486 413.91 54.8712 414.064 54.9239 414.208C54.9765 414.352 55.058 414.484 55.1636 414.596C55.2691 414.708 55.3963 414.797 55.5374 414.858C55.6786 414.919 55.8307 414.95 55.9844 414.95C56.1381 414.95 56.2902 414.919 56.4313 414.858C56.5725 414.797 56.6997 414.708 56.8052 414.596C56.9107 414.484 56.9923 414.352 57.0449 414.208C57.0975 414.064 57.1201 413.91 57.1112 413.756V413.494H57.7C57.3339 413.9 57.1251 414.425 57.1112 414.972V429.851H65.7925V414.972C65.7925 414.248 65.4175 413.629 64.9525 413.239C64.4841 412.843 63.8899 412.626 63.2763 412.628H62.125C62.1652 412.458 62.1654 412.281 62.1257 412.111C62.0861 411.941 62.0076 411.783 61.8964 411.649C61.7852 411.514 61.6444 411.407 61.4849 411.336C61.3255 411.266 61.1518 411.233 60.9775 411.24H57.1112V411.15C57.1128 410.999 57.0841 410.85 57.0269 410.71C56.9696 410.571 56.885 410.444 56.7781 410.338C56.6711 410.232 56.544 410.148 56.4041 410.092C56.2642 410.036 56.1145 410.008 55.9637 410.01C55.6663 410.016 55.3833 410.139 55.1761 410.353C54.969 410.566 54.8545 410.853 54.8575 411.15V411.244H54.85V411.15C54.8515 411 54.8229 410.85 54.7659 410.711C54.709 410.572 54.6247 410.446 54.5181 410.339C54.4116 410.233 54.2849 410.149 54.1454 410.093C54.006 410.036 53.8567 410.008 53.7063 410.01C53.4075 410.014 53.1226 410.136 52.9138 410.35C52.705 410.564 52.5895 410.851 52.5925 411.15C52.594 411 52.5655 410.851 52.5088 410.712C52.452 410.573 52.3681 410.447 52.262 410.341C52.1558 410.235 52.0295 410.15 51.8905 410.094C51.7515 410.037 51.6026 410.009 51.4525 410.01C51.1538 410.014 50.8688 410.136 50.6601 410.35C50.4513 410.564 50.3357 410.851 50.3387 411.15V411.244H47.4737C47.4363 411.242 47.3987 411.242 47.3613 411.244C47.1962 411.252 47.035 411.297 46.889 411.374C46.7431 411.451 46.6159 411.56 46.5165 411.692C46.417 411.824 46.3478 411.976 46.3136 412.138C46.2795 412.3 46.2812 412.467 46.3187 412.628H46.1238C46.1495 412.463 46.1382 412.294 46.0907 412.133C46.0431 411.973 45.9606 411.825 45.849 411.701C45.7374 411.576 45.5995 411.478 45.4453 411.413C45.2912 411.349 45.1245 411.319 44.9575 411.326H41.6575V411.15C41.659 410.999 41.6303 410.85 41.5731 410.71C41.5159 410.571 41.4313 410.444 41.3243 410.338C41.2174 410.232 41.0902 410.148 40.9503 410.092C40.8105 410.036 40.6608 410.008 40.51 410.01C40.2119 410.015 39.9279 410.138 39.72 410.351C39.512 410.565 39.397 410.852 39.4 411.15V411.326H39.31V411.15C39.3115 411 39.283 410.851 39.2263 410.712C39.1695 410.573 39.0856 410.447 38.9795 410.341C38.8733 410.235 38.747 410.15 38.608 410.094C38.469 410.037 38.3201 410.009 38.17 410.01C37.8713 410.014 37.5863 410.136 37.3776 410.35C37.1688 410.564 37.0532 410.851 37.0562 411.15V411.326H36.97V411.15C36.9715 410.999 36.9428 410.85 36.8856 410.71C36.8284 410.571 36.7438 410.444 36.6368 410.338C36.5299 410.232 36.4027 410.148 36.2628 410.092C36.123 410.036 35.977 410.008 35.8262 410.01ZM26.2112 432.743V434.535H34.8925V432.743H26.2112ZM41.6688 432.743V434.535H50.3537V432.743H41.6688ZM57.1112 432.743V434.535H65.8V432.743H57.115H57.1112ZM26.2112 437.43V439.226H34.8925V437.426H26.2075L26.2112 437.43ZM41.6688 437.43V439.226H50.3537V437.426H41.6688V437.43ZM57.1112 437.43V439.226H65.7962V437.426H57.1112V437.43ZM26.2112 442.118V476.265C26.1437 477.229 26.7287 478.028 27.1675 478.785L29.455 483.372C29.5489 483.559 29.693 483.716 29.8711 483.826C30.0493 483.936 30.2544 483.994 30.4638 483.994C30.6731 483.994 30.8782 483.936 31.0564 483.826C31.2345 483.716 31.3786 483.559 31.4725 483.372L33.76 478.785C33.76 478.785 34.8925 476.719 34.8925 476.265V442.122L26.2112 442.118ZM41.6688 442.118V476.265C41.6013 477.229 42.19 478.028 42.625 478.785L44.9125 483.372C45.006 483.56 45.1502 483.718 45.3287 483.828C45.5073 483.939 45.7131 483.997 45.9231 483.997C46.1331 483.997 46.339 483.939 46.5175 483.828C46.6961 483.718 46.8402 483.56 46.9338 483.372L49.2212 478.785C49.2212 478.785 50.3537 476.719 50.3537 476.265V442.122L41.6688 442.118ZM57.1112 442.118V476.265C57.0437 477.229 57.6325 478.028 58.0675 478.785L60.355 483.372C60.4485 483.56 60.5927 483.718 60.7712 483.828C60.9498 483.939 61.1556 483.997 61.3656 483.997C61.5756 483.997 61.7815 483.939 61.96 483.828C62.1386 483.718 62.2827 483.56 62.3763 483.372L64.6637 478.785C64.6637 478.785 65.7962 476.719 65.7962 476.265V442.122L57.1112 442.118Z" fill="white"/>
</g>
<g clip-path="url(#clip3_1634_6939)">
<path d="M274 408C307.137 408 334 381.137 334 348C334 314.863 307.137 288 274 288C240.863 288 214 314.863 214 348C214 381.137 240.863 408 274 408Z" fill="#01579B"/>
<path opacity="0.2" d="M280.57 407.569C281.783 407.459 282.992 407.313 284.196 407.13C286.167 406.788 288.119 406.347 290.046 405.81C291.974 405.275 293.874 404.645 295.739 403.92C297.603 403.197 299.431 402.381 301.214 401.475C302.998 400.566 304.735 399.569 306.419 398.486C308.101 397.406 309.728 396.242 311.294 394.999C312.86 393.757 314.363 392.438 315.798 391.046C317.235 389.651 318.602 388.184 319.893 386.651C321.18 385.123 322.39 383.531 323.519 381.881C324.649 380.228 325.695 378.52 326.654 376.763C327.612 375.007 328.482 373.205 329.26 371.363C330.041 369.522 330.729 367.643 331.323 365.734C331.914 363.821 332.41 361.88 332.808 359.918C333.134 358.237 333.388 356.543 333.569 354.84L293.106 314.381C292.866 314.141 292.581 313.951 292.267 313.821C291.953 313.692 291.616 313.626 291.276 313.628H290.361L290.159 313.421C290.166 313.264 290.14 313.108 290.083 312.962C290.026 312.815 289.939 312.683 289.828 312.572C289.717 312.461 289.584 312.375 289.437 312.318C289.291 312.262 289.134 312.236 288.978 312.244H285.205L285.111 312.146C285.112 311.996 285.082 311.847 285.024 311.708C284.966 311.569 284.881 311.443 284.774 311.338C284.667 311.232 284.54 311.149 284.4 311.094C284.26 311.038 284.11 311.011 283.96 311.014C283.664 311.02 283.382 311.142 283.175 311.354C282.968 311.565 282.853 311.85 282.854 312.146H282.846C282.847 311.997 282.818 311.849 282.76 311.711C282.703 311.572 282.619 311.447 282.513 311.342C282.407 311.236 282.281 311.153 282.143 311.097C282.004 311.041 281.856 311.012 281.706 311.014C281.409 311.018 281.125 311.139 280.916 311.351C280.708 311.563 280.591 311.849 280.593 312.146C280.593 311.996 280.564 311.848 280.506 311.71C280.449 311.571 280.364 311.446 280.258 311.34C280.152 311.235 280.025 311.152 279.886 311.096C279.747 311.04 279.599 311.012 279.449 311.014C279.151 311.018 278.868 311.139 278.659 311.351C278.45 311.563 278.334 311.849 278.335 312.146V312.244H275.474C275.436 312.242 275.399 312.242 275.361 312.244C275.197 312.253 275.036 312.297 274.89 312.375C274.745 312.453 274.618 312.561 274.519 312.693C274.42 312.825 274.351 312.977 274.317 313.139C274.283 313.3 274.285 313.467 274.323 313.628H274.263L274.131 313.496C274.138 313.341 274.112 313.186 274.055 313.041C273.999 312.896 273.913 312.764 273.803 312.654C273.693 312.543 273.561 312.457 273.417 312.4C273.272 312.343 273.117 312.317 272.961 312.323H269.834L269.658 312.146C269.659 311.995 269.63 311.845 269.573 311.706C269.515 311.566 269.43 311.439 269.323 311.333C269.216 311.226 269.088 311.143 268.948 311.087C268.807 311.031 268.657 311.003 268.506 311.006C268.209 311.012 267.926 311.135 267.719 311.349C267.511 311.562 267.397 311.849 267.4 312.146V312.236L267.314 312.146C267.315 311.996 267.287 311.847 267.23 311.707C267.173 311.568 267.088 311.442 266.982 311.335C266.875 311.229 266.749 311.145 266.609 311.089C266.47 311.032 266.32 311.004 266.17 311.006C265.871 311.01 265.586 311.132 265.378 311.346C265.169 311.56 265.053 311.848 265.056 312.146V312.236L264.97 312.146C264.972 311.996 264.943 311.847 264.886 311.707C264.829 311.568 264.745 311.442 264.638 311.335C264.532 311.229 264.405 311.145 264.265 311.089C264.126 311.032 263.977 311.004 263.826 311.006C263.528 311.01 263.243 311.132 263.034 311.346C262.825 311.56 262.71 311.848 262.713 312.146V312.323H259.094C258.927 312.315 258.76 312.346 258.606 312.411C258.452 312.476 258.314 312.575 258.203 312.699C258.092 312.824 258.01 312.972 257.963 313.133C257.916 313.293 257.905 313.462 257.931 313.628H256.555C255.937 313.64 255.348 313.891 254.912 314.328C254.475 314.765 254.224 315.354 254.211 315.971V330.848L257.103 333.739H254.211V335.535L257.103 338.426H254.211V340.223L257.11 343.121H254.211V377.269C254.144 378.229 254.736 379.031 255.171 379.789L257.455 384.371C257.509 384.48 257.582 384.579 257.669 384.664L280.57 407.569ZM267.314 314.756L267.4 314.843C267.409 315.129 267.527 315.401 267.73 315.604C267.933 315.806 268.205 315.924 268.491 315.934L269.673 317.115V319.103L266.463 315.896C266.714 315.833 266.935 315.685 267.09 315.477C267.245 315.27 267.324 315.015 267.314 314.756Z" fill="#212121"/>
<path d="M263.826 311.01C263.528 311.014 263.243 311.136 263.034 311.35C262.825 311.564 262.71 311.851 262.713 312.15V312.326H259.094C258.927 312.319 258.761 312.349 258.607 312.414C258.453 312.479 258.316 312.578 258.205 312.702C258.094 312.827 258.011 312.974 257.964 313.134C257.917 313.294 257.906 313.463 257.931 313.628H256.555C255.937 313.64 255.348 313.891 254.912 314.328C254.475 314.765 254.224 315.354 254.211 315.972V330.851H262.893V315.972C262.876 315.457 262.677 314.965 262.33 314.584H262.713V314.76C262.713 315.06 262.832 315.348 263.044 315.56C263.256 315.772 263.543 315.891 263.843 315.891C264.143 315.891 264.431 315.772 264.643 315.56C264.855 315.348 264.974 315.06 264.974 314.76V314.584H265.056V314.76C265.056 315.06 265.175 315.347 265.387 315.558C265.599 315.77 265.886 315.889 266.185 315.889C266.484 315.889 266.771 315.77 266.983 315.558C267.195 315.347 267.314 315.06 267.314 314.76V314.584H267.404V314.76C267.395 314.914 267.417 315.067 267.47 315.212C267.523 315.356 267.604 315.488 267.71 315.6C267.815 315.712 267.943 315.801 268.084 315.862C268.225 315.923 268.377 315.954 268.531 315.954C268.684 315.954 268.836 315.923 268.978 315.862C269.119 315.801 269.246 315.712 269.351 315.6C269.457 315.488 269.539 315.356 269.591 315.212C269.644 315.067 269.666 314.914 269.658 314.76V314.584H270.198C269.872 314.975 269.688 315.463 269.673 315.972V330.851H278.354V315.972C278.354 315.375 278.073 314.884 277.716 314.498H278.343V314.756C278.331 314.909 278.352 315.063 278.402 315.208C278.453 315.353 278.532 315.486 278.636 315.599C278.739 315.713 278.865 315.804 279.005 315.867C279.145 315.93 279.296 315.964 279.45 315.966C279.603 315.969 279.755 315.94 279.897 315.881C280.039 315.823 280.168 315.737 280.275 315.627C280.383 315.517 280.466 315.386 280.522 315.243C280.577 315.1 280.602 314.947 280.596 314.794C280.59 314.947 280.616 315.1 280.671 315.243C280.726 315.386 280.81 315.517 280.917 315.627C281.025 315.737 281.153 315.823 281.295 315.881C281.437 315.94 281.589 315.969 281.743 315.966C281.896 315.964 282.048 315.93 282.188 315.867C282.328 315.804 282.453 315.713 282.557 315.599C282.66 315.486 282.74 315.353 282.79 315.208C282.841 315.063 282.861 314.909 282.85 314.756V314.494H282.858V314.756C282.849 314.91 282.871 315.064 282.924 315.208C282.976 315.352 283.058 315.484 283.164 315.596C283.269 315.708 283.396 315.797 283.537 315.858C283.679 315.919 283.831 315.95 283.984 315.95C284.138 315.95 284.29 315.919 284.431 315.858C284.572 315.797 284.7 315.708 284.805 315.596C284.911 315.484 284.992 315.352 285.045 315.208C285.098 315.064 285.12 314.91 285.111 314.756V314.494H285.7C285.334 314.9 285.125 315.425 285.111 315.972V330.851H293.793V315.972C293.793 315.248 293.418 314.629 292.953 314.239C292.484 313.843 291.89 313.626 291.276 313.628H290.125C290.165 313.458 290.165 313.281 290.126 313.111C290.086 312.941 290.008 312.783 289.896 312.649C289.785 312.514 289.644 312.407 289.485 312.336C289.325 312.266 289.152 312.233 288.978 312.24H285.111V312.15C285.113 311.999 285.084 311.85 285.027 311.71C284.97 311.571 284.885 311.444 284.778 311.338C284.671 311.232 284.544 311.148 284.404 311.092C284.264 311.036 284.115 311.008 283.964 311.01C283.666 311.016 283.383 311.139 283.176 311.353C282.969 311.566 282.854 311.853 282.858 312.15V312.244H282.85V312.15C282.852 312 282.823 311.85 282.766 311.711C282.709 311.572 282.625 311.446 282.518 311.339C282.412 311.233 282.285 311.149 282.145 311.093C282.006 311.036 281.857 311.008 281.706 311.01C281.408 311.014 281.123 311.136 280.914 311.35C280.705 311.564 280.59 311.851 280.593 312.15C280.594 312 280.566 311.851 280.509 311.712C280.452 311.573 280.368 311.447 280.262 311.341C280.156 311.235 280.03 311.15 279.891 311.094C279.752 311.037 279.603 311.009 279.453 311.01C279.154 311.014 278.869 311.136 278.66 311.35C278.451 311.564 278.336 311.851 278.339 312.15V312.244H275.474C275.436 312.242 275.399 312.242 275.361 312.244C275.196 312.252 275.035 312.297 274.889 312.374C274.743 312.451 274.616 312.56 274.516 312.692C274.417 312.824 274.348 312.976 274.314 313.138C274.279 313.3 274.281 313.467 274.319 313.628H274.124C274.149 313.463 274.138 313.294 274.091 313.133C274.043 312.973 273.961 312.825 273.849 312.701C273.737 312.576 273.6 312.478 273.445 312.413C273.291 312.349 273.125 312.319 272.958 312.326H269.658V312.15C269.659 311.999 269.63 311.85 269.573 311.71C269.516 311.571 269.431 311.444 269.324 311.338C269.217 311.232 269.09 311.148 268.95 311.092C268.81 311.036 268.661 311.008 268.51 311.01C268.212 311.015 267.928 311.138 267.72 311.351C267.512 311.565 267.397 311.852 267.4 312.15V312.326H267.31V312.15C267.312 312 267.283 311.851 267.226 311.712C267.17 311.573 267.086 311.447 266.979 311.341C266.873 311.235 266.747 311.15 266.608 311.094C266.469 311.037 266.32 311.009 266.17 311.01C265.871 311.014 265.586 311.136 265.378 311.35C265.169 311.564 265.053 311.851 265.056 312.15V312.326H264.97V312.15C264.972 311.999 264.943 311.85 264.886 311.71C264.828 311.571 264.744 311.444 264.637 311.338C264.53 311.232 264.403 311.148 264.263 311.092C264.123 311.036 263.977 311.008 263.826 311.01ZM254.211 333.743V335.535H262.893V333.743H254.211ZM269.669 333.743V335.535H278.354V333.743H269.669ZM285.111 333.743V335.535H293.8V333.743H285.115H285.111ZM254.211 338.43V340.226H262.893V338.426H254.208L254.211 338.43ZM269.669 338.43V340.226H278.354V338.426H269.669V338.43ZM285.111 338.43V340.226H293.796V338.426H285.111V338.43ZM254.211 343.118V377.265C254.144 378.229 254.729 379.028 255.168 379.785L257.455 384.372C257.549 384.559 257.693 384.716 257.871 384.826C258.049 384.936 258.254 384.994 258.464 384.994C258.673 384.994 258.878 384.936 259.056 384.826C259.235 384.716 259.379 384.559 259.473 384.372L261.76 379.785C261.76 379.785 262.893 377.719 262.893 377.265V343.122L254.211 343.118ZM269.669 343.118V377.265C269.601 378.229 270.19 379.028 270.625 379.785L272.913 384.372C273.006 384.56 273.15 384.718 273.329 384.828C273.507 384.939 273.713 384.997 273.923 384.997C274.133 384.997 274.339 384.939 274.518 384.828C274.696 384.718 274.84 384.56 274.934 384.372L277.221 379.785C277.221 379.785 278.354 377.719 278.354 377.265V343.122L269.669 343.118ZM285.111 343.118V377.265C285.044 378.229 285.633 379.028 286.068 379.785L288.355 384.372C288.449 384.56 288.593 384.718 288.771 384.828C288.95 384.939 289.156 384.997 289.366 384.997C289.576 384.997 289.782 384.939 289.96 384.828C290.139 384.718 290.283 384.56 290.376 384.372L292.664 379.785C292.664 379.785 293.796 377.719 293.796 377.265V343.122L285.111 343.118Z" fill="white"/>
</g>
<g clip-path="url(#clip4_1634_6939)">
<path d="M202 259C235.137 259 262 232.137 262 199C262 165.863 235.137 139 202 139C168.863 139 142 165.863 142 199C142 232.137 168.863 259 202 259Z" fill="#4CAF50"/>
<path opacity="0.1" d="M212.897 257.969C214.63 257.658 216.348 257.272 218.046 256.81C219.974 256.275 221.874 255.644 223.739 254.92C225.603 254.197 227.431 253.381 229.214 252.475C230.998 251.566 232.735 250.569 234.419 249.486C236.101 248.406 237.728 247.242 239.294 245.999C240.86 244.757 242.363 243.438 243.798 242.046C245.235 240.651 246.602 239.184 247.893 237.651C249.18 236.123 250.39 234.531 251.519 232.881C252.648 231.228 253.695 229.52 254.654 227.762C255.612 226.007 256.482 224.205 257.26 222.362C257.378 222.05 257.493 221.736 257.605 221.421L198.43 162.246H198.426C198.208 162.028 197.913 161.904 197.605 161.901V161.916H194.83C194.523 161.917 194.229 162.04 194.012 162.257C193.795 162.474 193.672 162.768 193.671 163.075V178.675C193.671 179.8 193.281 181.206 192.625 182.219C191.969 183.231 190.439 183.809 189.269 183.809C188.961 183.809 188.666 183.931 188.448 184.148C188.23 184.365 188.107 184.66 188.106 184.967V231.49C188.106 232.03 188.237 232.532 188.429 232.997L188.485 233.159C188.687 233.605 188.972 233.995 189.314 234.355C189.34 234.381 189.347 234.415 189.374 234.441L212.897 257.969Z" fill="#212121"/>
<path d="M197.605 161.916H194.83C194.678 161.916 194.527 161.946 194.386 162.005C194.245 162.063 194.117 162.149 194.009 162.257C193.902 162.365 193.816 162.493 193.758 162.634C193.7 162.775 193.671 162.926 193.671 163.079V178.679C193.671 179.804 193.285 181.21 192.625 182.222C191.969 183.235 190.435 183.809 189.269 183.809C189.116 183.808 188.965 183.838 188.824 183.896C188.683 183.954 188.555 184.039 188.447 184.147C188.339 184.254 188.253 184.382 188.195 184.523C188.136 184.664 188.106 184.815 188.106 184.967V231.49C188.106 234.16 190.664 236.073 193.517 236.073H197.766C199.836 236.073 201.43 235.675 202.581 234.861C203.729 234.044 204.332 232.761 204.332 231.494V184.956C204.332 184.649 204.209 184.355 203.992 184.138C203.775 183.921 203.481 183.798 203.174 183.797C202.022 183.797 200.361 183.216 199.75 182.23C199.165 181.212 198.829 180.069 198.771 178.896V163.068C198.771 162.915 198.741 162.764 198.683 162.623C198.624 162.482 198.539 162.353 198.431 162.245C198.323 162.138 198.195 162.052 198.054 161.994C197.913 161.935 197.761 161.905 197.609 161.905L197.605 161.916ZM196.202 186.966C196.358 186.964 196.512 186.993 196.655 187.052C196.799 187.11 196.93 187.197 197.04 187.307C197.149 187.416 197.236 187.547 197.294 187.691C197.353 187.834 197.382 187.989 197.38 188.144V226.656L199.502 228.494C199.636 228.587 199.748 228.707 199.832 228.847C199.915 228.986 199.969 229.142 199.989 229.304C200.009 229.465 199.994 229.629 199.947 229.784C199.899 229.94 199.82 230.084 199.713 230.207C199.607 230.33 199.476 230.429 199.328 230.498C199.181 230.567 199.021 230.605 198.858 230.608C198.695 230.611 198.534 230.58 198.384 230.517C198.234 230.454 198.099 230.36 197.987 230.241L196.247 228.734L194.774 230.106C194.665 230.223 194.534 230.317 194.387 230.381C194.241 230.445 194.083 230.479 193.923 230.479C193.763 230.479 193.605 230.446 193.459 230.383C193.312 230.319 193.18 230.226 193.071 230.109C192.962 229.993 192.878 229.855 192.825 229.704C192.772 229.554 192.75 229.393 192.761 229.234C192.773 229.075 192.817 228.919 192.891 228.778C192.965 228.636 193.067 228.511 193.191 228.411L195.062 226.671V188.144C195.058 187.837 195.176 187.541 195.39 187.32C195.603 187.099 195.895 186.972 196.202 186.966ZM221.05 213.137C218.846 213.334 216.748 214.175 215.018 215.555C213.289 216.936 212.003 218.794 211.322 220.9C210.58 223.236 210.62 225.751 211.438 228.062C212.256 230.373 213.806 232.353 215.852 233.702L215.777 233.29L216.554 230.852L216.677 230.583L217.694 229.96L218.792 230.448L218.999 231.625L218.226 234.07L218.102 234.333L217.54 234.677C218.328 235.02 219.154 235.269 220 235.42L219.88 234.764L220.082 234.141L220.195 233.879L221.222 233.256L222.31 233.744L222.52 234.921L222.325 235.548H222.317C224.648 235.495 226.906 234.72 228.777 233.33C230.649 231.939 232.042 230.002 232.765 227.785C233.472 225.558 233.468 223.166 232.753 220.941C232.038 218.717 230.648 216.77 228.775 215.373L227.987 217.81L227.875 218.072L226.855 218.699L225.76 218.211L225.546 217.034L226.33 214.589L226.45 214.326L226.772 214.131C226.356 213.934 225.927 213.763 225.49 213.618C225.201 213.524 224.912 213.453 224.624 213.381L224.691 213.771L224.455 214.506L224.339 214.769L223.319 215.395L222.224 214.904L222.01 213.726L222.197 213.134C221.819 213.13 221.429 213.089 221.05 213.137ZM222.37 215.298L223.461 215.789L223.675 216.966L222.895 219.411L222.779 219.67L221.759 220.304L220.664 219.809L220.454 218.631L221.234 216.186L221.346 215.924L222.37 215.298ZM225.906 218.598L226.997 219.089L227.211 220.266L226.424 222.711L226.311 222.97L225.291 223.6L224.196 223.112L223.982 221.927L224.766 219.482L224.882 219.224L225.906 218.598ZM220.814 220.184L221.905 220.671L222.119 221.856L221.339 224.298L221.222 224.56L220.202 225.182L219.107 224.695L218.894 223.518L219.674 221.073L219.79 220.814L220.814 220.184ZM224.346 223.48L225.434 223.975L225.647 225.156L224.864 227.594L224.751 227.856L223.728 228.486L222.632 227.991L222.422 226.81L223.202 224.373L223.322 224.11L224.346 223.48ZM219.257 225.07L220.345 225.557L220.555 226.735L219.782 229.18L219.659 229.442L218.642 230.069L217.551 229.581L217.337 228.404L218.117 225.959L218.234 225.696L219.257 225.07ZM222.782 228.37L223.874 228.854L224.084 230.039L223.304 232.484L223.187 232.742L222.167 233.369L221.072 232.881L220.862 231.7L221.639 229.255L221.759 228.992L222.782 228.37Z" fill="white"/>
</g>
<g clip-path="url(#clip5_1634_6939)">
<path d="M190 532C223.137 532 250 505.137 250 472C250 438.863 223.137 412 190 412C156.863 412 130 438.863 130 472C130 505.137 156.863 532 190 532Z" fill="#F57F17"/>
<path opacity="0.1" d="M190.57 531.977C191.795 531.971 193.019 531.928 194.241 531.846C196.237 531.707 198.224 531.468 200.196 531.13C202.167 530.788 204.119 530.347 206.046 529.81C207.974 529.275 209.874 528.645 211.739 527.92C213.603 527.197 215.431 526.381 217.214 525.475C218.998 524.566 220.735 523.569 222.419 522.486C224.101 521.406 225.728 520.242 227.294 518.999C228.86 517.757 230.363 516.438 231.798 515.046C233.235 513.65 234.602 512.184 235.893 510.651C237.18 509.122 238.39 507.531 239.519 505.881C240.648 504.228 241.695 502.52 242.654 500.762C243.612 499.007 244.482 497.205 245.26 495.363C246.041 493.522 246.729 491.643 247.322 489.734C247.914 487.821 248.41 485.88 248.807 483.918C249.199 481.983 249.494 480.031 249.692 478.067L220.667 449.039C220.506 448.878 220.326 448.735 220.161 448.577C219.474 447.919 218.758 447.291 218.016 446.695C217.648 446.397 217.273 446.107 216.891 445.825C216.517 445.551 216.137 445.284 215.751 445.026C215.345 444.751 214.932 444.485 214.514 444.228C214.099 443.978 213.679 443.738 213.254 443.508C212.841 443.283 212.429 443.054 212.001 442.844C211.507 442.604 211.007 442.376 210.501 442.161C210.134 442.004 209.774 441.839 209.402 441.693C208.874 441.486 208.326 441.317 207.782 441.137C207.362 440.995 206.946 440.849 206.515 440.725C205.834 440.534 205.148 440.365 204.456 440.219C204.231 440.17 204.006 440.106 203.777 440.057C203.759 440.057 203.74 440.058 203.725 440.05C202.715 439.854 201.696 439.705 200.672 439.604C199.643 439.493 198.61 439.43 197.575 439.416V439.428C183.617 439.248 171.1 448.229 166.577 461.519C166.277 462.404 166.007 463.308 165.779 464.23H161.391C160.987 464.23 160.6 464.39 160.315 464.676C160.029 464.962 159.869 465.349 159.869 465.753C159.869 466.156 160.029 466.543 160.315 466.829C160.6 467.114 160.987 467.275 161.391 467.275L179.725 485.609H159.775C159.691 485.586 159.606 485.571 159.52 485.564C159.225 485.575 158.94 485.671 158.699 485.841C158.673 485.855 158.648 485.87 158.624 485.886C158.607 485.901 158.591 485.916 158.575 485.931C158.567 485.944 158.56 485.956 158.552 485.969C158.396 486.102 158.269 486.265 158.177 486.449C158.086 486.632 158.032 486.832 158.02 487.037C156.227 493.499 157.746 499.154 162.685 504.096V504.104C162.721 504.139 162.758 504.173 162.797 504.205L190.566 531.977H190.57Z" fill="#212121"/>
<path d="M197.575 439.435C182.688 439.24 169.431 449.466 165.783 464.23H161.388C161.188 464.23 160.99 464.269 160.805 464.346C160.62 464.422 160.452 464.535 160.311 464.676C160.17 464.817 160.057 464.985 159.981 465.17C159.904 465.355 159.865 465.553 159.865 465.753C159.865 465.953 159.904 466.15 159.981 466.335C160.057 466.52 160.17 466.687 160.311 466.829C160.452 466.97 160.62 467.082 160.805 467.159C160.99 467.235 161.188 467.275 161.388 467.275H180.415L190.443 468.291L192.704 474.344V474.509L190.645 481.39C190.525 481.778 190.501 482.189 190.577 482.588C190.653 482.987 190.826 483.361 191.08 483.677C191.341 483.958 191.659 484.18 192.013 484.327C192.367 484.474 192.748 484.543 193.131 484.529H194.702L194.399 485.605H159.775C159.691 485.585 159.606 485.573 159.52 485.567C159.224 485.577 158.938 485.672 158.695 485.841C158.672 485.857 158.65 485.873 158.628 485.89C158.61 485.904 158.592 485.917 158.575 485.931C158.567 485.944 158.56 485.956 158.553 485.969C158.397 486.102 158.269 486.264 158.178 486.447C158.086 486.63 158.033 486.829 158.02 487.034C156.231 493.499 157.746 499.161 162.685 504.096C162.864 504.284 163.088 504.422 163.335 504.499C163.582 504.576 163.845 504.588 164.099 504.535C164.169 504.54 164.239 504.54 164.309 504.535H198.111C198.315 504.537 198.516 504.498 198.704 504.421C198.892 504.344 199.063 504.229 199.206 504.085C199.209 504.085 199.211 504.085 199.214 504.085C199.501 503.862 199.699 503.544 199.773 503.189L204.351 484.514H205.176C206.616 484.514 208.008 483.843 208.499 482.283L208.469 482.373L211.476 474.479V473.211L210.194 470.279L230.271 472.315C230.294 464.157 227.273 456.283 221.798 450.234C216.324 444.185 208.789 440.396 200.669 439.607C199.64 439.496 198.606 439.432 197.571 439.416L197.575 439.435ZM190.986 461.279H207.434C208.086 461.283 208.615 461.811 208.619 462.464V465.753C208.619 466.067 208.494 466.369 208.272 466.592C208.05 466.815 207.748 466.94 207.434 466.941H190.986C190.671 466.941 190.369 466.816 190.146 466.593C189.923 466.37 189.798 466.068 189.798 465.753V462.464C189.798 461.807 190.334 461.279 190.986 461.279ZM195.989 462.464C195.773 462.464 195.559 462.506 195.359 462.59C195.159 462.673 194.978 462.794 194.826 462.947C194.674 463.101 194.553 463.283 194.472 463.483C194.39 463.683 194.349 463.898 194.35 464.114C194.35 465.025 195.078 465.753 195.989 465.753C196.904 465.753 197.639 465.025 197.639 464.11C197.639 463.894 197.597 463.679 197.514 463.479C197.431 463.278 197.31 463.096 197.156 462.943C197.003 462.79 196.821 462.669 196.62 462.587C196.42 462.504 196.205 462.463 195.989 462.464ZM202.214 462.464C201.778 462.464 201.359 462.637 201.051 462.945C200.743 463.254 200.569 463.672 200.569 464.108C200.569 464.544 200.743 464.963 201.051 465.271C201.359 465.579 201.778 465.753 202.214 465.753C202.43 465.754 202.643 465.712 202.843 465.63C203.042 465.547 203.224 465.426 203.376 465.273C203.528 465.121 203.649 464.939 203.731 464.74C203.813 464.54 203.854 464.326 203.853 464.11C203.853 463.894 203.812 463.68 203.73 463.481C203.648 463.281 203.527 463.1 203.375 462.947C203.223 462.794 203.042 462.672 202.843 462.589C202.643 462.506 202.43 462.464 202.214 462.464ZM197.856 484.532H201.224L198.94 493.832C198.909 493.831 198.877 493.831 198.846 493.832H184.289V488.654H195.115C195.436 488.746 195.779 488.729 196.09 488.607C196.401 488.485 196.663 488.265 196.836 487.979C196.84 487.979 196.844 487.979 196.848 487.979C196.987 487.768 197.072 487.526 197.095 487.274L197.856 484.544V484.532ZM160.761 488.654H169.368V493.832H160.356C160.154 492.235 160.308 490.529 160.761 488.654ZM172.413 488.654H181.244V493.832H172.413V488.654ZM161.181 496.877H169.368V501.505H164.436C162.959 499.956 161.864 498.441 161.181 496.877ZM172.413 496.877H181.244V501.505H172.413V496.877ZM184.293 496.877H198.19L197.054 501.505H184.293V496.877Z" fill="white"/>
</g>
<g clip-path="url(#clip6_1634_6939)">
<path d="M130 383C163.137 383 190 356.137 190 323C190 289.863 163.137 263 130 263C96.8629 263 70 289.863 70 323C70 356.137 96.8629 383 130 383Z" fill="#C62828"/>
<path opacity="0.2" d="M133.05 382.904C133.604 382.892 134.157 382.872 134.711 382.844C136.706 382.705 138.694 382.466 140.666 382.128C142.637 381.786 144.589 381.345 146.516 380.808C148.444 380.273 150.343 379.642 152.208 378.918C154.073 378.194 155.9 377.378 157.683 376.473C159.467 375.564 161.204 374.566 162.888 373.484C164.57 372.403 166.197 371.239 167.763 369.996C169.329 368.755 170.833 367.436 172.267 366.044C173.705 364.648 175.071 363.181 176.362 361.649C177.65 360.12 178.86 358.528 179.988 356.879C181.118 355.226 182.164 353.518 183.123 351.76C184.082 350.005 184.951 348.203 185.73 346.36C186.51 344.52 187.199 342.641 187.792 340.731C188.384 338.819 188.879 336.878 189.277 334.915C189.673 332.956 189.971 330.979 190.17 328.99C190.262 327.837 190.321 326.682 190.346 325.525L156.865 301.138C156.64 300.913 156.378 300.718 156.145 300.501C155.092 299.492 153.984 298.54 152.827 297.651C152.091 297.093 151.337 296.56 150.565 296.053C150.093 295.742 149.628 295.423 149.137 295.131C148.283 294.624 147.411 294.149 146.523 293.706C146.122 293.5 145.735 293.278 145.327 293.087C143.977 292.461 142.589 291.887 141.145 291.4L140.722 292.712L138.697 290.691C135.403 289.786 132.009 289.302 128.594 289.251C119.219 290.693 109.83 290.141 99.8552 308.613C99.5252 309.633 98.0439 311.92 97.8039 312.947C97.7027 313.364 97.6239 313.78 97.5414 314.2C97.4102 314.826 97.2864 315.452 97.1889 316.082C97.1177 316.525 97.0652 316.971 97.0127 317.414C96.7962 319.188 96.6984 320.974 96.7202 322.761C96.7202 323.039 96.7164 323.32 96.7277 323.597C96.7614 324.651 96.8289 325.705 96.9452 326.747C97.0577 327.76 97.2189 328.765 97.4064 329.762C97.4664 330.077 97.5452 330.381 97.6127 330.692C98.074 332.848 98.7112 334.963 99.5177 337.015C99.6227 337.285 99.7427 337.544 99.8552 337.814C100.478 339.306 101.16 340.769 101.955 342.179L102.008 342.265C102.806 343.671 103.71 345.017 104.67 346.322C104.873 346.596 105.071 346.866 105.281 347.136C106.249 348.381 107.288 349.577 108.401 350.71C108.476 350.789 108.54 350.882 108.619 350.957L133.05 382.904Z" fill="#212121"/>
<path d="M130.321 289.253C115.94 289.119 102.51 298.268 97.875 312.675C93.0562 327.651 99.3004 343.519 112.032 351.535L112.612 349.732L112.712 349.517L113.554 349.002L114.449 349.408L114.621 350.378L113.972 352.386L112.755 351.993C114.424 352.985 116.205 353.831 118.076 354.536L138.73 290.451C135.989 289.697 133.164 289.297 130.321 289.253ZM132.021 289.487L134.03 290.133L133.559 291.599L132.951 292.001L131.809 291.633L131.56 290.916L132.021 289.487ZM140.764 291.04L120.066 355.247C137.682 360.677 156.464 350.942 162.122 333.343C167.78 315.757 158.217 296.914 140.764 291.04ZM144.759 293.508L146.771 294.157L146.306 295.591L145.785 296.053L144.413 295.613L144.266 295.036L144.759 293.508ZM131.02 294.78L131.918 295.186L132.09 296.159L131.444 298.165L131.344 298.383L130.502 298.895L129.604 298.489L129.432 297.519L130.078 295.51L130.178 295.295L131.02 294.78ZM143.758 298.804L144.656 299.21L144.831 300.18L144.182 302.185L144.085 302.404L143.243 302.915L142.345 302.51L142.173 301.54L142.819 299.534L142.919 299.316L143.758 298.804ZM129.077 300.807L129.975 301.212L130.15 302.182L129.501 304.188L129.404 304.406L128.562 304.918L127.664 304.513L127.492 303.542L128.138 301.537L128.238 301.318L129.077 300.807ZM141.818 304.831L142.716 305.233L142.888 306.203L142.242 308.212L142.142 308.43L141.3 308.942L140.405 308.536L140.23 307.563L140.879 305.557L140.979 305.342L141.818 304.831ZM127.137 306.83L128.035 307.235L128.207 308.209L127.561 310.214L127.461 310.433L126.619 310.944L125.724 310.539L125.549 309.566L126.198 307.56L126.298 307.345L127.137 306.83ZM139.878 310.854L140.776 311.259L140.948 312.226L140.302 314.235L140.202 314.453L139.36 314.965L138.465 314.56L138.29 313.589L138.939 311.581L139.036 311.365L139.878 310.854ZM125.197 312.856L126.095 313.262L126.267 314.229L125.621 316.238L125.521 316.456L124.679 316.967L123.784 316.562L123.609 315.592L124.258 313.583L124.355 313.368L125.197 312.856ZM137.938 316.877L138.836 317.283L139.008 318.253L138.362 320.261L138.262 320.48L137.42 320.988L136.522 320.586L136.35 319.613L136.996 317.607L137.096 317.389L137.938 316.877ZM123.257 318.88L124.155 319.285L124.324 320.255L123.675 322.264L123.581 322.483L122.739 322.991L121.841 322.588L121.669 321.615L122.315 319.61L122.415 319.391L123.257 318.88ZM135.995 322.904L136.893 323.306L137.061 324.279L136.416 326.285L136.322 326.503L135.48 327.015L134.582 326.609L134.41 325.639L135.056 323.63L135.156 323.415L135.995 322.904ZM121.314 324.903L122.212 325.309L122.381 326.281L121.735 328.287L121.641 328.505L120.799 329.017L119.901 328.612L119.729 327.642L120.375 325.633L120.475 325.417L121.314 324.903ZM134.055 328.927L134.953 329.332L135.121 330.302L134.476 332.308L134.382 332.526L133.54 333.038L132.642 332.632L132.467 331.662L133.116 329.657L133.216 329.438L134.055 328.927ZM119.374 330.929L120.272 331.335L120.441 332.305L119.795 334.311L119.701 334.529L118.859 335.041L117.961 334.635L117.789 333.668L118.435 331.659L118.535 331.441L119.374 330.929ZM132.115 334.953L133.013 335.355L133.181 336.326L132.536 338.334L132.442 338.553L131.6 339.064L130.702 338.659L130.527 337.685L131.176 335.68L131.273 335.465L132.115 334.953ZM117.434 336.952L118.332 337.358L118.501 338.328L117.855 340.337L117.761 340.555L116.919 341.067L116.021 340.661L115.846 339.688L116.495 337.682L116.592 337.467L117.434 336.952ZM130.175 340.976L131.073 341.382L131.241 342.349L130.593 344.358L130.499 344.576L129.657 345.087L128.759 344.682L128.587 343.712L129.233 341.703L129.333 341.488L130.175 340.976ZM115.494 342.979L116.392 343.384L116.561 344.351L115.912 346.36L115.818 346.579L114.976 347.09L114.078 346.684L113.906 345.715L114.552 343.706L114.652 343.491L115.494 342.979ZM128.232 347.003L129.13 347.402L129.301 348.375L128.653 350.384L128.559 350.602L127.717 351.111L126.819 350.708L126.647 349.735L127.293 347.73L127.393 347.511L128.232 347.003ZM126.292 353.023L127.19 353.428L127.358 354.401L126.713 356.407L124.707 355.761L125.353 353.753L125.453 353.537L126.292 353.023Z" fill="white"/>
</g>
<defs>
<clipPath id="clip0_1634_6939">
<rect width="120" height="120" fill="white" transform="translate(-73 220)"/>
</clipPath>
<clipPath id="clip1_1634_6939">
<rect width="120" height="120" fill="white" transform="translate(-2 94)"/>
</clipPath>
<clipPath id="clip2_1634_6939">
<rect width="120" height="120" fill="white" transform="translate(-14 387)"/>
</clipPath>
<clipPath id="clip3_1634_6939">
<rect width="120" height="120" fill="white" transform="translate(214 288)"/>
</clipPath>
<clipPath id="clip4_1634_6939">
<rect width="120" height="120" fill="white" transform="translate(142 139)"/>
</clipPath>
<clipPath id="clip5_1634_6939">
<rect width="120" height="120" fill="white" transform="translate(130 412)"/>
</clipPath>
<clipPath id="clip6_1634_6939">
<rect width="120" height="120" fill="white" transform="translate(70 263)"/>
</clipPath>
</defs>
</svg>
