<svg width="41" height="40" viewBox="0 0 41 40" fill="none" xmlns="http://www.w3.org/2000/svg">
<g clip-path="url(#clip0_211_1521)">
<path d="M33.8065 4.93003C42.1147 12.1805 42.9772 24.7986 35.7322 33.1137C28.4873 41.4284 15.8791 42.2914 7.57057 35.0409C-0.737671 27.7904 -1.59998 15.1722 5.64486 6.8575C12.8898 -1.45755 25.498 -2.32052 33.8065 4.93003Z" fill="url(#paint0_linear_211_1521)"/>
<path opacity="0.5" d="M35.7121 6.83179C34.6315 12.7715 31.5752 19.1283 26.6849 24.7409C21.5458 30.639 15.3173 34.641 9.31152 36.4004" stroke="black" stroke-width="1.6211" stroke-miterlimit="10"/>
<path opacity="0.2" d="M27.9795 25.9121C32.5473 20.6696 35.7142 14.6573 37.1014 8.67916C36.6632 8.04103 36.1833 7.42455 35.6637 6.83191C34.5832 12.7716 31.5278 19.1282 26.6373 24.7409C21.4982 30.6391 15.27 34.6393 9.26416 36.3988C9.91416 36.8511 10.5833 37.2611 11.2688 37.6266C17.2767 35.5264 23.1764 31.4248 27.9795 25.9121Z" fill="#BF272C"/>
<path d="M9.26424 36.3988C15.2701 34.6392 21.4983 30.639 26.6374 24.7409C31.5279 19.1283 34.5832 12.7716 35.6638 6.83188C35.1808 6.28067 34.6635 5.75045 34.1109 5.24518C33.2853 11.4872 30.1651 17.9807 25.2952 23.5696C20.1874 29.4318 13.786 33.5341 7.50391 35.0236C7.51039 35.0295 7.51665 35.0351 7.52314 35.0409C8.08456 35.531 8.66644 35.9825 9.26424 36.3988Z" fill="url(#paint1_radial_211_1521)"/>
<path opacity="0.5" d="M11.269 37.6265C17.277 35.5264 23.1766 31.4247 27.9798 25.9121C32.5476 20.6696 35.7144 14.6573 37.1017 8.67914" stroke="#D1D3D4" stroke-width="1.6211" stroke-miterlimit="10" stroke-linecap="round" stroke-linejoin="round"/>
<path opacity="0.5" d="M34.1109 5.24506C33.2853 11.487 30.1651 17.9806 25.2952 23.5695C20.1874 29.4318 13.786 33.5341 7.50391 35.0236" stroke="#D1D3D4" stroke-width="1.6211" stroke-miterlimit="10" stroke-linecap="round" stroke-linejoin="round"/>
<path d="M11.269 37.6265C11.353 37.5971 11.437 37.5673 11.5208 37.5372" stroke="white" stroke-width="1.6211" stroke-linecap="round" stroke-linejoin="round"/>
<path d="M12.1958 37.2865C17.8815 35.1004 23.4239 31.141 27.98 25.9121C32.3925 20.8478 35.4976 15.0653 36.9542 9.289" stroke="white" stroke-width="1.6211" stroke-linecap="round" stroke-linejoin="round" stroke-dasharray="4.91 6.55"/>
<path d="M37.04 8.93902C37.0609 8.85231 37.0815 8.76572 37.1016 8.67902" stroke="white" stroke-width="1.6211" stroke-linecap="round" stroke-linejoin="round"/>
<path d="M34.1111 5.24506C34.0994 5.33319 34.0872 5.42132 34.0747 5.50967" stroke="white" stroke-width="1.6211" stroke-linecap="round" stroke-linejoin="round"/>
<path d="M33.9656 6.20856C32.9603 12.1516 29.915 18.2676 25.2952 23.5694C20.3506 29.2444 14.1938 33.27 8.10645 34.8727" stroke="white" stroke-width="1.6211" stroke-linecap="round" stroke-linejoin="round" stroke-dasharray="4.83 6.44"/>
<path d="M7.76336 34.9607C7.67687 34.9821 7.59039 35.0032 7.50391 35.0237C7.51039 35.0295 7.51665 35.0351 7.52314 35.0409" stroke="white" stroke-width="1.6211" stroke-linecap="round" stroke-linejoin="round"/>
<path d="M38.5177 12.2384C38.472 12.2246 38.419 11.9568 38.5043 11.6745C38.5564 11.5325 38.6021 11.5285 38.6482 11.5424C38.6935 11.5561 38.6456 11.8061 38.6357 11.8451C38.5771 12.0738 38.5564 12.2502 38.5177 12.2384Z" fill="white" stroke="white" stroke-width="0.4067" stroke-miterlimit="10"/>
<path d="M38.1616 13.2991C38.1166 13.2837 38.0723 13.0142 38.1666 12.7351C38.26 12.455 38.2782 12.236 38.3237 12.251C38.3687 12.2661 38.4237 12.5082 38.3299 12.7899C38.235 13.0709 38.2064 13.3146 38.1616 13.2991Z" fill="white" stroke="white" stroke-width="0.4067" stroke-miterlimit="10"/>
<path d="M37.7275 14.4749C37.683 14.4582 37.6475 14.1874 37.7508 13.9114C37.8533 13.6345 37.8788 13.4162 37.9238 13.4328C37.9681 13.4492 38.0153 13.6931 37.9122 13.9716C37.8081 14.2492 37.7719 14.4917 37.7275 14.4749Z" fill="white" stroke="white" stroke-width="0.4067" stroke-miterlimit="10"/>
<path d="M37.2553 15.6357C37.2114 15.6174 37.1844 15.3457 37.2965 15.0732C37.4078 14.7997 37.4404 14.5824 37.4849 14.6003C37.5288 14.6182 37.5681 14.8635 37.456 15.1384C37.3433 15.4128 37.2991 15.6539 37.2553 15.6357Z" fill="white" stroke="white" stroke-width="0.4067" stroke-miterlimit="10"/>
<path d="M36.7479 16.7809C36.7045 16.7613 36.6861 16.489 36.8066 16.22C36.9263 15.9501 36.9656 15.7339 37.0097 15.7533C37.053 15.7725 37.0844 16.0188 36.9639 16.2903C36.8427 16.5608 36.791 16.8005 36.7479 16.7809Z" fill="white" stroke="white" stroke-width="0.4067" stroke-miterlimit="10"/>
<path d="M36.2056 17.9095C36.1628 17.8887 36.153 17.6159 36.2806 17.3502C36.4098 17.0847 36.455 16.8695 36.4985 16.8903C36.5411 16.9107 36.5655 17.1581 36.4357 17.4251C36.3074 17.6924 36.2483 17.9304 36.2056 17.9095Z" fill="white" stroke="white" stroke-width="0.4067" stroke-miterlimit="10"/>
<path d="M35.6304 19.0216C35.5881 18.9996 35.5862 18.7266 35.7219 18.4648C35.8588 18.2033 35.9106 17.9896 35.9533 18.0116C35.9953 18.0333 36.0123 18.2813 35.8745 18.5445C35.7383 18.8076 35.6724 19.0438 35.6304 19.0216Z" fill="white" stroke="white" stroke-width="0.4067" stroke-miterlimit="10"/>
<path d="M35.0228 20.1168C34.9814 20.0932 34.9873 19.8206 35.1304 19.5628C35.2748 19.3052 35.3328 19.0932 35.3751 19.1164C35.4163 19.1393 35.426 19.3877 35.2808 19.6468C35.137 19.9059 35.064 20.1399 35.0228 20.1168Z" fill="white" stroke="white" stroke-width="0.4067" stroke-miterlimit="10"/>
<path d="M34.3839 21.194C34.3433 21.1694 34.357 20.8969 34.5075 20.6432C34.6591 20.3898 34.7231 20.1796 34.7647 20.2042C34.8054 20.2282 34.808 20.4769 34.6555 20.7316C34.5042 20.9865 34.4247 21.2185 34.3839 21.194Z" fill="white" stroke="white" stroke-width="0.4067" stroke-miterlimit="10"/>
<path d="M33.7154 22.253C33.6752 22.2274 33.6966 21.9555 33.854 21.7061C34.0128 21.4571 34.0827 21.2487 34.1235 21.2744C34.1635 21.2995 34.159 21.5481 33.9996 21.7984C33.8411 22.0491 33.7552 22.2788 33.7154 22.253Z" fill="white" stroke="white" stroke-width="0.4067" stroke-miterlimit="10"/>
<path d="M33.0176 23.2935C32.9783 23.2667 33.0071 22.9954 33.1712 22.7505C33.3368 22.5059 33.4125 22.2995 33.4526 22.3265C33.4917 22.3527 33.4806 22.6011 33.3141 22.8469C33.1491 23.0929 33.0569 23.3202 33.0176 23.2935Z" fill="white" stroke="white" stroke-width="0.4067" stroke-miterlimit="10"/>
<path d="M32.2919 24.3145C32.2532 24.2867 32.2894 24.0162 32.4601 23.7759C32.6321 23.5359 32.7135 23.3317 32.7527 23.3596C32.7914 23.387 32.7734 23.635 32.6004 23.8761C32.4286 24.1176 32.3304 24.3421 32.2919 24.3145Z" fill="white" stroke="white" stroke-width="0.4067" stroke-miterlimit="10"/>
<path d="M31.539 25.3157C31.5011 25.2868 31.5444 25.0174 31.7217 24.7818C31.9 24.5465 31.9868 24.3446 32.0253 24.3735C32.0632 24.402 32.0385 24.6492 31.859 24.8857C31.6809 25.1225 31.5768 25.3447 31.539 25.3157Z" fill="white" stroke="white" stroke-width="0.4067" stroke-miterlimit="10"/>
<path d="M30.7604 26.2968C30.7234 26.2669 30.7736 25.9989 30.9569 25.7679C31.1416 25.5372 31.2336 25.3378 31.2713 25.3677C31.3083 25.397 31.2772 25.6437 31.0916 25.8754C30.9073 26.1074 30.7972 26.3266 30.7604 26.2968Z" fill="white" stroke="white" stroke-width="0.4067" stroke-miterlimit="10"/>
<path d="M29.9561 27.2569C29.9198 27.2261 29.977 26.9593 30.1664 26.7333C30.3568 26.5077 30.454 26.3104 30.491 26.3415C30.5272 26.3717 30.4896 26.6175 30.2982 26.8442C30.1077 27.0715 29.9921 27.2875 29.9561 27.2569Z" fill="white" stroke="white" stroke-width="0.4067" stroke-miterlimit="10"/>
<path d="M29.1275 28.1957C29.0918 28.1638 29.1564 27.8988 29.3515 27.6778C29.5478 27.4572 29.6503 27.2627 29.6862 27.2946C29.7217 27.3259 29.6778 27.5706 29.4804 27.7923C29.2842 28.0144 29.1628 28.2273 29.1275 28.1957Z" fill="white" stroke="white" stroke-width="0.4067" stroke-miterlimit="10"/>
<path d="M28.273 29.1116C28.2384 29.0788 28.3098 28.8158 28.511 28.6002C28.7134 28.3851 28.8209 28.1935 28.8561 28.2262C28.8907 28.2586 28.8401 28.5019 28.6369 28.7181C28.4345 28.9347 28.3073 29.1443 28.273 29.1116Z" fill="white" stroke="white" stroke-width="0.4067" stroke-miterlimit="10"/>
<path d="M27.3938 30.0042C27.36 29.9706 27.4386 29.7094 27.6456 29.4994C27.8536 29.2898 27.9662 29.1012 28.0006 29.135C28.0345 29.1681 27.9771 29.4102 27.768 29.6207C27.56 29.8318 27.4272 30.0379 27.3938 30.0042Z" fill="white" stroke="white" stroke-width="0.4067" stroke-miterlimit="10"/>
<path d="M26.4912 30.8728C26.4583 30.8384 26.544 30.5793 26.7565 30.375C26.9701 30.1713 27.0879 29.9857 27.1212 30.0203C27.1541 30.0543 27.0903 30.2945 26.8756 30.4993C26.6619 30.7049 26.5237 30.9074 26.4912 30.8728Z" fill="white" stroke="white" stroke-width="0.4067" stroke-miterlimit="10"/>
<path d="M25.5657 31.7168C25.5338 31.6813 25.6266 31.4248 25.8443 31.2262C26.0634 31.0281 26.1861 30.8459 26.2184 30.8814C26.2504 30.9164 26.1802 31.1548 25.96 31.3539C25.741 31.5534 25.5973 31.7522 25.5657 31.7168Z" fill="white" stroke="white" stroke-width="0.4067" stroke-miterlimit="10"/>
<path d="M24.6173 32.5351C24.5864 32.499 24.6861 32.2448 24.9092 32.0523C25.1335 31.8603 25.261 31.6814 25.2926 31.7178C25.3235 31.7536 25.2469 31.9902 25.0214 32.1829C24.797 32.3765 24.6481 32.5713 24.6173 32.5351Z" fill="white" stroke="white" stroke-width="0.4067" stroke-miterlimit="10"/>
<path d="M23.647 33.3273C23.6171 33.2903 23.7235 33.039 23.952 32.8527C24.1814 32.6669 24.3139 32.4916 24.3443 32.5288C24.3742 32.5654 24.2913 32.7999 24.0605 32.9864C23.8311 33.1739 23.6768 33.3642 23.647 33.3273Z" fill="white" stroke="white" stroke-width="0.4067" stroke-miterlimit="10"/>
<path d="M22.6548 34.0923C22.6259 34.0543 22.7393 33.8062 22.973 33.6263C23.2073 33.4471 23.3447 33.2754 23.374 33.3134C23.4029 33.3508 23.3135 33.5828 23.0778 33.7632C22.8429 33.944 22.6834 34.1302 22.6548 34.0923Z" fill="white" stroke="white" stroke-width="0.4067" stroke-miterlimit="10"/>
<path d="M21.6421 34.8291C21.6142 34.7904 21.7347 34.5456 21.973 34.3723C22.2126 34.1999 22.3547 34.032 22.3829 34.0709C22.4107 34.1092 22.3148 34.3385 22.074 34.5121C21.8342 34.6864 21.6696 34.8678 21.6421 34.8291Z" fill="white" stroke="white" stroke-width="0.4067" stroke-miterlimit="10"/>
<path d="M20.608 35.5368C20.5813 35.4973 20.7088 35.256 20.9518 35.0897C21.1962 34.924 21.343 34.7604 21.3701 34.8001C21.3969 34.8391 21.2946 35.0655 21.0488 35.2321C20.8044 35.3995 20.6345 35.5761 20.608 35.5368Z" fill="white" stroke="white" stroke-width="0.4067" stroke-miterlimit="10"/>
<path d="M19.5543 36.2138C19.5288 36.1734 19.6633 35.9363 19.9113 35.7769C20.1604 35.6186 20.3118 35.4591 20.3379 35.4998C20.3635 35.5396 20.2546 35.7631 20.004 35.9223C19.7547 36.0824 19.5796 36.2538 19.5543 36.2138Z" fill="white" stroke="white" stroke-width="0.4067" stroke-miterlimit="10"/>
<path d="M18.4802 36.8588C18.4559 36.8177 18.5976 36.5847 18.8502 36.4329C19.104 36.2822 19.26 36.1275 19.285 36.1688C19.3092 36.2093 19.1937 36.4292 18.9386 36.5811C18.6844 36.7334 18.5043 36.8997 18.4802 36.8588Z" fill="white" stroke="white" stroke-width="0.4067" stroke-miterlimit="10"/>
<path d="M17.3866 37.4702C17.3637 37.4287 17.5124 37.1996 17.7701 37.0568C18.0277 36.9129 18.1889 36.7636 18.2123 36.8056C18.2355 36.847 18.113 37.0629 17.8538 37.2076C17.5945 37.3512 17.4094 37.5119 17.3866 37.4702Z" fill="white" stroke="white" stroke-width="0.4067" stroke-miterlimit="10"/>
<path d="M16.2739 38.0464C16.2524 38.0037 16.4085 37.7799 16.6705 37.6457C16.9326 37.5101 17.0983 37.366 17.1205 37.4086C17.1424 37.4508 17.0131 37.6626 16.7494 37.7991C16.4856 37.9341 16.2954 38.0886 16.2739 38.0464Z" fill="white" stroke="white" stroke-width="0.4067" stroke-miterlimit="10"/>
<path d="M15.1428 38.585C15.1226 38.5419 15.2862 38.3233 15.5527 38.198C15.8191 38.0712 15.9896 37.9326 16.0103 37.9759C16.0307 38.0188 15.8944 38.2261 15.6264 38.3537C15.3582 38.4801 15.1628 38.6281 15.1428 38.585Z" fill="white" stroke="white" stroke-width="0.4067" stroke-miterlimit="10"/>
<path d="M14.529 38.6626C14.7998 38.5447 14.975 38.4122 14.9941 38.4562C15.013 38.4997 14.8695 38.7022 14.5977 38.8208C14.3261 38.9388 14.2586 38.7803 14.529 38.6626Z" fill="white" stroke="white" stroke-width="0.4067" stroke-miterlimit="10"/>
<path d="M37.9284 11.1174C37.8824 11.1048 37.8225 10.8384 37.9006 10.554C37.9242 10.4735 37.9856 10.4057 38.0318 10.4184C38.0777 10.4309 38.1027 10.4244 38.0668 10.5996C37.9883 10.8855 37.974 11.1301 37.9284 11.1174Z" fill="white" stroke="white" stroke-width="0.4067" stroke-miterlimit="10"/>
<path d="M37.6004 12.1794C37.555 12.1651 37.5043 11.8969 37.5917 11.6156C37.678 11.3333 37.6909 11.1138 37.7367 11.1278C37.782 11.1416 37.8432 11.3822 37.7563 11.6662C37.6685 11.9496 37.6456 12.1937 37.6004 12.1794Z" fill="white" stroke="white" stroke-width="0.4067" stroke-miterlimit="10"/>
<path d="M37.1971 13.3561C37.1522 13.3402 37.1105 13.0704 37.2073 12.7921C37.3031 12.513 37.3236 12.2942 37.369 12.3095C37.4138 12.3249 37.4668 12.5676 37.3702 12.8484C37.2725 13.1287 37.2417 13.3719 37.1971 13.3561Z" fill="white" stroke="white" stroke-width="0.4067" stroke-miterlimit="10"/>
<path d="M36.7544 14.5186C36.7101 14.5014 36.6772 14.2303 36.7831 13.9553C36.8883 13.6794 36.9158 13.4614 36.9606 13.4783C37.0049 13.4952 37.0498 13.7394 36.944 14.0169C36.8373 14.2937 36.7986 14.5359 36.7544 14.5186Z" fill="white" stroke="white" stroke-width="0.4067" stroke-miterlimit="10"/>
<path d="M36.275 15.6659C36.2313 15.6471 36.2072 15.3751 36.3221 15.1038C36.4359 14.8314 36.4705 14.6145 36.5149 14.6329C36.5584 14.6511 36.5954 14.8967 36.4808 15.1707C36.3653 15.4437 36.3188 15.6846 36.275 15.6659Z" fill="white" stroke="white" stroke-width="0.4067" stroke-miterlimit="10"/>
<path d="M35.7595 16.797C35.7164 16.777 35.7008 16.5045 35.8241 16.2367C35.9465 15.9681 35.9879 15.7523 36.0318 15.7721C36.0749 15.7916 36.1039 16.0382 35.9806 16.3086C35.8565 16.5778 35.8025 16.8171 35.7595 16.797Z" fill="white" stroke="white" stroke-width="0.4067" stroke-miterlimit="10"/>
<path d="M35.2102 17.9113C35.1675 17.8899 35.1606 17.6171 35.291 17.3527C35.4228 17.0886 35.4703 16.8739 35.5136 16.8951C35.5558 16.916 35.5778 17.1636 35.4452 17.4294C35.3141 17.6952 35.2524 17.9326 35.2102 17.9113Z" fill="white" stroke="white" stroke-width="0.4067" stroke-miterlimit="10"/>
<path d="M34.6272 19.0086C34.5853 18.986 34.5864 18.7132 34.7248 18.4528C34.8645 18.1927 34.9185 17.9795 34.961 18.0019C35.0027 18.0241 35.0171 18.2724 34.8766 18.534C34.7375 18.7959 34.669 19.0312 34.6272 19.0086Z" fill="white" stroke="white" stroke-width="0.4067" stroke-miterlimit="10"/>
<path d="M34.012 20.0884C33.9708 20.0646 33.9798 19.7919 34.1257 19.5359C34.2731 19.2799 34.3334 19.0685 34.3753 19.0923C34.4163 19.1156 34.4234 19.3643 34.2753 19.6215C34.1286 19.879 34.0531 20.1123 34.012 20.0884Z" fill="white" stroke="white" stroke-width="0.4067" stroke-miterlimit="10"/>
<path d="M33.366 21.1502C33.3255 21.125 33.3423 20.8529 33.4956 20.6011C33.6502 20.3494 33.7167 20.14 33.7577 20.1647C33.7982 20.1895 33.798 20.438 33.6425 20.6911C33.4886 20.9443 33.4063 21.1751 33.366 21.1502Z" fill="white" stroke="white" stroke-width="0.4067" stroke-miterlimit="10"/>
<path d="M32.6906 22.1933C32.6508 22.1672 32.6752 21.8955 32.8353 21.6481C32.9972 21.4009 33.0695 21.1932 33.1098 21.2194C33.1494 21.2451 33.1424 21.4937 32.9798 21.7422C32.8187 21.9909 32.7299 22.2194 32.6906 22.1933Z" fill="white" stroke="white" stroke-width="0.4067" stroke-miterlimit="10"/>
<path d="M31.9857 23.2175C31.9466 23.1902 31.9786 22.9192 32.1457 22.6764C32.3142 22.4338 32.3922 22.2283 32.4319 22.2555C32.4708 22.2824 32.4568 22.5306 32.2874 22.7744C32.1195 23.0186 32.0244 23.2447 31.9857 23.2175Z" fill="white" stroke="white" stroke-width="0.4067" stroke-miterlimit="10"/>
<path d="M31.2537 24.2219C31.2153 24.1937 31.2547 23.9236 31.4284 23.6854C31.6033 23.4476 31.6871 23.2442 31.726 23.2727C31.7642 23.3004 31.7431 23.5482 31.5674 23.7873C31.3927 24.0269 31.2917 24.2503 31.2537 24.2219Z" fill="white" stroke="white" stroke-width="0.4067" stroke-miterlimit="10"/>
<path d="M30.4945 25.2064C30.4569 25.1771 30.5033 24.9083 30.6834 24.6747C30.8648 24.4417 30.9538 24.2407 30.9921 24.2701C31.0295 24.299 31.0019 24.5461 30.8198 24.7804C30.6387 25.015 30.5318 25.2357 30.4945 25.2064Z" fill="white" stroke="white" stroke-width="0.4067" stroke-miterlimit="10"/>
<path d="M29.7096 26.1705C29.6729 26.1402 29.7262 25.8726 29.9126 25.6441C30.0998 25.4158 30.1942 25.2173 30.2316 25.2476C30.2683 25.2774 30.2342 25.5237 30.046 25.7532C29.8587 25.9829 29.7461 26.2007 29.7096 26.1705Z" fill="white" stroke="white" stroke-width="0.4067" stroke-miterlimit="10"/>
<path d="M28.9 27.1138C28.864 27.0825 28.9244 26.8165 29.117 26.5933C29.3096 26.3693 29.4094 26.1738 29.4458 26.2051C29.4817 26.2359 29.441 26.4809 29.2474 26.706C29.0539 26.9301 28.9356 27.1451 28.9 27.1138Z" fill="white" stroke="white" stroke-width="0.4067" stroke-miterlimit="10"/>
<path d="M28.065 28.0354C28.0299 28.0032 28.0977 27.7389 28.2956 27.5204C28.4948 27.3024 28.5994 27.1092 28.6352 27.1414C28.6702 27.1732 28.6233 27.4172 28.4229 27.6365C28.2239 27.8561 28.0999 28.0675 28.065 28.0354Z" fill="white" stroke="white" stroke-width="0.4067" stroke-miterlimit="10"/>
<path d="M27.2058 28.9338C27.1715 28.9005 27.2462 28.6383 27.4502 28.4252C27.6551 28.2127 27.765 28.0224 27.7998 28.0557C27.8342 28.0884 27.7804 28.3312 27.5743 28.5447C27.3694 28.7589 27.2396 28.9669 27.2058 28.9338Z" fill="white" stroke="white" stroke-width="0.4067" stroke-miterlimit="10"/>
<path d="M26.3226 29.8085C26.2893 29.7743 26.3713 29.5141 26.5807 29.3068C26.7915 29.0998 26.9066 28.9126 26.9404 28.947C26.9737 28.9806 26.9135 29.2217 26.7016 29.4296C26.4911 29.638 26.3557 29.8424 26.3226 29.8085Z" fill="white" stroke="white" stroke-width="0.4067" stroke-miterlimit="10"/>
<path d="M25.4156 30.6586C25.3833 30.6237 25.4723 30.3658 25.6875 30.1642C25.9036 29.9632 26.0239 29.7791 26.0566 29.8141C26.089 29.8485 26.0223 30.0881 25.805 30.2902C25.5886 30.4929 25.4478 30.6937 25.4156 30.6586Z" fill="white" stroke="white" stroke-width="0.4067" stroke-miterlimit="10"/>
<path d="M24.4857 31.4838C24.4545 31.448 24.5505 31.1927 24.771 30.997C24.9928 30.8019 25.1177 30.6212 25.1497 30.6572C25.1812 30.6925 25.1078 30.9301 24.8851 31.1261C24.6633 31.3228 24.517 31.5194 24.4857 31.4838Z" fill="white" stroke="white" stroke-width="0.4067" stroke-miterlimit="10"/>
<path d="M23.5335 32.2826C23.5033 32.2458 23.6063 31.9932 23.832 31.804C24.0592 31.6151 24.1893 31.438 24.2202 31.4749C24.2506 31.511 24.1708 31.7466 23.9425 31.9362C23.7156 32.1268 23.5637 32.3192 23.5335 32.2826Z" fill="white" stroke="white" stroke-width="0.4067" stroke-miterlimit="10"/>
<path d="M22.5588 33.0545C22.5295 33.0169 22.6397 32.7675 22.8707 32.5845C23.103 32.4023 23.238 32.2287 23.2679 32.2664C23.2973 32.3035 23.2108 32.5365 22.9774 32.7197C22.7451 32.9038 22.5879 33.0919 22.5588 33.0545Z" fill="white" stroke="white" stroke-width="0.4067" stroke-miterlimit="10"/>
<path d="M21.5628 33.7982C21.5344 33.7597 21.6519 33.5135 21.888 33.3372C22.1254 33.1616 22.2652 32.9922 22.294 33.0308C22.3222 33.0685 22.2293 33.2991 21.9907 33.4757C21.7533 33.6529 21.5908 33.8364 21.5628 33.7982Z" fill="white" stroke="white" stroke-width="0.4067" stroke-miterlimit="10"/>
<path d="M20.5452 34.5127C20.518 34.4736 20.6425 34.2308 20.8837 34.0615C21.1259 33.893 21.2708 33.7274 21.2985 33.7668C21.3256 33.8055 21.2262 34.0333 20.9823 34.2027C20.7399 34.3732 20.5721 34.5519 20.5452 34.5127Z" fill="white" stroke="white" stroke-width="0.4067" stroke-miterlimit="10"/>
<path d="M19.5071 35.1969C19.4812 35.1569 19.6128 34.9178 19.859 34.7558C20.1063 34.5944 20.2556 34.4332 20.2823 34.4736C20.3083 34.513 20.2022 34.7377 19.9535 34.8999C19.7059 35.063 19.5328 35.2365 19.5071 35.1969Z" fill="white" stroke="white" stroke-width="0.4067" stroke-miterlimit="10"/>
<path d="M18.4486 35.8489C18.4238 35.8081 18.5629 35.5735 18.8138 35.419C19.0658 35.2653 19.2201 35.1088 19.2455 35.1497C19.2703 35.1899 19.1573 35.4115 18.9038 35.5661C18.6514 35.7214 18.4732 35.8895 18.4486 35.8489Z" fill="white" stroke="white" stroke-width="0.4067" stroke-miterlimit="10"/>
<path d="M17.3706 36.4676C17.3472 36.4262 17.4934 36.1955 17.7494 36.05C18.0054 35.9031 18.1648 35.7521 18.1888 35.7937C18.2124 35.8348 18.0925 36.0522 17.8349 36.1997C17.5772 36.3464 17.3939 36.5091 17.3706 36.4676Z" fill="white" stroke="white" stroke-width="0.4067" stroke-miterlimit="10"/>
<path d="M16.2726 37.0514C16.2506 37.0093 16.4041 36.7835 16.6648 36.6463C16.9253 36.5077 17.0894 36.3619 17.112 36.4043C17.1343 36.4462 17.0074 36.6594 16.7452 36.7988C16.483 36.9369 16.2945 37.0936 16.2726 37.0514Z" fill="white" stroke="white" stroke-width="0.4067" stroke-miterlimit="10"/>
<path d="M15.1561 37.5984C15.1354 37.5554 15.2965 37.3351 15.5616 37.2068C15.8265 37.0771 15.9955 36.9366 16.0167 36.9798C16.0376 37.0224 15.9038 37.2313 15.637 37.3619C15.3701 37.491 15.1764 37.6412 15.1561 37.5984Z" fill="white" stroke="white" stroke-width="0.4067" stroke-miterlimit="10"/>
<path d="M14.021 38.1065C14.0019 38.0628 14.1706 37.8482 14.4399 37.7291C14.7092 37.6087 14.8829 37.474 14.9025 37.5178C14.9219 37.5612 14.781 37.7655 14.5099 37.8866C14.2387 38.0065 14.04 38.15 14.021 38.1065Z" fill="white" stroke="white" stroke-width="0.4067" stroke-miterlimit="10"/>
<path d="M13.4129 38.166C13.6864 38.0546 13.8648 37.9263 13.8829 37.9709C13.9007 38.0148 13.7524 38.214 13.4777 38.3258C13.0989 38.4794 13.0355 38.3191 13.4129 38.166Z" fill="white" stroke="white" stroke-width="0.4067" stroke-miterlimit="10"/>
<path d="M11.2686 37.6265C11.3525 37.5972 11.4365 37.5674 11.5203 37.5373" stroke="white" stroke-width="1.6211" stroke-linecap="round" stroke-linejoin="round"/>
<path d="M12.1953 37.2865C17.881 35.1005 23.4234 31.141 27.9795 25.9121C32.392 20.8479 35.4971 15.0653 36.9537 9.28906" stroke="white" stroke-width="1.6211" stroke-linecap="round" stroke-linejoin="round" stroke-dasharray="4.91 6.55"/>
<path d="M37.0396 8.93908C37.0604 8.85237 37.081 8.76578 37.1011 8.67908" stroke="white" stroke-width="1.6211" stroke-linecap="round" stroke-linejoin="round"/>
<path d="M7.35161 32.8666C7.3627 32.9123 7.16259 33.0977 6.87446 33.1678C6.586 33.2376 6.2438 33.3954 6.2327 33.3491C6.22149 33.3026 6.5471 33.0695 6.83391 33.0001C7.11996 32.9305 7.34018 32.8199 7.35161 32.8666Z" fill="white" stroke="white" stroke-width="0.4067" stroke-miterlimit="10"/>
<path d="M8.40184 32.5575C8.41547 32.6028 8.22514 32.798 7.94031 32.8825C7.6547 32.9651 7.46338 33.07 7.45041 33.0243C7.43723 32.9783 7.60921 32.7988 7.89195 32.717C8.17393 32.6334 8.38789 32.5118 8.40184 32.5575Z" fill="white" stroke="white" stroke-width="0.4067" stroke-miterlimit="10"/>
<path d="M9.56031 32.1595C9.57614 32.204 9.39537 32.4083 9.11515 32.5065C8.83405 32.6031 8.64811 32.7174 8.63284 32.6723C8.61745 32.6272 8.78009 32.4394 9.05877 32.3437C9.33636 32.2463 9.54416 32.1144 9.56031 32.1595Z" fill="white" stroke="white" stroke-width="0.4067" stroke-miterlimit="10"/>
<path d="M10.6997 31.7083C10.7175 31.7522 10.5463 31.9643 10.2708 32.0751C9.99456 32.1847 9.81412 32.3077 9.79675 32.2634C9.77928 32.2188 9.93313 32.0236 10.2069 31.915C10.48 31.8051 10.6817 31.6642 10.6997 31.7083Z" fill="white" stroke="white" stroke-width="0.4067" stroke-miterlimit="10"/>
<path d="M11.8188 31.2075C11.8385 31.2506 11.6763 31.4698 11.4061 31.5925C11.1349 31.7138 10.96 31.8447 10.9407 31.8012C10.9212 31.7575 11.0663 31.5557 11.3353 31.4353C11.6033 31.3137 11.7988 31.1642 11.8188 31.2075Z" fill="white" stroke="white" stroke-width="0.4067" stroke-miterlimit="10"/>
<path d="M12.9166 30.6611C12.9381 30.7032 12.7849 30.9291 12.5199 31.0625C12.2541 31.1949 12.0849 31.333 12.0637 31.2901C12.0425 31.2473 12.1789 31.0398 12.4428 30.9082C12.7057 30.7759 12.895 30.6184 12.9166 30.6611Z" fill="white" stroke="white" stroke-width="0.4067" stroke-miterlimit="10"/>
<path d="M13.9925 30.0718C14.0156 30.113 13.8712 30.3442 13.6116 30.4882C13.3511 30.6309 13.1875 30.7755 13.1647 30.7338C13.1419 30.6918 13.27 30.4788 13.5286 30.3372C13.786 30.1946 13.9691 30.0299 13.9925 30.0718Z" fill="white" stroke="white" stroke-width="0.4067" stroke-miterlimit="10"/>
<path d="M15.0458 29.4424C15.0704 29.4827 14.9345 29.7193 14.6806 29.8727C14.4258 30.025 14.2677 30.1759 14.2433 30.1349C14.2189 30.0938 14.3389 29.8762 14.592 29.725C14.8441 29.5725 15.0209 29.4016 15.0458 29.4424Z" fill="white" stroke="white" stroke-width="0.4067" stroke-miterlimit="10"/>
<path d="M16.0753 28.7753C16.1013 28.8148 15.974 29.0561 15.7256 29.2184C15.4764 29.3799 15.3239 29.5364 15.2981 29.4963C15.2722 29.4561 15.3842 29.2342 15.6317 29.0739C15.8784 28.9127 16.0489 28.7355 16.0753 28.7753Z" fill="white" stroke="white" stroke-width="0.4067" stroke-miterlimit="10"/>
<path d="M17.0806 28.0736C17.1079 28.1123 16.989 28.3575 16.7465 28.5285C16.5031 28.6985 16.3561 28.8603 16.3289 28.8211C16.3018 28.7818 16.4058 28.5562 16.6477 28.3874C16.8886 28.2174 17.0529 28.0345 17.0806 28.0736Z" fill="white" stroke="white" stroke-width="0.4067" stroke-miterlimit="10"/>
<path d="M18.0619 27.3376C18.0904 27.3754 17.9799 27.6246 17.7433 27.8035C17.5058 27.9816 17.3644 28.1484 17.3359 28.1101C17.3074 28.0717 17.4037 27.8427 17.6398 27.6658C17.8747 27.4879 18.0329 27.2996 18.0619 27.3376Z" fill="white" stroke="white" stroke-width="0.4067" stroke-miterlimit="10"/>
<path d="M19.0187 26.5694C19.0485 26.6062 18.9464 26.8593 18.7151 27.0449C18.4844 27.2318 18.3481 27.4026 18.3186 27.3655C18.2887 27.3281 18.3779 27.0964 18.607 26.9105C18.8368 26.7261 18.9885 26.5324 19.0187 26.5694Z" fill="white" stroke="white" stroke-width="0.4067" stroke-miterlimit="10"/>
<path d="M19.9505 25.7707C19.9815 25.8063 19.8875 26.0624 19.6623 26.2556C19.4378 26.4499 19.3073 26.625 19.2764 26.5887C19.2453 26.5525 19.3268 26.3179 19.55 26.125C19.7737 25.933 19.9191 25.7346 19.9505 25.7707Z" fill="white" stroke="white" stroke-width="0.4067" stroke-miterlimit="10"/>
<path d="M20.8566 24.9425C20.8888 24.977 20.8029 25.2362 20.584 25.4363C20.3659 25.6377 20.2409 25.8167 20.2088 25.7817C20.1767 25.7464 20.2507 25.5094 20.4676 25.3093C20.6852 25.1104 20.8242 24.9074 20.8566 24.9425Z" fill="white" stroke="white" stroke-width="0.4067" stroke-miterlimit="10"/>
<path d="M21.7362 24.086C21.7694 24.1199 21.6917 24.3814 21.4792 24.5882C21.2673 24.7965 21.148 24.9794 21.1151 24.9452C21.0816 24.9108 21.1483 24.6718 21.3589 24.4649C21.5701 24.2593 21.7027 24.0521 21.7362 24.086Z" fill="white" stroke="white" stroke-width="0.4067" stroke-miterlimit="10"/>
<path d="M22.589 23.2026C22.6233 23.2354 22.5537 23.4992 22.3478 23.7126C22.1426 23.9271 22.0291 24.1139 21.995 24.0809C21.9606 24.0475 22.0198 23.8065 22.2236 23.5932C22.4283 23.381 22.5545 23.1698 22.589 23.2026Z" fill="white" stroke="white" stroke-width="0.4067" stroke-miterlimit="10"/>
<path d="M23.4138 22.2931C23.4491 22.3246 23.3878 22.5908 23.1884 22.8104C22.99 23.0312 22.8824 23.2212 22.8473 23.1893C22.8118 23.1571 22.8634 22.9142 23.0606 22.6949C23.2587 22.4764 23.3782 22.2614 23.4138 22.2931Z" fill="white" stroke="white" stroke-width="0.4067" stroke-miterlimit="10"/>
<path d="M24.2103 21.359C24.2466 21.3894 24.1932 21.6571 24.0009 21.8828C23.8092 22.1096 23.7075 22.3029 23.6713 22.2721C23.6349 22.2409 23.6791 21.9967 23.8696 21.7711C24.0609 21.5468 24.1738 21.3282 24.2103 21.359Z" fill="white" stroke="white" stroke-width="0.4067" stroke-miterlimit="10"/>
<path d="M24.979 20.4007C25.016 20.4302 24.971 20.6993 24.7854 20.9306C24.6006 21.163 24.5047 21.3594 24.4677 21.3296C24.4304 21.2996 24.4671 21.0541 24.6508 20.8231C24.8353 20.593 24.9415 20.3712 24.979 20.4007Z" fill="white" stroke="white" stroke-width="0.4067" stroke-miterlimit="10"/>
<path d="M25.7176 19.4196C25.7555 19.4479 25.7186 19.7183 25.5402 19.9552C25.3626 20.1932 25.2729 20.3925 25.2351 20.3637C25.1967 20.3348 25.2259 20.0884 25.4024 19.8518C25.5797 19.6163 25.679 19.3912 25.7176 19.4196Z" fill="white" stroke="white" stroke-width="0.4067" stroke-miterlimit="10"/>
<path d="M26.425 18.416C26.4639 18.4429 26.4356 18.7145 26.2646 18.9569C26.0946 19.2004 26.011 19.4021 25.9723 19.3747C25.9332 19.347 25.9547 19.0997 26.1237 18.8578C26.2936 18.6168 26.386 18.3886 26.425 18.416Z" fill="white" stroke="white" stroke-width="0.4067" stroke-miterlimit="10"/>
<path d="M27.1009 17.3904C27.1404 17.4161 27.1206 17.6882 26.9585 17.9365C26.795 18.1846 26.7182 18.3893 26.6786 18.363C26.6388 18.3368 26.652 18.0885 26.8142 17.842C26.9755 17.5951 27.0608 17.3643 27.1009 17.3904Z" fill="white" stroke="white" stroke-width="0.4067" stroke-miterlimit="10"/>
<path d="M27.7426 16.3435C27.7831 16.368 27.772 16.6405 27.6181 16.894C27.4628 17.1473 27.3927 17.3543 27.3521 17.3293C27.3115 17.3042 27.3167 17.0559 27.4709 16.8043C27.6239 16.5523 27.7016 16.3188 27.7426 16.3435Z" fill="white" stroke="white" stroke-width="0.4067" stroke-miterlimit="10"/>
<path d="M28.3495 15.2757C28.3907 15.2989 28.3887 15.5716 28.2431 15.8303C28.0964 16.0886 28.0333 16.2978 27.9919 16.2742C27.9505 16.2505 27.9476 16.0019 28.0933 15.7453C28.2377 15.4884 28.3077 15.2526 28.3495 15.2757Z" fill="white" stroke="white" stroke-width="0.4067" stroke-miterlimit="10"/>
<path d="M28.9194 14.1881C28.9615 14.2098 28.9689 14.4825 28.8322 14.7459C28.6945 15.0091 28.6383 15.2204 28.5963 15.1981C28.554 15.1758 28.5426 14.9275 28.6796 14.6661C28.8151 14.4046 28.8769 14.1664 28.9194 14.1881Z" fill="white" stroke="white" stroke-width="0.4067" stroke-miterlimit="10"/>
<path d="M29.4504 13.0813C29.4933 13.1014 29.5104 13.3736 29.3832 13.6418C29.2547 13.9097 29.2063 14.1227 29.1632 14.1021C29.1202 14.0814 29.1001 13.8337 29.2278 13.5677C29.3542 13.3013 29.4071 13.061 29.4504 13.0813Z" fill="white" stroke="white" stroke-width="0.4067" stroke-miterlimit="10"/>
<path d="M29.9409 11.9558C29.9844 11.9745 30.0117 12.2459 29.8943 12.5184C29.7755 12.7908 29.7347 13.0056 29.6909 12.9863C29.6473 12.9672 29.6183 12.7203 29.7362 12.4499C29.8528 12.1792 29.897 11.9371 29.9409 11.9558Z" fill="white" stroke="white" stroke-width="0.4067" stroke-miterlimit="10"/>
<path d="M30.3891 10.8127C30.4332 10.8297 30.4707 11.0998 30.3639 11.3768C30.2556 11.6536 30.2227 11.8696 30.1784 11.8521C30.134 11.8345 30.0958 11.5888 30.2033 11.3142C30.3093 11.0394 30.3443 10.7956 30.3891 10.8127Z" fill="white" stroke="white" stroke-width="0.4067" stroke-miterlimit="10"/>
<path d="M30.7914 9.65314C30.8362 9.66831 30.8845 9.93666 30.7886 10.2178C30.6911 10.4986 30.6668 10.7157 30.6218 10.7001C30.5767 10.6842 30.529 10.4404 30.6257 10.1617C30.7209 9.88282 30.7462 9.63787 30.7914 9.65314Z" fill="white" stroke="white" stroke-width="0.4067" stroke-miterlimit="10"/>
<path d="M31.1458 8.47805C31.1911 8.49135 31.2506 8.75751 31.1664 9.04234C31.0804 9.32696 31.0649 9.54487 31.0193 9.53091C30.9736 9.51706 30.9161 9.27531 31.0013 8.99289C31.0849 8.71058 31.0999 8.46476 31.1458 8.47805Z" fill="white" stroke="white" stroke-width="0.4067" stroke-miterlimit="10"/>
<path d="M31.4433 7.28942C31.489 7.3003 31.563 7.56293 31.4934 7.85183C31.4219 8.14128 31.4149 8.35909 31.3692 8.34744C31.3225 8.33557 31.2556 8.09656 31.326 7.81095C31.3951 7.52502 31.3966 7.27843 31.4433 7.28942Z" fill="white" stroke="white" stroke-width="0.4067" stroke-miterlimit="10"/>
<path d="M31.6928 6.08718C31.7393 6.09652 31.82 6.35707 31.7606 6.64751C31.7004 6.93817 31.7048 7.15696 31.6581 7.14707C31.6114 7.1374 31.5319 6.90201 31.5918 6.61278C31.651 6.32355 31.646 6.07773 31.6928 6.08718Z" fill="white" stroke="white" stroke-width="0.4067" stroke-miterlimit="10"/>
<path d="M31.916 4.8782C31.9626 4.88655 32.0491 5.14535 31.996 5.43688C31.9424 5.72875 31.952 5.94743 31.9049 5.93864C31.858 5.92996 31.7732 5.69633 31.8267 5.40578C31.8795 5.11546 31.8691 4.86974 31.916 4.8782Z" fill="white" stroke="white" stroke-width="0.4067" stroke-miterlimit="10"/>
<path d="M32.0906 3.78215C32.1372 3.7894 32.2303 4.04566 32.1847 4.33863C32.1377 4.63171 32.1531 4.84984 32.1059 4.84237C32.0587 4.8349 31.9678 4.60358 32.0144 4.31171C32.0599 4.0205 32.0433 3.77468 32.0906 3.78215Z" fill="white" stroke="white" stroke-width="0.4067" stroke-miterlimit="10"/>
<path d="M7.55714 33.7338C7.56835 33.7795 7.36814 33.9648 7.08 34.0348C6.56934 34.1584 6.53044 33.9905 7.03934 33.8673C7.3255 33.7977 7.54572 33.6871 7.55714 33.7338Z" fill="white" stroke="white" stroke-width="0.4067" stroke-miterlimit="10"/>
<path d="M8.62065 33.4226C8.63428 33.468 8.44362 33.663 8.15868 33.747C7.87307 33.8293 7.68164 33.934 7.66868 33.8883C7.65549 33.8424 7.82758 33.6629 8.11054 33.5815C8.39263 33.4981 8.60681 33.3769 8.62065 33.4226Z" fill="white" stroke="white" stroke-width="0.4067" stroke-miterlimit="10"/>
<path d="M9.79627 33.0217C9.81198 33.0662 9.63077 33.2701 9.35023 33.3675C9.06902 33.4636 8.88286 33.5778 8.8677 33.5327C8.85231 33.4872 9.01539 33.2998 9.29418 33.2047C9.57209 33.1079 9.78022 32.9767 9.79627 33.0217Z" fill="white" stroke="white" stroke-width="0.4067" stroke-miterlimit="10"/>
<path d="M10.9527 32.5675C10.9705 32.6113 10.7985 32.823 10.5227 32.933C10.2462 33.0417 10.0655 33.1644 10.0482 33.1199C10.0308 33.0755 10.1851 32.8805 10.4592 32.7726C10.7327 32.6636 10.9348 32.5232 10.9527 32.5675Z" fill="white" stroke="white" stroke-width="0.4067" stroke-miterlimit="10"/>
<path d="M12.0892 32.0638C12.1088 32.107 11.9458 32.3256 11.6751 32.4472C11.4035 32.5679 11.2283 32.6981 11.2092 32.6545C11.19 32.6108 11.3356 32.4095 11.6049 32.29C11.8734 32.1691 12.0694 32.0204 12.0892 32.0638Z" fill="white" stroke="white" stroke-width="0.4067" stroke-miterlimit="10"/>
<path d="M13.2043 31.5142C13.2256 31.5565 13.0714 31.7814 12.8059 31.914C12.5394 32.0453 12.3698 32.1828 12.3488 32.1401C12.3278 32.0971 12.4649 31.8901 12.7293 31.7596C12.9928 31.628 13.1826 31.4716 13.2043 31.5142Z" fill="white" stroke="white" stroke-width="0.4067" stroke-miterlimit="10"/>
<path d="M14.298 30.9215C14.3208 30.9629 14.1754 31.1937 13.9153 31.3363C13.6543 31.478 13.4899 31.6219 13.4674 31.5801C13.4447 31.5379 13.5737 31.3257 13.8329 31.1849C14.091 31.0432 14.2748 30.8797 14.298 30.9215Z" fill="white" stroke="white" stroke-width="0.4067" stroke-miterlimit="10"/>
<path d="M15.3687 30.2886C15.3931 30.3291 15.2563 30.5649 15.0016 30.7171C14.7461 30.8684 14.5872 31.0184 14.5631 30.9774C14.5388 30.9363 14.6598 30.719 14.9135 30.5688C15.1664 30.4179 15.344 30.2477 15.3687 30.2886Z" fill="white" stroke="white" stroke-width="0.4067" stroke-miterlimit="10"/>
<path d="M16.416 29.6178C16.4419 29.6574 16.3133 29.898 16.0642 30.0592C15.8142 30.2193 15.661 30.3752 15.6354 30.3349C15.6098 30.2947 15.7226 30.0734 15.971 29.9143C16.2184 29.754 16.39 29.5777 16.416 29.6178Z" fill="white" stroke="white" stroke-width="0.4067" stroke-miterlimit="10"/>
<path d="M17.4389 28.9115C17.4661 28.9504 17.3458 29.195 17.1025 29.3647C16.8582 29.5335 16.7104 29.6946 16.6833 29.6553C16.6563 29.616 16.7616 29.3908 17.0043 29.2231C17.2461 29.0546 17.4115 28.8725 17.4389 28.9115Z" fill="white" stroke="white" stroke-width="0.4067" stroke-miterlimit="10"/>
<path d="M18.4381 28.1711C18.4666 28.2089 18.3545 28.4575 18.117 28.6351C17.8786 28.8121 17.7362 28.978 17.7079 28.9395C17.6795 28.9013 17.7771 28.6727 18.0142 28.497C18.2501 28.3205 18.4092 28.1329 18.4381 28.1711Z" fill="white" stroke="white" stroke-width="0.4067" stroke-miterlimit="10"/>
<path d="M19.4128 27.3981C19.4425 27.4349 19.3389 27.6873 19.1064 27.8718C18.8747 28.0573 18.7375 28.2273 18.7081 28.1901C18.6784 28.1525 18.7689 27.9214 18.9991 27.7369C19.23 27.5536 19.3828 27.3608 19.4128 27.3981Z" fill="white" stroke="white" stroke-width="0.4067" stroke-miterlimit="10"/>
<path d="M20.3624 26.5939C20.3931 26.6299 20.2976 26.8856 20.0714 27.0771C19.8458 27.2702 19.7141 27.4446 19.6835 27.4082C19.6526 27.3715 19.7354 27.1376 19.9598 26.9458C20.1847 26.7554 20.3313 26.5577 20.3624 26.5939Z" fill="white" stroke="white" stroke-width="0.4067" stroke-miterlimit="10"/>
<path d="M21.2866 25.7601C21.3184 25.795 21.231 26.0535 21.0107 26.2523C20.7915 26.4521 20.6654 26.6307 20.6335 26.5952C20.6015 26.5598 20.677 26.3232 20.895 26.1246C21.1138 25.927 21.2543 25.7249 21.2866 25.7601Z" fill="white" stroke="white" stroke-width="0.4067" stroke-miterlimit="10"/>
<path d="M22.1838 24.8977C22.2168 24.9315 22.1375 25.1927 21.9236 25.3982C21.7105 25.6048 21.59 25.7872 21.5573 25.753C21.524 25.7183 21.5921 25.4798 21.8039 25.2743C22.0166 25.0699 22.1504 24.8634 22.1838 24.8977Z" fill="white" stroke="white" stroke-width="0.4067" stroke-miterlimit="10"/>
<path d="M23.0541 24.0077C23.0881 24.0406 23.0166 24.304 22.8094 24.516C22.6028 24.7294 22.4882 24.9154 22.4543 24.8821C22.42 24.8484 22.4807 24.6078 22.6861 24.3958C22.8922 24.185 23.0197 23.9746 23.0541 24.0077Z" fill="white" stroke="white" stroke-width="0.4067" stroke-miterlimit="10"/>
<path d="M23.8966 23.0917C23.9316 23.1234 23.8685 23.389 23.6678 23.6073C23.4678 23.8268 23.3589 24.0162 23.324 23.984C23.2889 23.9514 23.3421 23.709 23.5407 23.4908C23.7404 23.2737 23.8611 23.0595 23.8966 23.0917Z" fill="white" stroke="white" stroke-width="0.4067" stroke-miterlimit="10"/>
<path d="M24.7116 22.1488C24.7476 22.1794 24.6924 22.4468 24.4992 22.6718C24.3051 22.8965 24.2026 23.0895 24.1666 23.0584C24.1306 23.0271 24.1758 22.7827 24.3687 22.5593C24.5607 22.3356 24.6751 22.1178 24.7116 22.1488Z" fill="white" stroke="white" stroke-width="0.4067" stroke-miterlimit="10"/>
<path d="M25.4968 21.1842C25.5336 21.2138 25.4864 21.4827 25.2994 21.7128C25.1131 21.944 25.0158 22.1397 24.9791 22.1096C24.942 22.0793 24.9803 21.834 25.1654 21.6041C25.3516 21.3756 25.4594 21.1544 25.4968 21.1842Z" fill="white" stroke="white" stroke-width="0.4067" stroke-miterlimit="10"/>
<path d="M26.2527 20.195C26.2904 20.2236 26.2514 20.4937 26.0715 20.7292C25.8923 20.9659 25.8011 21.1645 25.7634 21.1356C25.7255 21.1064 25.7562 20.8601 25.9345 20.6248C26.1134 20.3908 26.2146 20.1664 26.2527 20.195Z" fill="white" stroke="white" stroke-width="0.4067" stroke-miterlimit="10"/>
<path d="M26.9783 19.1831C27.017 19.2104 26.9864 19.4816 26.8137 19.7227C26.6417 19.9649 26.5567 20.166 26.5181 20.1382C26.4793 20.1103 26.5026 19.8633 26.6734 19.6225C26.8452 19.383 26.9392 19.1555 26.9783 19.1831Z" fill="white" stroke="white" stroke-width="0.4067" stroke-miterlimit="10"/>
<path d="M27.6715 18.149C27.711 18.175 27.6888 18.447 27.5246 18.694C27.3592 18.9406 27.281 19.1449 27.2415 19.1181C27.2019 19.0915 27.2169 18.8434 27.3813 18.5982C27.5445 18.3527 27.6318 18.1227 27.6715 18.149Z" fill="white" stroke="white" stroke-width="0.4067" stroke-miterlimit="10"/>
<path d="M28.332 17.0933C28.3721 17.1182 28.3587 17.3906 28.2023 17.6428C28.045 17.8947 27.9733 18.1013 27.933 18.0758C27.8925 18.0504 27.8998 17.802 28.0561 17.5516C28.2114 17.301 28.2912 17.0683 28.332 17.0933Z" fill="white" stroke="white" stroke-width="0.4067" stroke-miterlimit="10"/>
<path d="M28.9568 16.0167C28.9979 16.0402 28.9934 16.3128 28.8455 16.5701C28.6965 16.827 28.6313 17.0357 28.5902 17.0117C28.549 16.9876 28.5481 16.7392 28.6963 16.4838C28.8433 16.2282 28.9152 15.993 28.9568 16.0167Z" fill="white" stroke="white" stroke-width="0.4067" stroke-miterlimit="10"/>
<path d="M29.5459 14.9198C29.5877 14.9419 29.5924 15.2147 29.4532 15.4767C29.313 15.7385 29.2548 15.9492 29.2129 15.9266C29.1708 15.9038 29.1618 15.6555 29.3012 15.3955C29.4395 15.1352 29.5036 14.8976 29.5459 14.9198Z" fill="white" stroke="white" stroke-width="0.4067" stroke-miterlimit="10"/>
<path d="M30.0962 13.8033C30.1388 13.8239 30.1529 14.0962 30.0228 14.363C29.8917 14.6295 29.8407 14.8422 29.798 14.8209C29.7553 14.7997 29.7377 14.5518 29.8682 14.2871C29.9973 14.0223 30.0531 13.7825 30.0962 13.8033Z" fill="white" stroke="white" stroke-width="0.4067" stroke-miterlimit="10"/>
<path d="M30.6071 12.668C30.6505 12.6871 30.6744 12.9588 30.554 13.2301C30.4322 13.5011 30.3889 13.7154 30.3455 13.6956C30.302 13.6758 30.2757 13.4288 30.3968 13.1596C30.5162 12.8904 30.5633 12.6489 30.6071 12.668Z" fill="white" stroke="white" stroke-width="0.4067" stroke-miterlimit="10"/>
<path d="M31.0749 11.5148C31.1189 11.5323 31.1531 11.8028 31.0426 12.0784C30.931 12.3538 30.8955 12.5695 30.8515 12.5515C30.8073 12.5335 30.7721 12.2874 30.8829 12.014C30.9925 11.7404 31.0305 11.4973 31.0749 11.5148Z" fill="white" stroke="white" stroke-width="0.4067" stroke-miterlimit="10"/>
<path d="M31.4996 10.3448C31.5441 10.3606 31.5886 10.6296 31.4889 10.9094C31.3877 11.1887 31.3606 11.4057 31.3157 11.3892C31.2709 11.3729 31.2264 11.1283 31.3269 10.8509C31.4258 10.5735 31.4545 10.329 31.4996 10.3448Z" fill="white" stroke="white" stroke-width="0.4067" stroke-miterlimit="10"/>
<path d="M31.8766 9.15896C31.9218 9.17292 31.9771 9.43995 31.8885 9.72347C31.7987 10.0067 31.7799 10.2246 31.7345 10.21C31.6892 10.1952 31.6351 9.95281 31.7242 9.67171C31.812 9.39028 31.831 9.1449 31.8766 9.15896Z" fill="white" stroke="white" stroke-width="0.4067" stroke-miterlimit="10"/>
<path d="M32.204 7.959C32.2493 7.97087 32.3172 8.2357 32.2395 8.5223C32.1619 8.80933 32.1518 9.02757 32.1061 9.01482C32.0598 9.00219 31.9961 8.76197 32.0731 8.47724C32.1502 8.19318 32.1574 7.94669 32.204 7.959Z" fill="white" stroke="white" stroke-width="0.4067" stroke-miterlimit="10"/>
<path d="M32.481 6.74622C32.5273 6.75644 32.6043 7.01808 32.5396 7.30764C32.4737 7.59742 32.4732 7.816 32.427 7.80523C32.3803 7.79446 32.306 7.55731 32.3716 7.26973C32.4358 6.98204 32.4343 6.736 32.481 6.74622Z" fill="white" stroke="white" stroke-width="0.4067" stroke-miterlimit="10"/>
<path d="M32.713 5.52328C32.7596 5.53174 32.8464 5.79031 32.7926 6.08229C32.7372 6.37427 32.7449 6.59273 32.6982 6.58372C32.6511 6.57471 32.5682 6.34053 32.6231 6.05064C32.6766 5.76075 32.6661 5.51493 32.713 5.52328Z" fill="white" stroke="white" stroke-width="0.4067" stroke-miterlimit="10"/>
<path d="M32.8776 4.41316C32.9242 4.41997 33.0209 4.67481 32.9789 4.96865C32.9354 5.2625 32.9528 5.48019 32.9056 5.47338C32.8584 5.46646 32.7653 5.23591 32.8085 4.94393C32.8501 4.65217 32.83 4.40646 32.8776 4.41316Z" fill="white" stroke="white" stroke-width="0.4067" stroke-miterlimit="10"/>
<path d="M34.1111 5.24512C34.0994 5.33325 34.0872 5.42138 34.0747 5.50973" stroke="white" stroke-width="1.6211" stroke-linecap="round" stroke-linejoin="round"/>
<path d="M33.9656 6.20862C32.9603 12.1517 29.915 18.2676 25.2952 23.5695C20.3506 29.2444 14.1938 33.27 8.10645 34.8728" stroke="white" stroke-width="1.6211" stroke-linecap="round" stroke-linejoin="round" stroke-dasharray="4.83 6.44"/>
<path d="M7.76336 34.9608C7.67687 34.9822 7.59039 35.0033 7.50391 35.0237C7.51039 35.0295 7.51665 35.0351 7.52314 35.041" stroke="white" stroke-width="1.6211" stroke-linecap="round" stroke-linejoin="round"/>
</g>
<defs>
<linearGradient id="paint0_linear_211_1521" x1="19.9522" y1="8.95607" x2="20.6886" y2="39.9611" gradientUnits="userSpaceOnUse">
<stop stop-color="#E74F55"/>
<stop offset="1" stop-color="#B00F15"/>
</linearGradient>
<radialGradient id="paint1_radial_211_1521" cx="0" cy="0" r="1" gradientUnits="userSpaceOnUse" gradientTransform="translate(21.5838 20.8219) scale(14.8411 14.8521)">
<stop stop-color="#ED1C24"/>
<stop offset="0.182" stop-color="#E31F26"/>
<stop offset="0.6893" stop-color="#CA252B"/>
<stop offset="1" stop-color="#C1272D"/>
</radialGradient>
<clipPath id="clip0_211_1521">
<rect width="40" height="40" fill="white" transform="translate(0.666504)"/>
</clipPath>
</defs>
</svg>
