<svg width="41" height="40" viewBox="0 0 41 40" fill="none" xmlns="http://www.w3.org/2000/svg">
<g clip-path="url(#clip0_725_128)">
<path fill-rule="evenodd" clip-rule="evenodd" d="M40.2803 19.9994C40.2962 22.6291 39.7921 25.2359 38.7968 27.67C37.8015 30.1041 36.3348 32.3174 34.4809 34.1826C32.6271 36.0477 30.4227 37.5279 27.9947 38.5379C25.5667 39.5479 22.9629 40.0679 20.3332 40.0679C17.7035 40.0679 15.0997 39.5479 12.6717 38.5379C10.2437 37.5279 8.03932 36.0477 6.18547 34.1826C4.33163 32.3174 2.86487 30.1041 1.86959 27.67C0.874311 25.2359 0.370148 22.6291 0.38611 19.9994C0.370148 17.3697 0.874311 14.7628 1.86959 12.3287C2.86487 9.89461 4.33163 7.68132 6.18547 5.81619C8.03932 3.95106 10.2437 2.4709 12.6717 1.46086C15.0997 0.450824 17.7035 -0.0691528 20.3332 -0.0691528C22.9629 -0.0691528 25.5667 0.450824 27.9947 1.46086C30.4227 2.4709 32.6271 3.95106 34.4809 5.81619C36.3348 7.68132 37.8015 9.89461 38.7968 12.3287C39.7921 14.7628 40.2962 17.3697 40.2803 19.9994Z" fill="url(#paint0_radial_725_128)"/>
<path fill-rule="evenodd" clip-rule="evenodd" d="M28.0592 1.47943C29.0455 1.91779 29.3742 2.02738 30.3605 2.63012C30.9248 9.24924 30.3503 15.1884 28.7714 20.6575C26.6737 26.5695 24.0043 30.0274 22.8536 35.8356C22.8027 36.7452 22.9027 38.9671 23.3468 39.8356C22.4701 40 22.2509 40 21.703 40C21.4208 38.9761 21.3206 37.8654 21.4092 36.8826C21.9225 33.1359 23.3422 30.2941 25.1743 26.8774C26.3344 24.5659 26.9995 22.2544 27.9124 19.9429C29.022 16.5083 29.0105 10.6642 28.0592 1.47943Z" fill="#F7F7F7"/>
</g>
<defs>
<radialGradient id="paint0_radial_725_128" cx="0" cy="0" r="1" gradientUnits="userSpaceOnUse" gradientTransform="translate(32.0044 19.9452) rotate(175.51) scale(34.297 21.3364)">
<stop stop-color="#F2E555"/>
<stop offset="1" stop-color="#DCCC26"/>
</radialGradient>
<clipPath id="clip0_725_128">
<rect width="40" height="40" fill="white" transform="translate(0.333008)"/>
</clipPath>
</defs>
</svg>
