<svg width="40" height="40" viewBox="0 0 40 40" fill="none" xmlns="http://www.w3.org/2000/svg">
<path fill-rule="evenodd" clip-rule="evenodd" d="M39.9996 20C40.0156 22.6207 39.5101 25.2187 38.5122 27.6445C37.5143 30.0703 36.0437 32.276 34.185 34.1347C32.3263 35.9935 30.1161 37.4686 27.6817 38.4752C25.2473 39.4818 22.6367 40 20 40C17.3633 40 14.7527 39.4818 12.3183 38.4752C9.88389 37.4686 7.67374 35.9935 5.81501 34.1347C3.95628 32.276 2.48566 30.0703 1.48776 27.6445C0.489856 25.2187 -0.0156353 22.6207 0.00036845 20C-0.0156353 17.3793 0.489856 14.7813 1.48776 12.3555C2.48566 9.92974 3.95628 7.72401 5.81501 5.86525C7.67374 4.00649 9.88389 2.53138 12.3183 1.52479C14.7527 0.518201 17.3633 0 20 0C22.6367 0 25.2473 0.518201 27.6817 1.52479C30.1161 2.53138 32.3263 4.00649 34.185 5.86525C36.0437 7.72401 37.5143 9.92974 38.5122 12.3555C39.5101 14.7813 40.0156 17.3793 39.9996 20Z" fill="url(#paint0_radial_725_859)"/>
<path fill-rule="evenodd" clip-rule="evenodd" d="M6.47164 34.6624C5.98188 34.2574 5.62997 33.835 5.2168 33.3988C7.24018 33.4334 8.73869 32.9287 10.563 31.6758C12.0889 30.7197 14.0738 25.082 13.3107 19.9716C12.813 15.5865 11.9102 16.4204 10.8451 9.81311C10.3809 7.27418 10.8563 3.7635 14.3726 0.928228C15.3335 0.658237 15.7278 0.555662 17.301 0.300903C11.4463 4.25574 12.0965 7.5054 12.4744 10.044C12.6733 13.6377 14.6157 15.4732 15.1134 20.0304C15.8762 25.3129 13.4879 31.6852 11.9621 32.6413C10.1378 33.8938 8.49488 34.6935 6.47133 34.6624L6.47164 34.6624Z" fill="#F7F7F7"/>
<path fill-rule="evenodd" clip-rule="evenodd" d="M35.7112 7.68622C36.2047 8.2557 36.4789 8.63823 36.9097 9.33164C37.3381 14.3448 37.5164 18.6115 36.3176 22.7537C34.7249 27.2312 31.3165 32.5179 31.7268 33.9459C31.6881 34.6348 31.6495 35.3549 31.9866 36.0126C31.6112 36.1857 31.2671 36.4834 30.892 36.6531C30.6778 35.8776 30.6199 35.0364 30.6872 34.2921C31.0769 31.4544 32.1549 29.3021 33.5459 26.7144C34.4267 24.9637 34.9318 23.213 35.6248 21.4624C36.4674 18.8611 36.4336 14.6425 35.7112 7.68622Z" fill="#F7F7F7"/>
<defs>
<radialGradient id="paint0_radial_725_859" cx="0" cy="0" r="1" gradientUnits="userSpaceOnUse" gradientTransform="translate(19.9998 11.9385) rotate(36.8781) scale(32.108 19.9412)">
<stop stop-color="#BEE57C"/>
<stop offset="1" stop-color="#A6D904"/>
</radialGradient>
</defs>
</svg>
